<svg width="115" height="80" viewBox="0 0 115 80" fill="none" xmlns="http://www.w3.org/2000/svg">
<rect width="115" height="80" rx="8" fill="black"/>
<path d="M35.564 44L37.148 35.48H38.012L36.428 44H35.564ZM32.6 41.636L32.744 40.796H38.12L37.976 41.636H32.6ZM33.2 44L34.784 35.48H35.648L34.064 44H33.2ZM33.08 38.72L33.224 37.88H38.6L38.456 38.72H33.08ZM40.6353 42.776L43.9953 36.656L44.9553 36.704L41.5953 42.824L40.6353 42.776ZM42.7953 44.192C42.1793 44.192 41.6433 44.012 41.1873 43.652C40.7393 43.292 40.3953 42.78 40.1553 42.116C39.9153 41.452 39.7953 40.664 39.7953 39.752C39.7953 38.832 39.9153 38.04 40.1553 37.376C40.3953 36.712 40.7393 36.2 41.1873 35.84C41.6433 35.472 42.1793 35.288 42.7953 35.288C43.4193 35.288 43.9553 35.472 44.4033 35.84C44.8513 36.2 45.1953 36.712 45.4353 37.376C45.6753 38.04 45.7953 38.832 45.7953 39.752C45.7953 40.664 45.6753 41.452 45.4353 42.116C45.1953 42.78 44.8513 43.292 44.4033 43.652C43.9553 44.012 43.4193 44.192 42.7953 44.192ZM42.7953 43.184C43.1953 43.184 43.5353 43.044 43.8153 42.764C44.1033 42.484 44.3233 42.088 44.4753 41.576C44.6353 41.056 44.7153 40.448 44.7153 39.752C44.7153 39.04 44.6353 38.428 44.4753 37.916C44.3233 37.396 44.1033 36.996 43.8153 36.716C43.5353 36.436 43.1953 36.296 42.7953 36.296C42.4033 36.296 42.0633 36.436 41.7753 36.716C41.4873 36.996 41.2633 37.396 41.1033 37.916C40.9513 38.428 40.8753 39.04 40.8753 39.752C40.8753 40.448 40.9513 41.056 41.1033 41.576C41.2633 42.088 41.4873 42.484 41.7753 42.764C42.0633 43.044 42.4033 43.184 42.7953 43.184ZM47.8306 42.776L51.1906 36.656L52.1506 36.704L48.7906 42.824L47.8306 42.776ZM49.9906 44.192C49.3746 44.192 48.8386 44.012 48.3826 43.652C47.9346 43.292 47.5906 42.78 47.3506 42.116C47.1106 41.452 46.9906 40.664 46.9906 39.752C46.9906 38.832 47.1106 38.04 47.3506 37.376C47.5906 36.712 47.9346 36.2 48.3826 35.84C48.8386 35.472 49.3746 35.288 49.9906 35.288C50.6146 35.288 51.1506 35.472 51.5986 35.84C52.0466 36.2 52.3906 36.712 52.6306 37.376C52.8706 38.04 52.9906 38.832 52.9906 39.752C52.9906 40.664 52.8706 41.452 52.6306 42.116C52.3906 42.78 52.0466 43.292 51.5986 43.652C51.1506 44.012 50.6146 44.192 49.9906 44.192ZM49.9906 43.184C50.3906 43.184 50.7306 43.044 51.0106 42.764C51.2986 42.484 51.5186 42.088 51.6706 41.576C51.8306 41.056 51.9106 40.448 51.9106 39.752C51.9106 39.04 51.8306 38.428 51.6706 37.916C51.5186 37.396 51.2986 36.996 51.0106 36.716C50.7306 36.436 50.3906 36.296 49.9906 36.296C49.5986 36.296 49.2586 36.436 48.9706 36.716C48.6826 36.996 48.4586 37.396 48.2986 37.916C48.1466 38.428 48.0706 39.04 48.0706 39.752C48.0706 40.448 48.1466 41.056 48.2986 41.576C48.4586 42.088 48.6826 42.484 48.9706 42.764C49.2586 43.044 49.5986 43.184 49.9906 43.184ZM55.0259 42.776L58.3859 36.656L59.3459 36.704L55.9859 42.824L55.0259 42.776ZM57.1859 44.192C56.5699 44.192 56.0339 44.012 55.5779 43.652C55.1299 43.292 54.7859 42.78 54.5459 42.116C54.3059 41.452 54.1859 40.664 54.1859 39.752C54.1859 38.832 54.3059 38.04 54.5459 37.376C54.7859 36.712 55.1299 36.2 55.5779 35.84C56.0339 35.472 56.5699 35.288 57.1859 35.288C57.8099 35.288 58.3459 35.472 58.7939 35.84C59.2419 36.2 59.5859 36.712 59.8259 37.376C60.0659 38.04 60.1859 38.832 60.1859 39.752C60.1859 40.664 60.0659 41.452 59.8259 42.116C59.5859 42.78 59.2419 43.292 58.7939 43.652C58.3459 44.012 57.8099 44.192 57.1859 44.192ZM57.1859 43.184C57.5859 43.184 57.9259 43.044 58.2059 42.764C58.4939 42.484 58.7139 42.088 58.8659 41.576C59.0259 41.056 59.1059 40.448 59.1059 39.752C59.1059 39.04 59.0259 38.428 58.8659 37.916C58.7139 37.396 58.4939 36.996 58.2059 36.716C57.9259 36.436 57.5859 36.296 57.1859 36.296C56.7939 36.296 56.4539 36.436 56.1659 36.716C55.8779 36.996 55.6539 37.396 55.4939 37.916C55.3419 38.428 55.2659 39.04 55.2659 39.752C55.2659 40.448 55.3419 41.056 55.4939 41.576C55.6539 42.088 55.8779 42.484 56.1659 42.764C56.4539 43.044 56.7939 43.184 57.1859 43.184ZM62.2213 42.776L65.5813 36.656L66.5413 36.704L63.1813 42.824L62.2213 42.776ZM64.3813 44.192C63.7653 44.192 63.2293 44.012 62.7733 43.652C62.3253 43.292 61.9813 42.78 61.7413 42.116C61.5013 41.452 61.3813 40.664 61.3813 39.752C61.3813 38.832 61.5013 38.04 61.7413 37.376C61.9813 36.712 62.3253 36.2 62.7733 35.84C63.2293 35.472 63.7653 35.288 64.3813 35.288C65.0053 35.288 65.5413 35.472 65.9893 35.84C66.4373 36.2 66.7813 36.712 67.0213 37.376C67.2613 38.04 67.3813 38.832 67.3813 39.752C67.3813 40.664 67.2613 41.452 67.0213 42.116C66.7813 42.78 66.4373 43.292 65.9893 43.652C65.5413 44.012 65.0053 44.192 64.3813 44.192ZM64.3813 43.184C64.7813 43.184 65.1213 43.044 65.4013 42.764C65.6893 42.484 65.9093 42.088 66.0613 41.576C66.2213 41.056 66.3013 40.448 66.3013 39.752C66.3013 39.04 66.2213 38.428 66.0613 37.916C65.9093 37.396 65.6893 36.996 65.4013 36.716C65.1213 36.436 64.7813 36.296 64.3813 36.296C63.9893 36.296 63.6493 36.436 63.3613 36.716C63.0733 36.996 62.8493 37.396 62.6893 37.916C62.5373 38.428 62.4613 39.04 62.4613 39.752C62.4613 40.448 62.5373 41.056 62.6893 41.576C62.8493 42.088 63.0733 42.484 63.3613 42.764C63.6493 43.044 63.9893 43.184 64.3813 43.184ZM69.4166 42.776L72.7766 36.656L73.7366 36.704L70.3766 42.824L69.4166 42.776ZM71.5766 44.192C70.9606 44.192 70.4246 44.012 69.9686 43.652C69.5206 43.292 69.1766 42.78 68.9366 42.116C68.6966 41.452 68.5766 40.664 68.5766 39.752C68.5766 38.832 68.6966 38.04 68.9366 37.376C69.1766 36.712 69.5206 36.2 69.9686 35.84C70.4246 35.472 70.9606 35.288 71.5766 35.288C72.2006 35.288 72.7366 35.472 73.1846 35.84C73.6326 36.2 73.9766 36.712 74.2166 37.376C74.4566 38.04 74.5766 38.832 74.5766 39.752C74.5766 40.664 74.4566 41.452 74.2166 42.116C73.9766 42.78 73.6326 43.292 73.1846 43.652C72.7366 44.012 72.2006 44.192 71.5766 44.192ZM71.5766 43.184C71.9766 43.184 72.3166 43.044 72.5966 42.764C72.8846 42.484 73.1046 42.088 73.2566 41.576C73.4166 41.056 73.4966 40.448 73.4966 39.752C73.4966 39.04 73.4166 38.428 73.2566 37.916C73.1046 37.396 72.8846 36.996 72.5966 36.716C72.3166 36.436 71.9766 36.296 71.5766 36.296C71.1846 36.296 70.8446 36.436 70.5566 36.716C70.2686 36.996 70.0446 37.396 69.8846 37.916C69.7326 38.428 69.6566 39.04 69.6566 39.752C69.6566 40.448 69.7326 41.056 69.8846 41.576C70.0446 42.088 70.2686 42.484 70.5566 42.764C70.8446 43.044 71.1846 43.184 71.5766 43.184ZM76.6119 42.776L79.9719 36.656L80.9319 36.704L77.5719 42.824L76.6119 42.776ZM78.7719 44.192C78.1559 44.192 77.6199 44.012 77.1639 43.652C76.7159 43.292 76.3719 42.78 76.1319 42.116C75.8919 41.452 75.7719 40.664 75.7719 39.752C75.7719 38.832 75.8919 38.04 76.1319 37.376C76.3719 36.712 76.7159 36.2 77.1639 35.84C77.6199 35.472 78.1559 35.288 78.7719 35.288C79.3959 35.288 79.9319 35.472 80.3799 35.84C80.8279 36.2 81.1719 36.712 81.4119 37.376C81.6519 38.04 81.7719 38.832 81.7719 39.752C81.7719 40.664 81.6519 41.452 81.4119 42.116C81.1719 42.78 80.8279 43.292 80.3799 43.652C79.9319 44.012 79.3959 44.192 78.7719 44.192ZM78.7719 43.184C79.1719 43.184 79.5119 43.044 79.7919 42.764C80.0799 42.484 80.2999 42.088 80.4519 41.576C80.6119 41.056 80.6919 40.448 80.6919 39.752C80.6919 39.04 80.6119 38.428 80.4519 37.916C80.2999 37.396 80.0799 36.996 79.7919 36.716C79.5119 36.436 79.1719 36.296 78.7719 36.296C78.3799 36.296 78.0399 36.436 77.7519 36.716C77.4639 36.996 77.2399 37.396 77.0799 37.916C76.9279 38.428 76.8519 39.04 76.8519 39.752C76.8519 40.448 76.9279 41.056 77.0799 41.576C77.2399 42.088 77.4639 42.484 77.7519 42.764C78.0399 43.044 78.3799 43.184 78.7719 43.184Z" fill="white"/>
</svg>
