<svg width="115" height="80" viewBox="0 0 115 80" fill="none" xmlns="http://www.w3.org/2000/svg">
<rect width="115" height="80" rx="8" fill="#0E1013"/>
<path d="M35.564 44L37.148 35.48H38.012L36.428 44H35.564ZM32.6 41.636L32.744 40.796H38.12L37.976 41.636H32.6ZM33.2 44L34.784 35.48H35.648L34.064 44H33.2ZM33.08 38.72L33.224 37.88H38.6L38.456 38.72H33.08ZM40.6353 42.776L43.9953 36.656L44.9553 36.704L41.5953 42.824L40.6353 42.776ZM42.7953 44.192C42.1793 44.192 41.6433 44.012 41.1873 43.652C40.7393 43.292 40.3953 42.78 40.1553 42.116C39.9153 41.452 39.7953 40.664 39.7953 39.752C39.7953 38.832 39.9153 38.04 40.1553 37.376C40.3953 36.712 40.7393 36.2 41.1873 35.84C41.6433 35.472 42.1793 35.288 42.7953 35.288C43.4193 35.288 43.9553 35.472 44.4033 35.84C44.8513 36.2 45.1953 36.712 45.4353 37.376C45.6753 38.04 45.7953 38.832 45.7953 39.752C45.7953 40.664 45.6753 41.452 45.4353 42.116C45.1953 42.78 44.8513 43.292 44.4033 43.652C43.9553 44.012 43.4193 44.192 42.7953 44.192ZM42.7953 43.184C43.1953 43.184 43.5353 43.044 43.8153 42.764C44.1033 42.484 44.3233 42.088 44.4753 41.576C44.6353 41.056 44.7153 40.448 44.7153 39.752C44.7153 39.04 44.6353 38.428 44.4753 37.916C44.3233 37.396 44.1033 36.996 43.8153 36.716C43.5353 36.436 43.1953 36.296 42.7953 36.296C42.4033 36.296 42.0633 36.436 41.7753 36.716C41.4873 36.996 41.2633 37.396 41.1033 37.916C40.9513 38.428 40.8753 39.04 40.8753 39.752C40.8753 40.448 40.9513 41.056 41.1033 41.576C41.2633 42.088 41.4873 42.484 41.7753 42.764C42.0633 43.044 42.4033 43.184 42.7953 43.184ZM50.0986 44.144C49.4986 44.144 48.9786 44.008 48.5386 43.736C48.1066 43.464 47.7706 43.08 47.5306 42.584C47.2986 42.08 47.1826 41.492 47.1826 40.82C47.1826 40.148 47.2986 39.564 47.5306 39.068C47.7706 38.572 48.1026 38.188 48.5266 37.916C48.9586 37.636 49.4666 37.496 50.0506 37.496C50.6026 37.496 51.0906 37.628 51.5146 37.892C51.9386 38.148 52.2706 38.524 52.5106 39.02C52.7506 39.516 52.8706 40.12 52.8706 40.832V41.132H48.2386C48.2786 41.812 48.4586 42.324 48.7786 42.668C49.1066 43.012 49.5466 43.184 50.0986 43.184C50.5146 43.184 50.8546 43.088 51.1186 42.896C51.3906 42.696 51.5786 42.436 51.6826 42.116L52.7626 42.2C52.5946 42.768 52.2746 43.236 51.8026 43.604C51.3386 43.964 50.7706 44.144 50.0986 44.144ZM48.2386 40.244H51.7666C51.7186 39.628 51.5386 39.176 51.2266 38.888C50.9146 38.6 50.5226 38.456 50.0506 38.456C49.5626 38.456 49.1586 38.608 48.8386 38.912C48.5266 39.208 48.3266 39.652 48.2386 40.244ZM56.9939 44V37.688H54.7619V36.8H55.9139C56.2179 36.8 56.4619 36.756 56.6459 36.668C56.8379 36.58 56.9739 36.44 57.0539 36.248C57.1419 36.056 57.1859 35.8 57.1859 35.48H58.0259V44H56.9939ZM54.3059 44V42.992H60.0659V44H54.3059ZM62.2213 42.776L65.5813 36.656L66.5413 36.704L63.1813 42.824L62.2213 42.776ZM64.3813 44.192C63.7653 44.192 63.2293 44.012 62.7733 43.652C62.3253 43.292 61.9813 42.78 61.7413 42.116C61.5013 41.452 61.3813 40.664 61.3813 39.752C61.3813 38.832 61.5013 38.04 61.7413 37.376C61.9813 36.712 62.3253 36.2 62.7733 35.84C63.2293 35.472 63.7653 35.288 64.3813 35.288C65.0053 35.288 65.5413 35.472 65.9893 35.84C66.4373 36.2 66.7813 36.712 67.0213 37.376C67.2613 38.04 67.3813 38.832 67.3813 39.752C67.3813 40.664 67.2613 41.452 67.0213 42.116C66.7813 42.78 66.4373 43.292 65.9893 43.652C65.5413 44.012 65.0053 44.192 64.3813 44.192ZM64.3813 43.184C64.7813 43.184 65.1213 43.044 65.4013 42.764C65.6893 42.484 65.9093 42.088 66.0613 41.576C66.2213 41.056 66.3013 40.448 66.3013 39.752C66.3013 39.04 66.2213 38.428 66.0613 37.916C65.9093 37.396 65.6893 36.996 65.4013 36.716C65.1213 36.436 64.7813 36.296 64.3813 36.296C63.9893 36.296 63.6493 36.436 63.3613 36.716C63.0733 36.996 62.8493 37.396 62.6893 37.916C62.5373 38.428 62.4613 39.04 62.4613 39.752C62.4613 40.448 62.5373 41.056 62.6893 41.576C62.8493 42.088 63.0733 42.484 63.3613 42.764C63.6493 43.044 63.9893 43.184 64.3813 43.184ZM71.3846 44V37.688H69.1526V36.8H70.3046C70.6086 36.8 70.8526 36.756 71.0366 36.668C71.2286 36.58 71.3646 36.44 71.4446 36.248C71.5326 36.056 71.5766 35.8 71.5766 35.48H72.4166V44H71.3846ZM68.6966 44V42.992H74.4566V44H68.6966ZM78.6999 44.192C77.7799 44.192 77.0719 43.972 76.5759 43.532C76.0799 43.084 75.8119 42.508 75.7719 41.804L76.8399 41.732C76.8879 42.252 77.0799 42.624 77.4159 42.848C77.7599 43.072 78.1879 43.184 78.6999 43.184C79.0439 43.184 79.3679 43.136 79.6719 43.04C79.9759 42.936 80.2199 42.772 80.4039 42.548C80.5959 42.316 80.6919 42.008 80.6919 41.624C80.6919 41.248 80.6079 40.94 80.4399 40.7C80.2719 40.452 80.0399 40.272 79.7439 40.16C79.4559 40.04 79.1279 39.98 78.7599 39.98H78.0879V38.972H78.7599C79.0559 38.972 79.3279 38.928 79.5759 38.84C79.8239 38.752 80.0199 38.612 80.1639 38.42C80.3159 38.22 80.3919 37.96 80.3919 37.64C80.3919 37.2 80.2519 36.868 79.9719 36.644C79.6919 36.412 79.2879 36.296 78.7599 36.296C78.2239 36.296 77.8159 36.404 77.5359 36.62C77.2639 36.836 77.0999 37.132 77.0439 37.508L75.9639 37.436C76.0439 36.796 76.3239 36.28 76.8039 35.888C77.2839 35.488 77.9359 35.288 78.7599 35.288C79.3119 35.288 79.7919 35.384 80.1999 35.576C80.6079 35.76 80.9199 36.024 81.1359 36.368C81.3599 36.712 81.4719 37.12 81.4719 37.592C81.4719 38.12 81.3039 38.548 80.9679 38.876C80.6399 39.196 80.1519 39.416 79.5039 39.536V39.32C80.1999 39.4 80.7519 39.648 81.1599 40.064C81.5679 40.48 81.7719 41 81.7719 41.624C81.7719 42.168 81.6399 42.632 81.3759 43.016C81.1119 43.4 80.7479 43.692 80.2839 43.892C79.8199 44.092 79.2919 44.192 78.6999 44.192Z" fill="white"/>
</svg>
