<svg width="115" height="80" viewBox="0 0 115 80" fill="none" xmlns="http://www.w3.org/2000/svg">
<rect width="115" height="80" rx="8" fill="#1F2329"/>
<path d="M35.564 44L37.148 35.48H38.012L36.428 44H35.564ZM32.6 41.636L32.744 40.796H38.12L37.976 41.636H32.6ZM33.2 44L34.784 35.48H35.648L34.064 44H33.2ZM33.08 38.72L33.224 37.88H38.6L38.456 38.72H33.08ZM42.6033 44V37.688H40.3713V36.8H41.5233C41.8273 36.8 42.0713 36.756 42.2553 36.668C42.4473 36.58 42.5833 36.44 42.6633 36.248C42.7513 36.056 42.7953 35.8 42.7953 35.48H43.6353V44H42.6033ZM39.9153 44V42.992H45.6753V44H39.9153ZM48.9346 44V37.232C48.9346 36.664 49.0786 36.232 49.3666 35.936C49.6626 35.632 50.1106 35.48 50.7106 35.48H52.7506V36.368H50.7106C50.4626 36.368 50.2706 36.448 50.1346 36.608C50.0066 36.76 49.9426 36.968 49.9426 37.232V44H48.9346ZM47.2306 38.528V37.64H52.6306V38.528H47.2306ZM54.1859 44C54.1859 43.4 54.2779 42.86 54.4619 42.38C54.6539 41.892 54.9859 41.428 55.4579 40.988C55.9379 40.548 56.6019 40.104 57.4499 39.656C57.8419 39.448 58.1579 39.256 58.3979 39.08C58.6379 38.904 58.8139 38.716 58.9259 38.516C59.0379 38.316 59.0939 38.072 59.0939 37.784C59.0939 37.488 59.0299 37.232 58.9019 37.016C58.7739 36.792 58.5819 36.616 58.3259 36.488C58.0779 36.36 57.7659 36.296 57.3899 36.296C56.7899 36.296 56.3139 36.452 55.9619 36.764C55.6179 37.076 55.4019 37.52 55.3139 38.096L54.2339 38.024C54.3299 37.192 54.6499 36.528 55.1939 36.032C55.7379 35.536 56.4699 35.288 57.3899 35.288C57.9739 35.288 58.4739 35.392 58.8899 35.6C59.3059 35.808 59.6219 36.1 59.8379 36.476C60.0619 36.844 60.1739 37.272 60.1739 37.76C60.1739 38.192 60.1019 38.568 59.9579 38.888C59.8139 39.2 59.5699 39.492 59.2259 39.764C58.8899 40.036 58.4259 40.328 57.8339 40.64C57.3219 40.912 56.8899 41.188 56.5379 41.468C56.1939 41.748 55.9299 42.02 55.7459 42.284C55.5699 42.54 55.4739 42.776 55.4579 42.992H60.1859V44H54.1859ZM64.3092 44.192C63.3893 44.192 62.6813 43.972 62.1853 43.532C61.6893 43.084 61.4213 42.508 61.3813 41.804L62.4493 41.732C62.4973 42.252 62.6893 42.624 63.0253 42.848C63.3693 43.072 63.7973 43.184 64.3092 43.184C64.6533 43.184 64.9773 43.136 65.2813 43.04C65.5853 42.936 65.8293 42.772 66.0133 42.548C66.2053 42.316 66.3013 42.008 66.3013 41.624C66.3013 41.248 66.2173 40.94 66.0493 40.7C65.8813 40.452 65.6493 40.272 65.3533 40.16C65.0653 40.04 64.7373 39.98 64.3693 39.98H63.6973V38.972H64.3693C64.6653 38.972 64.9373 38.928 65.1853 38.84C65.4333 38.752 65.6293 38.612 65.7733 38.42C65.9253 38.22 66.0013 37.96 66.0013 37.64C66.0013 37.2 65.8613 36.868 65.5813 36.644C65.3013 36.412 64.8973 36.296 64.3693 36.296C63.8333 36.296 63.4253 36.404 63.1453 36.62C62.8733 36.836 62.7093 37.132 62.6533 37.508L61.5732 37.436C61.6533 36.796 61.9333 36.28 62.4133 35.888C62.8933 35.488 63.5453 35.288 64.3693 35.288C64.9213 35.288 65.4013 35.384 65.8093 35.576C66.2173 35.76 66.5293 36.024 66.7453 36.368C66.9693 36.712 67.0813 37.12 67.0813 37.592C67.0813 38.12 66.9133 38.548 66.5773 38.876C66.2493 39.196 65.7613 39.416 65.1133 39.536V39.32C65.8093 39.4 66.3613 39.648 66.7693 40.064C67.1773 40.48 67.3813 41 67.3813 41.624C67.3813 42.168 67.2493 42.632 66.9853 43.016C66.7213 43.4 66.3573 43.692 65.8933 43.892C65.4293 44.092 64.9013 44.192 64.3092 44.192ZM68.5766 44C68.5766 43.4 68.6686 42.86 68.8526 42.38C69.0446 41.892 69.3766 41.428 69.8486 40.988C70.3286 40.548 70.9926 40.104 71.8406 39.656C72.2326 39.448 72.5486 39.256 72.7886 39.08C73.0286 38.904 73.2046 38.716 73.3166 38.516C73.4286 38.316 73.4846 38.072 73.4846 37.784C73.4846 37.488 73.4206 37.232 73.2926 37.016C73.1646 36.792 72.9726 36.616 72.7166 36.488C72.4686 36.36 72.1566 36.296 71.7806 36.296C71.1806 36.296 70.7046 36.452 70.3526 36.764C70.0086 37.076 69.7926 37.52 69.7046 38.096L68.6246 38.024C68.7206 37.192 69.0406 36.528 69.5846 36.032C70.1286 35.536 70.8606 35.288 71.7806 35.288C72.3646 35.288 72.8646 35.392 73.2806 35.6C73.6966 35.808 74.0126 36.1 74.2286 36.476C74.4526 36.844 74.5646 37.272 74.5646 37.76C74.5646 38.192 74.4926 38.568 74.3486 38.888C74.2046 39.2 73.9606 39.492 73.6166 39.764C73.2806 40.036 72.8166 40.328 72.2246 40.64C71.7126 40.912 71.2806 41.188 70.9286 41.468C70.5846 41.748 70.3206 42.02 70.1366 42.284C69.9606 42.54 69.8646 42.776 69.8486 42.992H74.5766V44H68.5766ZM78.7479 35.288C79.3879 35.288 79.9319 35.436 80.3799 35.732C80.8359 36.02 81.1799 36.448 81.4119 37.016C81.6519 37.576 81.7719 38.264 81.7719 39.08C81.7719 39.784 81.7119 40.444 81.5919 41.06C81.4799 41.676 81.2919 42.22 81.0279 42.692C80.7719 43.156 80.4279 43.524 79.9959 43.796C79.5719 44.06 79.0439 44.192 78.4119 44.192C77.9079 44.192 77.4799 44.108 77.1279 43.94C76.7759 43.772 76.4879 43.536 76.2639 43.232C76.0479 42.928 75.8839 42.576 75.7719 42.176L76.8519 42.08C76.9479 42.416 77.1159 42.684 77.3559 42.884C77.5959 43.084 77.9479 43.184 78.4119 43.184C78.8839 43.184 79.2879 43.052 79.6239 42.788C79.9679 42.516 80.2319 42.112 80.4159 41.576C80.5999 41.04 80.6999 40.368 80.7159 39.56L80.9319 39.608C80.8439 39.896 80.6879 40.164 80.4639 40.412C80.2479 40.652 79.9759 40.848 79.6479 41C79.3279 41.144 78.9639 41.216 78.5559 41.216C77.9959 41.216 77.5079 41.096 77.0919 40.856C76.6759 40.616 76.3519 40.28 76.1199 39.848C75.8879 39.408 75.7719 38.896 75.7719 38.312C75.7719 37.688 75.8959 37.152 76.1439 36.704C76.3999 36.248 76.7519 35.9 77.1999 35.66C77.6479 35.412 78.1639 35.288 78.7479 35.288ZM78.7239 36.296C78.1639 36.296 77.7119 36.472 77.3679 36.824C77.0239 37.176 76.8519 37.672 76.8519 38.312C76.8519 38.896 77.0119 39.364 77.3319 39.716C77.6599 40.06 78.0919 40.232 78.6279 40.232C79.0119 40.232 79.3559 40.156 79.6599 40.004C79.9639 39.844 80.2039 39.62 80.3799 39.332C80.5559 39.044 80.6439 38.704 80.6439 38.312C80.6439 37.92 80.5639 37.572 80.4039 37.268C80.2519 36.964 80.0319 36.728 79.7439 36.56C79.4559 36.384 79.1159 36.296 78.7239 36.296Z" fill="white"/>
</svg>
