<svg width="115" height="80" viewBox="0 0 115 80" fill="none" xmlns="http://www.w3.org/2000/svg">
<rect width="115" height="80" rx="8" fill="#282C34"/>
<path d="M35.564 44L37.148 35.48H38.012L36.428 44H35.564ZM32.6 41.636L32.744 40.796H38.12L37.976 41.636H32.6ZM33.2 44L34.784 35.48H35.648L34.064 44H33.2ZM33.08 38.72L33.224 37.88H38.6L38.456 38.72H33.08ZM39.7953 44C39.7953 43.4 39.8873 42.86 40.0713 42.38C40.2633 41.892 40.5953 41.428 41.0673 40.988C41.5473 40.548 42.2113 40.104 43.0593 39.656C43.4513 39.448 43.7673 39.256 44.0073 39.08C44.2473 38.904 44.4233 38.716 44.5353 38.516C44.6473 38.316 44.7033 38.072 44.7033 37.784C44.7033 37.488 44.6393 37.232 44.5113 37.016C44.3833 36.792 44.1913 36.616 43.9353 36.488C43.6873 36.36 43.3753 36.296 42.9993 36.296C42.3993 36.296 41.9233 36.452 41.5713 36.764C41.2273 37.076 41.0113 37.52 40.9233 38.096L39.8433 38.024C39.9393 37.192 40.2593 36.528 40.8033 36.032C41.3473 35.536 42.0793 35.288 42.9993 35.288C43.5833 35.288 44.0833 35.392 44.4993 35.6C44.9153 35.808 45.2313 36.1 45.4473 36.476C45.6713 36.844 45.7833 37.272 45.7833 37.76C45.7833 38.192 45.7113 38.568 45.5673 38.888C45.4233 39.2 45.1793 39.492 44.8353 39.764C44.4993 40.036 44.0353 40.328 43.4433 40.64C42.9313 40.912 42.4993 41.188 42.1473 41.468C41.8033 41.748 41.5393 42.02 41.3553 42.284C41.1793 42.54 41.0833 42.776 41.0673 42.992H45.7953V44H39.7953ZM49.9906 44.192C49.4306 44.192 48.9226 44.096 48.4666 43.904C48.0106 43.712 47.6506 43.428 47.3866 43.052C47.1226 42.676 46.9906 42.212 46.9906 41.66C46.9906 41.044 47.1746 40.536 47.5426 40.136C47.9106 39.728 48.3986 39.452 49.0066 39.308L49.0306 39.548C48.5426 39.412 48.1466 39.192 47.8426 38.888C47.5466 38.576 47.3986 38.156 47.3986 37.628C47.3986 37.18 47.5106 36.78 47.7346 36.428C47.9586 36.076 48.2626 35.8 48.6466 35.6C49.0386 35.392 49.4866 35.288 49.9906 35.288C50.4946 35.288 50.9426 35.392 51.3346 35.6C51.7266 35.8 52.0306 36.076 52.2466 36.428C52.4706 36.78 52.5826 37.18 52.5826 37.628C52.5826 38.156 52.4346 38.576 52.1386 38.888C51.8426 39.192 51.4466 39.412 50.9506 39.548L50.9746 39.308C51.5906 39.452 52.0786 39.728 52.4386 40.136C52.8066 40.536 52.9906 41.044 52.9906 41.66C52.9906 42.212 52.8586 42.676 52.5946 43.052C52.3306 43.428 51.9706 43.712 51.5146 43.904C51.0666 44.096 50.5586 44.192 49.9906 44.192ZM49.9906 43.184C50.5506 43.184 51.0106 43.056 51.3706 42.8C51.7306 42.536 51.9106 42.136 51.9106 41.6C51.9106 41.104 51.7506 40.708 51.4306 40.412C51.1106 40.108 50.6306 39.956 49.9906 39.956C49.3586 39.956 48.8786 40.108 48.5506 40.412C48.2306 40.708 48.0706 41.104 48.0706 41.6C48.0706 42.136 48.2506 42.536 48.6106 42.8C48.9706 43.056 49.4306 43.184 49.9906 43.184ZM49.9906 38.996C50.4466 38.996 50.8106 38.884 51.0826 38.66C51.3626 38.428 51.5026 38.084 51.5026 37.628C51.5026 37.22 51.3666 36.896 51.0946 36.656C50.8306 36.416 50.4626 36.296 49.9906 36.296C49.5266 36.296 49.1586 36.416 48.8866 36.656C48.6146 36.896 48.4786 37.22 48.4786 37.628C48.4786 38.084 48.6146 38.428 48.8866 38.66C49.1666 38.884 49.5346 38.996 49.9906 38.996ZM54.1859 44C54.1859 43.4 54.2779 42.86 54.4619 42.38C54.6539 41.892 54.9859 41.428 55.4579 40.988C55.9379 40.548 56.6019 40.104 57.4499 39.656C57.8419 39.448 58.1579 39.256 58.3979 39.08C58.6379 38.904 58.8139 38.716 58.9259 38.516C59.0379 38.316 59.0939 38.072 59.0939 37.784C59.0939 37.488 59.0299 37.232 58.9019 37.016C58.7739 36.792 58.5819 36.616 58.3259 36.488C58.0779 36.36 57.7659 36.296 57.3899 36.296C56.7899 36.296 56.3139 36.452 55.9619 36.764C55.6179 37.076 55.4019 37.52 55.3139 38.096L54.2339 38.024C54.3299 37.192 54.6499 36.528 55.1939 36.032C55.7379 35.536 56.4699 35.288 57.3899 35.288C57.9739 35.288 58.4739 35.392 58.8899 35.6C59.3059 35.808 59.6219 36.1 59.8379 36.476C60.0619 36.844 60.1739 37.272 60.1739 37.76C60.1739 38.192 60.1019 38.568 59.9579 38.888C59.8139 39.2 59.5699 39.492 59.2259 39.764C58.8899 40.036 58.4259 40.328 57.8339 40.64C57.3219 40.912 56.8899 41.188 56.5379 41.468C56.1939 41.748 55.9299 42.02 55.7459 42.284C55.5699 42.54 55.4739 42.776 55.4579 42.992H60.1859V44H54.1859ZM64.5493 44.144C63.9573 44.144 63.4413 44.008 63.0013 43.736C62.5613 43.464 62.2213 43.08 61.9813 42.584C61.7413 42.08 61.6213 41.492 61.6213 40.82C61.6213 40.148 61.7413 39.564 61.9813 39.068C62.2213 38.572 62.5613 38.188 63.0013 37.916C63.4413 37.636 63.9573 37.496 64.5493 37.496C65.0213 37.496 65.4413 37.584 65.8093 37.76C66.1773 37.928 66.4813 38.176 66.7213 38.504C66.9613 38.832 67.1253 39.232 67.2133 39.704L66.1573 39.776C66.0613 39.352 65.8693 39.028 65.5813 38.804C65.3013 38.572 64.9573 38.456 64.5493 38.456C63.9653 38.456 63.5053 38.668 63.1693 39.092C62.8413 39.508 62.6773 40.084 62.6773 40.82C62.6773 41.556 62.8413 42.136 63.1693 42.56C63.5053 42.976 63.9653 43.184 64.5493 43.184C64.9573 43.184 65.3093 43.064 65.6053 42.824C65.9093 42.584 66.1093 42.224 66.2053 41.744L67.2613 41.816C67.1733 42.288 67.0053 42.7 66.7573 43.052C66.5093 43.396 66.1973 43.664 65.8213 43.856C65.4453 44.048 65.0213 44.144 64.5493 44.144ZM71.5046 44.192C70.5846 44.192 69.8766 43.972 69.3806 43.532C68.8846 43.084 68.6166 42.508 68.5766 41.804L69.6446 41.732C69.6926 42.252 69.8846 42.624 70.2206 42.848C70.5646 43.072 70.9926 43.184 71.5046 43.184C71.8486 43.184 72.1726 43.136 72.4766 43.04C72.7806 42.936 73.0246 42.772 73.2086 42.548C73.4006 42.316 73.4966 42.008 73.4966 41.624C73.4966 41.248 73.4126 40.94 73.2446 40.7C73.0766 40.452 72.8446 40.272 72.5486 40.16C72.2606 40.04 71.9326 39.98 71.5646 39.98H70.8926V38.972H71.5646C71.8606 38.972 72.1326 38.928 72.3806 38.84C72.6286 38.752 72.8246 38.612 72.9686 38.42C73.1206 38.22 73.1966 37.96 73.1966 37.64C73.1966 37.2 73.0566 36.868 72.7766 36.644C72.4966 36.412 72.0926 36.296 71.5646 36.296C71.0286 36.296 70.6206 36.404 70.3406 36.62C70.0686 36.836 69.9046 37.132 69.8486 37.508L68.7686 37.436C68.8486 36.796 69.1286 36.28 69.6086 35.888C70.0886 35.488 70.7406 35.288 71.5646 35.288C72.1166 35.288 72.5966 35.384 73.0046 35.576C73.4126 35.76 73.7246 36.024 73.9406 36.368C74.1646 36.712 74.2766 37.12 74.2766 37.592C74.2766 38.12 74.1086 38.548 73.7726 38.876C73.4446 39.196 72.9566 39.416 72.3086 39.536V39.32C73.0046 39.4 73.5566 39.648 73.9646 40.064C74.3726 40.48 74.5766 41 74.5766 41.624C74.5766 42.168 74.4446 42.632 74.1806 43.016C73.9166 43.4 73.5526 43.692 73.0886 43.892C72.6246 44.092 72.0966 44.192 71.5046 44.192ZM79.8279 44V42.152H75.6519V41.216L79.7559 35.48H80.8599V41.144H81.8919V42.152H80.8599V44H79.8279ZM76.7079 41.144H79.8279V36.92L76.7079 41.144Z" fill="white"/>
</svg>
