<svg width="115" height="80" viewBox="0 0 115 80" fill="none" xmlns="http://www.w3.org/2000/svg">
<rect width="115" height="80" rx="8" fill="#30363F"/>
<path d="M35.564 44L37.148 35.48H38.012L36.428 44H35.564ZM32.6 41.636L32.744 40.796H38.12L37.976 41.636H32.6ZM33.2 44L34.784 35.48H35.648L34.064 44H33.2ZM33.08 38.72L33.224 37.88H38.6L38.456 38.72H33.08ZM42.7233 44.192C41.8033 44.192 41.0953 43.972 40.5993 43.532C40.1033 43.084 39.8353 42.508 39.7953 41.804L40.8633 41.732C40.9113 42.252 41.1033 42.624 41.4393 42.848C41.7833 43.072 42.2113 43.184 42.7233 43.184C43.0673 43.184 43.3913 43.136 43.6953 43.04C43.9993 42.936 44.2433 42.772 44.4273 42.548C44.6193 42.316 44.7153 42.008 44.7153 41.624C44.7153 41.248 44.6313 40.94 44.4633 40.7C44.2953 40.452 44.0633 40.272 43.7673 40.16C43.4793 40.04 43.1513 39.98 42.7833 39.98H42.1113V38.972H42.7833C43.0793 38.972 43.3513 38.928 43.5993 38.84C43.8473 38.752 44.0433 38.612 44.1873 38.42C44.3393 38.22 44.4153 37.96 44.4153 37.64C44.4153 37.2 44.2753 36.868 43.9953 36.644C43.7153 36.412 43.3113 36.296 42.7833 36.296C42.2473 36.296 41.8393 36.404 41.5593 36.62C41.2873 36.836 41.1233 37.132 41.0673 37.508L39.9873 37.436C40.0673 36.796 40.3473 36.28 40.8273 35.888C41.3073 35.488 41.9593 35.288 42.7833 35.288C43.3353 35.288 43.8153 35.384 44.2233 35.576C44.6313 35.76 44.9433 36.024 45.1593 36.368C45.3833 36.712 45.4953 37.12 45.4953 37.592C45.4953 38.12 45.3273 38.548 44.9913 38.876C44.6633 39.196 44.1753 39.416 43.5273 39.536V39.32C44.2233 39.4 44.7753 39.648 45.1833 40.064C45.5913 40.48 45.7953 41 45.7953 41.624C45.7953 42.168 45.6633 42.632 45.3993 43.016C45.1353 43.4 44.7713 43.692 44.3073 43.892C43.8433 44.092 43.3153 44.192 42.7233 44.192ZM47.8306 42.776L51.1906 36.656L52.1506 36.704L48.7906 42.824L47.8306 42.776ZM49.9906 44.192C49.3746 44.192 48.8386 44.012 48.3826 43.652C47.9346 43.292 47.5906 42.78 47.3506 42.116C47.1106 41.452 46.9906 40.664 46.9906 39.752C46.9906 38.832 47.1106 38.04 47.3506 37.376C47.5906 36.712 47.9346 36.2 48.3826 35.84C48.8386 35.472 49.3746 35.288 49.9906 35.288C50.6146 35.288 51.1506 35.472 51.5986 35.84C52.0466 36.2 52.3906 36.712 52.6306 37.376C52.8706 38.04 52.9906 38.832 52.9906 39.752C52.9906 40.664 52.8706 41.452 52.6306 42.116C52.3906 42.78 52.0466 43.292 51.5986 43.652C51.1506 44.012 50.6146 44.192 49.9906 44.192ZM49.9906 43.184C50.3906 43.184 50.7306 43.044 51.0106 42.764C51.2986 42.484 51.5186 42.088 51.6706 41.576C51.8306 41.056 51.9106 40.448 51.9106 39.752C51.9106 39.04 51.8306 38.428 51.6706 37.916C51.5186 37.396 51.2986 36.996 51.0106 36.716C50.7306 36.436 50.3906 36.296 49.9906 36.296C49.5986 36.296 49.2586 36.436 48.9706 36.716C48.6826 36.996 48.4586 37.396 48.2986 37.916C48.1466 38.428 48.0706 39.04 48.0706 39.752C48.0706 40.448 48.1466 41.056 48.2986 41.576C48.4586 42.088 48.6826 42.484 48.9706 42.764C49.2586 43.044 49.5986 43.184 49.9906 43.184ZM57.1139 44.192C56.1939 44.192 55.4859 43.972 54.9899 43.532C54.4939 43.084 54.2259 42.508 54.1859 41.804L55.2539 41.732C55.3019 42.252 55.4939 42.624 55.8299 42.848C56.1739 43.072 56.6019 43.184 57.1139 43.184C57.4579 43.184 57.7819 43.136 58.0859 43.04C58.3899 42.936 58.6339 42.772 58.8179 42.548C59.0099 42.316 59.1059 42.008 59.1059 41.624C59.1059 41.248 59.0219 40.94 58.8539 40.7C58.6859 40.452 58.4539 40.272 58.1579 40.16C57.8699 40.04 57.5419 39.98 57.1739 39.98H56.5019V38.972H57.1739C57.4699 38.972 57.7419 38.928 57.9899 38.84C58.2379 38.752 58.4339 38.612 58.5779 38.42C58.7299 38.22 58.8059 37.96 58.8059 37.64C58.8059 37.2 58.6659 36.868 58.3859 36.644C58.1059 36.412 57.7019 36.296 57.1739 36.296C56.6379 36.296 56.2299 36.404 55.9499 36.62C55.6779 36.836 55.5139 37.132 55.4579 37.508L54.3779 37.436C54.4579 36.796 54.7379 36.28 55.2179 35.888C55.6979 35.488 56.3499 35.288 57.1739 35.288C57.7259 35.288 58.2059 35.384 58.6139 35.576C59.0219 35.76 59.3339 36.024 59.5499 36.368C59.7739 36.712 59.8859 37.12 59.8859 37.592C59.8859 38.12 59.7179 38.548 59.3819 38.876C59.0539 39.196 58.5659 39.416 57.9179 39.536V39.32C58.6139 39.4 59.1659 39.648 59.5739 40.064C59.9819 40.48 60.1859 41 60.1859 41.624C60.1859 42.168 60.0539 42.632 59.7899 43.016C59.5259 43.4 59.1619 43.692 58.6979 43.892C58.2339 44.092 57.7059 44.192 57.1139 44.192ZM64.4053 44.192C63.7653 44.192 63.2173 44.048 62.7613 43.76C62.3133 43.464 61.9693 43.032 61.7293 42.464C61.4973 41.896 61.3813 41.208 61.3813 40.4C61.3813 39.696 61.4373 39.036 61.5493 38.42C61.6693 37.804 61.8573 37.264 62.1133 36.8C62.3773 36.328 62.7213 35.96 63.1453 35.696C63.5773 35.424 64.1093 35.288 64.7413 35.288C65.2453 35.288 65.6733 35.372 66.0253 35.54C66.3773 35.708 66.6613 35.944 66.8773 36.248C67.1013 36.552 67.2693 36.904 67.3813 37.304L66.3013 37.4C66.2053 37.064 66.0373 36.796 65.7973 36.596C65.5653 36.396 65.2133 36.296 64.7413 36.296C64.2693 36.296 63.8653 36.432 63.5293 36.704C63.1933 36.968 62.9293 37.368 62.7373 37.904C62.5533 38.44 62.4533 39.112 62.4373 39.92L62.2213 39.872C62.3093 39.584 62.4613 39.32 62.6773 39.08C62.9013 38.832 63.1733 38.636 63.4933 38.492C63.8213 38.34 64.1893 38.264 64.5973 38.264C65.1573 38.264 65.6453 38.384 66.0613 38.624C66.4773 38.864 66.8013 39.204 67.0333 39.644C67.2653 40.076 67.3813 40.584 67.3813 41.168C67.3813 41.792 67.2533 42.332 66.9973 42.788C66.7493 43.236 66.4013 43.584 65.9533 43.832C65.5133 44.072 64.9973 44.192 64.4053 44.192ZM64.4293 43.184C64.9893 43.184 65.4413 43.008 65.7853 42.656C66.1293 42.296 66.3013 41.8 66.3013 41.168C66.3013 40.576 66.1373 40.108 65.8093 39.764C65.4893 39.42 65.0613 39.248 64.5253 39.248C64.1413 39.248 63.7973 39.328 63.4933 39.488C63.1893 39.64 62.9493 39.86 62.7733 40.148C62.5973 40.436 62.5093 40.776 62.5093 41.168C62.5093 41.56 62.5853 41.908 62.7373 42.212C62.8973 42.516 63.1213 42.756 63.4093 42.932C63.6973 43.1 64.0373 43.184 64.4293 43.184ZM71.5046 44.192C70.5846 44.192 69.8766 43.972 69.3806 43.532C68.8846 43.084 68.6166 42.508 68.5766 41.804L69.6446 41.732C69.6926 42.252 69.8846 42.624 70.2206 42.848C70.5646 43.072 70.9926 43.184 71.5046 43.184C71.8486 43.184 72.1726 43.136 72.4766 43.04C72.7806 42.936 73.0246 42.772 73.2086 42.548C73.4006 42.316 73.4966 42.008 73.4966 41.624C73.4966 41.248 73.4126 40.94 73.2446 40.7C73.0766 40.452 72.8446 40.272 72.5486 40.16C72.2606 40.04 71.9326 39.98 71.5646 39.98H70.8926V38.972H71.5646C71.8606 38.972 72.1326 38.928 72.3806 38.84C72.6286 38.752 72.8246 38.612 72.9686 38.42C73.1206 38.22 73.1966 37.96 73.1966 37.64C73.1966 37.2 73.0566 36.868 72.7766 36.644C72.4966 36.412 72.0926 36.296 71.5646 36.296C71.0286 36.296 70.6206 36.404 70.3406 36.62C70.0686 36.836 69.9046 37.132 69.8486 37.508L68.7686 37.436C68.8486 36.796 69.1286 36.28 69.6086 35.888C70.0886 35.488 70.7406 35.288 71.5646 35.288C72.1166 35.288 72.5966 35.384 73.0046 35.576C73.4126 35.76 73.7246 36.024 73.9406 36.368C74.1646 36.712 74.2766 37.12 74.2766 37.592C74.2766 38.12 74.1086 38.548 73.7726 38.876C73.4446 39.196 72.9566 39.416 72.3086 39.536V39.32C73.0046 39.4 73.5566 39.648 73.9646 40.064C74.3726 40.48 74.5766 41 74.5766 41.624C74.5766 42.168 74.4446 42.632 74.1806 43.016C73.9166 43.4 73.5526 43.692 73.0886 43.892C72.6246 44.092 72.0966 44.192 71.5046 44.192ZM77.7159 44V37.232C77.7159 36.664 77.8599 36.232 78.1479 35.936C78.4439 35.632 78.8919 35.48 79.4919 35.48H81.5319V36.368H79.4919C79.2439 36.368 79.0519 36.448 78.9159 36.608C78.7879 36.76 78.7239 36.968 78.7239 37.232V44H77.7159ZM76.0119 38.528V37.64H81.4119V38.528H76.0119Z" fill="white"/>
</svg>
