<svg width="115" height="80" viewBox="0 0 115 80" fill="none" xmlns="http://www.w3.org/2000/svg">
<rect width="115" height="80" rx="8" fill="#323641"/>
<path d="M35.564 44L37.148 35.48H38.012L36.428 44H35.564ZM32.6 41.636L32.744 40.796H38.12L37.976 41.636H32.6ZM33.2 44L34.784 35.48H35.648L34.064 44H33.2ZM33.08 38.72L33.224 37.88H38.6L38.456 38.72H33.08ZM42.7233 44.192C41.8033 44.192 41.0953 43.972 40.5993 43.532C40.1033 43.084 39.8353 42.508 39.7953 41.804L40.8633 41.732C40.9113 42.252 41.1033 42.624 41.4393 42.848C41.7833 43.072 42.2113 43.184 42.7233 43.184C43.0673 43.184 43.3913 43.136 43.6953 43.04C43.9993 42.936 44.2433 42.772 44.4273 42.548C44.6193 42.316 44.7153 42.008 44.7153 41.624C44.7153 41.248 44.6313 40.94 44.4633 40.7C44.2953 40.452 44.0633 40.272 43.7673 40.16C43.4793 40.04 43.1513 39.98 42.7833 39.98H42.1113V38.972H42.7833C43.0793 38.972 43.3513 38.928 43.5993 38.84C43.8473 38.752 44.0433 38.612 44.1873 38.42C44.3393 38.22 44.4153 37.96 44.4153 37.64C44.4153 37.2 44.2753 36.868 43.9953 36.644C43.7153 36.412 43.3113 36.296 42.7833 36.296C42.2473 36.296 41.8393 36.404 41.5593 36.62C41.2873 36.836 41.1233 37.132 41.0673 37.508L39.9873 37.436C40.0673 36.796 40.3473 36.28 40.8273 35.888C41.3073 35.488 41.9593 35.288 42.7833 35.288C43.3353 35.288 43.8153 35.384 44.2233 35.576C44.6313 35.76 44.9433 36.024 45.1593 36.368C45.3833 36.712 45.4953 37.12 45.4953 37.592C45.4953 38.12 45.3273 38.548 44.9913 38.876C44.6633 39.196 44.1753 39.416 43.5273 39.536V39.32C44.2233 39.4 44.7753 39.648 45.1833 40.064C45.5913 40.48 45.7953 41 45.7953 41.624C45.7953 42.168 45.6633 42.632 45.3993 43.016C45.1353 43.4 44.7713 43.692 44.3073 43.892C43.8433 44.092 43.3153 44.192 42.7233 44.192ZM46.9906 44C46.9906 43.4 47.0826 42.86 47.2666 42.38C47.4586 41.892 47.7906 41.428 48.2626 40.988C48.7426 40.548 49.4066 40.104 50.2546 39.656C50.6466 39.448 50.9626 39.256 51.2026 39.08C51.4426 38.904 51.6186 38.716 51.7306 38.516C51.8426 38.316 51.8986 38.072 51.8986 37.784C51.8986 37.488 51.8346 37.232 51.7066 37.016C51.5786 36.792 51.3866 36.616 51.1306 36.488C50.8826 36.36 50.5706 36.296 50.1946 36.296C49.5946 36.296 49.1186 36.452 48.7666 36.764C48.4226 37.076 48.2066 37.52 48.1186 38.096L47.0386 38.024C47.1346 37.192 47.4546 36.528 47.9986 36.032C48.5426 35.536 49.2746 35.288 50.1946 35.288C50.7786 35.288 51.2786 35.392 51.6946 35.6C52.1106 35.808 52.4266 36.1 52.6426 36.476C52.8666 36.844 52.9786 37.272 52.9786 37.76C52.9786 38.192 52.9066 38.568 52.7626 38.888C52.6186 39.2 52.3746 39.492 52.0306 39.764C51.6946 40.036 51.2306 40.328 50.6386 40.64C50.1266 40.912 49.6946 41.188 49.3426 41.468C48.9986 41.748 48.7346 42.02 48.5506 42.284C48.3746 42.54 48.2786 42.776 48.2626 42.992H52.9906V44H46.9906ZM57.1139 44.192C56.1939 44.192 55.4859 43.972 54.9899 43.532C54.4939 43.084 54.2259 42.508 54.1859 41.804L55.2539 41.732C55.3019 42.252 55.4939 42.624 55.8299 42.848C56.1739 43.072 56.6019 43.184 57.1139 43.184C57.4579 43.184 57.7819 43.136 58.0859 43.04C58.3899 42.936 58.6339 42.772 58.8179 42.548C59.0099 42.316 59.1059 42.008 59.1059 41.624C59.1059 41.248 59.0219 40.94 58.8539 40.7C58.6859 40.452 58.4539 40.272 58.1579 40.16C57.8699 40.04 57.5419 39.98 57.1739 39.98H56.5019V38.972H57.1739C57.4699 38.972 57.7419 38.928 57.9899 38.84C58.2379 38.752 58.4339 38.612 58.5779 38.42C58.7299 38.22 58.8059 37.96 58.8059 37.64C58.8059 37.2 58.6659 36.868 58.3859 36.644C58.1059 36.412 57.7019 36.296 57.1739 36.296C56.6379 36.296 56.2299 36.404 55.9499 36.62C55.6779 36.836 55.5139 37.132 55.4579 37.508L54.3779 37.436C54.4579 36.796 54.7379 36.28 55.2179 35.888C55.6979 35.488 56.3499 35.288 57.1739 35.288C57.7259 35.288 58.2059 35.384 58.6139 35.576C59.0219 35.76 59.3339 36.024 59.5499 36.368C59.7739 36.712 59.8859 37.12 59.8859 37.592C59.8859 38.12 59.7179 38.548 59.3819 38.876C59.0539 39.196 58.5659 39.416 57.9179 39.536V39.32C58.6139 39.4 59.1659 39.648 59.5739 40.064C59.9819 40.48 60.1859 41 60.1859 41.624C60.1859 42.168 60.0539 42.632 59.7899 43.016C59.5259 43.4 59.1619 43.692 58.6979 43.892C58.2339 44.092 57.7059 44.192 57.1139 44.192ZM64.4053 44.192C63.7653 44.192 63.2173 44.048 62.7613 43.76C62.3133 43.464 61.9693 43.032 61.7293 42.464C61.4973 41.896 61.3813 41.208 61.3813 40.4C61.3813 39.696 61.4373 39.036 61.5493 38.42C61.6693 37.804 61.8573 37.264 62.1133 36.8C62.3773 36.328 62.7213 35.96 63.1453 35.696C63.5773 35.424 64.1093 35.288 64.7413 35.288C65.2453 35.288 65.6733 35.372 66.0253 35.54C66.3773 35.708 66.6613 35.944 66.8773 36.248C67.1013 36.552 67.2693 36.904 67.3813 37.304L66.3013 37.4C66.2053 37.064 66.0373 36.796 65.7973 36.596C65.5653 36.396 65.2133 36.296 64.7413 36.296C64.2693 36.296 63.8653 36.432 63.5293 36.704C63.1933 36.968 62.9293 37.368 62.7373 37.904C62.5533 38.44 62.4533 39.112 62.4373 39.92L62.2213 39.872C62.3093 39.584 62.4613 39.32 62.6773 39.08C62.9013 38.832 63.1733 38.636 63.4933 38.492C63.8213 38.34 64.1893 38.264 64.5973 38.264C65.1573 38.264 65.6453 38.384 66.0613 38.624C66.4773 38.864 66.8013 39.204 67.0333 39.644C67.2653 40.076 67.3813 40.584 67.3813 41.168C67.3813 41.792 67.2533 42.332 66.9973 42.788C66.7493 43.236 66.4013 43.584 65.9533 43.832C65.5133 44.072 64.9973 44.192 64.4053 44.192ZM64.4293 43.184C64.9893 43.184 65.4413 43.008 65.7853 42.656C66.1293 42.296 66.3013 41.8 66.3013 41.168C66.3013 40.576 66.1373 40.108 65.8093 39.764C65.4893 39.42 65.0613 39.248 64.5253 39.248C64.1413 39.248 63.7973 39.328 63.4933 39.488C63.1893 39.64 62.9493 39.86 62.7733 40.148C62.5973 40.436 62.5093 40.776 62.5093 41.168C62.5093 41.56 62.5853 41.908 62.7373 42.212C62.8973 42.516 63.1213 42.756 63.4093 42.932C63.6973 43.1 64.0373 43.184 64.4293 43.184ZM72.6326 44V42.152H68.4566V41.216L72.5606 35.48H73.6646V41.144H74.6966V42.152H73.6646V44H72.6326ZM69.5126 41.144H72.6326V36.92L69.5126 41.144ZM78.5799 44V37.688H76.3479V36.8H77.4999C77.8039 36.8 78.0479 36.756 78.2319 36.668C78.4239 36.58 78.5599 36.44 78.6399 36.248C78.7279 36.056 78.7719 35.8 78.7719 35.48H79.6119V44H78.5799ZM75.8919 44V42.992H81.6519V44H75.8919Z" fill="white"/>
</svg>
