<svg width="115" height="80" viewBox="0 0 115 80" fill="none" xmlns="http://www.w3.org/2000/svg">
<rect width="115" height="80" rx="8" fill="#48B0BD"/>
<path d="M35.564 44L37.148 35.48H38.012L36.428 44H35.564ZM32.6 41.636L32.744 40.796H38.12L37.976 41.636H32.6ZM33.2 44L34.784 35.48H35.648L34.064 44H33.2ZM33.08 38.72L33.224 37.88H38.6L38.456 38.72H33.08ZM43.8513 44V42.152H39.6753V41.216L43.7793 35.48H44.8833V41.144H45.9153V42.152H44.8833V44H43.8513ZM40.7313 41.144H43.8513V36.92L40.7313 41.144ZM49.9906 44.192C49.4306 44.192 48.9226 44.096 48.4666 43.904C48.0106 43.712 47.6506 43.428 47.3866 43.052C47.1226 42.676 46.9906 42.212 46.9906 41.66C46.9906 41.044 47.1746 40.536 47.5426 40.136C47.9106 39.728 48.3986 39.452 49.0066 39.308L49.0306 39.548C48.5426 39.412 48.1466 39.192 47.8426 38.888C47.5466 38.576 47.3986 38.156 47.3986 37.628C47.3986 37.18 47.5106 36.78 47.7346 36.428C47.9586 36.076 48.2626 35.8 48.6466 35.6C49.0386 35.392 49.4866 35.288 49.9906 35.288C50.4946 35.288 50.9426 35.392 51.3346 35.6C51.7266 35.8 52.0306 36.076 52.2466 36.428C52.4706 36.78 52.5826 37.18 52.5826 37.628C52.5826 38.156 52.4346 38.576 52.1386 38.888C51.8426 39.192 51.4466 39.412 50.9506 39.548L50.9746 39.308C51.5906 39.452 52.0786 39.728 52.4386 40.136C52.8066 40.536 52.9906 41.044 52.9906 41.66C52.9906 42.212 52.8586 42.676 52.5946 43.052C52.3306 43.428 51.9706 43.712 51.5146 43.904C51.0666 44.096 50.5586 44.192 49.9906 44.192ZM49.9906 43.184C50.5506 43.184 51.0106 43.056 51.3706 42.8C51.7306 42.536 51.9106 42.136 51.9106 41.6C51.9106 41.104 51.7506 40.708 51.4306 40.412C51.1106 40.108 50.6306 39.956 49.9906 39.956C49.3586 39.956 48.8786 40.108 48.5506 40.412C48.2306 40.708 48.0706 41.104 48.0706 41.6C48.0706 42.136 48.2506 42.536 48.6106 42.8C48.9706 43.056 49.4306 43.184 49.9906 43.184ZM49.9906 38.996C50.4466 38.996 50.8106 38.884 51.0826 38.66C51.3626 38.428 51.5026 38.084 51.5026 37.628C51.5026 37.22 51.3666 36.896 51.0946 36.656C50.8306 36.416 50.4626 36.296 49.9906 36.296C49.5266 36.296 49.1586 36.416 48.8866 36.656C48.6146 36.896 48.4786 37.22 48.4786 37.628C48.4786 38.084 48.6146 38.428 48.8866 38.66C49.1666 38.884 49.5346 38.996 49.9906 38.996ZM57.5819 44.144C57.1419 44.144 56.7499 44.048 56.4059 43.856C56.0619 43.656 55.7979 43.384 55.6139 43.04L55.5779 44H54.6659V35.48H55.6739V38.528C55.8339 38.264 56.0819 38.028 56.4179 37.82C56.7539 37.604 57.1419 37.496 57.5819 37.496C58.1419 37.496 58.6259 37.632 59.0339 37.904C59.4419 38.176 59.7539 38.56 59.9699 39.056C60.1939 39.552 60.3059 40.14 60.3059 40.82C60.3059 41.5 60.1939 42.088 59.9699 42.584C59.7539 43.08 59.4419 43.464 59.0339 43.736C58.6259 44.008 58.1419 44.144 57.5819 44.144ZM57.5219 43.184C58.0579 43.184 58.4779 42.972 58.7819 42.548C59.0939 42.124 59.2499 41.548 59.2499 40.82C59.2499 40.084 59.0939 39.508 58.7819 39.092C58.4779 38.668 58.0659 38.456 57.5459 38.456C57.1539 38.456 56.8179 38.552 56.5379 38.744C56.2579 38.928 56.0419 39.196 55.8899 39.548C55.7459 39.9 55.6739 40.324 55.6739 40.82C55.6739 41.3 55.7459 41.72 55.8899 42.08C56.0419 42.432 56.2539 42.704 56.5259 42.896C56.8059 43.088 57.1379 43.184 57.5219 43.184ZM62.2213 42.776L65.5813 36.656L66.5413 36.704L63.1813 42.824L62.2213 42.776ZM64.3813 44.192C63.7653 44.192 63.2293 44.012 62.7733 43.652C62.3253 43.292 61.9813 42.78 61.7413 42.116C61.5013 41.452 61.3813 40.664 61.3813 39.752C61.3813 38.832 61.5013 38.04 61.7413 37.376C61.9813 36.712 62.3253 36.2 62.7733 35.84C63.2293 35.472 63.7653 35.288 64.3813 35.288C65.0053 35.288 65.5413 35.472 65.9893 35.84C66.4373 36.2 66.7813 36.712 67.0213 37.376C67.2613 38.04 67.3813 38.832 67.3813 39.752C67.3813 40.664 67.2613 41.452 67.0213 42.116C66.7813 42.78 66.4373 43.292 65.9893 43.652C65.5413 44.012 65.0053 44.192 64.3813 44.192ZM64.3813 43.184C64.7813 43.184 65.1213 43.044 65.4013 42.764C65.6893 42.484 65.9093 42.088 66.0613 41.576C66.2213 41.056 66.3013 40.448 66.3013 39.752C66.3013 39.04 66.2213 38.428 66.0613 37.916C65.9093 37.396 65.6893 36.996 65.4013 36.716C65.1213 36.436 64.7813 36.296 64.3813 36.296C63.9893 36.296 63.6493 36.436 63.3613 36.716C63.0733 36.996 62.8493 37.396 62.6893 37.916C62.5373 38.428 62.4613 39.04 62.4613 39.752C62.4613 40.448 62.5373 41.056 62.6893 41.576C62.8493 42.088 63.0733 42.484 63.3613 42.764C63.6493 43.044 63.9893 43.184 64.3813 43.184ZM71.9726 44.144C71.5326 44.144 71.1406 44.048 70.7966 43.856C70.4526 43.656 70.1886 43.384 70.0046 43.04L69.9686 44H69.0566V35.48H70.0646V38.528C70.2246 38.264 70.4726 38.028 70.8086 37.82C71.1446 37.604 71.5326 37.496 71.9726 37.496C72.5326 37.496 73.0166 37.632 73.4246 37.904C73.8326 38.176 74.1446 38.56 74.3606 39.056C74.5846 39.552 74.6966 40.14 74.6966 40.82C74.6966 41.5 74.5846 42.088 74.3606 42.584C74.1446 43.08 73.8326 43.464 73.4246 43.736C73.0166 44.008 72.5326 44.144 71.9726 44.144ZM71.9126 43.184C72.4486 43.184 72.8686 42.972 73.1726 42.548C73.4846 42.124 73.6406 41.548 73.6406 40.82C73.6406 40.084 73.4846 39.508 73.1726 39.092C72.8686 38.668 72.4566 38.456 71.9366 38.456C71.5446 38.456 71.2086 38.552 70.9286 38.744C70.6486 38.928 70.4326 39.196 70.2806 39.548C70.1366 39.9 70.0646 40.324 70.0646 40.82C70.0646 41.3 70.1366 41.72 70.2806 42.08C70.4326 42.432 70.6446 42.704 70.9166 42.896C71.1966 43.088 71.5286 43.184 71.9126 43.184ZM78.3759 44.144C77.8159 44.144 77.3319 44.008 76.9239 43.736C76.5159 43.464 76.1999 43.08 75.9759 42.584C75.7599 42.088 75.6519 41.5 75.6519 40.82C75.6519 40.14 75.7599 39.552 75.9759 39.056C76.1999 38.56 76.5159 38.176 76.9239 37.904C77.3319 37.632 77.8159 37.496 78.3759 37.496C78.8239 37.496 79.2159 37.604 79.5519 37.82C79.8879 38.028 80.1319 38.264 80.2839 38.528V35.48H81.2919V44H80.3799L80.3439 43.04C80.1679 43.384 79.9079 43.656 79.5639 43.856C79.2199 44.048 78.8239 44.144 78.3759 44.144ZM78.4359 43.184C78.8199 43.184 79.1479 43.088 79.4199 42.896C79.6999 42.704 79.9119 42.432 80.0559 42.08C80.2079 41.72 80.2839 41.3 80.2839 40.82C80.2839 40.324 80.2079 39.9 80.0559 39.548C79.9119 39.196 79.6999 38.928 79.4199 38.744C79.1399 38.552 78.8039 38.456 78.4119 38.456C77.8919 38.456 77.4759 38.668 77.1639 39.092C76.8599 39.508 76.7079 40.084 76.7079 40.82C76.7079 41.548 76.8599 42.124 77.1639 42.548C77.4759 42.972 77.8999 43.184 78.4359 43.184Z" fill="black"/>
</svg>
