<svg width="115" height="80" viewBox="0 0 115 80" fill="none" xmlns="http://www.w3.org/2000/svg">
<rect width="115" height="80" rx="8" fill="#4FA6ED"/>
<path d="M35.564 44L37.148 35.48H38.012L36.428 44H35.564ZM32.6 41.636L32.744 40.796H38.12L37.976 41.636H32.6ZM33.2 44L34.784 35.48H35.648L34.064 44H33.2ZM33.08 38.72L33.224 37.88H38.6L38.456 38.72H33.08ZM43.8513 44V42.152H39.6753V41.216L43.7793 35.48H44.8833V41.144H45.9153V42.152H44.8833V44H43.8513ZM40.7313 41.144H43.8513V36.92L40.7313 41.144ZM48.9346 44V37.232C48.9346 36.664 49.0786 36.232 49.3666 35.936C49.6626 35.632 50.1106 35.48 50.7106 35.48H52.7506V36.368H50.7106C50.4626 36.368 50.2706 36.448 50.1346 36.608C50.0066 36.76 49.9426 36.968 49.9426 37.232V44H48.9346ZM47.2306 38.528V37.64H52.6306V38.528H47.2306ZM56.3459 44.144C55.9459 44.144 55.5859 44.072 55.2659 43.928C54.9459 43.784 54.6939 43.584 54.5099 43.328C54.3259 43.064 54.2339 42.76 54.2339 42.416C54.2339 41.872 54.3939 41.452 54.7139 41.156C55.0419 40.852 55.5539 40.632 56.2499 40.496L58.3859 40.064C58.3859 39.52 58.2619 39.116 58.0139 38.852C57.7739 38.588 57.4259 38.456 56.9699 38.456C56.5299 38.456 56.1859 38.556 55.9379 38.756C55.6899 38.948 55.5179 39.228 55.4219 39.596L54.3539 39.512C54.4739 38.912 54.7579 38.428 55.2059 38.06C55.6619 37.684 56.2499 37.496 56.9699 37.496C57.7379 37.496 58.3339 37.728 58.7579 38.192C59.1819 38.648 59.3939 39.28 59.3939 40.088V42.728C59.3939 42.872 59.4259 42.972 59.4899 43.028C59.5539 43.084 59.6499 43.112 59.7779 43.112H60.1859V44C60.1379 44.008 60.0619 44.012 59.9579 44.012C59.8539 44.02 59.7539 44.024 59.6579 44.024C59.3859 44.024 59.1539 43.98 58.9619 43.892C58.7779 43.804 58.6379 43.664 58.5419 43.472C58.4459 43.272 58.3939 43.016 58.3859 42.704H58.5779C58.5219 42.976 58.3859 43.224 58.1699 43.448C57.9619 43.664 57.6979 43.836 57.3779 43.964C57.0579 44.084 56.7139 44.144 56.3459 44.144ZM56.4419 43.256C56.8739 43.256 57.2339 43.184 57.5219 43.04C57.8099 42.888 58.0259 42.68 58.1699 42.416C58.3139 42.144 58.3859 41.832 58.3859 41.48V40.928L56.4419 41.312C56.0099 41.392 55.7099 41.516 55.5419 41.684C55.3739 41.844 55.2899 42.056 55.2899 42.32C55.2899 42.616 55.3899 42.848 55.5899 43.016C55.7979 43.176 56.0819 43.256 56.4419 43.256ZM64.4053 44.192C63.7653 44.192 63.2173 44.048 62.7613 43.76C62.3133 43.464 61.9693 43.032 61.7293 42.464C61.4973 41.896 61.3813 41.208 61.3813 40.4C61.3813 39.696 61.4373 39.036 61.5493 38.42C61.6693 37.804 61.8573 37.264 62.1133 36.8C62.3773 36.328 62.7213 35.96 63.1453 35.696C63.5773 35.424 64.1093 35.288 64.7413 35.288C65.2453 35.288 65.6733 35.372 66.0253 35.54C66.3773 35.708 66.6613 35.944 66.8773 36.248C67.1013 36.552 67.2693 36.904 67.3813 37.304L66.3013 37.4C66.2053 37.064 66.0373 36.796 65.7973 36.596C65.5653 36.396 65.2133 36.296 64.7413 36.296C64.2693 36.296 63.8653 36.432 63.5293 36.704C63.1933 36.968 62.9293 37.368 62.7373 37.904C62.5533 38.44 62.4533 39.112 62.4373 39.92L62.2213 39.872C62.3093 39.584 62.4613 39.32 62.6773 39.08C62.9013 38.832 63.1733 38.636 63.4933 38.492C63.8213 38.34 64.1893 38.264 64.5973 38.264C65.1573 38.264 65.6453 38.384 66.0613 38.624C66.4773 38.864 66.8013 39.204 67.0333 39.644C67.2653 40.076 67.3813 40.584 67.3813 41.168C67.3813 41.792 67.2533 42.332 66.9973 42.788C66.7493 43.236 66.4013 43.584 65.9533 43.832C65.5133 44.072 64.9973 44.192 64.4053 44.192ZM64.4293 43.184C64.9893 43.184 65.4413 43.008 65.7853 42.656C66.1293 42.296 66.3013 41.8 66.3013 41.168C66.3013 40.576 66.1373 40.108 65.8093 39.764C65.4893 39.42 65.0613 39.248 64.5253 39.248C64.1413 39.248 63.7973 39.328 63.4933 39.488C63.1893 39.64 62.9493 39.86 62.7733 40.148C62.5973 40.436 62.5093 40.776 62.5093 41.168C62.5093 41.56 62.5853 41.908 62.7373 42.212C62.8973 42.516 63.1213 42.756 63.4093 42.932C63.6973 43.1 64.0373 43.184 64.4293 43.184ZM71.6846 44.144C71.0846 44.144 70.5646 44.008 70.1246 43.736C69.6926 43.464 69.3566 43.08 69.1166 42.584C68.8846 42.08 68.7686 41.492 68.7686 40.82C68.7686 40.148 68.8846 39.564 69.1166 39.068C69.3566 38.572 69.6886 38.188 70.1126 37.916C70.5446 37.636 71.0526 37.496 71.6366 37.496C72.1886 37.496 72.6766 37.628 73.1006 37.892C73.5246 38.148 73.8566 38.524 74.0966 39.02C74.3366 39.516 74.4566 40.12 74.4566 40.832V41.132H69.8246C69.8646 41.812 70.0446 42.324 70.3646 42.668C70.6926 43.012 71.1326 43.184 71.6846 43.184C72.1006 43.184 72.4406 43.088 72.7046 42.896C72.9766 42.696 73.1646 42.436 73.2686 42.116L74.3486 42.2C74.1806 42.768 73.8606 43.236 73.3886 43.604C72.9246 43.964 72.3566 44.144 71.6846 44.144ZM69.8246 40.244H73.3526C73.3046 39.628 73.1246 39.176 72.8126 38.888C72.5006 38.6 72.1086 38.456 71.6366 38.456C71.1486 38.456 70.7446 38.608 70.4246 38.912C70.1126 39.208 69.9126 39.652 69.8246 40.244ZM78.3759 44.144C77.8159 44.144 77.3319 44.008 76.9239 43.736C76.5159 43.464 76.1999 43.08 75.9759 42.584C75.7599 42.088 75.6519 41.5 75.6519 40.82C75.6519 40.14 75.7599 39.552 75.9759 39.056C76.1999 38.56 76.5159 38.176 76.9239 37.904C77.3319 37.632 77.8159 37.496 78.3759 37.496C78.8239 37.496 79.2159 37.604 79.5519 37.82C79.8879 38.028 80.1319 38.264 80.2839 38.528V35.48H81.2919V44H80.3799L80.3439 43.04C80.1679 43.384 79.9079 43.656 79.5639 43.856C79.2199 44.048 78.8239 44.144 78.3759 44.144ZM78.4359 43.184C78.8199 43.184 79.1479 43.088 79.4199 42.896C79.6999 42.704 79.9119 42.432 80.0559 42.08C80.2079 41.72 80.2839 41.3 80.2839 40.82C80.2839 40.324 80.2079 39.9 80.0559 39.548C79.9119 39.196 79.6999 38.928 79.4199 38.744C79.1399 38.552 78.8039 38.456 78.4119 38.456C77.8919 38.456 77.4759 38.668 77.1639 39.092C76.8599 39.508 76.7079 40.084 76.7079 40.82C76.7079 41.548 76.8599 42.124 77.1639 42.548C77.4759 42.972 77.8999 43.184 78.4359 43.184Z" fill="black"/>
</svg>
