<svg width="115" height="80" viewBox="0 0 115 80" fill="none" xmlns="http://www.w3.org/2000/svg">
<rect width="115" height="80" rx="8" fill="#535965"/>
<path d="M35.564 44L37.148 35.48H38.012L36.428 44H35.564ZM32.6 41.636L32.744 40.796H38.12L37.976 41.636H32.6ZM33.2 44L34.784 35.48H35.648L34.064 44H33.2ZM33.08 38.72L33.224 37.88H38.6L38.456 38.72H33.08ZM42.7713 44.192C42.2193 44.192 41.7353 44.092 41.3193 43.892C40.9113 43.692 40.5833 43.412 40.3353 43.052C40.0953 42.692 39.9553 42.276 39.9153 41.804L40.9953 41.732C41.0593 42.212 41.2473 42.576 41.5593 42.824C41.8793 43.064 42.2833 43.184 42.7713 43.184C43.3233 43.184 43.7633 43.016 44.0913 42.68C44.4273 42.336 44.5953 41.864 44.5953 41.264C44.5953 40.864 44.5233 40.52 44.3793 40.232C44.2353 39.936 44.0273 39.712 43.7553 39.56C43.4913 39.4 43.1713 39.32 42.7953 39.32C42.4593 39.32 42.1353 39.404 41.8233 39.572C41.5193 39.732 41.2993 39.964 41.1633 40.268H40.0593L40.6233 35.48H45.1593V36.488H41.5713L41.1873 39.632L40.9953 39.44C41.1233 39.192 41.2913 38.988 41.4993 38.828C41.7073 38.668 41.9353 38.548 42.1833 38.468C42.4393 38.38 42.6913 38.336 42.9393 38.336C43.4833 38.336 43.9593 38.464 44.3673 38.72C44.7833 38.968 45.1033 39.312 45.3273 39.752C45.5593 40.192 45.6753 40.696 45.6753 41.264C45.6753 41.832 45.5513 42.34 45.3033 42.788C45.0553 43.228 44.7113 43.572 44.2713 43.82C43.8393 44.068 43.3393 44.192 42.7713 44.192ZM49.9186 44.192C48.9986 44.192 48.2906 43.972 47.7946 43.532C47.2986 43.084 47.0306 42.508 46.9906 41.804L48.0586 41.732C48.1066 42.252 48.2986 42.624 48.6346 42.848C48.9786 43.072 49.4066 43.184 49.9186 43.184C50.2626 43.184 50.5866 43.136 50.8906 43.04C51.1946 42.936 51.4386 42.772 51.6226 42.548C51.8146 42.316 51.9106 42.008 51.9106 41.624C51.9106 41.248 51.8266 40.94 51.6586 40.7C51.4906 40.452 51.2586 40.272 50.9626 40.16C50.6746 40.04 50.3466 39.98 49.9786 39.98H49.3066V38.972H49.9786C50.2746 38.972 50.5466 38.928 50.7946 38.84C51.0426 38.752 51.2386 38.612 51.3826 38.42C51.5346 38.22 51.6106 37.96 51.6106 37.64C51.6106 37.2 51.4706 36.868 51.1906 36.644C50.9106 36.412 50.5066 36.296 49.9786 36.296C49.4426 36.296 49.0346 36.404 48.7546 36.62C48.4826 36.836 48.3186 37.132 48.2626 37.508L47.1826 37.436C47.2626 36.796 47.5426 36.28 48.0226 35.888C48.5026 35.488 49.1546 35.288 49.9786 35.288C50.5306 35.288 51.0106 35.384 51.4186 35.576C51.8266 35.76 52.1386 36.024 52.3546 36.368C52.5786 36.712 52.6906 37.12 52.6906 37.592C52.6906 38.12 52.5226 38.548 52.1866 38.876C51.8586 39.196 51.3706 39.416 50.7226 39.536V39.32C51.4186 39.4 51.9706 39.648 52.3786 40.064C52.7866 40.48 52.9906 41 52.9906 41.624C52.9906 42.168 52.8586 42.632 52.5946 43.016C52.3306 43.4 51.9666 43.692 51.5026 43.892C51.0386 44.092 50.5106 44.192 49.9186 44.192ZM57.1619 44.192C56.6099 44.192 56.1259 44.092 55.7099 43.892C55.3019 43.692 54.9739 43.412 54.7259 43.052C54.4859 42.692 54.3459 42.276 54.3059 41.804L55.3859 41.732C55.4499 42.212 55.6379 42.576 55.9499 42.824C56.2699 43.064 56.6739 43.184 57.1619 43.184C57.7139 43.184 58.1539 43.016 58.4819 42.68C58.8179 42.336 58.9859 41.864 58.9859 41.264C58.9859 40.864 58.9139 40.52 58.7699 40.232C58.6259 39.936 58.4179 39.712 58.1459 39.56C57.8819 39.4 57.5619 39.32 57.1859 39.32C56.8499 39.32 56.5259 39.404 56.2139 39.572C55.9099 39.732 55.6899 39.964 55.5539 40.268H54.4499L55.0139 35.48H59.5499V36.488H55.9619L55.5779 39.632L55.3859 39.44C55.5139 39.192 55.6819 38.988 55.8899 38.828C56.0979 38.668 56.3259 38.548 56.5739 38.468C56.8299 38.38 57.0819 38.336 57.3299 38.336C57.8739 38.336 58.3499 38.464 58.7579 38.72C59.1739 38.968 59.4939 39.312 59.7179 39.752C59.9499 40.192 60.0659 40.696 60.0659 41.264C60.0659 41.832 59.9419 42.34 59.6939 42.788C59.4459 43.228 59.1019 43.572 58.6619 43.82C58.2299 44.068 57.7299 44.192 57.1619 44.192ZM64.3573 35.288C64.9973 35.288 65.5413 35.436 65.9893 35.732C66.4453 36.02 66.7893 36.448 67.0213 37.016C67.2613 37.576 67.3813 38.264 67.3813 39.08C67.3813 39.784 67.3213 40.444 67.2013 41.06C67.0893 41.676 66.9013 42.22 66.6373 42.692C66.3813 43.156 66.0373 43.524 65.6053 43.796C65.1813 44.06 64.6533 44.192 64.0213 44.192C63.5173 44.192 63.0893 44.108 62.7373 43.94C62.3853 43.772 62.0973 43.536 61.8733 43.232C61.6573 42.928 61.4933 42.576 61.3813 42.176L62.4613 42.08C62.5573 42.416 62.7253 42.684 62.9653 42.884C63.2053 43.084 63.5573 43.184 64.0213 43.184C64.4933 43.184 64.8973 43.052 65.2333 42.788C65.5773 42.516 65.8413 42.112 66.0253 41.576C66.2093 41.04 66.3093 40.368 66.3253 39.56L66.5413 39.608C66.4533 39.896 66.2973 40.164 66.0733 40.412C65.8573 40.652 65.5853 40.848 65.2573 41C64.9373 41.144 64.5733 41.216 64.1653 41.216C63.6053 41.216 63.1173 41.096 62.7013 40.856C62.2853 40.616 61.9613 40.28 61.7293 39.848C61.4973 39.408 61.3813 38.896 61.3813 38.312C61.3813 37.688 61.5053 37.152 61.7533 36.704C62.0093 36.248 62.3613 35.9 62.8093 35.66C63.2573 35.412 63.7733 35.288 64.3573 35.288ZM64.3333 36.296C63.7733 36.296 63.3213 36.472 62.9773 36.824C62.6333 37.176 62.4613 37.672 62.4613 38.312C62.4613 38.896 62.6213 39.364 62.9413 39.716C63.2693 40.06 63.7013 40.232 64.2373 40.232C64.6213 40.232 64.9653 40.156 65.2693 40.004C65.5733 39.844 65.8133 39.62 65.9893 39.332C66.1653 39.044 66.2533 38.704 66.2533 38.312C66.2533 37.92 66.1733 37.572 66.0133 37.268C65.8613 36.964 65.6413 36.728 65.3533 36.56C65.0653 36.384 64.7253 36.296 64.3333 36.296ZM71.6006 44.192C70.9606 44.192 70.4126 44.048 69.9566 43.76C69.5086 43.464 69.1646 43.032 68.9246 42.464C68.6926 41.896 68.5766 41.208 68.5766 40.4C68.5766 39.696 68.6326 39.036 68.7446 38.42C68.8646 37.804 69.0526 37.264 69.3086 36.8C69.5726 36.328 69.9166 35.96 70.3406 35.696C70.7726 35.424 71.3046 35.288 71.9366 35.288C72.4406 35.288 72.8686 35.372 73.2206 35.54C73.5726 35.708 73.8566 35.944 74.0726 36.248C74.2966 36.552 74.4646 36.904 74.5766 37.304L73.4966 37.4C73.4006 37.064 73.2326 36.796 72.9926 36.596C72.7606 36.396 72.4086 36.296 71.9366 36.296C71.4646 36.296 71.0606 36.432 70.7246 36.704C70.3886 36.968 70.1246 37.368 69.9326 37.904C69.7486 38.44 69.6486 39.112 69.6326 39.92L69.4166 39.872C69.5046 39.584 69.6566 39.32 69.8726 39.08C70.0966 38.832 70.3686 38.636 70.6886 38.492C71.0166 38.34 71.3846 38.264 71.7926 38.264C72.3526 38.264 72.8406 38.384 73.2566 38.624C73.6726 38.864 73.9966 39.204 74.2286 39.644C74.4606 40.076 74.5766 40.584 74.5766 41.168C74.5766 41.792 74.4486 42.332 74.1926 42.788C73.9446 43.236 73.5966 43.584 73.1486 43.832C72.7086 44.072 72.1926 44.192 71.6006 44.192ZM71.6246 43.184C72.1846 43.184 72.6366 43.008 72.9806 42.656C73.3246 42.296 73.4966 41.8 73.4966 41.168C73.4966 40.576 73.3326 40.108 73.0046 39.764C72.6846 39.42 72.2566 39.248 71.7206 39.248C71.3366 39.248 70.9926 39.328 70.6886 39.488C70.3846 39.64 70.1446 39.86 69.9686 40.148C69.7926 40.436 69.7046 40.776 69.7046 41.168C69.7046 41.56 69.7806 41.908 69.9326 42.212C70.0926 42.516 70.3166 42.756 70.6046 42.932C70.8926 43.1 71.2326 43.184 71.6246 43.184ZM78.7479 44.192C78.1959 44.192 77.7119 44.092 77.2959 43.892C76.8879 43.692 76.5599 43.412 76.3119 43.052C76.0719 42.692 75.9319 42.276 75.8919 41.804L76.9719 41.732C77.0359 42.212 77.2239 42.576 77.5359 42.824C77.8559 43.064 78.2599 43.184 78.7479 43.184C79.2999 43.184 79.7399 43.016 80.0679 42.68C80.4039 42.336 80.5719 41.864 80.5719 41.264C80.5719 40.864 80.4999 40.52 80.3559 40.232C80.2119 39.936 80.0039 39.712 79.7319 39.56C79.4679 39.4 79.1479 39.32 78.7719 39.32C78.4359 39.32 78.1119 39.404 77.7999 39.572C77.4959 39.732 77.2759 39.964 77.1399 40.268H76.0359L76.5999 35.48H81.1359V36.488H77.5479L77.1639 39.632L76.9719 39.44C77.0999 39.192 77.2679 38.988 77.4759 38.828C77.6839 38.668 77.9119 38.548 78.1599 38.468C78.4159 38.38 78.6679 38.336 78.9159 38.336C79.4599 38.336 79.9359 38.464 80.3439 38.72C80.7599 38.968 81.0799 39.312 81.3039 39.752C81.5359 40.192 81.6519 40.696 81.6519 41.264C81.6519 41.832 81.5279 42.34 81.2799 42.788C81.0319 43.228 80.6879 43.572 80.2479 43.82C79.8159 44.068 79.3159 44.192 78.7479 44.192Z" fill="white"/>
</svg>
