<svg width="115" height="80" viewBox="0 0 115 80" fill="none" xmlns="http://www.w3.org/2000/svg">
<rect width="115" height="80" rx="8" fill="#7A818E"/>
<path d="M35.564 44L37.148 35.48H38.012L36.428 44H35.564ZM32.6 41.636L32.744 40.796H38.12L37.976 41.636H32.6ZM33.2 44L34.784 35.48H35.648L34.064 44H33.2ZM33.08 38.72L33.224 37.88H38.6L38.456 38.72H33.08ZM41.4993 44C41.4993 43.12 41.6193 42.244 41.8593 41.372C42.1073 40.492 42.4593 39.64 42.9153 38.816C43.3713 37.992 43.9153 37.216 44.5473 36.488H39.9153V35.48H45.6753V36.416C45.1393 37.024 44.6753 37.628 44.2833 38.228C43.8993 38.828 43.5833 39.436 43.3353 40.052C43.0873 40.66 42.9033 41.292 42.7833 41.948C42.6633 42.596 42.6033 43.28 42.6033 44H41.4993ZM49.1506 44.144C48.7506 44.144 48.3906 44.072 48.0706 43.928C47.7506 43.784 47.4986 43.584 47.3146 43.328C47.1306 43.064 47.0386 42.76 47.0386 42.416C47.0386 41.872 47.1986 41.452 47.5186 41.156C47.8466 40.852 48.3586 40.632 49.0546 40.496L51.1906 40.064C51.1906 39.52 51.0666 39.116 50.8186 38.852C50.5786 38.588 50.2306 38.456 49.7746 38.456C49.3346 38.456 48.9906 38.556 48.7426 38.756C48.4946 38.948 48.3226 39.228 48.2266 39.596L47.1586 39.512C47.2786 38.912 47.5626 38.428 48.0106 38.06C48.4666 37.684 49.0546 37.496 49.7746 37.496C50.5426 37.496 51.1386 37.728 51.5626 38.192C51.9866 38.648 52.1986 39.28 52.1986 40.088V42.728C52.1986 42.872 52.2306 42.972 52.2946 43.028C52.3586 43.084 52.4546 43.112 52.5826 43.112H52.9906V44C52.9426 44.008 52.8666 44.012 52.7626 44.012C52.6586 44.02 52.5586 44.024 52.4626 44.024C52.1906 44.024 51.9586 43.98 51.7666 43.892C51.5826 43.804 51.4426 43.664 51.3466 43.472C51.2506 43.272 51.1986 43.016 51.1906 42.704H51.3826C51.3266 42.976 51.1906 43.224 50.9746 43.448C50.7666 43.664 50.5026 43.836 50.1826 43.964C49.8626 44.084 49.5186 44.144 49.1506 44.144ZM49.2466 43.256C49.6786 43.256 50.0386 43.184 50.3266 43.04C50.6146 42.888 50.8306 42.68 50.9746 42.416C51.1186 42.144 51.1906 41.832 51.1906 41.48V40.928L49.2466 41.312C48.8146 41.392 48.5146 41.516 48.3466 41.684C48.1786 41.844 48.0946 42.056 48.0946 42.32C48.0946 42.616 48.1946 42.848 48.3946 43.016C48.6026 43.176 48.8866 43.256 49.2466 43.256ZM57.1859 44.192C56.6259 44.192 56.1179 44.096 55.6619 43.904C55.2059 43.712 54.8459 43.428 54.5819 43.052C54.3179 42.676 54.1859 42.212 54.1859 41.66C54.1859 41.044 54.3699 40.536 54.7379 40.136C55.1059 39.728 55.5939 39.452 56.2019 39.308L56.2259 39.548C55.7379 39.412 55.3419 39.192 55.0379 38.888C54.7419 38.576 54.5939 38.156 54.5939 37.628C54.5939 37.18 54.7059 36.78 54.9299 36.428C55.1539 36.076 55.4579 35.8 55.8419 35.6C56.2339 35.392 56.6819 35.288 57.1859 35.288C57.6899 35.288 58.1379 35.392 58.5299 35.6C58.9219 35.8 59.2259 36.076 59.4419 36.428C59.6659 36.78 59.7779 37.18 59.7779 37.628C59.7779 38.156 59.6299 38.576 59.3339 38.888C59.0379 39.192 58.6419 39.412 58.1459 39.548L58.1699 39.308C58.7859 39.452 59.2739 39.728 59.6339 40.136C60.0019 40.536 60.1859 41.044 60.1859 41.66C60.1859 42.212 60.0539 42.676 59.7899 43.052C59.5259 43.428 59.1659 43.712 58.7099 43.904C58.2619 44.096 57.7539 44.192 57.1859 44.192ZM57.1859 43.184C57.7459 43.184 58.2059 43.056 58.5659 42.8C58.9259 42.536 59.1059 42.136 59.1059 41.6C59.1059 41.104 58.9459 40.708 58.6259 40.412C58.3059 40.108 57.8259 39.956 57.1859 39.956C56.5539 39.956 56.0739 40.108 55.7459 40.412C55.4259 40.708 55.2659 41.104 55.2659 41.6C55.2659 42.136 55.4459 42.536 55.8059 42.8C56.1659 43.056 56.6259 43.184 57.1859 43.184ZM57.1859 38.996C57.6419 38.996 58.0059 38.884 58.2779 38.66C58.5579 38.428 58.6979 38.084 58.6979 37.628C58.6979 37.22 58.5619 36.896 58.2899 36.656C58.0259 36.416 57.6579 36.296 57.1859 36.296C56.7219 36.296 56.3539 36.416 56.0819 36.656C55.8099 36.896 55.6739 37.22 55.6739 37.628C55.6739 38.084 55.8099 38.428 56.0819 38.66C56.3619 38.884 56.7299 38.996 57.1859 38.996ZM64.1893 44V37.688H61.9573V36.8H63.1093C63.4133 36.8 63.6573 36.756 63.8413 36.668C64.0333 36.58 64.1693 36.44 64.2493 36.248C64.3373 36.056 64.3813 35.8 64.3813 35.48H65.2213V44H64.1893ZM61.5013 44V42.992H67.2613V44H61.5013ZM71.5766 44.192C71.0166 44.192 70.5086 44.096 70.0526 43.904C69.5966 43.712 69.2366 43.428 68.9726 43.052C68.7086 42.676 68.5766 42.212 68.5766 41.66C68.5766 41.044 68.7606 40.536 69.1286 40.136C69.4966 39.728 69.9846 39.452 70.5926 39.308L70.6166 39.548C70.1286 39.412 69.7326 39.192 69.4286 38.888C69.1326 38.576 68.9846 38.156 68.9846 37.628C68.9846 37.18 69.0966 36.78 69.3206 36.428C69.5446 36.076 69.8486 35.8 70.2326 35.6C70.6246 35.392 71.0726 35.288 71.5766 35.288C72.0806 35.288 72.5286 35.392 72.9206 35.6C73.3126 35.8 73.6166 36.076 73.8326 36.428C74.0566 36.78 74.1686 37.18 74.1686 37.628C74.1686 38.156 74.0206 38.576 73.7246 38.888C73.4286 39.192 73.0326 39.412 72.5366 39.548L72.5606 39.308C73.1766 39.452 73.6646 39.728 74.0246 40.136C74.3926 40.536 74.5766 41.044 74.5766 41.66C74.5766 42.212 74.4446 42.676 74.1806 43.052C73.9166 43.428 73.5566 43.712 73.1006 43.904C72.6526 44.096 72.1446 44.192 71.5766 44.192ZM71.5766 43.184C72.1366 43.184 72.5966 43.056 72.9566 42.8C73.3166 42.536 73.4966 42.136 73.4966 41.6C73.4966 41.104 73.3366 40.708 73.0166 40.412C72.6966 40.108 72.2166 39.956 71.5766 39.956C70.9446 39.956 70.4646 40.108 70.1366 40.412C69.8166 40.708 69.6566 41.104 69.6566 41.6C69.6566 42.136 69.8366 42.536 70.1966 42.8C70.5566 43.056 71.0166 43.184 71.5766 43.184ZM71.5766 38.996C72.0326 38.996 72.3966 38.884 72.6686 38.66C72.9486 38.428 73.0886 38.084 73.0886 37.628C73.0886 37.22 72.9526 36.896 72.6806 36.656C72.4166 36.416 72.0486 36.296 71.5766 36.296C71.1126 36.296 70.7446 36.416 70.4726 36.656C70.2006 36.896 70.0646 37.22 70.0646 37.628C70.0646 38.084 70.2006 38.428 70.4726 38.66C70.7526 38.884 71.1206 38.996 71.5766 38.996ZM78.8799 44.144C78.2799 44.144 77.7599 44.008 77.3199 43.736C76.8879 43.464 76.5519 43.08 76.3119 42.584C76.0799 42.08 75.9639 41.492 75.9639 40.82C75.9639 40.148 76.0799 39.564 76.3119 39.068C76.5519 38.572 76.8839 38.188 77.3079 37.916C77.7399 37.636 78.2479 37.496 78.8319 37.496C79.3839 37.496 79.8719 37.628 80.2959 37.892C80.7199 38.148 81.0519 38.524 81.2919 39.02C81.5319 39.516 81.6519 40.12 81.6519 40.832V41.132H77.0199C77.0599 41.812 77.2399 42.324 77.5599 42.668C77.8879 43.012 78.3279 43.184 78.8799 43.184C79.2959 43.184 79.6359 43.088 79.8999 42.896C80.1719 42.696 80.3599 42.436 80.4639 42.116L81.5439 42.2C81.3759 42.768 81.0559 43.236 80.5839 43.604C80.1199 43.964 79.5519 44.144 78.8799 44.144ZM77.0199 40.244H80.5479C80.4999 39.628 80.3199 39.176 80.0079 38.888C79.6959 38.6 79.3039 38.456 78.8319 38.456C78.3439 38.456 77.9399 38.608 77.6199 38.912C77.3079 39.208 77.1079 39.652 77.0199 40.244Z" fill="black"/>
</svg>
