<svg width="115" height="80" viewBox="0 0 115 80" fill="none" xmlns="http://www.w3.org/2000/svg">
<rect width="115" height="80" rx="8" fill="#8EBD6B"/>
<path d="M35.564 44L37.148 35.48H38.012L36.428 44H35.564ZM32.6 41.636L32.744 40.796H38.12L37.976 41.636H32.6ZM33.2 44L34.784 35.48H35.648L34.064 44H33.2ZM33.08 38.72L33.224 37.88H38.6L38.456 38.72H33.08ZM42.7953 44.192C42.2353 44.192 41.7273 44.096 41.2713 43.904C40.8153 43.712 40.4553 43.428 40.1913 43.052C39.9273 42.676 39.7953 42.212 39.7953 41.66C39.7953 41.044 39.9793 40.536 40.3473 40.136C40.7153 39.728 41.2033 39.452 41.8113 39.308L41.8353 39.548C41.3473 39.412 40.9513 39.192 40.6473 38.888C40.3513 38.576 40.2033 38.156 40.2033 37.628C40.2033 37.18 40.3153 36.78 40.5393 36.428C40.7633 36.076 41.0673 35.8 41.4513 35.6C41.8433 35.392 42.2913 35.288 42.7953 35.288C43.2993 35.288 43.7473 35.392 44.1393 35.6C44.5313 35.8 44.8353 36.076 45.0513 36.428C45.2753 36.78 45.3873 37.18 45.3873 37.628C45.3873 38.156 45.2393 38.576 44.9433 38.888C44.6473 39.192 44.2513 39.412 43.7553 39.548L43.7793 39.308C44.3953 39.452 44.8833 39.728 45.2433 40.136C45.6113 40.536 45.7953 41.044 45.7953 41.66C45.7953 42.212 45.6633 42.676 45.3993 43.052C45.1353 43.428 44.7753 43.712 44.3193 43.904C43.8713 44.096 43.3633 44.192 42.7953 44.192ZM42.7953 43.184C43.3553 43.184 43.8153 43.056 44.1753 42.8C44.5353 42.536 44.7153 42.136 44.7153 41.6C44.7153 41.104 44.5553 40.708 44.2353 40.412C43.9153 40.108 43.4353 39.956 42.7953 39.956C42.1633 39.956 41.6833 40.108 41.3553 40.412C41.0353 40.708 40.8753 41.104 40.8753 41.6C40.8753 42.136 41.0553 42.536 41.4153 42.8C41.7753 43.056 42.2353 43.184 42.7953 43.184ZM42.7953 38.996C43.2513 38.996 43.6153 38.884 43.8873 38.66C44.1673 38.428 44.3073 38.084 44.3073 37.628C44.3073 37.22 44.1713 36.896 43.8993 36.656C43.6353 36.416 43.2673 36.296 42.7953 36.296C42.3313 36.296 41.9633 36.416 41.6913 36.656C41.4193 36.896 41.2833 37.22 41.2833 37.628C41.2833 38.084 41.4193 38.428 41.6913 38.66C41.9713 38.884 42.3393 38.996 42.7953 38.996ZM50.0986 44.144C49.4986 44.144 48.9786 44.008 48.5386 43.736C48.1066 43.464 47.7706 43.08 47.5306 42.584C47.2986 42.08 47.1826 41.492 47.1826 40.82C47.1826 40.148 47.2986 39.564 47.5306 39.068C47.7706 38.572 48.1026 38.188 48.5266 37.916C48.9586 37.636 49.4666 37.496 50.0506 37.496C50.6026 37.496 51.0906 37.628 51.5146 37.892C51.9386 38.148 52.2706 38.524 52.5106 39.02C52.7506 39.516 52.8706 40.12 52.8706 40.832V41.132H48.2386C48.2786 41.812 48.4586 42.324 48.7786 42.668C49.1066 43.012 49.5466 43.184 50.0986 43.184C50.5146 43.184 50.8546 43.088 51.1186 42.896C51.3906 42.696 51.5786 42.436 51.6826 42.116L52.7626 42.2C52.5946 42.768 52.2746 43.236 51.8026 43.604C51.3386 43.964 50.7706 44.144 50.0986 44.144ZM48.2386 40.244H51.7666C51.7186 39.628 51.5386 39.176 51.2266 38.888C50.9146 38.6 50.5226 38.456 50.0506 38.456C49.5626 38.456 49.1586 38.608 48.8386 38.912C48.5266 39.208 48.3266 39.652 48.2386 40.244ZM57.5819 44.144C57.1419 44.144 56.7499 44.048 56.4059 43.856C56.0619 43.656 55.7979 43.384 55.6139 43.04L55.5779 44H54.6659V35.48H55.6739V38.528C55.8339 38.264 56.0819 38.028 56.4179 37.82C56.7539 37.604 57.1419 37.496 57.5819 37.496C58.1419 37.496 58.6259 37.632 59.0339 37.904C59.4419 38.176 59.7539 38.56 59.9699 39.056C60.1939 39.552 60.3059 40.14 60.3059 40.82C60.3059 41.5 60.1939 42.088 59.9699 42.584C59.7539 43.08 59.4419 43.464 59.0339 43.736C58.6259 44.008 58.1419 44.144 57.5819 44.144ZM57.5219 43.184C58.0579 43.184 58.4779 42.972 58.7819 42.548C59.0939 42.124 59.2499 41.548 59.2499 40.82C59.2499 40.084 59.0939 39.508 58.7819 39.092C58.4779 38.668 58.0659 38.456 57.5459 38.456C57.1539 38.456 56.8179 38.552 56.5379 38.744C56.2579 38.928 56.0419 39.196 55.8899 39.548C55.7459 39.9 55.6739 40.324 55.6739 40.82C55.6739 41.3 55.7459 41.72 55.8899 42.08C56.0419 42.432 56.2539 42.704 56.5259 42.896C56.8059 43.088 57.1379 43.184 57.5219 43.184ZM63.9853 44.144C63.4253 44.144 62.9413 44.008 62.5333 43.736C62.1253 43.464 61.8093 43.08 61.5853 42.584C61.3693 42.088 61.2613 41.5 61.2613 40.82C61.2613 40.14 61.3693 39.552 61.5853 39.056C61.8093 38.56 62.1253 38.176 62.5333 37.904C62.9413 37.632 63.4253 37.496 63.9853 37.496C64.4333 37.496 64.8253 37.604 65.1613 37.82C65.4973 38.028 65.7413 38.264 65.8933 38.528V35.48H66.9013V44H65.9893L65.9533 43.04C65.7773 43.384 65.5173 43.656 65.1733 43.856C64.8293 44.048 64.4333 44.144 63.9853 44.144ZM64.0453 43.184C64.4293 43.184 64.7573 43.088 65.0293 42.896C65.3093 42.704 65.5213 42.432 65.6653 42.08C65.8173 41.72 65.8933 41.3 65.8933 40.82C65.8933 40.324 65.8173 39.9 65.6653 39.548C65.5213 39.196 65.3093 38.928 65.0293 38.744C64.7493 38.552 64.4133 38.456 64.0213 38.456C63.5013 38.456 63.0853 38.668 62.7733 39.092C62.4693 39.508 62.3173 40.084 62.3173 40.82C62.3173 41.548 62.4693 42.124 62.7733 42.548C63.0853 42.972 63.5093 43.184 64.0453 43.184ZM71.6006 44.192C70.9606 44.192 70.4126 44.048 69.9566 43.76C69.5086 43.464 69.1646 43.032 68.9246 42.464C68.6926 41.896 68.5766 41.208 68.5766 40.4C68.5766 39.696 68.6326 39.036 68.7446 38.42C68.8646 37.804 69.0526 37.264 69.3086 36.8C69.5726 36.328 69.9166 35.96 70.3406 35.696C70.7726 35.424 71.3046 35.288 71.9366 35.288C72.4406 35.288 72.8686 35.372 73.2206 35.54C73.5726 35.708 73.8566 35.944 74.0726 36.248C74.2966 36.552 74.4646 36.904 74.5766 37.304L73.4966 37.4C73.4006 37.064 73.2326 36.796 72.9926 36.596C72.7606 36.396 72.4086 36.296 71.9366 36.296C71.4646 36.296 71.0606 36.432 70.7246 36.704C70.3886 36.968 70.1246 37.368 69.9326 37.904C69.7486 38.44 69.6486 39.112 69.6326 39.92L69.4166 39.872C69.5046 39.584 69.6566 39.32 69.8726 39.08C70.0966 38.832 70.3686 38.636 70.6886 38.492C71.0166 38.34 71.3846 38.264 71.7926 38.264C72.3526 38.264 72.8406 38.384 73.2566 38.624C73.6726 38.864 73.9966 39.204 74.2286 39.644C74.4606 40.076 74.5766 40.584 74.5766 41.168C74.5766 41.792 74.4486 42.332 74.1926 42.788C73.9446 43.236 73.5966 43.584 73.1486 43.832C72.7086 44.072 72.1926 44.192 71.6006 44.192ZM71.6246 43.184C72.1846 43.184 72.6366 43.008 72.9806 42.656C73.3246 42.296 73.4966 41.8 73.4966 41.168C73.4966 40.576 73.3326 40.108 73.0046 39.764C72.6846 39.42 72.2566 39.248 71.7206 39.248C71.3366 39.248 70.9926 39.328 70.6886 39.488C70.3846 39.64 70.1446 39.86 69.9686 40.148C69.7926 40.436 69.7046 40.776 69.7046 41.168C69.7046 41.56 69.7806 41.908 69.9326 42.212C70.0926 42.516 70.3166 42.756 70.6046 42.932C70.8926 43.1 71.2326 43.184 71.6246 43.184ZM79.1679 44.144C78.7279 44.144 78.3359 44.048 77.9919 43.856C77.6479 43.656 77.3839 43.384 77.1999 43.04L77.1639 44H76.2519V35.48H77.2599V38.528C77.4199 38.264 77.6679 38.028 78.0039 37.82C78.3399 37.604 78.7279 37.496 79.1679 37.496C79.7279 37.496 80.2119 37.632 80.6199 37.904C81.0279 38.176 81.3399 38.56 81.5559 39.056C81.7799 39.552 81.8919 40.14 81.8919 40.82C81.8919 41.5 81.7799 42.088 81.5559 42.584C81.3399 43.08 81.0279 43.464 80.6199 43.736C80.2119 44.008 79.7279 44.144 79.1679 44.144ZM79.1079 43.184C79.6439 43.184 80.0639 42.972 80.3679 42.548C80.6799 42.124 80.8359 41.548 80.8359 40.82C80.8359 40.084 80.6799 39.508 80.3679 39.092C80.0639 38.668 79.6519 38.456 79.1319 38.456C78.7399 38.456 78.4039 38.552 78.1239 38.744C77.8439 38.928 77.6279 39.196 77.4759 39.548C77.3319 39.9 77.2599 40.324 77.2599 40.82C77.2599 41.3 77.3319 41.72 77.4759 42.08C77.6279 42.432 77.8399 42.704 78.1119 42.896C78.3919 43.088 78.7239 43.184 79.1079 43.184Z" fill="black"/>
</svg>
