<svg width="115" height="80" viewBox="0 0 115 80" fill="none" xmlns="http://www.w3.org/2000/svg">
<rect width="115" height="80" rx="8" fill="#A0A8B7"/>
<path d="M35.564 44L37.148 35.48H38.012L36.428 44H35.564ZM32.6 41.636L32.744 40.796H38.12L37.976 41.636H32.6ZM33.2 44L34.784 35.48H35.648L34.064 44H33.2ZM33.08 38.72L33.224 37.88H38.6L38.456 38.72H33.08ZM41.9553 44.144C41.5553 44.144 41.1953 44.072 40.8753 43.928C40.5553 43.784 40.3033 43.584 40.1193 43.328C39.9353 43.064 39.8433 42.76 39.8433 42.416C39.8433 41.872 40.0033 41.452 40.3233 41.156C40.6513 40.852 41.1633 40.632 41.8593 40.496L43.9953 40.064C43.9953 39.52 43.8713 39.116 43.6233 38.852C43.3833 38.588 43.0353 38.456 42.5793 38.456C42.1393 38.456 41.7953 38.556 41.5473 38.756C41.2993 38.948 41.1273 39.228 41.0313 39.596L39.9633 39.512C40.0833 38.912 40.3673 38.428 40.8153 38.06C41.2713 37.684 41.8593 37.496 42.5793 37.496C43.3473 37.496 43.9433 37.728 44.3673 38.192C44.7913 38.648 45.0033 39.28 45.0033 40.088V42.728C45.0033 42.872 45.0353 42.972 45.0993 43.028C45.1633 43.084 45.2593 43.112 45.3873 43.112H45.7953V44C45.7473 44.008 45.6713 44.012 45.5673 44.012C45.4633 44.02 45.3633 44.024 45.2673 44.024C44.9953 44.024 44.7633 43.98 44.5713 43.892C44.3873 43.804 44.2473 43.664 44.1513 43.472C44.0553 43.272 44.0033 43.016 43.9953 42.704H44.1873C44.1313 42.976 43.9953 43.224 43.7793 43.448C43.5713 43.664 43.3073 43.836 42.9873 43.964C42.6673 44.084 42.3233 44.144 41.9553 44.144ZM42.0513 43.256C42.4833 43.256 42.8433 43.184 43.1313 43.04C43.4193 42.888 43.6353 42.68 43.7793 42.416C43.9233 42.144 43.9953 41.832 43.9953 41.48V40.928L42.0513 41.312C41.6193 41.392 41.3193 41.516 41.1513 41.684C40.9833 41.844 40.8993 42.056 40.8993 42.32C40.8993 42.616 40.9993 42.848 41.1993 43.016C41.4073 43.176 41.6913 43.256 42.0513 43.256ZM47.8306 42.776L51.1906 36.656L52.1506 36.704L48.7906 42.824L47.8306 42.776ZM49.9906 44.192C49.3746 44.192 48.8386 44.012 48.3826 43.652C47.9346 43.292 47.5906 42.78 47.3506 42.116C47.1106 41.452 46.9906 40.664 46.9906 39.752C46.9906 38.832 47.1106 38.04 47.3506 37.376C47.5906 36.712 47.9346 36.2 48.3826 35.84C48.8386 35.472 49.3746 35.288 49.9906 35.288C50.6146 35.288 51.1506 35.472 51.5986 35.84C52.0466 36.2 52.3906 36.712 52.6306 37.376C52.8706 38.04 52.9906 38.832 52.9906 39.752C52.9906 40.664 52.8706 41.452 52.6306 42.116C52.3906 42.78 52.0466 43.292 51.5986 43.652C51.1506 44.012 50.6146 44.192 49.9906 44.192ZM49.9906 43.184C50.3906 43.184 50.7306 43.044 51.0106 42.764C51.2986 42.484 51.5186 42.088 51.6706 41.576C51.8306 41.056 51.9106 40.448 51.9106 39.752C51.9106 39.04 51.8306 38.428 51.6706 37.916C51.5186 37.396 51.2986 36.996 51.0106 36.716C50.7306 36.436 50.3906 36.296 49.9906 36.296C49.5986 36.296 49.2586 36.436 48.9706 36.716C48.6826 36.996 48.4586 37.396 48.2986 37.916C48.1466 38.428 48.0706 39.04 48.0706 39.752C48.0706 40.448 48.1466 41.056 48.2986 41.576C48.4586 42.088 48.6826 42.484 48.9706 42.764C49.2586 43.044 49.5986 43.184 49.9906 43.184ZM56.3459 44.144C55.9459 44.144 55.5859 44.072 55.2659 43.928C54.9459 43.784 54.6939 43.584 54.5099 43.328C54.3259 43.064 54.2339 42.76 54.2339 42.416C54.2339 41.872 54.3939 41.452 54.7139 41.156C55.0419 40.852 55.5539 40.632 56.2499 40.496L58.3859 40.064C58.3859 39.52 58.2619 39.116 58.0139 38.852C57.7739 38.588 57.4259 38.456 56.9699 38.456C56.5299 38.456 56.1859 38.556 55.9379 38.756C55.6899 38.948 55.5179 39.228 55.4219 39.596L54.3539 39.512C54.4739 38.912 54.7579 38.428 55.2059 38.06C55.6619 37.684 56.2499 37.496 56.9699 37.496C57.7379 37.496 58.3339 37.728 58.7579 38.192C59.1819 38.648 59.3939 39.28 59.3939 40.088V42.728C59.3939 42.872 59.4259 42.972 59.4899 43.028C59.5539 43.084 59.6499 43.112 59.7779 43.112H60.1859V44C60.1379 44.008 60.0619 44.012 59.9579 44.012C59.8539 44.02 59.7539 44.024 59.6579 44.024C59.3859 44.024 59.1539 43.98 58.9619 43.892C58.7779 43.804 58.6379 43.664 58.5419 43.472C58.4459 43.272 58.3939 43.016 58.3859 42.704H58.5779C58.5219 42.976 58.3859 43.224 58.1699 43.448C57.9619 43.664 57.6979 43.836 57.3779 43.964C57.0579 44.084 56.7139 44.144 56.3459 44.144ZM56.4419 43.256C56.8739 43.256 57.2339 43.184 57.5219 43.04C57.8099 42.888 58.0259 42.68 58.1699 42.416C58.3139 42.144 58.3859 41.832 58.3859 41.48V40.928L56.4419 41.312C56.0099 41.392 55.7099 41.516 55.5419 41.684C55.3739 41.844 55.2899 42.056 55.2899 42.32C55.2899 42.616 55.3899 42.848 55.5899 43.016C55.7979 43.176 56.0819 43.256 56.4419 43.256ZM64.3813 44.192C63.8213 44.192 63.3133 44.096 62.8573 43.904C62.4013 43.712 62.0413 43.428 61.7773 43.052C61.5133 42.676 61.3813 42.212 61.3813 41.66C61.3813 41.044 61.5653 40.536 61.9333 40.136C62.3013 39.728 62.7893 39.452 63.3973 39.308L63.4213 39.548C62.9333 39.412 62.5373 39.192 62.2333 38.888C61.9373 38.576 61.7893 38.156 61.7893 37.628C61.7893 37.18 61.9013 36.78 62.1253 36.428C62.3493 36.076 62.6533 35.8 63.0373 35.6C63.4293 35.392 63.8773 35.288 64.3813 35.288C64.8853 35.288 65.3333 35.392 65.7253 35.6C66.1173 35.8 66.4213 36.076 66.6373 36.428C66.8613 36.78 66.9733 37.18 66.9733 37.628C66.9733 38.156 66.8253 38.576 66.5293 38.888C66.2333 39.192 65.8373 39.412 65.3413 39.548L65.3653 39.308C65.9813 39.452 66.4693 39.728 66.8293 40.136C67.1973 40.536 67.3813 41.044 67.3813 41.66C67.3813 42.212 67.2493 42.676 66.9853 43.052C66.7213 43.428 66.3613 43.712 65.9053 43.904C65.4573 44.096 64.9493 44.192 64.3813 44.192ZM64.3813 43.184C64.9413 43.184 65.4013 43.056 65.7613 42.8C66.1213 42.536 66.3013 42.136 66.3013 41.6C66.3013 41.104 66.1413 40.708 65.8213 40.412C65.5013 40.108 65.0213 39.956 64.3813 39.956C63.7493 39.956 63.2693 40.108 62.9413 40.412C62.6213 40.708 62.4613 41.104 62.4613 41.6C62.4613 42.136 62.6413 42.536 63.0013 42.8C63.3613 43.056 63.8213 43.184 64.3813 43.184ZM64.3813 38.996C64.8373 38.996 65.2013 38.884 65.4733 38.66C65.7533 38.428 65.8933 38.084 65.8933 37.628C65.8933 37.22 65.7573 36.896 65.4853 36.656C65.2213 36.416 64.8533 36.296 64.3813 36.296C63.9173 36.296 63.5493 36.416 63.2773 36.656C63.0053 36.896 62.8693 37.22 62.8693 37.628C62.8693 38.084 63.0053 38.428 63.2773 38.66C63.5573 38.884 63.9253 38.996 64.3813 38.996ZM71.9726 44.144C71.5326 44.144 71.1406 44.048 70.7966 43.856C70.4526 43.656 70.1886 43.384 70.0046 43.04L69.9686 44H69.0566V35.48H70.0646V38.528C70.2246 38.264 70.4726 38.028 70.8086 37.82C71.1446 37.604 71.5326 37.496 71.9726 37.496C72.5326 37.496 73.0166 37.632 73.4246 37.904C73.8326 38.176 74.1446 38.56 74.3606 39.056C74.5846 39.552 74.6966 40.14 74.6966 40.82C74.6966 41.5 74.5846 42.088 74.3606 42.584C74.1446 43.08 73.8326 43.464 73.4246 43.736C73.0166 44.008 72.5326 44.144 71.9726 44.144ZM71.9126 43.184C72.4486 43.184 72.8686 42.972 73.1726 42.548C73.4846 42.124 73.6406 41.548 73.6406 40.82C73.6406 40.084 73.4846 39.508 73.1726 39.092C72.8686 38.668 72.4566 38.456 71.9366 38.456C71.5446 38.456 71.2086 38.552 70.9286 38.744C70.6486 38.928 70.4326 39.196 70.2806 39.548C70.1366 39.9 70.0646 40.324 70.0646 40.82C70.0646 41.3 70.1366 41.72 70.2806 42.08C70.4326 42.432 70.6446 42.704 70.9166 42.896C71.1966 43.088 71.5286 43.184 71.9126 43.184ZM77.4759 44C77.4759 43.12 77.5959 42.244 77.8359 41.372C78.0839 40.492 78.4359 39.64 78.8919 38.816C79.3479 37.992 79.8919 37.216 80.5239 36.488H75.8919V35.48H81.6519V36.416C81.1159 37.024 80.6519 37.628 80.2599 38.228C79.8759 38.828 79.5599 39.436 79.3119 40.052C79.0639 40.66 78.8799 41.292 78.7599 41.948C78.6399 42.596 78.5799 43.28 78.5799 44H77.4759Z" fill="black"/>
</svg>
