<svg width="115" height="80" viewBox="0 0 115 80" fill="none" xmlns="http://www.w3.org/2000/svg">
<rect width="115" height="80" rx="8" fill="#BF68D9"/>
<path d="M35.564 44L37.148 35.48H38.012L36.428 44H35.564ZM32.6 41.636L32.744 40.796H38.12L37.976 41.636H32.6ZM33.2 44L34.784 35.48H35.648L34.064 44H33.2ZM33.08 38.72L33.224 37.88H38.6L38.456 38.72H33.08ZM43.1913 44.144C42.7513 44.144 42.3593 44.048 42.0153 43.856C41.6713 43.656 41.4073 43.384 41.2233 43.04L41.1873 44H40.2753V35.48H41.2833V38.528C41.4433 38.264 41.6913 38.028 42.0273 37.82C42.3633 37.604 42.7513 37.496 43.1913 37.496C43.7513 37.496 44.2353 37.632 44.6433 37.904C45.0513 38.176 45.3633 38.56 45.5793 39.056C45.8033 39.552 45.9153 40.14 45.9153 40.82C45.9153 41.5 45.8033 42.088 45.5793 42.584C45.3633 43.08 45.0513 43.464 44.6433 43.736C44.2353 44.008 43.7513 44.144 43.1913 44.144ZM43.1313 43.184C43.6673 43.184 44.0873 42.972 44.3913 42.548C44.7033 42.124 44.8593 41.548 44.8593 40.82C44.8593 40.084 44.7033 39.508 44.3913 39.092C44.0873 38.668 43.6753 38.456 43.1553 38.456C42.7633 38.456 42.4273 38.552 42.1473 38.744C41.8673 38.928 41.6513 39.196 41.4993 39.548C41.3553 39.9 41.2833 40.324 41.2833 40.82C41.2833 41.3 41.3553 41.72 41.4993 42.08C41.6513 42.432 41.8633 42.704 42.1353 42.896C42.4153 43.088 42.7473 43.184 43.1313 43.184ZM48.9346 44V37.232C48.9346 36.664 49.0786 36.232 49.3666 35.936C49.6626 35.632 50.1106 35.48 50.7106 35.48H52.7506V36.368H50.7106C50.4626 36.368 50.2706 36.448 50.1346 36.608C50.0066 36.76 49.9426 36.968 49.9426 37.232V44H48.9346ZM47.2306 38.528V37.64H52.6306V38.528H47.2306ZM57.2099 44.192C56.5699 44.192 56.0219 44.048 55.5659 43.76C55.1179 43.464 54.7739 43.032 54.5339 42.464C54.3019 41.896 54.1859 41.208 54.1859 40.4C54.1859 39.696 54.2419 39.036 54.3539 38.42C54.4739 37.804 54.6619 37.264 54.9179 36.8C55.1819 36.328 55.5259 35.96 55.9499 35.696C56.3819 35.424 56.9139 35.288 57.5459 35.288C58.0499 35.288 58.4779 35.372 58.8299 35.54C59.1819 35.708 59.4659 35.944 59.6819 36.248C59.9059 36.552 60.0739 36.904 60.1859 37.304L59.1059 37.4C59.0099 37.064 58.8419 36.796 58.6019 36.596C58.3699 36.396 58.0179 36.296 57.5459 36.296C57.0739 36.296 56.6699 36.432 56.3339 36.704C55.9979 36.968 55.7339 37.368 55.5419 37.904C55.3579 38.44 55.2579 39.112 55.2419 39.92L55.0259 39.872C55.1139 39.584 55.2659 39.32 55.4819 39.08C55.7059 38.832 55.9779 38.636 56.2979 38.492C56.6259 38.34 56.9939 38.264 57.4019 38.264C57.9619 38.264 58.4499 38.384 58.8659 38.624C59.2819 38.864 59.6059 39.204 59.8379 39.644C60.0699 40.076 60.1859 40.584 60.1859 41.168C60.1859 41.792 60.0579 42.332 59.8019 42.788C59.5539 43.236 59.2059 43.584 58.7579 43.832C58.3179 44.072 57.8019 44.192 57.2099 44.192ZM57.2339 43.184C57.7939 43.184 58.2459 43.008 58.5899 42.656C58.9339 42.296 59.1059 41.8 59.1059 41.168C59.1059 40.576 58.9419 40.108 58.6139 39.764C58.2939 39.42 57.8659 39.248 57.3299 39.248C56.9459 39.248 56.6019 39.328 56.2979 39.488C55.9939 39.64 55.7539 39.86 55.5779 40.148C55.4019 40.436 55.3139 40.776 55.3139 41.168C55.3139 41.56 55.3899 41.908 55.5419 42.212C55.7019 42.516 55.9259 42.756 56.2139 42.932C56.5019 43.1 56.8419 43.184 57.2339 43.184ZM64.3813 44.192C63.8213 44.192 63.3133 44.096 62.8573 43.904C62.4013 43.712 62.0413 43.428 61.7773 43.052C61.5133 42.676 61.3813 42.212 61.3813 41.66C61.3813 41.044 61.5653 40.536 61.9333 40.136C62.3013 39.728 62.7893 39.452 63.3973 39.308L63.4213 39.548C62.9333 39.412 62.5373 39.192 62.2333 38.888C61.9373 38.576 61.7893 38.156 61.7893 37.628C61.7893 37.18 61.9013 36.78 62.1253 36.428C62.3493 36.076 62.6533 35.8 63.0373 35.6C63.4293 35.392 63.8773 35.288 64.3813 35.288C64.8853 35.288 65.3333 35.392 65.7253 35.6C66.1173 35.8 66.4213 36.076 66.6373 36.428C66.8613 36.78 66.9733 37.18 66.9733 37.628C66.9733 38.156 66.8253 38.576 66.5293 38.888C66.2333 39.192 65.8373 39.412 65.3413 39.548L65.3653 39.308C65.9813 39.452 66.4693 39.728 66.8293 40.136C67.1973 40.536 67.3813 41.044 67.3813 41.66C67.3813 42.212 67.2493 42.676 66.9853 43.052C66.7213 43.428 66.3613 43.712 65.9053 43.904C65.4573 44.096 64.9493 44.192 64.3813 44.192ZM64.3813 43.184C64.9413 43.184 65.4013 43.056 65.7613 42.8C66.1213 42.536 66.3013 42.136 66.3013 41.6C66.3013 41.104 66.1413 40.708 65.8213 40.412C65.5013 40.108 65.0213 39.956 64.3813 39.956C63.7493 39.956 63.2693 40.108 62.9413 40.412C62.6213 40.708 62.4613 41.104 62.4613 41.6C62.4613 42.136 62.6413 42.536 63.0013 42.8C63.3613 43.056 63.8213 43.184 64.3813 43.184ZM64.3813 38.996C64.8373 38.996 65.2013 38.884 65.4733 38.66C65.7533 38.428 65.8933 38.084 65.8933 37.628C65.8933 37.22 65.7573 36.896 65.4853 36.656C65.2213 36.416 64.8533 36.296 64.3813 36.296C63.9173 36.296 63.5493 36.416 63.2773 36.656C63.0053 36.896 62.8693 37.22 62.8693 37.628C62.8693 38.084 63.0053 38.428 63.2773 38.66C63.5573 38.884 63.9253 38.996 64.3813 38.996ZM71.1806 44.144C70.6206 44.144 70.1366 44.008 69.7286 43.736C69.3206 43.464 69.0046 43.08 68.7806 42.584C68.5646 42.088 68.4566 41.5 68.4566 40.82C68.4566 40.14 68.5646 39.552 68.7806 39.056C69.0046 38.56 69.3206 38.176 69.7286 37.904C70.1366 37.632 70.6206 37.496 71.1806 37.496C71.6286 37.496 72.0206 37.604 72.3566 37.82C72.6926 38.028 72.9366 38.264 73.0886 38.528V35.48H74.0966V44H73.1846L73.1486 43.04C72.9726 43.384 72.7126 43.656 72.3686 43.856C72.0246 44.048 71.6286 44.144 71.1806 44.144ZM71.2406 43.184C71.6246 43.184 71.9526 43.088 72.2246 42.896C72.5046 42.704 72.7166 42.432 72.8606 42.08C73.0126 41.72 73.0886 41.3 73.0886 40.82C73.0886 40.324 73.0126 39.9 72.8606 39.548C72.7166 39.196 72.5046 38.928 72.2246 38.744C71.9446 38.552 71.6086 38.456 71.2166 38.456C70.6966 38.456 70.2806 38.668 69.9686 39.092C69.6646 39.508 69.5126 40.084 69.5126 40.82C69.5126 41.548 69.6646 42.124 69.9686 42.548C70.2806 42.972 70.7046 43.184 71.2406 43.184ZM78.7479 35.288C79.3879 35.288 79.9319 35.436 80.3799 35.732C80.8359 36.02 81.1799 36.448 81.4119 37.016C81.6519 37.576 81.7719 38.264 81.7719 39.08C81.7719 39.784 81.7119 40.444 81.5919 41.06C81.4799 41.676 81.2919 42.22 81.0279 42.692C80.7719 43.156 80.4279 43.524 79.9959 43.796C79.5719 44.06 79.0439 44.192 78.4119 44.192C77.9079 44.192 77.4799 44.108 77.1279 43.94C76.7759 43.772 76.4879 43.536 76.2639 43.232C76.0479 42.928 75.8839 42.576 75.7719 42.176L76.8519 42.08C76.9479 42.416 77.1159 42.684 77.3559 42.884C77.5959 43.084 77.9479 43.184 78.4119 43.184C78.8839 43.184 79.2879 43.052 79.6239 42.788C79.9679 42.516 80.2319 42.112 80.4159 41.576C80.5999 41.04 80.6999 40.368 80.7159 39.56L80.9319 39.608C80.8439 39.896 80.6879 40.164 80.4639 40.412C80.2479 40.652 79.9759 40.848 79.6479 41C79.3279 41.144 78.9639 41.216 78.5559 41.216C77.9959 41.216 77.5079 41.096 77.0919 40.856C76.6759 40.616 76.3519 40.28 76.1199 39.848C75.8879 39.408 75.7719 38.896 75.7719 38.312C75.7719 37.688 75.8959 37.152 76.1439 36.704C76.3999 36.248 76.7519 35.9 77.1999 35.66C77.6479 35.412 78.1639 35.288 78.7479 35.288ZM78.7239 36.296C78.1639 36.296 77.7119 36.472 77.3679 36.824C77.0239 37.176 76.8519 37.672 76.8519 38.312C76.8519 38.896 77.0119 39.364 77.3319 39.716C77.6599 40.06 78.0919 40.232 78.6279 40.232C79.0119 40.232 79.3559 40.156 79.6599 40.004C79.9639 39.844 80.2039 39.62 80.3799 39.332C80.5559 39.044 80.6439 38.704 80.6439 38.312C80.6439 37.92 80.5639 37.572 80.4039 37.268C80.2519 36.964 80.0319 36.728 79.7439 36.56C79.4559 36.384 79.1159 36.296 78.7239 36.296Z" fill="black"/>
</svg>
