<svg width="115" height="80" viewBox="0 0 115 80" fill="none" xmlns="http://www.w3.org/2000/svg">
<rect width="115" height="80" rx="8" fill="#DD9046"/>
<path d="M35.564 44L37.148 35.48H38.012L36.428 44H35.564ZM32.6 41.636L32.744 40.796H38.12L37.976 41.636H32.6ZM33.2 44L34.784 35.48H35.648L34.064 44H33.2ZM33.08 38.72L33.224 37.88H38.6L38.456 38.72H33.08ZM42.9633 44.144C42.3713 44.144 41.8553 44.008 41.4153 43.736C40.9753 43.464 40.6353 43.08 40.3953 42.584C40.1553 42.08 40.0353 41.492 40.0353 40.82C40.0353 40.148 40.1553 39.564 40.3953 39.068C40.6353 38.572 40.9753 38.188 41.4153 37.916C41.8553 37.636 42.3713 37.496 42.9633 37.496C43.4353 37.496 43.8553 37.584 44.2233 37.76C44.5913 37.928 44.8953 38.176 45.1353 38.504C45.3753 38.832 45.5393 39.232 45.6273 39.704L44.5713 39.776C44.4753 39.352 44.2833 39.028 43.9953 38.804C43.7153 38.572 43.3713 38.456 42.9633 38.456C42.3793 38.456 41.9193 38.668 41.5833 39.092C41.2553 39.508 41.0913 40.084 41.0913 40.82C41.0913 41.556 41.2553 42.136 41.5833 42.56C41.9193 42.976 42.3793 43.184 42.9633 43.184C43.3713 43.184 43.7233 43.064 44.0193 42.824C44.3233 42.584 44.5233 42.224 44.6193 41.744L45.6753 41.816C45.5873 42.288 45.4193 42.7 45.1713 43.052C44.9233 43.396 44.6113 43.664 44.2353 43.856C43.8593 44.048 43.4353 44.144 42.9633 44.144ZM50.1586 44.144C49.5666 44.144 49.0506 44.008 48.6106 43.736C48.1706 43.464 47.8306 43.08 47.5906 42.584C47.3506 42.08 47.2306 41.492 47.2306 40.82C47.2306 40.148 47.3506 39.564 47.5906 39.068C47.8306 38.572 48.1706 38.188 48.6106 37.916C49.0506 37.636 49.5666 37.496 50.1586 37.496C50.6306 37.496 51.0506 37.584 51.4186 37.76C51.7866 37.928 52.0906 38.176 52.3306 38.504C52.5706 38.832 52.7346 39.232 52.8226 39.704L51.7666 39.776C51.6706 39.352 51.4786 39.028 51.1906 38.804C50.9106 38.572 50.5666 38.456 50.1586 38.456C49.5746 38.456 49.1146 38.668 48.7786 39.092C48.4506 39.508 48.2866 40.084 48.2866 40.82C48.2866 41.556 48.4506 42.136 48.7786 42.56C49.1146 42.976 49.5746 43.184 50.1586 43.184C50.5666 43.184 50.9186 43.064 51.2146 42.824C51.5186 42.584 51.7186 42.224 51.8146 41.744L52.8706 41.816C52.7826 42.288 52.6146 42.7 52.3666 43.052C52.1186 43.396 51.8066 43.664 51.4306 43.856C51.0546 44.048 50.6306 44.144 50.1586 44.144ZM57.1619 35.288C57.8019 35.288 58.3459 35.436 58.7939 35.732C59.2499 36.02 59.5939 36.448 59.8259 37.016C60.0659 37.576 60.1859 38.264 60.1859 39.08C60.1859 39.784 60.1259 40.444 60.0059 41.06C59.8939 41.676 59.7059 42.22 59.4419 42.692C59.1859 43.156 58.8419 43.524 58.4099 43.796C57.9859 44.06 57.4579 44.192 56.8259 44.192C56.3219 44.192 55.8939 44.108 55.5419 43.94C55.1899 43.772 54.9019 43.536 54.6779 43.232C54.4619 42.928 54.2979 42.576 54.1859 42.176L55.2659 42.08C55.3619 42.416 55.5299 42.684 55.7699 42.884C56.0099 43.084 56.3619 43.184 56.8259 43.184C57.2979 43.184 57.7019 43.052 58.0379 42.788C58.3819 42.516 58.6459 42.112 58.8299 41.576C59.0139 41.04 59.1139 40.368 59.1299 39.56L59.3459 39.608C59.2579 39.896 59.1019 40.164 58.8779 40.412C58.6619 40.652 58.3899 40.848 58.0619 41C57.7419 41.144 57.3779 41.216 56.9699 41.216C56.4099 41.216 55.9219 41.096 55.5059 40.856C55.0899 40.616 54.7659 40.28 54.5339 39.848C54.3019 39.408 54.1859 38.896 54.1859 38.312C54.1859 37.688 54.3099 37.152 54.5579 36.704C54.8139 36.248 55.1659 35.9 55.6139 35.66C56.0619 35.412 56.5779 35.288 57.1619 35.288ZM57.1379 36.296C56.5779 36.296 56.1259 36.472 55.7819 36.824C55.4379 37.176 55.2659 37.672 55.2659 38.312C55.2659 38.896 55.4259 39.364 55.7459 39.716C56.0739 40.06 56.5059 40.232 57.0419 40.232C57.4259 40.232 57.7699 40.156 58.0739 40.004C58.3779 39.844 58.6179 39.62 58.7939 39.332C58.9699 39.044 59.0579 38.704 59.0579 38.312C59.0579 37.92 58.9779 37.572 58.8179 37.268C58.6659 36.964 58.4459 36.728 58.1579 36.56C57.8699 36.384 57.5299 36.296 57.1379 36.296ZM62.2213 42.776L65.5813 36.656L66.5413 36.704L63.1813 42.824L62.2213 42.776ZM64.3813 44.192C63.7653 44.192 63.2293 44.012 62.7733 43.652C62.3253 43.292 61.9813 42.78 61.7413 42.116C61.5013 41.452 61.3813 40.664 61.3813 39.752C61.3813 38.832 61.5013 38.04 61.7413 37.376C61.9813 36.712 62.3253 36.2 62.7733 35.84C63.2293 35.472 63.7653 35.288 64.3813 35.288C65.0053 35.288 65.5413 35.472 65.9893 35.84C66.4373 36.2 66.7813 36.712 67.0213 37.376C67.2613 38.04 67.3813 38.832 67.3813 39.752C67.3813 40.664 67.2613 41.452 67.0213 42.116C66.7813 42.78 66.4373 43.292 65.9893 43.652C65.5413 44.012 65.0053 44.192 64.3813 44.192ZM64.3813 43.184C64.7813 43.184 65.1213 43.044 65.4013 42.764C65.6893 42.484 65.9093 42.088 66.0613 41.576C66.2213 41.056 66.3013 40.448 66.3013 39.752C66.3013 39.04 66.2213 38.428 66.0613 37.916C65.9093 37.396 65.6893 36.996 65.4013 36.716C65.1213 36.436 64.7813 36.296 64.3813 36.296C63.9893 36.296 63.6493 36.436 63.3613 36.716C63.0733 36.996 62.8493 37.396 62.6893 37.916C62.5373 38.428 62.4613 39.04 62.4613 39.752C62.4613 40.448 62.5373 41.056 62.6893 41.576C62.8493 42.088 63.0733 42.484 63.3613 42.764C63.6493 43.044 63.9893 43.184 64.3813 43.184ZM71.5526 44.192C71.0006 44.192 70.5166 44.092 70.1006 43.892C69.6926 43.692 69.3646 43.412 69.1166 43.052C68.8766 42.692 68.7366 42.276 68.6966 41.804L69.7766 41.732C69.8406 42.212 70.0286 42.576 70.3406 42.824C70.6606 43.064 71.0646 43.184 71.5526 43.184C72.1046 43.184 72.5446 43.016 72.8726 42.68C73.2086 42.336 73.3766 41.864 73.3766 41.264C73.3766 40.864 73.3046 40.52 73.1606 40.232C73.0166 39.936 72.8086 39.712 72.5366 39.56C72.2726 39.4 71.9526 39.32 71.5766 39.32C71.2406 39.32 70.9166 39.404 70.6046 39.572C70.3006 39.732 70.0806 39.964 69.9446 40.268H68.8406L69.4046 35.48H73.9406V36.488H70.3526L69.9686 39.632L69.7766 39.44C69.9046 39.192 70.0726 38.988 70.2806 38.828C70.4886 38.668 70.7166 38.548 70.9646 38.468C71.2206 38.38 71.4726 38.336 71.7206 38.336C72.2646 38.336 72.7406 38.464 73.1486 38.72C73.5646 38.968 73.8846 39.312 74.1086 39.752C74.3406 40.192 74.4566 40.696 74.4566 41.264C74.4566 41.832 74.3326 42.34 74.0846 42.788C73.8366 43.228 73.4926 43.572 73.0526 43.82C72.6206 44.068 72.1206 44.192 71.5526 44.192ZM77.4759 44C77.4759 43.12 77.5959 42.244 77.8359 41.372C78.0839 40.492 78.4359 39.64 78.8919 38.816C79.3479 37.992 79.8919 37.216 80.5239 36.488H75.8919V35.48H81.6519V36.416C81.1159 37.024 80.6519 37.628 80.2599 38.228C79.8759 38.828 79.5599 39.436 79.3119 40.052C79.0639 40.66 78.8799 41.292 78.7599 41.948C78.6399 42.596 78.5799 43.28 78.5799 44H77.4759Z" fill="black"/>
</svg>
