<svg width="115" height="80" viewBox="0 0 115 80" fill="none" xmlns="http://www.w3.org/2000/svg">
<rect width="115" height="80" rx="8" fill="#E2B86B"/>
<path d="M35.564 44L37.148 35.48H38.012L36.428 44H35.564ZM32.6 41.636L32.744 40.796H38.12L37.976 41.636H32.6ZM33.2 44L34.784 35.48H35.648L34.064 44H33.2ZM33.08 38.72L33.224 37.88H38.6L38.456 38.72H33.08ZM42.9033 44.144C42.3033 44.144 41.7833 44.008 41.3433 43.736C40.9113 43.464 40.5753 43.08 40.3353 42.584C40.1033 42.08 39.9873 41.492 39.9873 40.82C39.9873 40.148 40.1033 39.564 40.3353 39.068C40.5753 38.572 40.9073 38.188 41.3313 37.916C41.7633 37.636 42.2713 37.496 42.8553 37.496C43.4073 37.496 43.8953 37.628 44.3193 37.892C44.7433 38.148 45.0753 38.524 45.3153 39.02C45.5553 39.516 45.6753 40.12 45.6753 40.832V41.132H41.0433C41.0833 41.812 41.2633 42.324 41.5833 42.668C41.9113 43.012 42.3513 43.184 42.9033 43.184C43.3193 43.184 43.6593 43.088 43.9233 42.896C44.1953 42.696 44.3833 42.436 44.4873 42.116L45.5673 42.2C45.3993 42.768 45.0793 43.236 44.6073 43.604C44.1433 43.964 43.5753 44.144 42.9033 44.144ZM41.0433 40.244H44.5713C44.5233 39.628 44.3433 39.176 44.0313 38.888C43.7193 38.6 43.3273 38.456 42.8553 38.456C42.3673 38.456 41.9633 38.608 41.6433 38.912C41.3313 39.208 41.1313 39.652 41.0433 40.244ZM46.9906 44C46.9906 43.4 47.0826 42.86 47.2666 42.38C47.4586 41.892 47.7906 41.428 48.2626 40.988C48.7426 40.548 49.4066 40.104 50.2546 39.656C50.6466 39.448 50.9626 39.256 51.2026 39.08C51.4426 38.904 51.6186 38.716 51.7306 38.516C51.8426 38.316 51.8986 38.072 51.8986 37.784C51.8986 37.488 51.8346 37.232 51.7066 37.016C51.5786 36.792 51.3866 36.616 51.1306 36.488C50.8826 36.36 50.5706 36.296 50.1946 36.296C49.5946 36.296 49.1186 36.452 48.7666 36.764C48.4226 37.076 48.2066 37.52 48.1186 38.096L47.0386 38.024C47.1346 37.192 47.4546 36.528 47.9986 36.032C48.5426 35.536 49.2746 35.288 50.1946 35.288C50.7786 35.288 51.2786 35.392 51.6946 35.6C52.1106 35.808 52.4266 36.1 52.6426 36.476C52.8666 36.844 52.9786 37.272 52.9786 37.76C52.9786 38.192 52.9066 38.568 52.7626 38.888C52.6186 39.2 52.3746 39.492 52.0306 39.764C51.6946 40.036 51.2306 40.328 50.6386 40.64C50.1266 40.912 49.6946 41.188 49.3426 41.468C48.9986 41.748 48.7346 42.02 48.5506 42.284C48.3746 42.54 48.2786 42.776 48.2626 42.992H52.9906V44H46.9906ZM57.5819 44.144C57.1419 44.144 56.7499 44.048 56.4059 43.856C56.0619 43.656 55.7979 43.384 55.6139 43.04L55.5779 44H54.6659V35.48H55.6739V38.528C55.8339 38.264 56.0819 38.028 56.4179 37.82C56.7539 37.604 57.1419 37.496 57.5819 37.496C58.1419 37.496 58.6259 37.632 59.0339 37.904C59.4419 38.176 59.7539 38.56 59.9699 39.056C60.1939 39.552 60.3059 40.14 60.3059 40.82C60.3059 41.5 60.1939 42.088 59.9699 42.584C59.7539 43.08 59.4419 43.464 59.0339 43.736C58.6259 44.008 58.1419 44.144 57.5819 44.144ZM57.5219 43.184C58.0579 43.184 58.4779 42.972 58.7819 42.548C59.0939 42.124 59.2499 41.548 59.2499 40.82C59.2499 40.084 59.0939 39.508 58.7819 39.092C58.4779 38.668 58.0659 38.456 57.5459 38.456C57.1539 38.456 56.8179 38.552 56.5379 38.744C56.2579 38.928 56.0419 39.196 55.8899 39.548C55.7459 39.9 55.6739 40.324 55.6739 40.82C55.6739 41.3 55.7459 41.72 55.8899 42.08C56.0419 42.432 56.2539 42.704 56.5259 42.896C56.8059 43.088 57.1379 43.184 57.5219 43.184ZM64.3813 44.192C63.8213 44.192 63.3133 44.096 62.8573 43.904C62.4013 43.712 62.0413 43.428 61.7773 43.052C61.5133 42.676 61.3813 42.212 61.3813 41.66C61.3813 41.044 61.5653 40.536 61.9333 40.136C62.3013 39.728 62.7893 39.452 63.3973 39.308L63.4213 39.548C62.9333 39.412 62.5373 39.192 62.2333 38.888C61.9373 38.576 61.7893 38.156 61.7893 37.628C61.7893 37.18 61.9013 36.78 62.1253 36.428C62.3493 36.076 62.6533 35.8 63.0373 35.6C63.4293 35.392 63.8773 35.288 64.3813 35.288C64.8853 35.288 65.3333 35.392 65.7253 35.6C66.1173 35.8 66.4213 36.076 66.6373 36.428C66.8613 36.78 66.9733 37.18 66.9733 37.628C66.9733 38.156 66.8253 38.576 66.5293 38.888C66.2333 39.192 65.8373 39.412 65.3413 39.548L65.3653 39.308C65.9813 39.452 66.4693 39.728 66.8293 40.136C67.1973 40.536 67.3813 41.044 67.3813 41.66C67.3813 42.212 67.2493 42.676 66.9853 43.052C66.7213 43.428 66.3613 43.712 65.9053 43.904C65.4573 44.096 64.9493 44.192 64.3813 44.192ZM64.3813 43.184C64.9413 43.184 65.4013 43.056 65.7613 42.8C66.1213 42.536 66.3013 42.136 66.3013 41.6C66.3013 41.104 66.1413 40.708 65.8213 40.412C65.5013 40.108 65.0213 39.956 64.3813 39.956C63.7493 39.956 63.2693 40.108 62.9413 40.412C62.6213 40.708 62.4613 41.104 62.4613 41.6C62.4613 42.136 62.6413 42.536 63.0013 42.8C63.3613 43.056 63.8213 43.184 64.3813 43.184ZM64.3813 38.996C64.8373 38.996 65.2013 38.884 65.4733 38.66C65.7533 38.428 65.8933 38.084 65.8933 37.628C65.8933 37.22 65.7573 36.896 65.4853 36.656C65.2213 36.416 64.8533 36.296 64.3813 36.296C63.9173 36.296 63.5493 36.416 63.2773 36.656C63.0053 36.896 62.8693 37.22 62.8693 37.628C62.8693 38.084 63.0053 38.428 63.2773 38.66C63.5573 38.884 63.9253 38.996 64.3813 38.996ZM71.6006 44.192C70.9606 44.192 70.4126 44.048 69.9566 43.76C69.5086 43.464 69.1646 43.032 68.9246 42.464C68.6926 41.896 68.5766 41.208 68.5766 40.4C68.5766 39.696 68.6326 39.036 68.7446 38.42C68.8646 37.804 69.0526 37.264 69.3086 36.8C69.5726 36.328 69.9166 35.96 70.3406 35.696C70.7726 35.424 71.3046 35.288 71.9366 35.288C72.4406 35.288 72.8686 35.372 73.2206 35.54C73.5726 35.708 73.8566 35.944 74.0726 36.248C74.2966 36.552 74.4646 36.904 74.5766 37.304L73.4966 37.4C73.4006 37.064 73.2326 36.796 72.9926 36.596C72.7606 36.396 72.4086 36.296 71.9366 36.296C71.4646 36.296 71.0606 36.432 70.7246 36.704C70.3886 36.968 70.1246 37.368 69.9326 37.904C69.7486 38.44 69.6486 39.112 69.6326 39.92L69.4166 39.872C69.5046 39.584 69.6566 39.32 69.8726 39.08C70.0966 38.832 70.3686 38.636 70.6886 38.492C71.0166 38.34 71.3846 38.264 71.7926 38.264C72.3526 38.264 72.8406 38.384 73.2566 38.624C73.6726 38.864 73.9966 39.204 74.2286 39.644C74.4606 40.076 74.5766 40.584 74.5766 41.168C74.5766 41.792 74.4486 42.332 74.1926 42.788C73.9446 43.236 73.5966 43.584 73.1486 43.832C72.7086 44.072 72.1926 44.192 71.6006 44.192ZM71.6246 43.184C72.1846 43.184 72.6366 43.008 72.9806 42.656C73.3246 42.296 73.4966 41.8 73.4966 41.168C73.4966 40.576 73.3326 40.108 73.0046 39.764C72.6846 39.42 72.2566 39.248 71.7206 39.248C71.3366 39.248 70.9926 39.328 70.6886 39.488C70.3846 39.64 70.1446 39.86 69.9686 40.148C69.7926 40.436 69.7046 40.776 69.7046 41.168C69.7046 41.56 69.7806 41.908 69.9326 42.212C70.0926 42.516 70.3166 42.756 70.6046 42.932C70.8926 43.1 71.2326 43.184 71.6246 43.184ZM79.1679 44.144C78.7279 44.144 78.3359 44.048 77.9919 43.856C77.6479 43.656 77.3839 43.384 77.1999 43.04L77.1639 44H76.2519V35.48H77.2599V38.528C77.4199 38.264 77.6679 38.028 78.0039 37.82C78.3399 37.604 78.7279 37.496 79.1679 37.496C79.7279 37.496 80.2119 37.632 80.6199 37.904C81.0279 38.176 81.3399 38.56 81.5559 39.056C81.7799 39.552 81.8919 40.14 81.8919 40.82C81.8919 41.5 81.7799 42.088 81.5559 42.584C81.3399 43.08 81.0279 43.464 80.6199 43.736C80.2119 44.008 79.7279 44.144 79.1679 44.144ZM79.1079 43.184C79.6439 43.184 80.0639 42.972 80.3679 42.548C80.6799 42.124 80.8359 41.548 80.8359 40.82C80.8359 40.084 80.6799 39.508 80.3679 39.092C80.0639 38.668 79.6519 38.456 79.1319 38.456C78.7399 38.456 78.4039 38.552 78.1239 38.744C77.8439 38.928 77.6279 39.196 77.4759 39.548C77.3319 39.9 77.2599 40.324 77.2599 40.82C77.2599 41.3 77.3319 41.72 77.4759 42.08C77.6279 42.432 77.8399 42.704 78.1119 42.896C78.3919 43.088 78.7239 43.184 79.1079 43.184Z" fill="black"/>
</svg>
