<svg width="115" height="80" viewBox="0 0 115 80" fill="none" xmlns="http://www.w3.org/2000/svg">
<rect width="115" height="80" rx="8" fill="#E55561"/>
<path d="M35.564 44L37.148 35.48H38.012L36.428 44H35.564ZM32.6 41.636L32.744 40.796H38.12L37.976 41.636H32.6ZM33.2 44L34.784 35.48H35.648L34.064 44H33.2ZM33.08 38.72L33.224 37.88H38.6L38.456 38.72H33.08ZM42.9033 44.144C42.3033 44.144 41.7833 44.008 41.3433 43.736C40.9113 43.464 40.5753 43.08 40.3353 42.584C40.1033 42.08 39.9873 41.492 39.9873 40.82C39.9873 40.148 40.1033 39.564 40.3353 39.068C40.5753 38.572 40.9073 38.188 41.3313 37.916C41.7633 37.636 42.2713 37.496 42.8553 37.496C43.4073 37.496 43.8953 37.628 44.3193 37.892C44.7433 38.148 45.0753 38.524 45.3153 39.02C45.5553 39.516 45.6753 40.12 45.6753 40.832V41.132H41.0433C41.0833 41.812 41.2633 42.324 41.5833 42.668C41.9113 43.012 42.3513 43.184 42.9033 43.184C43.3193 43.184 43.6593 43.088 43.9233 42.896C44.1953 42.696 44.3833 42.436 44.4873 42.116L45.5673 42.2C45.3993 42.768 45.0793 43.236 44.6073 43.604C44.1433 43.964 43.5753 44.144 42.9033 44.144ZM41.0433 40.244H44.5713C44.5233 39.628 44.3433 39.176 44.0313 38.888C43.7193 38.6 43.3273 38.456 42.8553 38.456C42.3673 38.456 41.9633 38.608 41.6433 38.912C41.3313 39.208 41.1313 39.652 41.0433 40.244ZM49.9666 44.192C49.4146 44.192 48.9306 44.092 48.5146 43.892C48.1066 43.692 47.7786 43.412 47.5306 43.052C47.2906 42.692 47.1506 42.276 47.1106 41.804L48.1906 41.732C48.2546 42.212 48.4426 42.576 48.7546 42.824C49.0746 43.064 49.4786 43.184 49.9666 43.184C50.5186 43.184 50.9586 43.016 51.2866 42.68C51.6226 42.336 51.7906 41.864 51.7906 41.264C51.7906 40.864 51.7186 40.52 51.5746 40.232C51.4306 39.936 51.2226 39.712 50.9506 39.56C50.6866 39.4 50.3666 39.32 49.9906 39.32C49.6546 39.32 49.3306 39.404 49.0186 39.572C48.7146 39.732 48.4946 39.964 48.3586 40.268H47.2546L47.8186 35.48H52.3546V36.488H48.7666L48.3826 39.632L48.1906 39.44C48.3186 39.192 48.4866 38.988 48.6946 38.828C48.9026 38.668 49.1306 38.548 49.3786 38.468C49.6346 38.38 49.8866 38.336 50.1346 38.336C50.6786 38.336 51.1546 38.464 51.5626 38.72C51.9786 38.968 52.2986 39.312 52.5226 39.752C52.7546 40.192 52.8706 40.696 52.8706 41.264C52.8706 41.832 52.7466 42.34 52.4986 42.788C52.2506 43.228 51.9066 43.572 51.4666 43.82C51.0346 44.068 50.5346 44.192 49.9666 44.192ZM57.1619 44.192C56.6099 44.192 56.1259 44.092 55.7099 43.892C55.3019 43.692 54.9739 43.412 54.7259 43.052C54.4859 42.692 54.3459 42.276 54.3059 41.804L55.3859 41.732C55.4499 42.212 55.6379 42.576 55.9499 42.824C56.2699 43.064 56.6739 43.184 57.1619 43.184C57.7139 43.184 58.1539 43.016 58.4819 42.68C58.8179 42.336 58.9859 41.864 58.9859 41.264C58.9859 40.864 58.9139 40.52 58.7699 40.232C58.6259 39.936 58.4179 39.712 58.1459 39.56C57.8819 39.4 57.5619 39.32 57.1859 39.32C56.8499 39.32 56.5259 39.404 56.2139 39.572C55.9099 39.732 55.6899 39.964 55.5539 40.268H54.4499L55.0139 35.48H59.5499V36.488H55.9619L55.5779 39.632L55.3859 39.44C55.5139 39.192 55.6819 38.988 55.8899 38.828C56.0979 38.668 56.3259 38.548 56.5739 38.468C56.8299 38.38 57.0819 38.336 57.3299 38.336C57.8739 38.336 58.3499 38.464 58.7579 38.72C59.1739 38.968 59.4939 39.312 59.7179 39.752C59.9499 40.192 60.0659 40.696 60.0659 41.264C60.0659 41.832 59.9419 42.34 59.6939 42.788C59.4459 43.228 59.1019 43.572 58.6619 43.82C58.2299 44.068 57.7299 44.192 57.1619 44.192ZM64.3573 44.192C63.8053 44.192 63.3213 44.092 62.9053 43.892C62.4973 43.692 62.1693 43.412 61.9213 43.052C61.6813 42.692 61.5413 42.276 61.5013 41.804L62.5813 41.732C62.6453 42.212 62.8333 42.576 63.1453 42.824C63.4653 43.064 63.8693 43.184 64.3573 43.184C64.9093 43.184 65.3493 43.016 65.6773 42.68C66.0133 42.336 66.1813 41.864 66.1813 41.264C66.1813 40.864 66.1093 40.52 65.9653 40.232C65.8213 39.936 65.6133 39.712 65.3413 39.56C65.0773 39.4 64.7573 39.32 64.3813 39.32C64.0453 39.32 63.7213 39.404 63.4093 39.572C63.1053 39.732 62.8853 39.964 62.7493 40.268H61.6453L62.2093 35.48H66.7453V36.488H63.1573L62.7733 39.632L62.5813 39.44C62.7093 39.192 62.8773 38.988 63.0853 38.828C63.2933 38.668 63.5213 38.548 63.7693 38.468C64.0253 38.38 64.2773 38.336 64.5253 38.336C65.0693 38.336 65.5453 38.464 65.9533 38.72C66.3693 38.968 66.6893 39.312 66.9133 39.752C67.1453 40.192 67.2613 40.696 67.2613 41.264C67.2613 41.832 67.1373 42.34 66.8893 42.788C66.6413 43.228 66.2973 43.572 65.8573 43.82C65.4253 44.068 64.9253 44.192 64.3573 44.192ZM71.6006 44.192C70.9606 44.192 70.4126 44.048 69.9566 43.76C69.5086 43.464 69.1646 43.032 68.9246 42.464C68.6926 41.896 68.5766 41.208 68.5766 40.4C68.5766 39.696 68.6326 39.036 68.7446 38.42C68.8646 37.804 69.0526 37.264 69.3086 36.8C69.5726 36.328 69.9166 35.96 70.3406 35.696C70.7726 35.424 71.3046 35.288 71.9366 35.288C72.4406 35.288 72.8686 35.372 73.2206 35.54C73.5726 35.708 73.8566 35.944 74.0726 36.248C74.2966 36.552 74.4646 36.904 74.5766 37.304L73.4966 37.4C73.4006 37.064 73.2326 36.796 72.9926 36.596C72.7606 36.396 72.4086 36.296 71.9366 36.296C71.4646 36.296 71.0606 36.432 70.7246 36.704C70.3886 36.968 70.1246 37.368 69.9326 37.904C69.7486 38.44 69.6486 39.112 69.6326 39.92L69.4166 39.872C69.5046 39.584 69.6566 39.32 69.8726 39.08C70.0966 38.832 70.3686 38.636 70.6886 38.492C71.0166 38.34 71.3846 38.264 71.7926 38.264C72.3526 38.264 72.8406 38.384 73.2566 38.624C73.6726 38.864 73.9966 39.204 74.2286 39.644C74.4606 40.076 74.5766 40.584 74.5766 41.168C74.5766 41.792 74.4486 42.332 74.1926 42.788C73.9446 43.236 73.5966 43.584 73.1486 43.832C72.7086 44.072 72.1926 44.192 71.6006 44.192ZM71.6246 43.184C72.1846 43.184 72.6366 43.008 72.9806 42.656C73.3246 42.296 73.4966 41.8 73.4966 41.168C73.4966 40.576 73.3326 40.108 73.0046 39.764C72.6846 39.42 72.2566 39.248 71.7206 39.248C71.3366 39.248 70.9926 39.328 70.6886 39.488C70.3846 39.64 70.1446 39.86 69.9686 40.148C69.7926 40.436 69.7046 40.776 69.7046 41.168C69.7046 41.56 69.7806 41.908 69.9326 42.212C70.0926 42.516 70.3166 42.756 70.6046 42.932C70.8926 43.1 71.2326 43.184 71.6246 43.184ZM78.5799 44V37.688H76.3479V36.8H77.4999C77.8039 36.8 78.0479 36.756 78.2319 36.668C78.4239 36.58 78.5599 36.44 78.6399 36.248C78.7279 36.056 78.7719 35.8 78.7719 35.48H79.6119V44H78.5799ZM75.8919 44V42.992H81.6519V44H75.8919Z" fill="black"/>
</svg>
