<svg width="162" height="152" viewBox="0 0 162 152" fill="none" xmlns="http://www.w3.org/2000/svg">
<rect width="162" height="152" rx="8" fill="#282C34"/>
<path d="M17.08 28V19.48H19.48C20.416 19.48 21.12 19.688 21.592 20.104C22.072 20.52 22.312 21.088 22.312 21.808C22.312 22.16 22.228 22.476 22.06 22.756C21.892 23.036 21.656 23.256 21.352 23.416C21.048 23.576 20.696 23.656 20.296 23.656V23.584C20.792 23.584 21.216 23.668 21.568 23.836C21.928 24.004 22.2 24.24 22.384 24.544C22.576 24.848 22.672 25.208 22.672 25.624C22.672 26.36 22.416 26.94 21.904 27.364C21.392 27.788 20.684 28 19.78 28H17.08ZM18.112 26.992H19.792C20.408 26.992 20.86 26.872 21.148 26.632C21.444 26.392 21.592 26.056 21.592 25.624C21.592 25.168 21.44 24.812 21.136 24.556C20.832 24.3 20.384 24.172 19.792 24.172H18.112V26.992ZM18.112 23.164H19.528C20.12 23.164 20.552 23.048 20.824 22.816C21.096 22.584 21.232 22.256 21.232 21.832C21.232 21.4 21.096 21.068 20.824 20.836C20.552 20.604 20.12 20.488 19.528 20.488H18.112V23.164ZM25.9313 28V21.64H26.7713L26.8673 23.248L26.7713 23.224C26.8513 22.68 27.0233 22.28 27.2873 22.024C27.5593 21.768 27.9193 21.64 28.3673 21.64H29.6753V22.552H28.3793C28.0673 22.552 27.8033 22.616 27.5873 22.744C27.3793 22.864 27.2193 23.044 27.1073 23.284C26.9953 23.516 26.9393 23.808 26.9393 24.16V28H25.9313ZM24.2753 28V27.112H28.9553V28H24.2753ZM24.2753 22.528V21.64H26.4833V22.528H24.2753ZM33.1506 28.144C32.7506 28.144 32.3906 28.072 32.0706 27.928C31.7506 27.784 31.4986 27.584 31.3146 27.328C31.1306 27.064 31.0386 26.76 31.0386 26.416C31.0386 25.872 31.1986 25.452 31.5186 25.156C31.8466 24.852 32.3586 24.632 33.0546 24.496L35.1906 24.064C35.1906 23.52 35.0666 23.116 34.8186 22.852C34.5786 22.588 34.2306 22.456 33.7746 22.456C33.3346 22.456 32.9906 22.556 32.7426 22.756C32.4946 22.948 32.3226 23.228 32.2266 23.596L31.1586 23.512C31.2786 22.912 31.5626 22.428 32.0106 22.06C32.4666 21.684 33.0546 21.496 33.7746 21.496C34.5426 21.496 35.1386 21.728 35.5626 22.192C35.9866 22.648 36.1986 23.28 36.1986 24.088V26.728C36.1986 26.872 36.2306 26.972 36.2946 27.028C36.3586 27.084 36.4546 27.112 36.5826 27.112H36.9906V28C36.9426 28.008 36.8666 28.012 36.7626 28.012C36.6586 28.02 36.5586 28.024 36.4626 28.024C36.1906 28.024 35.9586 27.98 35.7666 27.892C35.5826 27.804 35.4426 27.664 35.3466 27.472C35.2506 27.272 35.1986 27.016 35.1906 26.704H35.3826C35.3266 26.976 35.1906 27.224 34.9746 27.448C34.7666 27.664 34.5026 27.836 34.1826 27.964C33.8626 28.084 33.5186 28.144 33.1506 28.144ZM33.2466 27.256C33.6786 27.256 34.0386 27.184 34.3266 27.04C34.6146 26.888 34.8306 26.68 34.9746 26.416C35.1186 26.144 35.1906 25.832 35.1906 25.48V24.928L33.2466 25.312C32.8146 25.392 32.5146 25.516 32.3466 25.684C32.1786 25.844 32.0946 26.056 32.0946 26.32C32.0946 26.616 32.1946 26.848 32.3946 27.016C32.6026 27.176 32.8866 27.256 33.2466 27.256ZM38.5939 28V21.64H39.5179L39.5539 23.26L39.4339 23.152C39.5139 22.776 39.6579 22.468 39.8659 22.228C40.0819 21.98 40.3379 21.796 40.6339 21.676C40.9299 21.556 41.2419 21.496 41.5699 21.496C42.0579 21.496 42.4619 21.604 42.7819 21.82C43.1099 22.036 43.3579 22.328 43.5259 22.696C43.6939 23.056 43.7779 23.46 43.7779 23.908V28H42.7699V24.196C42.7699 23.604 42.6539 23.156 42.4219 22.852C42.1899 22.54 41.8339 22.384 41.3539 22.384C41.0259 22.384 40.7299 22.456 40.4659 22.6C40.2019 22.736 39.9899 22.94 39.8299 23.212C39.6779 23.476 39.6019 23.804 39.6019 24.196V28H38.5939ZM47.9853 28.144C47.4253 28.144 46.9413 28.008 46.5333 27.736C46.1253 27.464 45.8093 27.08 45.5853 26.584C45.3693 26.088 45.2613 25.5 45.2613 24.82C45.2613 24.14 45.3693 23.552 45.5853 23.056C45.8093 22.56 46.1253 22.176 46.5333 21.904C46.9413 21.632 47.4253 21.496 47.9853 21.496C48.4333 21.496 48.8253 21.604 49.1613 21.82C49.4973 22.028 49.7413 22.264 49.8933 22.528V19.48H50.9013V28H49.9893L49.9533 27.04C49.7773 27.384 49.5173 27.656 49.1733 27.856C48.8293 28.048 48.4333 28.144 47.9853 28.144ZM48.0453 27.184C48.4293 27.184 48.7573 27.088 49.0293 26.896C49.3093 26.704 49.5213 26.432 49.6653 26.08C49.8173 25.72 49.8933 25.3 49.8933 24.82C49.8933 24.324 49.8173 23.9 49.6653 23.548C49.5213 23.196 49.3093 22.928 49.0293 22.744C48.7493 22.552 48.4133 22.456 48.0213 22.456C47.5013 22.456 47.0853 22.668 46.7733 23.092C46.4693 23.508 46.3173 24.084 46.3173 24.82C46.3173 25.548 46.4693 26.124 46.7733 26.548C47.0853 26.972 47.5093 27.184 48.0453 27.184ZM55.6846 28.144C55.0846 28.144 54.5646 28.008 54.1246 27.736C53.6926 27.464 53.3566 27.08 53.1166 26.584C52.8846 26.08 52.7686 25.492 52.7686 24.82C52.7686 24.148 52.8846 23.564 53.1166 23.068C53.3566 22.572 53.6886 22.188 54.1126 21.916C54.5446 21.636 55.0526 21.496 55.6366 21.496C56.1886 21.496 56.6766 21.628 57.1006 21.892C57.5246 22.148 57.8566 22.524 58.0966 23.02C58.3366 23.516 58.4566 24.12 58.4566 24.832V25.132H53.8246C53.8646 25.812 54.0446 26.324 54.3646 26.668C54.6926 27.012 55.1326 27.184 55.6846 27.184C56.1006 27.184 56.4406 27.088 56.7046 26.896C56.9766 26.696 57.1646 26.436 57.2686 26.116L58.3486 26.2C58.1806 26.768 57.8606 27.236 57.3886 27.604C56.9246 27.964 56.3566 28.144 55.6846 28.144ZM53.8246 24.244H57.3526C57.3046 23.628 57.1246 23.176 56.8126 22.888C56.5006 22.6 56.1086 22.456 55.6366 22.456C55.1486 22.456 54.7446 22.608 54.4246 22.912C54.1126 23.208 53.9126 23.652 53.8246 24.244ZM62.6879 28V21.64H63.6959V28H62.6879ZM60.1319 28V27.112H65.8919V28H60.1319ZM60.2519 22.528V21.64H63.6959V22.528H60.2519ZM62.5919 20.644V19.468H63.6479V20.644H62.5919ZM70.0872 28.144C69.5352 28.144 69.0592 28.048 68.6592 27.856C68.2592 27.664 67.9432 27.408 67.7112 27.088C67.4872 26.76 67.3592 26.396 67.3272 25.996L68.3832 25.924C68.4472 26.316 68.6192 26.624 68.8992 26.848C69.1872 27.072 69.5832 27.184 70.0872 27.184C70.5592 27.184 70.9232 27.116 71.1792 26.98C71.4432 26.844 71.5752 26.632 71.5752 26.344C71.5752 26.16 71.5312 26.008 71.4432 25.888C71.3552 25.768 71.1912 25.668 70.9512 25.588C70.7112 25.5 70.3592 25.416 69.8952 25.336C69.2792 25.224 68.7952 25.088 68.4432 24.928C68.0992 24.76 67.8552 24.552 67.7112 24.304C67.5672 24.056 67.4952 23.76 67.4952 23.416C67.4952 23.048 67.5872 22.72 67.7712 22.432C67.9552 22.144 68.2272 21.916 68.5872 21.748C68.9472 21.58 69.3872 21.496 69.9072 21.496C70.4352 21.496 70.8752 21.592 71.2272 21.784C71.5872 21.968 71.8712 22.216 72.0792 22.528C72.2872 22.832 72.4232 23.168 72.4872 23.536L71.4312 23.608C71.3832 23.384 71.2912 23.188 71.1552 23.02C71.0272 22.844 70.8552 22.708 70.6392 22.612C70.4312 22.508 70.1832 22.456 69.8952 22.456C69.4312 22.456 69.0872 22.548 68.8632 22.732C68.6392 22.916 68.5272 23.144 68.5272 23.416C68.5272 23.632 68.5792 23.804 68.6832 23.932C68.7872 24.06 68.9552 24.164 69.1872 24.244C69.4192 24.316 69.7272 24.384 70.1112 24.448C70.7672 24.552 71.2752 24.688 71.6352 24.856C71.9952 25.016 72.2472 25.216 72.3912 25.456C72.5352 25.696 72.6072 25.992 72.6072 26.344C72.6072 26.72 72.4952 27.044 72.2712 27.316C72.0552 27.58 71.7552 27.784 71.3712 27.928C70.9952 28.072 70.5672 28.144 70.0872 28.144ZM81.4778 28V19.48H82.5098V23.62L81.9818 23.212H86.7338L86.2058 23.62V19.48H87.2378V28H86.2058V23.812L86.7338 24.22H81.9818L82.5098 23.812V28H81.4778ZM88.2651 28L90.8571 19.48H92.2491L94.8411 28H93.7371L91.5531 20.416L89.3691 28H88.2651ZM89.5731 25.576L89.9331 24.568H93.1731L93.5331 25.576H89.5731ZM98.7724 28.192C98.0924 28.192 97.5164 28.012 97.0444 27.652C96.5724 27.292 96.2124 26.78 95.9644 26.116C95.7244 25.452 95.6044 24.664 95.6044 23.752C95.6044 22.832 95.7244 22.04 95.9644 21.376C96.2124 20.712 96.5724 20.2 97.0444 19.84C97.5164 19.472 98.0924 19.288 98.7724 19.288C99.5244 19.288 100.164 19.536 100.692 20.032C101.22 20.52 101.572 21.204 101.748 22.084L100.644 22.156C100.508 21.54 100.272 21.076 99.9364 20.764C99.6084 20.452 99.2204 20.296 98.7724 20.296C98.3164 20.296 97.9324 20.432 97.6204 20.704C97.3164 20.968 97.0844 21.36 96.9244 21.88C96.7644 22.392 96.6844 23.016 96.6844 23.752C96.6844 24.48 96.7644 25.1 96.9244 25.612C97.0844 26.124 97.3164 26.516 97.6204 26.788C97.9324 27.052 98.3164 27.184 98.7724 27.184C99.2684 27.184 99.6884 27.012 100.032 26.668C100.376 26.324 100.608 25.812 100.728 25.132L101.82 25.192C101.668 26.128 101.324 26.864 100.788 27.4C100.252 27.928 99.5804 28.192 98.7724 28.192ZM103.976 25.288V23.896L107.672 19.48H108.944L103.976 25.288ZM103.064 28V19.48H104.096V28H103.064ZM107.792 28L104.816 23.68L105.536 22.936L109.064 28H107.792ZM120.358 28.192C119.678 28.192 119.102 28.012 118.63 27.652C118.158 27.292 117.798 26.78 117.55 26.116C117.31 25.452 117.19 24.664 117.19 23.752C117.19 22.832 117.31 22.04 117.55 21.376C117.798 20.712 118.158 20.2 118.63 19.84C119.102 19.472 119.678 19.288 120.358 19.288C121.11 19.288 121.75 19.536 122.278 20.032C122.806 20.52 123.158 21.204 123.334 22.084L122.23 22.156C122.094 21.54 121.858 21.076 121.522 20.764C121.194 20.452 120.806 20.296 120.358 20.296C119.902 20.296 119.518 20.432 119.206 20.704C118.902 20.968 118.67 21.36 118.51 21.88C118.35 22.392 118.27 23.016 118.27 23.752C118.27 24.48 118.35 25.1 118.51 25.612C118.67 26.124 118.902 26.516 119.206 26.788C119.518 27.052 119.902 27.184 120.358 27.184C120.854 27.184 121.274 27.012 121.618 26.668C121.962 26.324 122.194 25.812 122.314 25.132L123.406 25.192C123.254 26.128 122.91 26.864 122.374 27.4C121.838 27.928 121.166 28.192 120.358 28.192ZM127.206 28V21.184C127.206 20.928 127.134 20.728 126.99 20.584C126.846 20.44 126.646 20.368 126.39 20.368H124.89V19.48H126.438C127.022 19.48 127.462 19.632 127.758 19.936C128.062 20.232 128.214 20.672 128.214 21.256V28H127.206ZM124.65 28V27.112H130.41V28H124.65ZM134.281 28.144C133.649 28.144 133.145 27.932 132.769 27.508C132.393 27.076 132.205 26.484 132.205 25.732V21.64H133.213V25.456C133.213 26.072 133.321 26.528 133.537 26.824C133.761 27.112 134.101 27.256 134.557 27.256C135.053 27.256 135.445 27.096 135.733 26.776C136.021 26.448 136.165 26 136.165 25.432V21.64H137.173V28H136.213V26.428L136.369 26.512C136.241 27.032 135.997 27.436 135.637 27.724C135.277 28.004 134.825 28.144 134.281 28.144ZM142.316 28.144C141.876 28.144 141.484 28.048 141.14 27.856C140.796 27.656 140.532 27.384 140.348 27.04L140.312 28H139.4V19.48H140.408V22.528C140.568 22.264 140.816 22.028 141.152 21.82C141.488 21.604 141.876 21.496 142.316 21.496C142.876 21.496 143.36 21.632 143.768 21.904C144.176 22.176 144.488 22.56 144.704 23.056C144.928 23.552 145.04 24.14 145.04 24.82C145.04 25.5 144.928 26.088 144.704 26.584C144.488 27.08 144.176 27.464 143.768 27.736C143.36 28.008 142.876 28.144 142.316 28.144ZM142.256 27.184C142.792 27.184 143.212 26.972 143.516 26.548C143.828 26.124 143.984 25.548 143.984 24.82C143.984 24.084 143.828 23.508 143.516 23.092C143.212 22.668 142.8 22.456 142.28 22.456C141.888 22.456 141.552 22.552 141.272 22.744C140.992 22.928 140.776 23.196 140.624 23.548C140.48 23.9 140.408 24.324 140.408 24.82C140.408 25.3 140.48 25.72 140.624 26.08C140.776 26.432 140.988 26.704 141.26 26.896C141.54 27.088 141.872 27.184 142.256 27.184Z" fill="white"/>
<path d="M17.44 50.776L20.8 44.656L21.76 44.704L18.4 50.824L17.44 50.776ZM19.6 52.192C18.984 52.192 18.448 52.012 17.992 51.652C17.544 51.292 17.2 50.78 16.96 50.116C16.72 49.452 16.6 48.664 16.6 47.752C16.6 46.832 16.72 46.04 16.96 45.376C17.2 44.712 17.544 44.2 17.992 43.84C18.448 43.472 18.984 43.288 19.6 43.288C20.224 43.288 20.76 43.472 21.208 43.84C21.656 44.2 22 44.712 22.24 45.376C22.48 46.04 22.6 46.832 22.6 47.752C22.6 48.664 22.48 49.452 22.24 50.116C22 50.78 21.656 51.292 21.208 51.652C20.76 52.012 20.224 52.192 19.6 52.192ZM19.6 51.184C20 51.184 20.34 51.044 20.62 50.764C20.908 50.484 21.128 50.088 21.28 49.576C21.44 49.056 21.52 48.448 21.52 47.752C21.52 47.04 21.44 46.428 21.28 45.916C21.128 45.396 20.908 44.996 20.62 44.716C20.34 44.436 20 44.296 19.6 44.296C19.208 44.296 18.868 44.436 18.58 44.716C18.292 44.996 18.068 45.396 17.908 45.916C17.756 46.428 17.68 47.04 17.68 47.752C17.68 48.448 17.756 49.056 17.908 49.576C18.068 50.088 18.292 50.484 18.58 50.764C18.868 51.044 19.208 51.184 19.6 51.184ZM26.6033 52V45.688H24.3713V44.8H25.5233C25.8273 44.8 26.0713 44.756 26.2553 44.668C26.4473 44.58 26.5833 44.44 26.6633 44.248C26.7513 44.056 26.7953 43.8 26.7953 43.48H27.6353V52H26.6033ZM23.9153 52V50.992H29.6753V52H23.9153ZM30.9906 52C30.9906 51.4 31.0826 50.86 31.2666 50.38C31.4586 49.892 31.7906 49.428 32.2626 48.988C32.7426 48.548 33.4066 48.104 34.2546 47.656C34.6466 47.448 34.9626 47.256 35.2026 47.08C35.4426 46.904 35.6186 46.716 35.7306 46.516C35.8426 46.316 35.8986 46.072 35.8986 45.784C35.8986 45.488 35.8346 45.232 35.7066 45.016C35.5786 44.792 35.3866 44.616 35.1306 44.488C34.8826 44.36 34.5706 44.296 34.1946 44.296C33.5946 44.296 33.1186 44.452 32.7666 44.764C32.4226 45.076 32.2066 45.52 32.1186 46.096L31.0386 46.024C31.1346 45.192 31.4546 44.528 31.9986 44.032C32.5426 43.536 33.2746 43.288 34.1946 43.288C34.7786 43.288 35.2786 43.392 35.6946 43.6C36.1106 43.808 36.4266 44.1 36.6426 44.476C36.8666 44.844 36.9786 45.272 36.9786 45.76C36.9786 46.192 36.9066 46.568 36.7626 46.888C36.6186 47.2 36.3746 47.492 36.0306 47.764C35.6946 48.036 35.2306 48.328 34.6386 48.64C34.1266 48.912 33.6946 49.188 33.3426 49.468C32.9986 49.748 32.7346 50.02 32.5506 50.284C32.3746 50.54 32.2786 50.776 32.2626 50.992H36.9906V52H30.9906ZM41.1139 52.192C40.1939 52.192 39.4859 51.972 38.9899 51.532C38.4939 51.084 38.2259 50.508 38.1859 49.804L39.2539 49.732C39.3019 50.252 39.4939 50.624 39.8299 50.848C40.1739 51.072 40.6019 51.184 41.1139 51.184C41.4579 51.184 41.7819 51.136 42.0859 51.04C42.3899 50.936 42.6339 50.772 42.8179 50.548C43.0099 50.316 43.1059 50.008 43.1059 49.624C43.1059 49.248 43.0219 48.94 42.8539 48.7C42.6859 48.452 42.4539 48.272 42.1579 48.16C41.8699 48.04 41.5419 47.98 41.1739 47.98H40.5019V46.972H41.1739C41.4699 46.972 41.7419 46.928 41.9899 46.84C42.2379 46.752 42.4339 46.612 42.5779 46.42C42.7299 46.22 42.8059 45.96 42.8059 45.64C42.8059 45.2 42.6659 44.868 42.3859 44.644C42.1059 44.412 41.7019 44.296 41.1739 44.296C40.6379 44.296 40.2299 44.404 39.9499 44.62C39.6779 44.836 39.5139 45.132 39.4579 45.508L38.3779 45.436C38.4579 44.796 38.7379 44.28 39.2179 43.888C39.6979 43.488 40.3499 43.288 41.1739 43.288C41.7259 43.288 42.2059 43.384 42.6139 43.576C43.0219 43.76 43.3339 44.024 43.5499 44.368C43.7739 44.712 43.8859 45.12 43.8859 45.592C43.8859 46.12 43.7179 46.548 43.3819 46.876C43.0539 47.196 42.5659 47.416 41.9179 47.536V47.32C42.6139 47.4 43.1659 47.648 43.5739 48.064C43.9819 48.48 44.1859 49 44.1859 49.624C44.1859 50.168 44.0539 50.632 43.7899 51.016C43.5259 51.4 43.1619 51.692 42.6979 51.892C42.2339 52.092 41.7059 52.192 41.1139 52.192ZM49.4373 52V50.152H45.2613V49.216L49.3653 43.48H50.4693V49.144H51.5013V50.152H50.4693V52H49.4373ZM46.3173 49.144H49.4373V44.92L46.3173 49.144ZM55.5526 52.192C55.0006 52.192 54.5166 52.092 54.1006 51.892C53.6926 51.692 53.3646 51.412 53.1166 51.052C52.8766 50.692 52.7366 50.276 52.6966 49.804L53.7766 49.732C53.8406 50.212 54.0286 50.576 54.3406 50.824C54.6606 51.064 55.0646 51.184 55.5526 51.184C56.1046 51.184 56.5446 51.016 56.8726 50.68C57.2086 50.336 57.3766 49.864 57.3766 49.264C57.3766 48.864 57.3046 48.52 57.1606 48.232C57.0166 47.936 56.8086 47.712 56.5366 47.56C56.2726 47.4 55.9526 47.32 55.5766 47.32C55.2406 47.32 54.9166 47.404 54.6046 47.572C54.3006 47.732 54.0806 47.964 53.9446 48.268H52.8406L53.4046 43.48H57.9406V44.488H54.3526L53.9686 47.632L53.7766 47.44C53.9046 47.192 54.0726 46.988 54.2806 46.828C54.4886 46.668 54.7166 46.548 54.9646 46.468C55.2206 46.38 55.4726 46.336 55.7206 46.336C56.2646 46.336 56.7406 46.464 57.1486 46.72C57.5646 46.968 57.8846 47.312 58.1086 47.752C58.3406 48.192 58.4566 48.696 58.4566 49.264C58.4566 49.832 58.3326 50.34 58.0846 50.788C57.8366 51.228 57.4926 51.572 57.0526 51.82C56.6206 52.068 56.1206 52.192 55.5526 52.192ZM62.7959 52.192C62.1559 52.192 61.6079 52.048 61.1519 51.76C60.7039 51.464 60.3599 51.032 60.1199 50.464C59.8879 49.896 59.7719 49.208 59.7719 48.4C59.7719 47.696 59.8279 47.036 59.9399 46.42C60.0599 45.804 60.2479 45.264 60.5039 44.8C60.7679 44.328 61.1119 43.96 61.5359 43.696C61.9679 43.424 62.4999 43.288 63.1319 43.288C63.6359 43.288 64.0639 43.372 64.4159 43.54C64.7679 43.708 65.0519 43.944 65.2679 44.248C65.4919 44.552 65.6599 44.904 65.7719 45.304L64.6919 45.4C64.5959 45.064 64.4279 44.796 64.1879 44.596C63.9559 44.396 63.6039 44.296 63.1319 44.296C62.6599 44.296 62.2559 44.432 61.9199 44.704C61.5839 44.968 61.3199 45.368 61.1279 45.904C60.9439 46.44 60.8439 47.112 60.8279 47.92L60.6119 47.872C60.6999 47.584 60.8519 47.32 61.0679 47.08C61.2919 46.832 61.5639 46.636 61.8839 46.492C62.2119 46.34 62.5799 46.264 62.9879 46.264C63.5479 46.264 64.0359 46.384 64.4519 46.624C64.8679 46.864 65.1919 47.204 65.4239 47.644C65.6559 48.076 65.7719 48.584 65.7719 49.168C65.7719 49.792 65.6439 50.332 65.3879 50.788C65.1399 51.236 64.7919 51.584 64.3439 51.832C63.9039 52.072 63.3879 52.192 62.7959 52.192ZM62.8199 51.184C63.3799 51.184 63.8319 51.008 64.1759 50.656C64.5199 50.296 64.6919 49.8 64.6919 49.168C64.6919 48.576 64.5279 48.108 64.1999 47.764C63.8799 47.42 63.4519 47.248 62.9159 47.248C62.5319 47.248 62.1879 47.328 61.8839 47.488C61.5799 47.64 61.3399 47.86 61.1639 48.148C60.9879 48.436 60.8999 48.776 60.8999 49.168C60.8999 49.56 60.9759 49.908 61.1279 50.212C61.2879 50.516 61.5119 50.756 61.7999 50.932C62.0879 51.1 62.4279 51.184 62.8199 51.184ZM68.6712 52C68.6712 51.12 68.7912 50.244 69.0312 49.372C69.2792 48.492 69.6312 47.64 70.0872 46.816C70.5432 45.992 71.0872 45.216 71.7192 44.488H67.0872V43.48H72.8472V44.416C72.3112 45.024 71.8472 45.628 71.4552 46.228C71.0712 46.828 70.7552 47.436 70.5072 48.052C70.2592 48.66 70.0752 49.292 69.9552 49.948C69.8352 50.596 69.7752 51.28 69.7752 52H68.6712ZM77.1625 52.192C76.6025 52.192 76.0945 52.096 75.6385 51.904C75.1825 51.712 74.8225 51.428 74.5585 51.052C74.2945 50.676 74.1625 50.212 74.1625 49.66C74.1625 49.044 74.3465 48.536 74.7145 48.136C75.0825 47.728 75.5705 47.452 76.1785 47.308L76.2025 47.548C75.7145 47.412 75.3185 47.192 75.0145 46.888C74.7185 46.576 74.5705 46.156 74.5705 45.628C74.5705 45.18 74.6825 44.78 74.9065 44.428C75.1305 44.076 75.4345 43.8 75.8185 43.6C76.2105 43.392 76.6585 43.288 77.1625 43.288C77.6665 43.288 78.1145 43.392 78.5065 43.6C78.8985 43.8 79.2025 44.076 79.4185 44.428C79.6425 44.78 79.7545 45.18 79.7545 45.628C79.7545 46.156 79.6065 46.576 79.3105 46.888C79.0145 47.192 78.6185 47.412 78.1225 47.548L78.1465 47.308C78.7625 47.452 79.2505 47.728 79.6105 48.136C79.9785 48.536 80.1625 49.044 80.1625 49.66C80.1625 50.212 80.0305 50.676 79.7665 51.052C79.5025 51.428 79.1425 51.712 78.6865 51.904C78.2385 52.096 77.7305 52.192 77.1625 52.192ZM77.1625 51.184C77.7225 51.184 78.1825 51.056 78.5425 50.8C78.9025 50.536 79.0825 50.136 79.0825 49.6C79.0825 49.104 78.9225 48.708 78.6025 48.412C78.2825 48.108 77.8025 47.956 77.1625 47.956C76.5305 47.956 76.0505 48.108 75.7225 48.412C75.4025 48.708 75.2425 49.104 75.2425 49.6C75.2425 50.136 75.4225 50.536 75.7825 50.8C76.1425 51.056 76.6025 51.184 77.1625 51.184ZM77.1625 46.996C77.6185 46.996 77.9825 46.884 78.2545 46.66C78.5345 46.428 78.6745 46.084 78.6745 45.628C78.6745 45.22 78.5385 44.896 78.2665 44.656C78.0025 44.416 77.6345 44.296 77.1625 44.296C76.6985 44.296 76.3305 44.416 76.0585 44.656C75.7865 44.896 75.6505 45.22 75.6505 45.628C75.6505 46.084 75.7865 46.428 76.0585 46.66C76.3385 46.884 76.7065 46.996 77.1625 46.996ZM84.3338 43.288C84.9738 43.288 85.5178 43.436 85.9658 43.732C86.4218 44.02 86.7658 44.448 86.9978 45.016C87.2378 45.576 87.3578 46.264 87.3578 47.08C87.3578 47.784 87.2978 48.444 87.1778 49.06C87.0658 49.676 86.8778 50.22 86.6138 50.692C86.3578 51.156 86.0138 51.524 85.5818 51.796C85.1578 52.06 84.6298 52.192 83.9978 52.192C83.4938 52.192 83.0658 52.108 82.7138 51.94C82.3618 51.772 82.0738 51.536 81.8498 51.232C81.6338 50.928 81.4698 50.576 81.3578 50.176L82.4378 50.08C82.5338 50.416 82.7018 50.684 82.9418 50.884C83.1818 51.084 83.5338 51.184 83.9978 51.184C84.4698 51.184 84.8738 51.052 85.2098 50.788C85.5538 50.516 85.8178 50.112 86.0018 49.576C86.1858 49.04 86.2858 48.368 86.3018 47.56L86.5178 47.608C86.4298 47.896 86.2738 48.164 86.0498 48.412C85.8338 48.652 85.5618 48.848 85.2338 49C84.9138 49.144 84.5498 49.216 84.1418 49.216C83.5818 49.216 83.0938 49.096 82.6778 48.856C82.2618 48.616 81.9378 48.28 81.7058 47.848C81.4738 47.408 81.3578 46.896 81.3578 46.312C81.3578 45.688 81.4818 45.152 81.7298 44.704C81.9858 44.248 82.3378 43.9 82.7858 43.66C83.2338 43.412 83.7498 43.288 84.3338 43.288ZM84.3098 44.296C83.7498 44.296 83.2978 44.472 82.9538 44.824C82.6098 45.176 82.4378 45.672 82.4378 46.312C82.4378 46.896 82.5978 47.364 82.9178 47.716C83.2458 48.06 83.6778 48.232 84.2138 48.232C84.5978 48.232 84.9418 48.156 85.2458 48.004C85.5498 47.844 85.7898 47.62 85.9658 47.332C86.1418 47.044 86.2298 46.704 86.2298 46.312C86.2298 45.92 86.1498 45.572 85.9898 45.268C85.8378 44.964 85.6178 44.728 85.3298 44.56C85.0418 44.384 84.7018 44.296 84.3098 44.296ZM90.7131 52.144C90.3131 52.144 89.9531 52.072 89.6331 51.928C89.3131 51.784 89.0611 51.584 88.8771 51.328C88.6931 51.064 88.6011 50.76 88.6011 50.416C88.6011 49.872 88.7611 49.452 89.0811 49.156C89.4091 48.852 89.9211 48.632 90.6171 48.496L92.7531 48.064C92.7531 47.52 92.6291 47.116 92.3811 46.852C92.1411 46.588 91.7931 46.456 91.3371 46.456C90.8971 46.456 90.5531 46.556 90.3051 46.756C90.0571 46.948 89.8851 47.228 89.7891 47.596L88.7211 47.512C88.8411 46.912 89.1251 46.428 89.5731 46.06C90.0291 45.684 90.6171 45.496 91.3371 45.496C92.1051 45.496 92.7011 45.728 93.1251 46.192C93.5491 46.648 93.7611 47.28 93.7611 48.088V50.728C93.7611 50.872 93.7931 50.972 93.8571 51.028C93.9211 51.084 94.0171 51.112 94.1451 51.112H94.5531V52C94.5051 52.008 94.4291 52.012 94.3251 52.012C94.2211 52.02 94.1211 52.024 94.0251 52.024C93.7531 52.024 93.5211 51.98 93.3291 51.892C93.1451 51.804 93.0051 51.664 92.9091 51.472C92.8131 51.272 92.7611 51.016 92.7531 50.704H92.9451C92.8891 50.976 92.7531 51.224 92.5371 51.448C92.3291 51.664 92.0651 51.836 91.7451 51.964C91.4251 52.084 91.0811 52.144 90.7131 52.144ZM90.8091 51.256C91.2411 51.256 91.6011 51.184 91.8891 51.04C92.1771 50.888 92.3931 50.68 92.5371 50.416C92.6811 50.144 92.7531 49.832 92.7531 49.48V48.928L90.8091 49.312C90.3771 49.392 90.0771 49.516 89.9091 49.684C89.7411 49.844 89.6571 50.056 89.6571 50.32C89.6571 50.616 89.7571 50.848 89.9571 51.016C90.1651 51.176 90.4491 51.256 90.8091 51.256ZM99.1444 52.144C98.7044 52.144 98.3124 52.048 97.9684 51.856C97.6244 51.656 97.3604 51.384 97.1764 51.04L97.1404 52H96.2284V43.48H97.2364V46.528C97.3964 46.264 97.6444 46.028 97.9804 45.82C98.3164 45.604 98.7044 45.496 99.1444 45.496C99.7044 45.496 100.188 45.632 100.596 45.904C101.004 46.176 101.316 46.56 101.532 47.056C101.756 47.552 101.868 48.14 101.868 48.82C101.868 49.5 101.756 50.088 101.532 50.584C101.316 51.08 101.004 51.464 100.596 51.736C100.188 52.008 99.7044 52.144 99.1444 52.144ZM99.0844 51.184C99.6204 51.184 100.04 50.972 100.344 50.548C100.656 50.124 100.812 49.548 100.812 48.82C100.812 48.084 100.656 47.508 100.344 47.092C100.04 46.668 99.6284 46.456 99.1084 46.456C98.7164 46.456 98.3804 46.552 98.1004 46.744C97.8204 46.928 97.6044 47.196 97.4524 47.548C97.3084 47.9 97.2364 48.324 97.2364 48.82C97.2364 49.3 97.3084 49.72 97.4524 50.08C97.6044 50.432 97.8164 50.704 98.0884 50.896C98.3684 51.088 98.7004 51.184 99.0844 51.184ZM106.112 52.144C105.52 52.144 105.004 52.008 104.564 51.736C104.124 51.464 103.784 51.08 103.544 50.584C103.304 50.08 103.184 49.492 103.184 48.82C103.184 48.148 103.304 47.564 103.544 47.068C103.784 46.572 104.124 46.188 104.564 45.916C105.004 45.636 105.52 45.496 106.112 45.496C106.584 45.496 107.004 45.584 107.372 45.76C107.74 45.928 108.044 46.176 108.284 46.504C108.524 46.832 108.688 47.232 108.776 47.704L107.72 47.776C107.624 47.352 107.432 47.028 107.144 46.804C106.864 46.572 106.52 46.456 106.112 46.456C105.528 46.456 105.068 46.668 104.732 47.092C104.404 47.508 104.24 48.084 104.24 48.82C104.24 49.556 104.404 50.136 104.732 50.56C105.068 50.976 105.528 51.184 106.112 51.184C106.52 51.184 106.872 51.064 107.168 50.824C107.472 50.584 107.672 50.224 107.768 49.744L108.824 49.816C108.736 50.288 108.568 50.7 108.32 51.052C108.072 51.396 107.76 51.664 107.384 51.856C107.008 52.048 106.584 52.144 106.112 52.144ZM112.743 52.144C112.183 52.144 111.699 52.008 111.291 51.736C110.883 51.464 110.567 51.08 110.343 50.584C110.127 50.088 110.019 49.5 110.019 48.82C110.019 48.14 110.127 47.552 110.343 47.056C110.567 46.56 110.883 46.176 111.291 45.904C111.699 45.632 112.183 45.496 112.743 45.496C113.191 45.496 113.583 45.604 113.919 45.82C114.255 46.028 114.499 46.264 114.651 46.528V43.48H115.659V52H114.747L114.711 51.04C114.535 51.384 114.275 51.656 113.931 51.856C113.587 52.048 113.191 52.144 112.743 52.144ZM112.803 51.184C113.187 51.184 113.515 51.088 113.787 50.896C114.067 50.704 114.279 50.432 114.423 50.08C114.575 49.72 114.651 49.3 114.651 48.82C114.651 48.324 114.575 47.9 114.423 47.548C114.279 47.196 114.067 46.928 113.787 46.744C113.507 46.552 113.171 46.456 112.779 46.456C112.259 46.456 111.843 46.668 111.531 47.092C111.227 47.508 111.075 48.084 111.075 48.82C111.075 49.548 111.227 50.124 111.531 50.548C111.843 50.972 112.267 51.184 112.803 51.184ZM120.442 52.144C119.842 52.144 119.322 52.008 118.882 51.736C118.45 51.464 118.114 51.08 117.874 50.584C117.642 50.08 117.526 49.492 117.526 48.82C117.526 48.148 117.642 47.564 117.874 47.068C118.114 46.572 118.446 46.188 118.87 45.916C119.302 45.636 119.81 45.496 120.394 45.496C120.946 45.496 121.434 45.628 121.858 45.892C122.282 46.148 122.614 46.524 122.854 47.02C123.094 47.516 123.214 48.12 123.214 48.832V49.132H118.582C118.622 49.812 118.802 50.324 119.122 50.668C119.45 51.012 119.89 51.184 120.442 51.184C120.858 51.184 121.198 51.088 121.462 50.896C121.734 50.696 121.922 50.436 122.026 50.116L123.106 50.2C122.938 50.768 122.618 51.236 122.146 51.604C121.682 51.964 121.114 52.144 120.442 52.144ZM118.582 48.244H122.11C122.062 47.628 121.882 47.176 121.57 46.888C121.258 46.6 120.866 46.456 120.394 46.456C119.906 46.456 119.502 46.608 119.182 46.912C118.87 47.208 118.67 47.652 118.582 48.244ZM126.474 52V45.232C126.474 44.664 126.618 44.232 126.906 43.936C127.202 43.632 127.65 43.48 128.25 43.48H130.29V44.368H128.25C128.002 44.368 127.81 44.448 127.674 44.608C127.546 44.76 127.482 44.968 127.482 45.232V52H126.474ZM124.77 46.528V45.64H130.17V46.528H124.77ZM134.689 53.944C134.233 53.944 133.821 53.868 133.453 53.716C133.085 53.564 132.777 53.348 132.529 53.068C132.281 52.788 132.113 52.464 132.025 52.096L133.081 52.024C133.177 52.32 133.345 52.552 133.585 52.72C133.833 52.896 134.201 52.984 134.689 52.984C135.265 52.984 135.705 52.868 136.009 52.636C136.321 52.404 136.477 52.056 136.477 51.592V50.56C136.325 50.896 136.081 51.164 135.745 51.364C135.409 51.564 135.033 51.664 134.617 51.664C134.081 51.664 133.601 51.532 133.177 51.268C132.761 51.004 132.433 50.64 132.193 50.176C131.961 49.712 131.845 49.18 131.845 48.58C131.845 47.972 131.961 47.44 132.193 46.984C132.425 46.52 132.745 46.156 133.153 45.892C133.569 45.628 134.041 45.496 134.569 45.496C135.017 45.496 135.417 45.6 135.769 45.808C136.129 46.016 136.381 46.296 136.525 46.648V45.64H137.485V51.568C137.485 52.064 137.373 52.488 137.149 52.84C136.925 53.2 136.605 53.472 136.189 53.656C135.773 53.848 135.273 53.944 134.689 53.944ZM134.665 50.704C135.209 50.704 135.645 50.516 135.973 50.14C136.301 49.756 136.469 49.236 136.477 48.58C136.485 48.14 136.413 47.764 136.261 47.452C136.117 47.132 135.905 46.888 135.625 46.72C135.353 46.544 135.033 46.456 134.665 46.456C134.105 46.456 133.669 46.648 133.357 47.032C133.053 47.408 132.901 47.924 132.901 48.58C132.901 49.236 133.057 49.756 133.369 50.14C133.689 50.516 134.121 50.704 134.665 50.704ZM139.52 52V43.48H140.528V47.044L140.408 47.02C140.488 46.668 140.624 46.38 140.816 46.156C141.008 45.932 141.244 45.768 141.524 45.664C141.804 45.552 142.108 45.496 142.436 45.496C142.892 45.496 143.276 45.6 143.588 45.808C143.908 46.008 144.148 46.292 144.308 46.66C144.476 47.02 144.56 47.436 144.56 47.908V52H143.552V48.196C143.552 47.58 143.44 47.124 143.216 46.828C143 46.532 142.668 46.384 142.22 46.384C141.708 46.384 141.296 46.54 140.984 46.852C140.68 47.164 140.528 47.616 140.528 48.208V52H139.52ZM19.516 68V61.64H20.524V68H19.516ZM16.96 68V67.112H22.72V68H16.96ZM17.08 62.528V61.64H20.524V62.528H17.08ZM19.42 60.644V59.468H20.476V60.644H19.42ZM24.5153 69.8V68.912H26.5313C26.8433 68.912 27.0753 68.844 27.2273 68.708C27.3873 68.572 27.4673 68.312 27.4673 67.928V61.64H28.4753V68C28.4753 68.584 28.3313 69.028 28.0433 69.332C27.7553 69.644 27.2913 69.8 26.6513 69.8H24.5153ZM24.6353 62.528V61.64H28.0433V62.528H24.6353ZM27.4073 60.644V59.468H28.4633V60.644H27.4073ZM31.4706 68V59.48H32.4786V65.06L35.5746 61.64H36.9186L34.4106 64.34L37.0386 68H35.8146L33.7266 65.024L32.4786 66.344V68H31.4706ZM40.8619 68V61.184C40.8619 60.928 40.7899 60.728 40.6459 60.584C40.5019 60.44 40.3019 60.368 40.0459 60.368H38.5459V59.48H40.0939C40.6779 59.48 41.1179 59.632 41.4139 59.936C41.7179 60.232 41.8699 60.672 41.8699 61.256V68H40.8619ZM38.3059 68V67.112H44.0659V68H38.3059ZM45.2613 68V61.64H46.1853L46.2213 63.056L46.1013 63.032C46.1733 62.56 46.3253 62.188 46.5573 61.916C46.7973 61.636 47.1013 61.496 47.4693 61.496C47.8453 61.496 48.1333 61.632 48.3333 61.904C48.5413 62.176 48.6693 62.576 48.7173 63.104H48.5973C48.6693 62.608 48.8293 62.216 49.0773 61.928C49.3333 61.64 49.6533 61.496 50.0373 61.496C50.5493 61.496 50.9213 61.672 51.1533 62.024C51.3853 62.376 51.5013 62.96 51.5013 63.776V68H50.4933V63.92C50.4933 63.352 50.4333 62.956 50.3133 62.732C50.1933 62.5 50.0053 62.384 49.7493 62.384C49.5813 62.384 49.4333 62.44 49.3053 62.552C49.1773 62.656 49.0733 62.824 48.9933 63.056C48.9213 63.288 48.8853 63.584 48.8853 63.944V68H47.8773V63.92C47.8773 63.376 47.8173 62.984 47.6973 62.744C47.5853 62.504 47.3973 62.384 47.1333 62.384C46.9653 62.384 46.8173 62.44 46.6893 62.552C46.5613 62.656 46.4573 62.824 46.3773 63.056C46.3053 63.288 46.2693 63.584 46.2693 63.944V68H45.2613ZM52.9846 68V61.64H53.9086L53.9446 63.26L53.8246 63.152C53.9046 62.776 54.0486 62.468 54.2566 62.228C54.4726 61.98 54.7286 61.796 55.0246 61.676C55.3206 61.556 55.6326 61.496 55.9606 61.496C56.4486 61.496 56.8526 61.604 57.1726 61.82C57.5006 62.036 57.7486 62.328 57.9166 62.696C58.0846 63.056 58.1686 63.46 58.1686 63.908V68H57.1606V64.196C57.1606 63.604 57.0446 63.156 56.8126 62.852C56.5806 62.54 56.2246 62.384 55.7446 62.384C55.4166 62.384 55.1206 62.456 54.8566 62.6C54.5926 62.736 54.3806 62.94 54.2206 63.212C54.0686 63.476 53.9926 63.804 53.9926 64.196V68H52.9846ZM62.7719 68.144C62.1879 68.144 61.6759 68.008 61.2359 67.736C60.8039 67.464 60.4679 67.08 60.2279 66.584C59.9879 66.08 59.8679 65.492 59.8679 64.82C59.8679 64.14 59.9879 63.552 60.2279 63.056C60.4679 62.56 60.8039 62.176 61.2359 61.904C61.6759 61.632 62.1879 61.496 62.7719 61.496C63.3559 61.496 63.8639 61.632 64.2959 61.904C64.7359 62.176 65.0759 62.56 65.3159 63.056C65.5559 63.552 65.6759 64.14 65.6759 64.82C65.6759 65.492 65.5559 66.08 65.3159 66.584C65.0759 67.08 64.7359 67.464 64.2959 67.736C63.8639 68.008 63.3559 68.144 62.7719 68.144ZM62.7719 67.184C63.3559 67.184 63.8079 66.976 64.1279 66.56C64.4559 66.136 64.6199 65.556 64.6199 64.82C64.6199 64.084 64.4559 63.508 64.1279 63.092C63.8079 62.668 63.3559 62.456 62.7719 62.456C62.1879 62.456 61.7319 62.668 61.4039 63.092C61.0839 63.508 60.9239 64.084 60.9239 64.82C60.9239 65.556 61.0839 66.136 61.4039 66.56C61.7319 66.976 62.1879 67.184 62.7719 67.184ZM67.3272 69.8V61.64H68.2632L68.2872 63.08L68.1432 63.008C68.3032 62.512 68.5672 62.136 68.9352 61.88C69.3112 61.624 69.7432 61.496 70.2312 61.496C70.8632 61.496 71.3792 61.652 71.7792 61.964C72.1872 62.276 72.4872 62.684 72.6792 63.188C72.8712 63.692 72.9672 64.236 72.9672 64.82C72.9672 65.404 72.8712 65.948 72.6792 66.452C72.4872 66.956 72.1872 67.364 71.7792 67.676C71.3792 67.988 70.8632 68.144 70.2312 68.144C69.9032 68.144 69.5952 68.088 69.3072 67.976C69.0272 67.864 68.7872 67.708 68.5872 67.508C68.3952 67.308 68.2632 67.072 68.1912 66.8L68.3352 66.632V69.8H67.3272ZM70.1352 67.184C70.6872 67.184 71.1192 66.976 71.4312 66.56C71.7512 66.144 71.9112 65.564 71.9112 64.82C71.9112 64.076 71.7512 63.496 71.4312 63.08C71.1192 62.664 70.6872 62.456 70.1352 62.456C69.7672 62.456 69.4472 62.544 69.1752 62.72C68.9112 62.896 68.7032 63.16 68.5512 63.512C68.4072 63.864 68.3352 64.3 68.3352 64.82C68.3352 65.34 68.4072 65.776 68.5512 66.128C68.6952 66.48 68.9032 66.744 69.1752 66.92C69.4472 67.096 69.7672 67.184 70.1352 67.184ZM79.8025 69.8H78.7945V66.632L78.9385 66.8C78.8665 67.072 78.7305 67.308 78.5305 67.508C78.3385 67.708 78.0985 67.864 77.8105 67.976C77.5305 68.088 77.2265 68.144 76.8985 68.144C76.2665 68.144 75.7465 67.988 75.3385 67.676C74.9385 67.364 74.6425 66.956 74.4505 66.452C74.2585 65.948 74.1625 65.404 74.1625 64.82C74.1625 64.236 74.2585 63.692 74.4505 63.188C74.6425 62.684 74.9385 62.276 75.3385 61.964C75.7465 61.652 76.2665 61.496 76.8985 61.496C77.3945 61.496 77.8265 61.624 78.1945 61.88C78.5705 62.136 78.8345 62.512 78.9865 63.008L78.8425 63.08L78.8665 61.64H79.8025V69.8ZM76.9945 67.184C77.3705 67.184 77.6905 67.096 77.9545 66.92C78.2265 66.744 78.4345 66.48 78.5785 66.128C78.7225 65.776 78.7945 65.34 78.7945 64.82C78.7945 64.3 78.7185 63.864 78.5665 63.512C78.4225 63.16 78.2145 62.896 77.9425 62.72C77.6785 62.544 77.3625 62.456 76.9945 62.456C76.4425 62.456 76.0065 62.664 75.6865 63.08C75.3745 63.496 75.2185 64.076 75.2185 64.82C75.2185 65.564 75.3745 66.144 75.6865 66.56C76.0065 66.976 76.4425 67.184 76.9945 67.184ZM83.4938 68V61.64H84.3338L84.4298 63.248L84.3338 63.224C84.4138 62.68 84.5858 62.28 84.8498 62.024C85.1218 61.768 85.4818 61.64 85.9298 61.64H87.2378V62.552H85.9418C85.6298 62.552 85.3658 62.616 85.1498 62.744C84.9418 62.864 84.7818 63.044 84.6698 63.284C84.5578 63.516 84.5018 63.808 84.5018 64.16V68H83.4938ZM81.8378 68V67.112H86.5178V68H81.8378ZM81.8378 62.528V61.64H84.0458V62.528H81.8378ZM91.6731 68.144C91.1211 68.144 90.6451 68.048 90.2451 67.856C89.8451 67.664 89.5291 67.408 89.2971 67.088C89.0731 66.76 88.9451 66.396 88.9131 65.996L89.9691 65.924C90.0331 66.316 90.2051 66.624 90.4851 66.848C90.7731 67.072 91.1691 67.184 91.6731 67.184C92.1451 67.184 92.5091 67.116 92.7651 66.98C93.0291 66.844 93.1611 66.632 93.1611 66.344C93.1611 66.16 93.1171 66.008 93.0291 65.888C92.9411 65.768 92.7771 65.668 92.5371 65.588C92.2971 65.5 91.9451 65.416 91.4811 65.336C90.8651 65.224 90.3811 65.088 90.0291 64.928C89.6851 64.76 89.4411 64.552 89.2971 64.304C89.1531 64.056 89.0811 63.76 89.0811 63.416C89.0811 63.048 89.1731 62.72 89.3571 62.432C89.5411 62.144 89.8131 61.916 90.1731 61.748C90.5331 61.58 90.9731 61.496 91.4931 61.496C92.0211 61.496 92.4611 61.592 92.8131 61.784C93.1731 61.968 93.4571 62.216 93.6651 62.528C93.8731 62.832 94.0091 63.168 94.0731 63.536L93.0171 63.608C92.9691 63.384 92.8771 63.188 92.7411 63.02C92.6131 62.844 92.4411 62.708 92.2251 62.612C92.0171 62.508 91.7691 62.456 91.4811 62.456C91.0171 62.456 90.6731 62.548 90.4491 62.732C90.2251 62.916 90.1131 63.144 90.1131 63.416C90.1131 63.632 90.1651 63.804 90.2691 63.932C90.3731 64.06 90.5411 64.164 90.7731 64.244C91.0051 64.316 91.3131 64.384 91.6971 64.448C92.3531 64.552 92.8611 64.688 93.2211 64.856C93.5811 65.016 93.8331 65.216 93.9771 65.456C94.1211 65.696 94.1931 65.992 94.1931 66.344C94.1931 66.72 94.0811 67.044 93.8571 67.316C93.6411 67.58 93.3411 67.784 92.9571 67.928C92.5811 68.072 92.1531 68.144 91.6731 68.144ZM99.6844 68C99.0684 68 98.6084 67.856 98.3044 67.568C98.0004 67.28 97.8484 66.84 97.8484 66.248V60.152H98.8564V66.248C98.8564 66.544 98.9244 66.764 99.0604 66.908C99.1964 67.044 99.4044 67.112 99.6844 67.112H101.388V68H99.6844ZM95.7484 62.528V61.64H101.388V62.528H95.7484ZM105.5 68.144C104.868 68.144 104.364 67.932 103.988 67.508C103.612 67.076 103.424 66.484 103.424 65.732V61.64H104.432V65.456C104.432 66.072 104.54 66.528 104.756 66.824C104.98 67.112 105.32 67.256 105.776 67.256C106.272 67.256 106.664 67.096 106.952 66.776C107.24 66.448 107.384 66 107.384 65.432V61.64H108.392V68H107.432V66.428L107.588 66.512C107.46 67.032 107.216 67.436 106.856 67.724C106.496 68.004 106.044 68.144 105.5 68.144ZM112.503 68L110.139 61.64H111.243L113.139 66.968L115.035 61.64H116.139L113.775 68H112.503ZM118.234 68L116.974 61.64H118.078L118.906 66.944L119.842 62.528H120.826L121.762 66.944L122.59 61.64H123.694L122.446 68H121.174L120.334 63.992L119.494 68H118.234ZM124.578 68L126.918 64.736L124.698 61.64H125.874L127.542 64.04L129.174 61.64H130.374L128.166 64.76L130.482 68H129.306L127.542 65.432L125.778 68H124.578ZM132.781 69.8V68.912H133.513C133.737 68.912 133.901 68.876 134.005 68.804C134.117 68.74 134.201 68.632 134.257 68.48L134.485 67.88H134.137L131.773 61.64H132.877L134.809 66.944L136.621 61.64H137.725L135.145 68.804C135.025 69.148 134.845 69.4 134.605 69.56C134.365 69.72 134.033 69.8 133.609 69.8H132.781ZM139.304 68V66.992L143.336 62.528H139.424V61.64H144.44V62.648L140.408 67.112H144.536V68H139.304ZM16.312 84L18.904 75.48H20.296L22.888 84H21.784L19.6 76.416L17.416 84H16.312ZM17.62 81.576L17.98 80.568H21.22L21.58 81.576H17.62ZM24.2753 84V75.48H26.6753C27.6113 75.48 28.3153 75.688 28.7873 76.104C29.2673 76.52 29.5073 77.088 29.5073 77.808C29.5073 78.16 29.4233 78.476 29.2553 78.756C29.0873 79.036 28.8513 79.256 28.5473 79.416C28.2433 79.576 27.8913 79.656 27.4913 79.656V79.584C27.9873 79.584 28.4113 79.668 28.7633 79.836C29.1233 80.004 29.3953 80.24 29.5793 80.544C29.7713 80.848 29.8673 81.208 29.8673 81.624C29.8673 82.36 29.6113 82.94 29.0993 83.364C28.5873 83.788 27.8793 84 26.9753 84H24.2753ZM25.3073 82.992H26.9873C27.6033 82.992 28.0553 82.872 28.3433 82.632C28.6393 82.392 28.7873 82.056 28.7873 81.624C28.7873 81.168 28.6353 80.812 28.3313 80.556C28.0273 80.3 27.5793 80.172 26.9873 80.172H25.3073V82.992ZM25.3073 79.164H26.7233C27.3153 79.164 27.7473 79.048 28.0193 78.816C28.2913 78.584 28.4273 78.256 28.4273 77.832C28.4273 77.4 28.2913 77.068 28.0193 76.836C27.7473 76.604 27.3153 76.488 26.7233 76.488H25.3073V79.164ZM34.0146 84.192C33.3346 84.192 32.7586 84.012 32.2866 83.652C31.8146 83.292 31.4546 82.78 31.2066 82.116C30.9666 81.452 30.8466 80.664 30.8466 79.752C30.8466 78.832 30.9666 78.04 31.2066 77.376C31.4546 76.712 31.8146 76.2 32.2866 75.84C32.7586 75.472 33.3346 75.288 34.0146 75.288C34.7666 75.288 35.4066 75.536 35.9346 76.032C36.4626 76.52 36.8146 77.204 36.9906 78.084L35.8866 78.156C35.7506 77.54 35.5146 77.076 35.1786 76.764C34.8506 76.452 34.4626 76.296 34.0146 76.296C33.5586 76.296 33.1746 76.432 32.8626 76.704C32.5586 76.968 32.3266 77.36 32.1666 77.88C32.0066 78.392 31.9266 79.016 31.9266 79.752C31.9266 80.48 32.0066 81.1 32.1666 81.612C32.3266 82.124 32.5586 82.516 32.8626 82.788C33.1746 83.052 33.5586 83.184 34.0146 83.184C34.5106 83.184 34.9306 83.012 35.2746 82.668C35.6186 82.324 35.8506 81.812 35.9706 81.132L37.0626 81.192C36.9106 82.128 36.5666 82.864 36.0306 83.4C35.4946 83.928 34.8226 84.192 34.0146 84.192ZM38.6659 84V75.48H40.6819C41.4179 75.48 42.0579 75.648 42.6019 75.984C43.1539 76.312 43.5779 76.796 43.8739 77.436C44.1779 78.068 44.3299 78.84 44.3299 79.752C44.3299 80.664 44.1779 81.436 43.8739 82.068C43.5779 82.7 43.1539 83.18 42.6019 83.508C42.0579 83.836 41.4179 84 40.6819 84H38.6659ZM39.6979 82.992H40.6219C41.4539 82.992 42.0979 82.724 42.5539 82.188C43.0179 81.644 43.2499 80.832 43.2499 79.752C43.2499 78.672 43.0179 77.86 42.5539 77.316C42.0979 76.764 41.4539 76.488 40.6219 76.488H39.6979V82.992ZM45.8613 84V75.48H51.0453V76.488H46.8933V79.236H50.9013V80.22H46.8933V82.992H51.1413V84H45.8613ZM53.1766 84V75.48H58.4566V76.464H53.6806L54.2086 75.96V79.872L53.6806 79.344H58.2406V80.328H53.6806L54.2086 79.8V84H53.1766ZM62.7479 84.192C62.1479 84.192 61.6119 84.028 61.1399 83.7C60.6759 83.364 60.3079 82.868 60.0359 82.212C59.7639 81.548 59.6279 80.728 59.6279 79.752C59.6279 78.832 59.7519 78.04 59.9999 77.376C60.2559 76.712 60.6199 76.2 61.0919 75.84C61.5639 75.472 62.1319 75.288 62.7959 75.288C63.3159 75.288 63.7759 75.404 64.1759 75.636C64.5839 75.868 64.9239 76.192 65.1959 76.608C65.4679 77.016 65.6639 77.488 65.7839 78.024L64.7039 78.096C64.5679 77.568 64.3399 77.136 64.0199 76.8C63.7079 76.464 63.2999 76.296 62.7959 76.296C62.3559 76.296 61.9799 76.432 61.6679 76.704C61.3559 76.968 61.1159 77.36 60.9479 77.88C60.7879 78.392 60.7079 79.016 60.7079 79.752C60.7079 80.48 60.7919 81.1 60.9599 81.612C61.1279 82.124 61.3679 82.516 61.6799 82.788C61.9999 83.052 62.3879 83.184 62.8439 83.184C63.2519 83.184 63.5999 83.08 63.8879 82.872C64.1839 82.656 64.4159 82.36 64.5839 81.984C64.7519 81.6 64.8439 81.164 64.8599 80.676H62.8199V79.692H65.8199V84H64.8599L64.8119 81.984L65.0999 82.08C64.9879 82.488 64.8319 82.852 64.6319 83.172C64.4399 83.492 64.1879 83.744 63.8759 83.928C63.5719 84.104 63.1959 84.192 62.7479 84.192ZM67.0872 84V75.48H68.1192V79.62L67.5912 79.212H72.3432L71.8152 79.62V75.48H72.8472V84H71.8152V79.812L72.3432 80.22H67.5912L68.1192 79.812V84H67.0872ZM74.5225 84V82.992H76.6465V76.488H74.5225V75.48H79.8025V76.488H77.6785V82.992H79.8025V84H74.5225ZM84.0578 84.192C83.4978 84.192 83.0098 84.072 82.5938 83.832C82.1778 83.592 81.8498 83.252 81.6098 82.812C81.3778 82.364 81.2538 81.84 81.2378 81.24L82.2458 81.144C82.2698 81.832 82.4298 82.344 82.7258 82.68C83.0218 83.016 83.4658 83.184 84.0578 83.184C84.6498 83.184 85.0938 83.016 85.3898 82.68C85.6938 82.336 85.8458 81.824 85.8458 81.144V75.48H86.8778V81.144C86.8778 82.088 86.6258 82.832 86.1218 83.376C85.6178 83.92 84.9298 84.192 84.0578 84.192ZM89.5851 81.288V79.896L93.2811 75.48H94.5531L89.5851 81.288ZM88.6731 84V75.48H89.7051V84H88.6731ZM93.4011 84L90.4251 79.68L91.1451 78.936L94.6731 84H93.4011ZM96.3484 84V75.48H97.3804V83.52L96.8644 82.992H101.628V84H96.3484ZM105.488 83.04L103.88 76.44H103.976V84H102.944V75.48H104.504L106.184 82.488H105.704L107.384 75.48H108.944V84H107.912V76.44H108.008L106.4 83.04H105.488ZM110.379 84V75.48H111.843L114.867 82.824V75.48H115.899V84H114.435L111.411 76.656V84H110.379ZM120.334 84.192C119.662 84.192 119.09 84.02 118.618 83.676C118.154 83.332 117.798 82.828 117.55 82.164C117.31 81.5 117.19 80.696 117.19 79.752C117.19 78.792 117.31 77.98 117.55 77.316C117.798 76.652 118.154 76.148 118.618 75.804C119.09 75.46 119.662 75.288 120.334 75.288C121.006 75.288 121.574 75.46 122.038 75.804C122.51 76.148 122.866 76.652 123.106 77.316C123.354 77.98 123.478 78.792 123.478 79.752C123.478 80.696 123.354 81.5 123.106 82.164C122.866 82.828 122.51 83.332 122.038 83.676C121.574 84.02 121.006 84.192 120.334 84.192ZM120.334 83.184C120.774 83.184 121.146 83.056 121.45 82.8C121.762 82.536 121.998 82.148 122.158 81.636C122.318 81.124 122.398 80.496 122.398 79.752C122.398 79.008 122.318 78.38 122.158 77.868C121.998 77.348 121.762 76.956 121.45 76.692C121.146 76.428 120.774 76.296 120.334 76.296C119.894 76.296 119.518 76.428 119.206 76.692C118.902 76.956 118.67 77.348 118.51 77.868C118.35 78.38 118.27 79.008 118.27 79.752C118.27 80.496 118.35 81.124 118.51 81.636C118.67 82.148 118.902 82.536 119.206 82.8C119.518 83.056 119.894 83.184 120.334 83.184ZM125.01 84V75.48H127.602C128.194 75.48 128.71 75.584 129.15 75.792C129.59 76 129.93 76.3 130.17 76.692C130.41 77.076 130.53 77.54 130.53 78.084C130.53 78.628 130.41 79.096 130.17 79.488C129.93 79.872 129.59 80.168 129.15 80.376C128.71 80.584 128.194 80.688 127.602 80.688H126.042V84H125.01ZM126.042 79.68H127.482C128.154 79.68 128.65 79.544 128.97 79.272C129.29 78.992 129.45 78.596 129.45 78.084C129.45 77.564 129.29 77.168 128.97 76.896C128.65 76.624 128.154 76.488 127.482 76.488H126.042V79.68ZM136.285 84.828L134.005 81.504H135.109L137.389 84.828H136.285ZM134.725 84.192C134.053 84.192 133.481 84.02 133.009 83.676C132.545 83.332 132.189 82.828 131.941 82.164C131.701 81.5 131.581 80.696 131.581 79.752C131.581 78.792 131.701 77.98 131.941 77.316C132.189 76.652 132.545 76.148 133.009 75.804C133.481 75.46 134.053 75.288 134.725 75.288C135.397 75.288 135.965 75.46 136.429 75.804C136.901 76.148 137.257 76.652 137.497 77.316C137.745 77.98 137.869 78.792 137.869 79.752C137.869 80.696 137.745 81.5 137.497 82.164C137.257 82.828 136.901 83.332 136.429 83.676C135.965 84.02 135.397 84.192 134.725 84.192ZM134.725 83.184C135.165 83.184 135.537 83.056 135.841 82.8C136.153 82.536 136.389 82.148 136.549 81.636C136.709 81.124 136.789 80.496 136.789 79.752C136.789 79.008 136.709 78.38 136.549 77.868C136.389 77.348 136.153 76.956 135.841 76.692C135.537 76.428 135.165 76.296 134.725 76.296C134.285 76.296 133.909 76.428 133.597 76.692C133.293 76.956 133.061 77.348 132.901 77.868C132.741 78.38 132.661 79.008 132.661 79.752C132.661 80.496 132.741 81.124 132.901 81.636C133.061 82.148 133.293 82.536 133.597 82.8C133.909 83.056 134.285 83.184 134.725 83.184ZM139.16 84V75.48H141.752C142.648 75.48 143.356 75.708 143.876 76.164C144.396 76.612 144.656 77.232 144.656 78.024C144.656 78.424 144.564 78.78 144.38 79.092C144.196 79.396 143.96 79.636 143.672 79.812C143.384 79.988 143.088 80.088 142.784 80.112L142.736 79.968C143.304 80 143.728 80.136 144.008 80.376C144.296 80.616 144.464 81.008 144.512 81.552L144.728 84H143.696L143.492 81.684C143.468 81.42 143.404 81.208 143.3 81.048C143.204 80.88 143.048 80.76 142.832 80.688C142.624 80.608 142.336 80.568 141.968 80.568H140.192V84H139.16ZM140.192 79.56H141.752C142.344 79.56 142.796 79.428 143.108 79.164C143.42 78.892 143.576 78.512 143.576 78.024C143.576 77.528 143.42 77.148 143.108 76.884C142.796 76.62 142.344 76.488 141.752 76.488H140.192V79.56ZM19.732 100.192C19.132 100.192 18.6 100.068 18.136 99.82C17.672 99.572 17.3 99.232 17.02 98.8C16.74 98.36 16.576 97.852 16.528 97.276L17.608 97.204C17.664 97.628 17.784 97.988 17.968 98.284C18.16 98.58 18.404 98.804 18.7 98.956C19.004 99.108 19.356 99.184 19.756 99.184C20.156 99.184 20.492 99.136 20.764 99.04C21.036 98.936 21.24 98.788 21.376 98.596C21.52 98.396 21.592 98.16 21.592 97.888C21.592 97.616 21.528 97.38 21.4 97.18C21.28 96.972 21.048 96.78 20.704 96.604C20.368 96.428 19.868 96.248 19.204 96.064C18.612 95.896 18.132 95.712 17.764 95.512C17.404 95.312 17.14 95.068 16.972 94.78C16.812 94.492 16.732 94.136 16.732 93.712C16.732 93.232 16.844 92.812 17.068 92.452C17.3 92.084 17.628 91.8 18.052 91.6C18.476 91.392 18.98 91.288 19.564 91.288C20.148 91.288 20.648 91.408 21.064 91.648C21.48 91.88 21.808 92.2 22.048 92.608C22.296 93.016 22.452 93.48 22.516 94L21.436 94.072C21.388 93.728 21.288 93.424 21.136 93.16C20.984 92.888 20.776 92.676 20.512 92.524C20.248 92.372 19.924 92.296 19.54 92.296C19.012 92.296 18.592 92.424 18.28 92.68C17.968 92.928 17.812 93.256 17.812 93.664C17.812 93.928 17.868 94.148 17.98 94.324C18.1 94.492 18.308 94.644 18.604 94.78C18.9 94.908 19.316 95.048 19.852 95.2C20.548 95.392 21.1 95.608 21.508 95.848C21.924 96.088 22.22 96.376 22.396 96.712C22.58 97.04 22.672 97.44 22.672 97.912C22.672 98.36 22.548 98.756 22.3 99.1C22.052 99.444 21.708 99.712 21.268 99.904C20.828 100.096 20.316 100.192 19.732 100.192ZM26.2793 100V92.488H23.6753V91.48H29.9153V92.488H27.3113V100H26.2793ZM33.9906 100.192C33.0946 100.192 32.3906 99.908 31.8786 99.34C31.3666 98.772 31.1106 98 31.1106 97.024V91.48H32.1426V97.024C32.1426 97.728 32.2986 98.264 32.6106 98.632C32.9306 99 33.3906 99.184 33.9906 99.184C34.5906 99.184 35.0466 99 35.3586 98.632C35.6786 98.264 35.8386 97.728 35.8386 97.024V91.48H36.8706V97.024C36.8706 98 36.6146 98.772 36.1026 99.34C35.5906 99.908 34.8866 100.192 33.9906 100.192ZM40.5139 100L37.9459 91.48H39.0499L41.3299 99.328H41.0419L43.3219 91.48H44.4259L41.8579 100H40.5139ZM46.0773 100L45.1413 91.48H46.2213L47.0133 99.4H46.8933L47.8293 92.44H48.9333L49.8693 99.4H49.7493L50.5413 91.48H51.6213L50.6853 100H49.1253L48.2373 93.28H48.5253L47.6373 100H46.0773ZM52.5766 100L54.9286 95.716L52.6246 91.48H53.8246L55.5886 94.9L57.3526 91.48H58.5286L56.2246 95.728L58.5766 100H57.3766L55.5646 96.532L53.7526 100H52.5766ZM62.2679 100V96.52L59.6519 91.48H60.8279L62.7719 95.464L64.7159 91.48H65.8919L63.2999 96.52V100H62.2679ZM66.9672 100V98.968L71.7192 92.488H67.1832V91.48H72.8712V92.512L68.1192 98.992H72.9672V100H66.9672ZM76.8385 97.492C76.8145 97.212 76.7865 96.88 76.7545 96.496C76.7225 96.112 76.6945 95.72 76.6705 95.32C76.6545 94.92 76.6465 94.56 76.6465 94.24V91.48H77.6785V94.24C77.6785 94.56 77.6665 94.92 77.6425 95.32C77.6265 95.72 77.6025 96.112 77.5705 96.496C77.5465 96.88 77.5225 97.212 77.4985 97.492H76.8385ZM76.4185 100V98.536H77.9065V100H76.4185ZM84.8978 95.404L84.8498 91.48H85.9178V92.44L85.6298 95.404H84.8978ZM83.0858 95.404L82.7978 92.44V91.48H83.8658L83.8178 95.404H83.0858ZM91.5171 100L93.1011 91.48H93.9651L92.3811 100H91.5171ZM88.5531 97.636L88.6971 96.796H94.0731L93.9291 97.636H88.5531ZM89.1531 100L90.7371 91.48H91.6011L90.0171 100H89.1531ZM89.0331 94.72L89.1771 93.88H94.5531L94.4091 94.72H89.0331ZM98.3044 101.08V90.4H99.1924V101.08H98.3044ZM98.8804 100.192C98.2804 100.192 97.7484 100.068 97.2844 99.82C96.8204 99.572 96.4484 99.232 96.1684 98.8C95.8884 98.36 95.7244 97.852 95.6764 97.276L96.7564 97.204C96.8124 97.628 96.9324 97.988 97.1164 98.284C97.3084 98.58 97.5524 98.804 97.8484 98.956C98.1524 99.108 98.5044 99.184 98.9044 99.184C99.3044 99.184 99.6404 99.136 99.9124 99.04C100.184 98.936 100.388 98.788 100.524 98.596C100.668 98.396 100.74 98.16 100.74 97.888C100.74 97.616 100.68 97.388 100.56 97.204C100.44 97.012 100.208 96.84 99.8644 96.688C99.5284 96.528 99.0244 96.36 98.3524 96.184C97.7604 96.024 97.2804 95.836 96.9124 95.62C96.5524 95.404 96.2884 95.148 96.1204 94.852C95.9604 94.556 95.8804 94.216 95.8804 93.832C95.8804 93.352 95.9924 92.936 96.2164 92.584C96.4484 92.232 96.7764 91.96 97.2004 91.768C97.6244 91.576 98.1284 91.48 98.7124 91.48C99.2964 91.48 99.7964 91.592 100.212 91.816C100.628 92.04 100.956 92.352 101.196 92.752C101.444 93.144 101.6 93.6 101.664 94.12L100.584 94.192C100.536 93.848 100.436 93.548 100.284 93.292C100.132 93.036 99.9244 92.84 99.6604 92.704C99.3964 92.56 99.0724 92.488 98.6884 92.488C98.1604 92.488 97.7404 92.604 97.4284 92.836C97.1164 93.06 96.9604 93.376 96.9604 93.784C96.9604 94.048 97.0164 94.268 97.1284 94.444C97.2484 94.612 97.4564 94.764 97.7524 94.9C98.0484 95.028 98.4644 95.168 99.0004 95.32C99.6964 95.512 100.248 95.72 100.656 95.944C101.072 96.16 101.368 96.424 101.544 96.736C101.728 97.048 101.82 97.44 101.82 97.912C101.82 98.36 101.696 98.756 101.448 99.1C101.2 99.444 100.856 99.712 100.416 99.904C99.9764 100.096 99.4644 100.192 98.8804 100.192ZM17.848 111.608C17.368 111.608 16.96 111.428 16.624 111.068C16.288 110.7 16.12 110.176 16.12 109.496C16.12 108.808 16.288 108.284 16.624 107.924C16.96 107.564 17.368 107.384 17.848 107.384C18.328 107.384 18.736 107.564 19.072 107.924C19.408 108.284 19.576 108.808 19.576 109.496C19.576 110.176 19.408 110.7 19.072 111.068C18.736 111.428 18.328 111.608 17.848 111.608ZM17.848 110.864C18.112 110.864 18.32 110.744 18.472 110.504C18.632 110.264 18.712 109.928 18.712 109.496C18.712 109.064 18.632 108.728 18.472 108.488C18.32 108.248 18.112 108.128 17.848 108.128C17.584 108.128 17.372 108.248 17.212 108.488C17.06 108.728 16.984 109.064 16.984 109.496C16.984 109.928 17.06 110.264 17.212 110.504C17.372 110.744 17.584 110.864 17.848 110.864ZM16.588 116L21.7 107.48H22.612L17.5 116H16.588ZM21.352 116.096C20.872 116.096 20.464 115.916 20.128 115.556C19.792 115.188 19.624 114.664 19.624 113.984C19.624 113.296 19.792 112.772 20.128 112.412C20.464 112.052 20.872 111.872 21.352 111.872C21.832 111.872 22.24 112.052 22.576 112.412C22.912 112.772 23.08 113.296 23.08 113.984C23.08 114.664 22.912 115.188 22.576 115.556C22.24 115.916 21.832 116.096 21.352 116.096ZM21.352 115.352C21.616 115.352 21.824 115.232 21.976 114.992C22.136 114.752 22.216 114.416 22.216 113.984C22.216 113.552 22.136 113.216 21.976 112.976C21.824 112.736 21.616 112.616 21.352 112.616C21.088 112.616 20.876 112.736 20.716 112.976C20.564 113.216 20.488 113.552 20.488 113.984C20.488 114.416 20.564 114.752 20.716 114.992C20.876 115.232 21.088 115.352 21.352 115.352ZM26.0753 116.192C25.2593 116.192 24.6153 115.996 24.1433 115.604C23.6713 115.204 23.4353 114.64 23.4353 113.912C23.4353 113.544 23.4873 113.22 23.5913 112.94C23.6953 112.652 23.8673 112.376 24.1073 112.112C24.3553 111.848 24.6913 111.568 25.1153 111.272C24.9313 111.032 24.7753 110.808 24.6473 110.6C24.5193 110.384 24.4193 110.168 24.3473 109.952C24.2833 109.736 24.2513 109.504 24.2513 109.256C24.2513 108.64 24.4353 108.16 24.8033 107.816C25.1793 107.464 25.6913 107.288 26.3393 107.288C26.9793 107.288 27.4713 107.452 27.8153 107.78C28.1593 108.1 28.3313 108.544 28.3313 109.112C28.3313 109.568 28.1953 109.98 27.9233 110.348C27.6513 110.708 27.1953 111.1 26.5553 111.524L28.4993 114.008C28.6433 113.808 28.7513 113.556 28.8233 113.252C28.8953 112.948 28.9313 112.592 28.9313 112.184L29.9393 112.28C29.9313 112.76 29.8513 113.224 29.6993 113.672C29.5553 114.12 29.3673 114.484 29.1353 114.764L30.1553 116H28.9433L28.4993 115.46C28.2673 115.684 27.9473 115.864 27.5393 116C27.1393 116.128 26.6513 116.192 26.0753 116.192ZM26.1953 115.232C26.6033 115.232 26.9433 115.184 27.2153 115.088C27.4873 114.992 27.6913 114.872 27.8273 114.728L25.7153 112.064C25.2833 112.36 24.9753 112.648 24.7913 112.928C24.6073 113.208 24.5153 113.536 24.5153 113.912C24.5153 114.312 24.6473 114.632 24.9113 114.872C25.1833 115.112 25.6113 115.232 26.1953 115.232ZM26.0033 110.792C26.3073 110.6 26.5513 110.424 26.7353 110.264C26.9193 110.096 27.0513 109.924 27.1313 109.748C27.2113 109.572 27.2513 109.384 27.2513 109.184C27.2513 108.896 27.1713 108.676 27.0113 108.524C26.8513 108.372 26.6273 108.296 26.3393 108.296C26.0193 108.296 25.7713 108.38 25.5953 108.548C25.4193 108.716 25.3313 108.952 25.3313 109.256C25.3313 109.416 25.3513 109.576 25.3913 109.736C25.4313 109.888 25.4993 110.048 25.5953 110.216C25.6993 110.384 25.8353 110.576 26.0033 110.792ZM33.6306 111.404L33.4626 108.392V107.48H34.5186V108.392L34.3506 111.404H33.6306ZM41.5699 117.32C41.0179 116.488 40.6019 115.64 40.3219 114.776C40.0419 113.904 39.9019 113.032 39.9019 112.16C39.9019 110.384 40.4579 108.664 41.5699 107H42.4699C41.4539 108.728 40.9459 110.448 40.9459 112.16C40.9459 113.016 41.0739 113.876 41.3299 114.74C41.5859 115.596 41.9659 116.456 42.4699 117.32H41.5699ZM47.9973 117.32H47.0973C47.6013 116.456 47.9813 115.596 48.2373 114.74C48.4933 113.876 48.6213 113.016 48.6213 112.16C48.6213 110.448 48.1133 108.728 47.0973 107H47.9973C49.1093 108.664 49.6653 110.384 49.6653 112.16C49.6653 113.032 49.5253 113.904 49.2453 114.776C48.9653 115.64 48.5493 116.488 47.9973 117.32ZM54.7846 111.416L54.1606 111.008L54.9646 109.784H53.5366V109.016H54.9646L54.1606 107.792L54.7846 107.384L55.5766 108.668L56.3806 107.384L57.0046 107.792L56.1886 109.016H57.6166V109.784H56.1886L57.0046 111.008L56.3806 111.416L55.5766 110.144L54.7846 111.416ZM59.9039 112.928V111.992H65.6399V112.928H59.9039ZM62.3039 115.328V109.592H63.2399V115.328H62.3039ZM69.3312 117.872L69.8952 116H69.2472V114.536H70.6872V115.832L69.9312 117.872H69.3312ZM75.2425 112.976V112.028H79.0825V112.976H75.2425ZM83.6138 116V114.536H85.1018V116H83.6138ZM89.2491 117.32L92.8971 107H93.8571L90.2091 117.32H89.2491ZM98.0044 116V114.536H99.4924V116H98.0044ZM98.0044 111.368V109.904H99.4924V111.368H98.0044ZM105.2 111.368V109.904H106.688V111.368H105.2ZM105.308 117.872L105.872 116H105.224V114.536H106.664V115.832L105.908 117.872H105.308ZM125.982 115.352L129.114 112.22L125.994 109.088H127.266L130.386 112.22L127.266 115.34L125.982 115.352ZM113.394 115.34L110.274 112.22L113.394 109.088H114.666L111.546 112.22L114.678 115.352L113.394 115.34ZM112.206 113.924V112.988H128.406V113.924H112.206ZM112.206 111.452V110.516H128.406V111.452H112.206ZM134.173 113.588C134.173 113.012 134.261 112.556 134.437 112.22C134.621 111.876 134.921 111.576 135.337 111.32C135.649 111.128 135.885 110.96 136.045 110.816C136.205 110.664 136.313 110.508 136.369 110.348C136.425 110.18 136.453 109.976 136.453 109.736C136.453 109.32 136.317 108.976 136.045 108.704C135.773 108.432 135.393 108.296 134.905 108.296C134.313 108.296 133.861 108.448 133.549 108.752C133.245 109.056 133.061 109.496 132.997 110.072L131.917 110C131.965 109.472 132.113 109.004 132.361 108.596C132.617 108.188 132.957 107.868 133.381 107.636C133.813 107.404 134.321 107.288 134.905 107.288C135.425 107.288 135.881 107.392 136.273 107.6C136.673 107.808 136.981 108.096 137.197 108.464C137.421 108.832 137.533 109.256 137.533 109.736C137.533 110.072 137.477 110.364 137.365 110.612C137.261 110.86 137.097 111.088 136.873 111.296C136.657 111.504 136.377 111.72 136.033 111.944C135.817 112.08 135.649 112.224 135.529 112.376C135.409 112.52 135.325 112.688 135.277 112.88C135.229 113.072 135.205 113.308 135.205 113.588H134.173ZM133.945 116V114.536H135.433V116H133.945ZM21.136 132.84C20.816 133 20.504 133.12 20.2 133.2C19.904 133.28 19.6 133.32 19.288 133.32C18.696 133.32 18.168 133.172 17.704 132.876C17.248 132.588 16.888 132.132 16.624 131.508C16.368 130.876 16.24 130.06 16.24 129.06C16.24 128.132 16.332 127.32 16.516 126.624C16.708 125.928 16.972 125.348 17.308 124.884C17.644 124.412 18.036 124.06 18.484 123.828C18.94 123.596 19.432 123.48 19.96 123.48C20.616 123.48 21.164 123.648 21.604 123.984C22.052 124.32 22.388 124.784 22.612 125.376C22.844 125.96 22.96 126.64 22.96 127.416C22.96 128.384 22.884 129.136 22.732 129.672C22.58 130.2 22.376 130.568 22.12 130.776C21.864 130.984 21.576 131.088 21.256 131.088C20.984 131.088 20.756 130.972 20.572 130.74C20.388 130.5 20.264 130.192 20.2 129.816H20.32C20.248 130.08 20.144 130.304 20.008 130.488C19.88 130.672 19.728 130.812 19.552 130.908C19.384 130.996 19.2 131.04 19 131.04C18.6 131.04 18.288 130.856 18.064 130.488C17.84 130.112 17.728 129.608 17.728 128.976C17.728 128.448 17.808 127.96 17.968 127.512C18.128 127.056 18.34 126.688 18.604 126.408C18.876 126.128 19.18 125.988 19.516 125.988C19.708 125.988 19.876 126.032 20.02 126.12C20.164 126.208 20.272 126.328 20.344 126.48C20.424 126.624 20.46 126.792 20.452 126.984L20.332 127.116L20.464 126H21.304C21.248 126.56 21.196 127.056 21.148 127.488C21.1 127.92 21.06 128.292 21.028 128.604C21.004 128.916 20.992 129.176 20.992 129.384C20.992 129.68 21.032 129.904 21.112 130.056C21.192 130.2 21.288 130.272 21.4 130.272C21.544 130.272 21.668 130.184 21.772 130.008C21.884 129.832 21.968 129.54 22.024 129.132C22.088 128.724 22.12 128.172 22.12 127.476C22.12 126.828 22.044 126.268 21.892 125.796C21.74 125.324 21.5 124.96 21.172 124.704C20.852 124.448 20.432 124.32 19.912 124.32C19.52 124.32 19.152 124.416 18.808 124.608C18.464 124.8 18.16 125.092 17.896 125.484C17.64 125.876 17.44 126.368 17.296 126.96C17.152 127.552 17.08 128.248 17.08 129.048C17.08 129.848 17.168 130.504 17.344 131.016C17.528 131.52 17.788 131.892 18.124 132.132C18.46 132.38 18.856 132.504 19.312 132.504C19.544 132.504 19.788 132.464 20.044 132.384C20.3 132.312 20.56 132.2 20.824 132.048L21.136 132.84ZM19.288 130.296C19.416 130.296 19.536 130.236 19.648 130.116C19.768 129.988 19.872 129.816 19.96 129.6C20.056 129.384 20.128 129.14 20.176 128.868C20.232 128.588 20.26 128.296 20.26 127.992C20.26 127.592 20.204 127.296 20.092 127.104C19.988 126.904 19.832 126.804 19.624 126.804C19.448 126.804 19.288 126.904 19.144 127.104C19 127.296 18.884 127.552 18.796 127.872C18.708 128.184 18.664 128.52 18.664 128.88C18.664 129.312 18.716 129.656 18.82 129.912C18.932 130.168 19.088 130.296 19.288 130.296ZM28.2353 133.32H25.3553V123H28.2353V123.84H26.3153V132.48H28.2353V133.32ZM36.2946 133.32H35.3346L31.6866 123H32.6466L36.2946 133.32ZM39.7459 133.32V132.48H41.6659V123.84H39.7459V123H42.6259V133.32H39.7459ZM46.3053 127.404L47.7453 123.924H49.0173L50.4573 127.404H49.4733L48.3092 124.656H48.4533L47.2893 127.404H46.3053ZM52.9366 132.936V132H58.2166V132.936H52.9366ZM62.8919 124.8L61.8119 123.264H62.9399L63.7319 124.8H62.8919ZM71.2752 133.38C70.6432 133.38 70.1432 133.188 69.7752 132.804C69.4152 132.42 69.2352 131.924 69.2352 131.316V130.32C69.2352 129.976 69.1872 129.684 69.0912 129.444C68.9952 129.196 68.8552 129.008 68.6712 128.88C68.4872 128.752 68.2632 128.688 67.9992 128.688V127.692C68.2632 127.692 68.4872 127.628 68.6712 127.5C68.8552 127.372 68.9952 127.188 69.0912 126.948C69.1872 126.7 69.2352 126.404 69.2352 126.06V125.064C69.2352 124.456 69.4152 123.96 69.7752 123.576C70.1432 123.192 70.6432 123 71.2752 123H71.9352V123.936C71.3032 123.912 70.8552 123.984 70.5912 124.152C70.3272 124.32 70.1952 124.616 70.1952 125.04V126.144C70.1952 126.744 70.0632 127.212 69.7992 127.548C69.5352 127.876 69.2192 128.084 68.8512 128.172V128.184C69.2272 128.264 69.5432 128.476 69.7992 128.82C70.0632 129.164 70.1952 129.636 70.1952 130.236V131.34C70.1952 131.756 70.3272 132.048 70.5912 132.216C70.8552 132.384 71.3032 132.46 71.9352 132.444V133.38H71.2752ZM82.2818 133.08H79.6658V132.144H81.8858C82.4698 132.152 82.8818 132.072 83.1218 131.904C83.3618 131.728 83.4818 131.44 83.4818 131.04V129.96C83.4818 129.416 83.6138 128.96 83.8778 128.592C84.1498 128.216 84.5058 127.988 84.9458 127.908V127.896C84.5218 127.808 84.1698 127.584 83.8898 127.224C83.6178 126.856 83.4818 126.404 83.4818 125.868V124.8C83.4818 124.392 83.3578 124.108 83.1098 123.948C82.8698 123.78 82.4618 123.696 81.8858 123.696H79.6658V122.76H82.2818C82.7058 122.76 83.0778 122.848 83.3978 123.024C83.7258 123.2 83.9778 123.444 84.1538 123.756C84.3378 124.06 84.4298 124.416 84.4298 124.824V125.784C84.4298 126.168 84.4938 126.484 84.6218 126.732C84.7498 126.972 84.9498 127.148 85.2218 127.26C85.5018 127.372 85.8538 127.424 86.2778 127.416V128.412C85.8538 128.404 85.5018 128.456 85.2218 128.568C84.9498 128.68 84.7498 128.856 84.6218 129.096C84.4938 129.336 84.4298 129.652 84.4298 130.044V131.016C84.4298 131.416 84.3378 131.772 84.1538 132.084C83.9778 132.396 83.7258 132.64 83.3978 132.816C83.0778 132.992 82.7058 133.08 82.2818 133.08ZM78.0458 133.092H77.0858V122.772H78.0458V133.092ZM92.6451 129.168C92.3651 129.168 92.1371 129.116 91.9611 129.012C91.7931 128.9 91.5891 128.7 91.3491 128.412C91.1891 128.212 91.0611 128.068 90.9651 127.98C90.8771 127.884 90.7971 127.824 90.7251 127.8C90.6611 127.776 90.5851 127.764 90.4971 127.764C90.2891 127.764 90.1291 127.872 90.0171 128.088C89.9051 128.304 89.8491 128.624 89.8491 129.048H88.9011C88.9011 128.392 89.0451 127.86 89.3331 127.452C89.6211 127.044 89.9971 126.84 90.4611 126.84C90.7651 126.84 91.0051 126.9 91.1811 127.02C91.3651 127.14 91.5611 127.336 91.7691 127.608C91.9771 127.88 92.1331 128.056 92.2371 128.136C92.3491 128.208 92.4811 128.244 92.6331 128.244C92.8411 128.244 92.9971 128.136 93.1011 127.92C93.2131 127.696 93.2691 127.376 93.2691 126.96H94.2171C94.2171 127.616 94.0731 128.148 93.7851 128.556C93.4971 128.964 93.1171 129.168 92.6451 129.168Z" fill="white"/>
</svg>
