<svg width="162" height="152" viewBox="0 0 162 152" fill="none" xmlns="http://www.w3.org/2000/svg">
<rect width="162" height="152" rx="8" fill="#282C34"/>
<path d="M26.104 28V19.48H29.032C30.04 19.48 30.796 19.664 31.3 20.032C31.804 20.4 32.056 20.98 32.056 21.772C32.056 22.14 31.976 22.464 31.816 22.744C31.656 23.024 31.428 23.244 31.132 23.404C30.836 23.556 30.484 23.632 30.076 23.632L30.064 23.56C30.792 23.56 31.364 23.756 31.78 24.148C32.204 24.532 32.416 25.036 32.416 25.66C32.416 26.436 32.164 27.02 31.66 27.412C31.156 27.804 30.44 28 29.512 28H26.104ZM27.136 26.992H29.512C30.096 26.992 30.544 26.872 30.856 26.632C31.176 26.392 31.336 26.048 31.336 25.6C31.336 25.152 31.176 24.804 30.856 24.556C30.544 24.3 30.096 24.172 29.512 24.172H27.136V26.992ZM27.136 23.164H29.032C29.656 23.164 30.136 23.048 30.472 22.816C30.808 22.576 30.976 22.244 30.976 21.82C30.976 21.372 30.812 21.04 30.484 20.824C30.164 20.6 29.68 20.488 29.032 20.488H27.136V23.164ZM33.9991 28V21.64H34.8871L34.9351 23.248L34.8391 23.212C34.9191 22.668 35.0911 22.272 35.3551 22.024C35.6271 21.768 35.9871 21.64 36.4351 21.64H37.0591V22.6H36.4471C36.1271 22.6 35.8591 22.66 35.6431 22.78C35.4351 22.892 35.2751 23.064 35.1631 23.296C35.0591 23.52 35.0071 23.808 35.0071 24.16V28H33.9991ZM39.7815 28.144C39.1255 28.144 38.6015 27.992 38.2095 27.688C37.8255 27.384 37.6335 26.96 37.6335 26.416C37.6335 25.872 37.7935 25.444 38.1135 25.132C38.4335 24.82 38.9415 24.6 39.6375 24.472L41.8935 24.052C41.8935 23.516 41.7655 23.116 41.5095 22.852C41.2615 22.588 40.8855 22.456 40.3815 22.456C39.9415 22.456 39.5935 22.556 39.3375 22.756C39.0815 22.948 38.9055 23.228 38.8095 23.596L37.7415 23.512C37.8615 22.912 38.1495 22.428 38.6055 22.06C39.0695 21.684 39.6615 21.496 40.3815 21.496C41.1975 21.496 41.8215 21.728 42.2535 22.192C42.6855 22.648 42.9015 23.28 42.9015 24.088V26.716C42.9015 26.86 42.9255 26.964 42.9735 27.028C43.0295 27.084 43.1175 27.112 43.2375 27.112H43.4895V28C43.4575 28.008 43.4055 28.012 43.3335 28.012C43.2615 28.02 43.1855 28.024 43.1055 28.024C42.8175 28.024 42.5815 27.98 42.3975 27.892C42.2215 27.796 42.0935 27.652 42.0135 27.46C41.9335 27.26 41.8935 27 41.8935 26.68L42.0135 26.704C41.9575 26.976 41.8215 27.224 41.6055 27.448C41.3895 27.664 41.1215 27.836 40.8015 27.964C40.4815 28.084 40.1415 28.144 39.7815 28.144ZM39.8775 27.256C40.3015 27.256 40.6615 27.176 40.9575 27.016C41.2615 26.848 41.4935 26.624 41.6535 26.344C41.8135 26.056 41.8935 25.736 41.8935 25.384V24.928L39.8295 25.312C39.3975 25.392 39.0975 25.516 38.9295 25.684C38.7695 25.844 38.6895 26.056 38.6895 26.32C38.6895 26.616 38.7935 26.848 39.0015 27.016C39.2175 27.176 39.5095 27.256 39.8775 27.256ZM44.628 28V21.64H45.552L45.588 23.26L45.468 23.152C45.548 22.776 45.688 22.468 45.888 22.228C46.088 21.98 46.328 21.796 46.608 21.676C46.896 21.556 47.204 21.496 47.532 21.496C48.02 21.496 48.42 21.604 48.732 21.82C49.052 22.036 49.288 22.328 49.44 22.696C49.6 23.056 49.68 23.46 49.68 23.908V28H48.672V24.196C48.672 23.804 48.624 23.476 48.528 23.212C48.44 22.94 48.296 22.736 48.096 22.6C47.896 22.456 47.636 22.384 47.316 22.384C46.828 22.384 46.424 22.54 46.104 22.852C45.792 23.156 45.636 23.604 45.636 24.196V28H44.628ZM53.716 28.144C53.164 28.144 52.684 28.008 52.276 27.736C51.876 27.464 51.568 27.08 51.352 26.584C51.136 26.088 51.028 25.5 51.028 24.82C51.028 24.14 51.136 23.552 51.352 23.056C51.568 22.56 51.876 22.176 52.276 21.904C52.684 21.632 53.164 21.496 53.716 21.496C54.14 21.496 54.528 21.588 54.88 21.772C55.232 21.948 55.496 22.2 55.672 22.528V19.48H56.68V28H55.768L55.732 27.04C55.556 27.384 55.288 27.656 54.928 27.856C54.568 28.048 54.164 28.144 53.716 28.144ZM53.92 27.184C54.296 27.184 54.612 27.088 54.868 26.896C55.132 26.704 55.332 26.432 55.468 26.08C55.604 25.72 55.672 25.3 55.672 24.82C55.672 24.324 55.604 23.9 55.468 23.548C55.332 23.196 55.132 22.928 54.868 22.744C54.612 22.552 54.296 22.456 53.92 22.456C53.36 22.456 52.912 22.668 52.576 23.092C52.248 23.508 52.084 24.084 52.084 24.82C52.084 25.548 52.248 26.124 52.576 26.548C52.912 26.972 53.36 27.184 53.92 27.184ZM60.9635 28.144C60.3635 28.144 59.8435 28.008 59.4035 27.736C58.9715 27.464 58.6355 27.08 58.3955 26.584C58.1635 26.08 58.0475 25.492 58.0475 24.82C58.0475 24.148 58.1635 23.564 58.3955 23.068C58.6355 22.572 58.9675 22.188 59.3915 21.916C59.8235 21.636 60.3315 21.496 60.9155 21.496C61.4675 21.496 61.9555 21.628 62.3795 21.892C62.8035 22.148 63.1315 22.524 63.3635 23.02C63.6035 23.516 63.7235 24.12 63.7235 24.832V25.132H59.1035C59.1435 25.812 59.3235 26.324 59.6435 26.668C59.9715 27.012 60.4115 27.184 60.9635 27.184C61.3795 27.184 61.7195 27.088 61.9835 26.896C62.2555 26.696 62.4435 26.436 62.5475 26.116L63.6275 26.2C63.4595 26.768 63.1395 27.236 62.6675 27.604C62.2035 27.964 61.6355 28.144 60.9635 28.144ZM59.1035 24.244H62.6195C62.5715 23.628 62.3915 23.176 62.0795 22.888C61.7755 22.6 61.3875 22.456 60.9155 22.456C60.4275 22.456 60.0235 22.608 59.7035 22.912C59.3915 23.208 59.1915 23.652 59.1035 24.244ZM65.0889 28V21.64H66.0969V28H65.0889ZM65.0649 20.644V19.468H66.1209V20.644H65.0649ZM70.2174 28.144C69.6494 28.144 69.1654 28.052 68.7654 27.868C68.3734 27.684 68.0654 27.432 67.8414 27.112C67.6254 26.784 67.5014 26.412 67.4694 25.996L68.5254 25.924C68.5894 26.308 68.7534 26.616 69.0174 26.848C69.2814 27.072 69.6814 27.184 70.2174 27.184C70.6494 27.184 70.9934 27.116 71.2494 26.98C71.5134 26.836 71.6454 26.608 71.6454 26.296C71.6454 26.128 71.6054 25.988 71.5254 25.876C71.4454 25.764 71.2894 25.668 71.0574 25.588C70.8254 25.5 70.4814 25.416 70.0254 25.336C69.4174 25.224 68.9374 25.088 68.5854 24.928C68.2414 24.76 67.9934 24.556 67.8414 24.316C67.6974 24.068 67.6254 23.776 67.6254 23.44C67.6254 22.872 67.8334 22.408 68.2494 22.048C68.6654 21.68 69.2574 21.496 70.0254 21.496C70.5454 21.496 70.9814 21.592 71.3334 21.784C71.6934 21.968 71.9734 22.216 72.1734 22.528C72.3814 22.832 72.5174 23.168 72.5814 23.536L71.5254 23.608C71.4774 23.384 71.3894 23.188 71.2614 23.02C71.1334 22.844 70.9654 22.708 70.7574 22.612C70.5494 22.508 70.3014 22.456 70.0134 22.456C69.5574 22.456 69.2214 22.544 69.0054 22.72C68.7894 22.896 68.6814 23.12 68.6814 23.392C68.6814 23.6 68.7294 23.772 68.8254 23.908C68.9294 24.036 69.0934 24.144 69.3174 24.232C69.5414 24.312 69.8414 24.384 70.2174 24.448C70.8654 24.56 71.3694 24.696 71.7294 24.856C72.0894 25.016 72.3414 25.212 72.4854 25.444C72.6294 25.676 72.7014 25.96 72.7014 26.296C72.7014 26.688 72.5894 27.024 72.3654 27.304C72.1494 27.576 71.8534 27.784 71.4774 27.928C71.1094 28.072 70.6894 28.144 70.2174 28.144ZM77.3384 28V19.48H78.3704V23.62L77.8424 23.212H83.1824L82.6544 23.62V19.48H83.6864V28H82.6544V23.812L83.1824 24.22H77.8424L78.3704 23.812V28H77.3384ZM84.9119 28L87.9839 19.48H89.3759L92.4479 28H91.3199L90.4679 25.576H86.8919L86.0399 28H84.9119ZM87.2399 24.568H90.1199L88.6799 20.38L87.2399 24.568ZM96.6922 28.192C95.9322 28.192 95.2642 28.016 94.6882 27.664C94.1122 27.304 93.6642 26.792 93.3442 26.128C93.0242 25.464 92.8642 24.672 92.8642 23.752C92.8642 22.832 93.0242 22.04 93.3442 21.376C93.6642 20.704 94.1122 20.188 94.6882 19.828C95.2642 19.468 95.9322 19.288 96.6922 19.288C97.7242 19.288 98.5242 19.548 99.0922 20.068C99.6602 20.588 100.032 21.296 100.208 22.192L99.1162 22.264C98.9962 21.656 98.7402 21.176 98.3482 20.824C97.9562 20.472 97.4042 20.296 96.6922 20.296C96.1482 20.296 95.6682 20.436 95.2522 20.716C94.8442 20.988 94.5242 21.384 94.2922 21.904C94.0602 22.416 93.9442 23.032 93.9442 23.752C93.9442 24.472 94.0602 25.088 94.2922 25.6C94.5242 26.112 94.8442 26.504 95.2522 26.776C95.6682 27.048 96.1482 27.184 96.6922 27.184C97.4362 27.184 98.0122 26.992 98.4202 26.608C98.8282 26.216 99.0842 25.688 99.1882 25.024L100.28 25.096C100.176 25.712 99.9722 26.252 99.6682 26.716C99.3642 27.18 98.9602 27.544 98.4562 27.808C97.9602 28.064 97.3722 28.192 96.6922 28.192ZM101.749 28V19.48H102.781V23.716L106.609 19.48H107.917L104.581 23.176L108.145 28H106.885L103.885 23.944L102.781 25.156V28H101.749ZM115.688 28.192C114.928 28.192 114.26 28.016 113.684 27.664C113.108 27.304 112.66 26.792 112.34 26.128C112.02 25.464 111.86 24.672 111.86 23.752C111.86 22.832 112.02 22.04 112.34 21.376C112.66 20.704 113.108 20.188 113.684 19.828C114.26 19.468 114.928 19.288 115.688 19.288C116.72 19.288 117.52 19.548 118.088 20.068C118.656 20.588 119.028 21.296 119.204 22.192L118.112 22.264C117.992 21.656 117.736 21.176 117.344 20.824C116.952 20.472 116.4 20.296 115.688 20.296C115.144 20.296 114.664 20.436 114.248 20.716C113.84 20.988 113.52 21.384 113.288 21.904C113.056 22.416 112.94 23.032 112.94 23.752C112.94 24.472 113.056 25.088 113.288 25.6C113.52 26.112 113.84 26.504 114.248 26.776C114.664 27.048 115.144 27.184 115.688 27.184C116.432 27.184 117.008 26.992 117.416 26.608C117.824 26.216 118.08 25.688 118.184 25.024L119.276 25.096C119.172 25.712 118.968 26.252 118.664 26.716C118.36 27.18 117.956 27.544 117.452 27.808C116.956 28.064 116.368 28.192 115.688 28.192ZM121.849 28C121.481 28 121.181 27.904 120.949 27.712C120.717 27.52 120.601 27.216 120.601 26.8V19.48H121.609V26.716C121.609 26.844 121.641 26.944 121.705 27.016C121.777 27.08 121.877 27.112 122.005 27.112H122.557V28H121.849ZM125.771 28.144C125.139 28.144 124.631 27.932 124.247 27.508C123.871 27.076 123.683 26.484 123.683 25.732V21.64H124.691V25.456C124.691 26.072 124.799 26.528 125.015 26.824C125.239 27.112 125.579 27.256 126.035 27.256C126.539 27.256 126.935 27.096 127.223 26.776C127.511 26.448 127.655 26 127.655 25.432V21.64H128.663V28H127.703V26.428L127.859 26.512C127.731 27.032 127.487 27.436 127.127 27.724C126.767 28.004 126.315 28.144 125.771 28.144ZM133.325 28.144C132.885 28.144 132.493 28.048 132.149 27.856C131.805 27.656 131.541 27.384 131.357 27.04L131.321 28H130.409V19.48H131.417V22.528C131.577 22.264 131.825 22.028 132.161 21.82C132.497 21.604 132.885 21.496 133.325 21.496C133.885 21.496 134.369 21.632 134.777 21.904C135.185 22.176 135.501 22.56 135.725 23.056C135.949 23.552 136.061 24.14 136.061 24.82C136.061 25.5 135.949 26.088 135.725 26.584C135.501 27.08 135.185 27.464 134.777 27.736C134.369 28.008 133.885 28.144 133.325 28.144ZM133.265 27.184C133.801 27.184 134.225 26.972 134.537 26.548C134.849 26.124 135.005 25.548 135.005 24.82C135.005 24.084 134.849 23.508 134.537 23.092C134.225 22.668 133.809 22.456 133.289 22.456C132.897 22.456 132.561 22.552 132.281 22.744C132.001 22.928 131.785 23.196 131.633 23.548C131.489 23.9 131.417 24.324 131.417 24.82C131.417 25.3 131.489 25.72 131.633 26.08C131.785 26.432 131.997 26.704 132.269 26.896C132.549 27.088 132.881 27.184 133.265 27.184Z" fill="white"/>
<path d="M19.972 52.192C19.284 52.192 18.688 52.012 18.184 51.652C17.68 51.292 17.288 50.78 17.008 50.116C16.736 49.452 16.6 48.664 16.6 47.752C16.6 46.84 16.736 46.052 17.008 45.388C17.288 44.716 17.68 44.2 18.184 43.84C18.688 43.472 19.284 43.288 19.972 43.288C20.668 43.288 21.268 43.472 21.772 43.84C22.276 44.2 22.664 44.712 22.936 45.376C23.216 46.04 23.356 46.832 23.356 47.752C23.356 48.664 23.216 49.452 22.936 50.116C22.664 50.78 22.276 51.292 21.772 51.652C21.268 52.012 20.668 52.192 19.972 52.192ZM19.972 51.184C20.708 51.184 21.276 50.888 21.676 50.296C22.076 49.696 22.276 48.848 22.276 47.752C22.276 47.016 22.184 46.392 22 45.88C21.824 45.36 21.564 44.968 21.22 44.704C20.884 44.432 20.468 44.296 19.972 44.296C19.484 44.296 19.068 44.432 18.724 44.704C18.388 44.968 18.128 45.36 17.944 45.88C17.768 46.392 17.68 47.016 17.68 47.752C17.68 48.848 17.88 49.696 18.28 50.296C18.68 50.888 19.244 51.184 19.972 51.184ZM26.213 52V45.688H24.437V44.8H25.157C25.469 44.8 25.717 44.76 25.901 44.68C26.093 44.6 26.229 44.464 26.309 44.272C26.389 44.08 26.429 43.816 26.429 43.48H27.245V52H26.213ZM29.1653 52C29.1653 51.4 29.2573 50.86 29.4413 50.38C29.6333 49.892 29.9653 49.428 30.4373 48.988C30.9173 48.548 31.5813 48.104 32.4293 47.656C32.8213 47.448 33.1373 47.256 33.3773 47.08C33.6173 46.904 33.7933 46.716 33.9053 46.516C34.0173 46.316 34.0733 46.072 34.0733 45.784C34.0733 45.488 34.0093 45.232 33.8813 45.016C33.7533 44.792 33.5613 44.616 33.3053 44.488C33.0573 44.36 32.7453 44.296 32.3693 44.296C31.7693 44.296 31.2933 44.452 30.9413 44.764C30.5973 45.076 30.3813 45.52 30.2933 46.096L29.2133 46.024C29.3093 45.192 29.6293 44.528 30.1733 44.032C30.7173 43.536 31.4493 43.288 32.3693 43.288C32.9533 43.288 33.4533 43.392 33.8693 43.6C34.2853 43.808 34.6013 44.1 34.8173 44.476C35.0413 44.844 35.1533 45.272 35.1533 45.76C35.1533 46.192 35.0813 46.568 34.9373 46.888C34.7933 47.2 34.5493 47.492 34.2053 47.764C33.8693 48.036 33.4053 48.328 32.8133 48.64C32.0453 49.048 31.4613 49.46 31.0613 49.876C30.6693 50.292 30.4613 50.664 30.4373 50.992H35.1533V52H29.1653ZM39.2526 52.192C38.3086 52.192 37.5806 51.972 37.0686 51.532C36.5566 51.084 36.2806 50.508 36.2406 49.804L37.3086 49.732C37.3566 50.252 37.5566 50.624 37.9086 50.848C38.2686 51.072 38.7166 51.184 39.2526 51.184C39.6206 51.184 39.9606 51.136 40.2726 51.04C40.5846 50.936 40.8366 50.772 41.0286 50.548C41.2206 50.316 41.3166 50.008 41.3166 49.624C41.3166 49.056 41.1286 48.64 40.7526 48.376C40.3766 48.112 39.8806 47.98 39.2646 47.98H38.5926V46.972H39.2646C39.7686 46.972 40.1846 46.872 40.5126 46.672C40.8486 46.472 41.0166 46.128 41.0166 45.64C41.0166 45.2 40.8726 44.868 40.5846 44.644C40.3046 44.412 39.8806 44.296 39.3126 44.296C38.7526 44.296 38.3286 44.404 38.0406 44.62C37.7606 44.836 37.5926 45.132 37.5366 45.508L36.4566 45.436C36.5366 44.796 36.8206 44.28 37.3086 43.888C37.7966 43.488 38.4646 43.288 39.3126 43.288C39.8886 43.288 40.3846 43.384 40.8006 43.576C41.2166 43.76 41.5366 44.024 41.7606 44.368C41.9846 44.712 42.0966 45.12 42.0966 45.592C42.0966 46.12 41.9286 46.548 41.5926 46.876C41.2646 47.196 40.7766 47.416 40.1286 47.536V47.32C40.8246 47.4 41.3766 47.648 41.7846 48.064C42.1926 48.48 42.3966 49 42.3966 49.624C42.3966 50.168 42.2606 50.632 41.9886 51.016C41.7246 51.4 41.3566 51.692 40.8846 51.892C40.4126 52.092 39.8686 52.192 39.2526 52.192ZM47.692 52V50.152H43.36V49.216L47.62 43.48H48.724V49.144H49.78V50.152H48.724V52H47.692ZM44.608 49.144H47.692V45.064L44.608 49.144ZM54.1268 52.192C53.5268 52.192 53.0068 52.092 52.5668 51.892C52.1348 51.692 51.7908 51.412 51.5348 51.052C51.2868 50.692 51.1428 50.276 51.1028 49.804L52.1828 49.732C52.2468 50.212 52.4508 50.576 52.7948 50.824C53.1468 51.064 53.5908 51.184 54.1268 51.184C54.7268 51.184 55.2028 51.016 55.5548 50.68C55.9068 50.336 56.0828 49.864 56.0828 49.264C56.0828 48.864 56.0028 48.52 55.8428 48.232C55.6908 47.936 55.4668 47.708 55.1708 47.548C54.8748 47.388 54.5188 47.308 54.1028 47.308C53.7108 47.308 53.3548 47.392 53.0348 47.56C52.7148 47.728 52.4868 47.964 52.3508 48.268H51.2468L51.8108 43.48H56.5868V44.488H52.7588L52.3748 47.632L52.1828 47.44C52.3108 47.192 52.4788 46.988 52.6868 46.828C52.9028 46.66 53.1468 46.536 53.4188 46.456C53.6988 46.368 53.9908 46.324 54.2948 46.324C54.8628 46.324 55.3628 46.452 55.7948 46.708C56.2268 46.956 56.5628 47.304 56.8028 47.752C57.0428 48.192 57.1628 48.696 57.1628 49.264C57.1628 49.832 57.0348 50.34 56.7788 50.788C56.5228 51.228 56.1668 51.572 55.7108 51.82C55.2548 52.068 54.7268 52.192 54.1268 52.192ZM61.6385 52.192C60.9985 52.192 60.4505 52.048 59.9945 51.76C59.5465 51.464 59.2025 51.032 58.9625 50.464C58.7305 49.896 58.6145 49.208 58.6145 48.4C58.6145 47.696 58.6705 47.036 58.7825 46.42C58.9025 45.804 59.0905 45.264 59.3465 44.8C59.6105 44.328 59.9545 43.96 60.3785 43.696C60.8105 43.424 61.3425 43.288 61.9745 43.288C62.7345 43.288 63.3225 43.476 63.7385 43.852C64.1545 44.22 64.4465 44.704 64.6145 45.304L63.5345 45.4C63.4385 45.064 63.2705 44.796 63.0305 44.596C62.7985 44.396 62.4465 44.296 61.9745 44.296C61.2705 44.296 60.7145 44.596 60.3065 45.196C59.9065 45.796 59.6945 46.704 59.6705 47.92L59.4545 47.872C59.5425 47.584 59.6945 47.32 59.9105 47.08C60.1345 46.832 60.4065 46.636 60.7265 46.492C61.0545 46.34 61.4225 46.264 61.8305 46.264C62.3905 46.264 62.8825 46.384 63.3065 46.624C63.7305 46.864 64.0585 47.204 64.2905 47.644C64.5305 48.076 64.6505 48.584 64.6505 49.168C64.6505 49.792 64.5225 50.332 64.2665 50.788C64.0105 51.236 63.6545 51.584 63.1985 51.832C62.7505 52.072 62.2305 52.192 61.6385 52.192ZM61.6625 51.184C62.2225 51.184 62.6785 51.008 63.0305 50.656C63.3905 50.296 63.5705 49.8 63.5705 49.168C63.5705 48.776 63.4945 48.436 63.3425 48.148C63.1905 47.86 62.9785 47.64 62.7065 47.488C62.4345 47.328 62.1185 47.248 61.7585 47.248C61.3745 47.248 61.0305 47.328 60.7265 47.488C60.4225 47.64 60.1825 47.86 60.0065 48.148C59.8305 48.436 59.7425 48.776 59.7425 49.168C59.7425 49.56 59.8185 49.908 59.9705 50.212C60.1305 50.516 60.3545 50.756 60.6425 50.932C60.9305 51.1 61.2705 51.184 61.6625 51.184ZM67.5188 52C67.5188 51.12 67.6388 50.244 67.8788 49.372C68.1188 48.492 68.4628 47.64 68.9108 46.816C69.3668 45.992 69.9108 45.216 70.5428 44.488H65.6228V43.48H71.6708V44.416C70.9588 45.232 70.3708 46.04 69.9068 46.84C69.4508 47.632 69.1148 48.452 68.8988 49.3C68.6828 50.14 68.5748 51.04 68.5748 52H67.5188ZM75.1826 52.192C74.5746 52.192 74.0306 52.096 73.5506 51.904C73.0786 51.712 72.7066 51.428 72.4346 51.052C72.1706 50.676 72.0386 50.212 72.0386 49.66C72.0386 49.044 72.2226 48.536 72.5906 48.136C72.9586 47.728 73.4466 47.452 74.0546 47.308L74.0786 47.548C73.5906 47.412 73.1946 47.192 72.8906 46.888C72.5946 46.576 72.4466 46.156 72.4466 45.628C72.4466 45.18 72.5586 44.78 72.7826 44.428C73.0146 44.076 73.3346 43.8 73.7426 43.6C74.1506 43.392 74.6306 43.288 75.1826 43.288C75.7346 43.288 76.2146 43.392 76.6226 43.6C77.0386 43.8 77.3586 44.076 77.5826 44.428C77.8066 44.78 77.9186 45.18 77.9186 45.628C77.9186 46.156 77.7706 46.576 77.4746 46.888C77.1786 47.192 76.7826 47.412 76.2866 47.548L76.3106 47.308C76.9266 47.452 77.4146 47.728 77.7746 48.136C78.1426 48.536 78.3266 49.044 78.3266 49.66C78.3266 50.212 78.1906 50.676 77.9186 51.052C77.6546 51.428 77.2866 51.712 76.8146 51.904C76.3426 52.096 75.7986 52.192 75.1826 52.192ZM75.1826 51.184C75.8146 51.184 76.3146 51.056 76.6826 50.8C77.0586 50.536 77.2466 50.136 77.2466 49.6C77.2466 49.104 77.0786 48.708 76.7426 48.412C76.4146 48.108 75.8946 47.956 75.1826 47.956C74.4786 47.956 73.9586 48.108 73.6226 48.412C73.2866 48.708 73.1186 49.104 73.1186 49.6C73.1186 50.136 73.3026 50.536 73.6706 50.8C74.0466 51.056 74.5506 51.184 75.1826 51.184ZM75.1826 46.996C75.7106 46.996 76.1186 46.884 76.4066 46.66C76.6946 46.428 76.8386 46.084 76.8386 45.628C76.8386 45.22 76.6986 44.896 76.4186 44.656C76.1386 44.416 75.7266 44.296 75.1826 44.296C74.6466 44.296 74.2346 44.416 73.9466 44.656C73.6666 44.896 73.5266 45.22 73.5266 45.628C73.5266 46.084 73.6706 46.428 73.9586 46.66C74.2466 46.884 74.6546 46.996 75.1826 46.996ZM82.2568 52.192C81.5528 52.192 80.9768 52.02 80.5288 51.676C80.0888 51.324 79.7888 50.884 79.6288 50.356L80.7208 50.272C80.8168 50.56 80.9928 50.784 81.2488 50.944C81.5048 51.104 81.8408 51.184 82.2568 51.184C82.9688 51.184 83.5128 50.9 83.8888 50.332C84.2728 49.756 84.4688 48.832 84.4768 47.56L84.7288 47.608C84.5288 48.144 84.2208 48.56 83.8048 48.856C83.3888 49.144 82.9048 49.288 82.3528 49.288C81.8008 49.288 81.3128 49.164 80.8888 48.916C80.4648 48.668 80.1288 48.32 79.8808 47.872C79.6408 47.424 79.5208 46.904 79.5208 46.312C79.5208 45.688 79.6488 45.152 79.9048 44.704C80.1608 44.248 80.5088 43.9 80.9488 43.66C81.3968 43.412 81.9088 43.288 82.4848 43.288C83.1968 43.288 83.7768 43.452 84.2248 43.78C84.6808 44.108 85.0168 44.568 85.2328 45.16C85.4488 45.744 85.5568 46.436 85.5568 47.236C85.5568 47.948 85.5008 48.608 85.3888 49.216C85.2768 49.816 85.0928 50.34 84.8368 50.788C84.5808 51.228 84.2408 51.572 83.8168 51.82C83.4008 52.068 82.8808 52.192 82.2568 52.192ZM82.4248 48.268C82.8168 48.268 83.1608 48.192 83.4568 48.04C83.7528 47.888 83.9848 47.668 84.1528 47.38C84.3288 47.092 84.4168 46.744 84.4168 46.336C84.4168 45.944 84.3368 45.596 84.1768 45.292C84.0248 44.98 83.8048 44.736 83.5168 44.56C83.2288 44.384 82.8848 44.296 82.4848 44.296C82.0928 44.296 81.7568 44.384 81.4768 44.56C81.1968 44.728 80.9808 44.964 80.8288 45.268C80.6768 45.572 80.6008 45.92 80.6008 46.312C80.6008 46.712 80.6768 47.06 80.8288 47.356C80.9888 47.644 81.2048 47.868 81.4768 48.028C81.7488 48.188 82.0648 48.268 82.4248 48.268ZM89.0823 52.144C88.4263 52.144 87.9023 51.992 87.5103 51.688C87.1263 51.384 86.9343 50.96 86.9343 50.416C86.9343 49.872 87.0943 49.444 87.4143 49.132C87.7343 48.82 88.2423 48.6 88.9383 48.472L91.1943 48.052C91.1943 47.516 91.0663 47.116 90.8103 46.852C90.5623 46.588 90.1863 46.456 89.6823 46.456C89.2423 46.456 88.8943 46.556 88.6383 46.756C88.3823 46.948 88.2063 47.228 88.1103 47.596L87.0423 47.512C87.1623 46.912 87.4503 46.428 87.9062 46.06C88.3703 45.684 88.9623 45.496 89.6823 45.496C90.4983 45.496 91.1223 45.728 91.5543 46.192C91.9863 46.648 92.2023 47.28 92.2023 48.088V50.716C92.2023 50.86 92.2263 50.964 92.2743 51.028C92.3303 51.084 92.4183 51.112 92.5383 51.112H92.7903V52C92.7582 52.008 92.7063 52.012 92.6343 52.012C92.5623 52.02 92.4863 52.024 92.4062 52.024C92.1183 52.024 91.8823 51.98 91.6983 51.892C91.5223 51.796 91.3943 51.652 91.3143 51.46C91.2343 51.26 91.1943 51 91.1943 50.68L91.3143 50.704C91.2583 50.976 91.1223 51.224 90.9063 51.448C90.6903 51.664 90.4223 51.836 90.1023 51.964C89.7823 52.084 89.4423 52.144 89.0823 52.144ZM89.1783 51.256C89.6023 51.256 89.9623 51.176 90.2583 51.016C90.5623 50.848 90.7943 50.624 90.9543 50.344C91.1143 50.056 91.1943 49.736 91.1943 49.384V48.928L89.1303 49.312C88.6983 49.392 88.3983 49.516 88.2303 49.684C88.0703 49.844 87.9902 50.056 87.9902 50.32C87.9902 50.616 88.0943 50.848 88.3023 51.016C88.5183 51.176 88.8103 51.256 89.1783 51.256ZM96.7979 52.144C96.3579 52.144 95.9659 52.048 95.6219 51.856C95.2779 51.656 95.0139 51.384 94.8299 51.04L94.7939 52H93.8819V43.48H94.8899V46.528C95.0499 46.264 95.2979 46.028 95.6339 45.82C95.9699 45.604 96.3579 45.496 96.7979 45.496C97.3579 45.496 97.8419 45.632 98.2499 45.904C98.6579 46.176 98.9739 46.56 99.1979 47.056C99.4219 47.552 99.5339 48.14 99.5339 48.82C99.5339 49.5 99.4219 50.088 99.1979 50.584C98.9739 51.08 98.6579 51.464 98.2499 51.736C97.8419 52.008 97.3579 52.144 96.7979 52.144ZM96.7379 51.184C97.2739 51.184 97.6979 50.972 98.0099 50.548C98.3219 50.124 98.4779 49.548 98.4779 48.82C98.4779 48.084 98.3219 47.508 98.0099 47.092C97.6979 46.668 97.2819 46.456 96.7619 46.456C96.3699 46.456 96.0339 46.552 95.7539 46.744C95.4739 46.928 95.2579 47.196 95.1059 47.548C94.9619 47.9 94.8899 48.324 94.8899 48.82C94.8899 49.3 94.9619 49.72 95.1059 50.08C95.2579 50.432 95.4699 50.704 95.7419 50.896C96.0219 51.088 96.3539 51.184 96.7379 51.184ZM103.385 52.144C102.793 52.144 102.277 52.008 101.837 51.736C101.405 51.464 101.069 51.08 100.829 50.584C100.589 50.08 100.469 49.492 100.469 48.82C100.469 48.148 100.589 47.564 100.829 47.068C101.069 46.572 101.405 46.188 101.837 45.916C102.277 45.636 102.793 45.496 103.385 45.496C103.873 45.496 104.305 45.584 104.681 45.76C105.065 45.928 105.377 46.176 105.617 46.504C105.857 46.832 106.013 47.232 106.085 47.704L105.029 47.776C104.957 47.352 104.773 47.028 104.477 46.804C104.181 46.572 103.817 46.456 103.385 46.456C102.801 46.456 102.345 46.668 102.017 47.092C101.689 47.508 101.525 48.084 101.525 48.82C101.525 49.556 101.689 50.136 102.017 50.56C102.345 50.976 102.801 51.184 103.385 51.184C103.817 51.184 104.181 51.064 104.477 50.824C104.773 50.584 104.957 50.224 105.029 49.744L106.085 49.816C106.013 50.288 105.857 50.7 105.617 51.052C105.377 51.396 105.065 51.664 104.681 51.856C104.305 52.048 103.873 52.144 103.385 52.144ZM109.591 52.144C109.039 52.144 108.559 52.008 108.151 51.736C107.751 51.464 107.443 51.08 107.227 50.584C107.011 50.088 106.903 49.5 106.903 48.82C106.903 48.14 107.011 47.552 107.227 47.056C107.443 46.56 107.751 46.176 108.151 45.904C108.559 45.632 109.039 45.496 109.591 45.496C110.015 45.496 110.403 45.588 110.755 45.772C111.107 45.948 111.371 46.2 111.547 46.528V43.48H112.555V52H111.643L111.607 51.04C111.431 51.384 111.163 51.656 110.803 51.856C110.443 52.048 110.039 52.144 109.591 52.144ZM109.795 51.184C110.171 51.184 110.487 51.088 110.743 50.896C111.007 50.704 111.207 50.432 111.343 50.08C111.479 49.72 111.547 49.3 111.547 48.82C111.547 48.324 111.479 47.9 111.343 47.548C111.207 47.196 111.007 46.928 110.743 46.744C110.487 46.552 110.171 46.456 109.795 46.456C109.235 46.456 108.787 46.668 108.451 47.092C108.123 47.508 107.959 48.084 107.959 48.82C107.959 49.548 108.123 50.124 108.451 50.548C108.787 50.972 109.235 51.184 109.795 51.184ZM116.839 52.144C116.239 52.144 115.719 52.008 115.279 51.736C114.847 51.464 114.511 51.08 114.271 50.584C114.039 50.08 113.923 49.492 113.923 48.82C113.923 48.148 114.039 47.564 114.271 47.068C114.511 46.572 114.843 46.188 115.267 45.916C115.699 45.636 116.207 45.496 116.791 45.496C117.343 45.496 117.831 45.628 118.255 45.892C118.679 46.148 119.007 46.524 119.239 47.02C119.479 47.516 119.599 48.12 119.599 48.832V49.132H114.979C115.019 49.812 115.199 50.324 115.519 50.668C115.847 51.012 116.287 51.184 116.839 51.184C117.255 51.184 117.595 51.088 117.859 50.896C118.131 50.696 118.319 50.436 118.423 50.116L119.503 50.2C119.335 50.768 119.015 51.236 118.543 51.604C118.079 51.964 117.511 52.144 116.839 52.144ZM114.979 48.244H118.495C118.447 47.628 118.267 47.176 117.955 46.888C117.651 46.6 117.263 46.456 116.791 46.456C116.303 46.456 115.899 46.608 115.579 46.912C115.267 47.208 115.067 47.652 114.979 48.244ZM121.342 52V45.064C121.342 44.592 121.478 44.212 121.75 43.924C122.022 43.628 122.446 43.48 123.022 43.48H124.03V44.368H123.094C122.846 44.368 122.658 44.436 122.53 44.572C122.41 44.708 122.35 44.896 122.35 45.136V52H121.342ZM120.478 46.528V45.64H123.946V46.528H120.478ZM127.337 53.944C126.881 53.944 126.469 53.868 126.101 53.716C125.733 53.564 125.425 53.348 125.177 53.068C124.929 52.788 124.761 52.464 124.673 52.096L125.729 52.024C125.825 52.32 125.993 52.552 126.233 52.72C126.481 52.896 126.849 52.984 127.337 52.984C127.913 52.984 128.353 52.868 128.657 52.636C128.969 52.404 129.125 52.056 129.125 51.592V50.56C128.973 50.896 128.729 51.164 128.393 51.364C128.057 51.564 127.681 51.664 127.265 51.664C126.729 51.664 126.249 51.532 125.825 51.268C125.409 51.004 125.081 50.64 124.841 50.176C124.609 49.712 124.493 49.18 124.493 48.58C124.493 47.972 124.609 47.44 124.841 46.984C125.073 46.52 125.393 46.156 125.801 45.892C126.217 45.628 126.689 45.496 127.217 45.496C127.665 45.496 128.065 45.6 128.417 45.808C128.777 46.016 129.029 46.296 129.173 46.648V45.64H130.133V51.568C130.133 52.064 130.021 52.488 129.797 52.84C129.573 53.2 129.253 53.472 128.837 53.656C128.421 53.848 127.921 53.944 127.337 53.944ZM127.313 50.704C127.857 50.704 128.293 50.516 128.621 50.14C128.949 49.756 129.117 49.236 129.125 48.58C129.133 48.14 129.061 47.764 128.909 47.452C128.765 47.132 128.553 46.888 128.273 46.72C128.001 46.544 127.681 46.456 127.313 46.456C126.753 46.456 126.317 46.648 126.005 47.032C125.701 47.408 125.549 47.924 125.549 48.58C125.549 49.236 125.705 49.756 126.017 50.14C126.337 50.516 126.769 50.704 127.313 50.704ZM131.874 52V43.48H132.882V47.044L132.762 47.02C132.842 46.668 132.978 46.38 133.17 46.156C133.362 45.932 133.598 45.768 133.878 45.664C134.158 45.552 134.466 45.496 134.802 45.496C135.258 45.496 135.642 45.6 135.954 45.808C136.274 46.008 136.514 46.292 136.674 46.66C136.842 47.02 136.926 47.436 136.926 47.908V52H135.918V48.196C135.918 47.58 135.806 47.124 135.582 46.828C135.366 46.532 135.034 46.384 134.586 46.384C134.074 46.384 133.662 46.54 133.35 46.852C133.038 47.164 132.882 47.616 132.882 48.208V52H131.874ZM138.73 52V45.64H139.738V52H138.73ZM138.706 44.644V43.468H139.762V44.644H138.706ZM140.522 53.8V52.912H141.038C141.246 52.912 141.414 52.86 141.542 52.756C141.67 52.66 141.734 52.48 141.734 52.216V45.64H142.742V52.264C142.742 52.824 142.618 53.22 142.37 53.452C142.122 53.684 141.71 53.8 141.134 53.8H140.522ZM141.71 44.644V43.468H142.766V44.644H141.71ZM16.96 68V59.48H17.968V65.06L21.064 61.64H22.408L19.9 64.34L22.516 68H21.292L19.216 65.024L17.968 66.344V68H16.96ZM24.8643 68C24.4963 68 24.1963 67.904 23.9643 67.712C23.7323 67.52 23.6163 67.216 23.6163 66.8V59.48H24.6243V66.716C24.6243 66.844 24.6563 66.944 24.7203 67.016C24.7923 67.08 24.8923 67.112 25.0203 67.112H25.5723V68H24.8643ZM26.7686 68V61.64H27.6926L27.7286 63.248L27.5846 63.2C27.6566 62.848 27.7806 62.548 27.9566 62.3C28.1406 62.044 28.3646 61.848 28.6286 61.712C28.8926 61.568 29.1846 61.496 29.5046 61.496C30.0566 61.496 30.5046 61.648 30.8486 61.952C31.2006 62.256 31.4206 62.68 31.5086 63.224L31.3166 63.212C31.3806 62.844 31.4966 62.536 31.6646 62.288C31.8406 62.032 32.0646 61.836 32.3366 61.7C32.6086 61.564 32.9206 61.496 33.2726 61.496C33.7286 61.496 34.1126 61.592 34.4246 61.784C34.7366 61.968 34.9726 62.24 35.1326 62.6C35.2926 62.96 35.3726 63.396 35.3726 63.908V68H34.3646V64.124C34.3646 63.548 34.2526 63.116 34.0286 62.828C33.8046 62.532 33.4726 62.384 33.0326 62.384C32.7366 62.384 32.4766 62.456 32.2526 62.6C32.0366 62.744 31.8686 62.952 31.7486 63.224C31.6286 63.488 31.5686 63.812 31.5686 64.196V68H30.5606V64.196C30.5606 63.628 30.4606 63.184 30.2606 62.864C30.0606 62.544 29.7246 62.384 29.2526 62.384C28.9566 62.384 28.6966 62.456 28.4726 62.6C28.2566 62.744 28.0846 62.952 27.9566 63.224C27.8366 63.496 27.7766 63.82 27.7766 64.196V68H26.7686ZM37.0577 68V61.64H37.9817L38.0177 63.26L37.8977 63.152C37.9777 62.776 38.1177 62.468 38.3177 62.228C38.5177 61.98 38.7577 61.796 39.0377 61.676C39.3257 61.556 39.6337 61.496 39.9617 61.496C40.4497 61.496 40.8497 61.604 41.1617 61.82C41.4817 62.036 41.7177 62.328 41.8697 62.696C42.0297 63.056 42.1097 63.46 42.1097 63.908V68H41.1017V64.196C41.1017 63.804 41.0537 63.476 40.9577 63.212C40.8697 62.94 40.7257 62.736 40.5257 62.6C40.3257 62.456 40.0657 62.384 39.7457 62.384C39.2577 62.384 38.8537 62.54 38.5337 62.852C38.2217 63.156 38.0657 63.604 38.0657 64.196V68H37.0577ZM46.3737 68.144C45.7897 68.144 45.2777 68.008 44.8377 67.736C44.3977 67.464 44.0577 67.08 43.8177 66.584C43.5777 66.08 43.4577 65.492 43.4577 64.82C43.4577 64.14 43.5777 63.552 43.8177 63.056C44.0577 62.56 44.3977 62.176 44.8377 61.904C45.2777 61.632 45.7897 61.496 46.3737 61.496C46.9577 61.496 47.4657 61.632 47.8977 61.904C48.3377 62.176 48.6777 62.56 48.9177 63.056C49.1577 63.552 49.2777 64.14 49.2777 64.82C49.2777 65.492 49.1577 66.08 48.9177 66.584C48.6777 67.08 48.3377 67.464 47.8977 67.736C47.4657 68.008 46.9577 68.144 46.3737 68.144ZM46.3737 67.184C46.9577 67.184 47.4097 66.976 47.7297 66.56C48.0577 66.136 48.2217 65.556 48.2217 64.82C48.2217 64.084 48.0577 63.508 47.7297 63.092C47.4097 62.668 46.9577 62.456 46.3737 62.456C45.7897 62.456 45.3337 62.668 45.0057 63.092C44.6777 63.508 44.5137 64.084 44.5137 64.82C44.5137 65.556 44.6777 66.136 45.0057 66.56C45.3337 66.976 45.7897 67.184 46.3737 67.184ZM50.6514 69.8V61.64H51.5874L51.6114 63.008L51.4674 62.936C51.6274 62.464 51.8914 62.108 52.2594 61.868C52.6354 61.62 53.0674 61.496 53.5554 61.496C54.1874 61.496 54.7034 61.652 55.1034 61.964C55.5114 62.276 55.8114 62.684 56.0034 63.188C56.2034 63.692 56.3034 64.236 56.3034 64.82C56.3034 65.404 56.2034 65.948 56.0034 66.452C55.8114 66.956 55.5114 67.364 55.1034 67.676C54.7034 67.988 54.1874 68.144 53.5554 68.144C53.2274 68.144 52.9194 68.088 52.6314 67.976C52.3514 67.864 52.1114 67.708 51.9114 67.508C51.7194 67.308 51.5874 67.072 51.5154 66.8L51.6594 66.632V69.8H50.6514ZM53.4594 67.184C54.0114 67.184 54.4474 66.976 54.7674 66.56C55.0874 66.144 55.2474 65.564 55.2474 64.82C55.2474 64.076 55.0874 63.496 54.7674 63.08C54.4474 62.664 54.0114 62.456 53.4594 62.456C53.0914 62.456 52.7714 62.544 52.4994 62.72C52.2354 62.896 52.0274 63.16 51.8754 63.512C51.7314 63.864 51.6594 64.3 51.6594 64.82C51.6594 65.34 51.7314 65.776 51.8754 66.128C52.0194 66.48 52.2274 66.744 52.4994 66.92C52.7714 67.096 53.0914 67.184 53.4594 67.184ZM62.8909 69.8H61.8829V66.632L62.0269 66.8C61.9549 67.072 61.8189 67.308 61.6189 67.508C61.4269 67.708 61.1869 67.864 60.8989 67.976C60.6189 68.088 60.3149 68.144 59.9869 68.144C59.3549 68.144 58.8349 67.988 58.4269 67.676C58.0269 67.364 57.7269 66.956 57.5269 66.452C57.3349 65.948 57.2389 65.404 57.2389 64.82C57.2389 64.236 57.3349 63.692 57.5269 63.188C57.7269 62.684 58.0269 62.276 58.4269 61.964C58.8349 61.652 59.3549 61.496 59.9869 61.496C60.4829 61.496 60.9149 61.62 61.2829 61.868C61.6589 62.108 61.9229 62.464 62.0749 62.936L61.9309 63.008L61.9549 61.64H62.8909V69.8ZM60.0829 67.184C60.4589 67.184 60.7789 67.096 61.0429 66.92C61.3149 66.744 61.5229 66.48 61.6669 66.128C61.8109 65.776 61.8829 65.34 61.8829 64.82C61.8829 64.3 61.8069 63.864 61.6549 63.512C61.5109 63.16 61.3029 62.896 61.0309 62.72C60.7669 62.544 60.4509 62.456 60.0829 62.456C59.5309 62.456 59.0949 62.664 58.7749 63.08C58.4549 63.496 58.2949 64.076 58.2949 64.82C58.2949 65.564 58.4549 66.144 58.7749 66.56C59.0949 66.976 59.5309 67.184 60.0829 67.184ZM64.8077 68V61.64H65.6957L65.7437 63.248L65.6477 63.212C65.7277 62.668 65.8997 62.272 66.1637 62.024C66.4357 61.768 66.7957 61.64 67.2437 61.64H67.8677V62.6H67.2557C66.9357 62.6 66.6677 62.66 66.4517 62.78C66.2437 62.892 66.0837 63.064 65.9717 63.296C65.8677 63.52 65.8157 63.808 65.8157 64.16V68H64.8077ZM71.1901 68.144C70.6221 68.144 70.1381 68.052 69.7381 67.868C69.3461 67.684 69.0381 67.432 68.8141 67.112C68.5981 66.784 68.4741 66.412 68.4421 65.996L69.4981 65.924C69.5621 66.308 69.7261 66.616 69.9901 66.848C70.2541 67.072 70.6541 67.184 71.1901 67.184C71.6221 67.184 71.9661 67.116 72.2221 66.98C72.4861 66.836 72.6181 66.608 72.6181 66.296C72.6181 66.128 72.5781 65.988 72.4981 65.876C72.4181 65.764 72.2621 65.668 72.0301 65.588C71.7981 65.5 71.4541 65.416 70.9981 65.336C70.3901 65.224 69.9101 65.088 69.5581 64.928C69.2141 64.76 68.9661 64.556 68.8141 64.316C68.6701 64.068 68.5981 63.776 68.5981 63.44C68.5981 62.872 68.8061 62.408 69.2221 62.048C69.6381 61.68 70.2301 61.496 70.9981 61.496C71.5181 61.496 71.9541 61.592 72.3061 61.784C72.6661 61.968 72.9461 62.216 73.1461 62.528C73.3541 62.832 73.4901 63.168 73.5541 63.536L72.4981 63.608C72.4501 63.384 72.3621 63.188 72.2341 63.02C72.1061 62.844 71.9381 62.708 71.7301 62.612C71.5221 62.508 71.2741 62.456 70.9861 62.456C70.5301 62.456 70.1941 62.544 69.9781 62.72C69.7621 62.896 69.6541 63.12 69.6541 63.392C69.6541 63.6 69.7021 63.772 69.7981 63.908C69.9021 64.036 70.0661 64.144 70.2901 64.232C70.5141 64.312 70.8141 64.384 71.1901 64.448C71.8381 64.56 72.3421 64.696 72.7021 64.856C73.0621 65.016 73.3141 65.212 73.4581 65.444C73.6021 65.676 73.6741 65.96 73.6741 66.296C73.6741 66.688 73.5621 67.024 73.3381 67.304C73.1221 67.576 72.8261 67.784 72.4501 67.928C72.0821 68.072 71.6621 68.144 71.1901 68.144ZM77.1318 68C76.5558 68 76.1278 67.868 75.8478 67.604C75.5758 67.34 75.4398 66.928 75.4398 66.368V60.152H76.4478V66.344C76.4478 66.632 76.5118 66.832 76.6398 66.944C76.7678 67.056 76.9638 67.112 77.2278 67.112H78.1398V68H77.1318ZM74.5038 62.528V61.64H78.1398V62.528H74.5038ZM81.5207 68.144C80.8887 68.144 80.3807 67.932 79.9967 67.508C79.6207 67.076 79.4327 66.484 79.4327 65.732V61.64H80.4407V65.456C80.4407 66.072 80.5487 66.528 80.7647 66.824C80.9887 67.112 81.3287 67.256 81.7847 67.256C82.2887 67.256 82.6847 67.096 82.9727 66.776C83.2607 66.448 83.4047 66 83.4047 65.432V61.64H84.4127V68H83.4527V66.428L83.6087 66.512C83.4807 67.032 83.2367 67.436 82.8767 67.724C82.5167 68.004 82.0647 68.144 81.5207 68.144ZM87.7206 68L85.4046 61.64H86.5086L88.3566 66.968L90.2046 61.64H91.3086L88.9926 68H87.7206ZM93.8062 68L91.8382 61.64H92.9422L94.4302 66.944L95.9422 61.64H97.0222L98.5342 66.944L100.034 61.64H101.138L99.1702 68H97.8982L96.4822 63.164L95.0662 68H93.8062ZM101.396 68L103.736 64.736L101.516 61.64H102.692L104.36 64.04L105.98 61.64H107.18L104.984 64.76L107.288 68H106.112L104.36 65.432L102.596 68H101.396ZM108.49 69.8V68.912H109.222C109.446 68.912 109.61 68.876 109.714 68.804C109.826 68.74 109.91 68.632 109.966 68.48L110.194 67.88H109.846L107.518 61.64H108.622L110.518 66.944L112.33 61.64H113.434L110.854 68.804C110.734 69.148 110.554 69.4 110.314 69.56C110.074 69.72 109.742 69.8 109.318 69.8H108.49ZM114.114 68V66.992L118.134 62.528H114.234V61.64H119.238V62.648L115.218 67.112H119.334V68H114.114ZM120.256 68L123.328 59.48H124.72L127.792 68H126.664L125.812 65.576H122.236L121.384 68H120.256ZM122.584 64.568H125.464L124.024 60.38L122.584 64.568ZM128.901 68V59.48H131.829C132.837 59.48 133.593 59.664 134.097 60.032C134.601 60.4 134.853 60.98 134.853 61.772C134.853 62.14 134.773 62.464 134.613 62.744C134.453 63.024 134.225 63.244 133.929 63.404C133.633 63.556 133.281 63.632 132.873 63.632L132.861 63.56C133.589 63.56 134.161 63.756 134.577 64.148C135.001 64.532 135.213 65.036 135.213 65.66C135.213 66.436 134.961 67.02 134.457 67.412C133.953 67.804 133.237 68 132.309 68H128.901ZM129.933 66.992H132.309C132.893 66.992 133.341 66.872 133.653 66.632C133.973 66.392 134.133 66.048 134.133 65.6C134.133 65.152 133.973 64.804 133.653 64.556C133.341 64.3 132.893 64.172 132.309 64.172H129.933V66.992ZM129.933 63.164H131.829C132.453 63.164 132.933 63.048 133.269 62.816C133.605 62.576 133.773 62.244 133.773 61.82C133.773 61.372 133.609 61.04 133.281 60.824C132.961 60.6 132.477 60.488 131.829 60.488H129.933V63.164ZM140.204 68.192C139.444 68.192 138.776 68.016 138.2 67.664C137.624 67.304 137.176 66.792 136.856 66.128C136.536 65.464 136.376 64.672 136.376 63.752C136.376 62.832 136.536 62.04 136.856 61.376C137.176 60.704 137.624 60.188 138.2 59.828C138.776 59.468 139.444 59.288 140.204 59.288C141.236 59.288 142.036 59.548 142.604 60.068C143.172 60.588 143.544 61.296 143.72 62.192L142.628 62.264C142.508 61.656 142.252 61.176 141.86 60.824C141.468 60.472 140.916 60.296 140.204 60.296C139.66 60.296 139.18 60.436 138.764 60.716C138.356 60.988 138.036 61.384 137.804 61.904C137.572 62.416 137.456 63.032 137.456 63.752C137.456 64.472 137.572 65.088 137.804 65.6C138.036 66.112 138.356 66.504 138.764 66.776C139.18 67.048 139.66 67.184 140.204 67.184C140.948 67.184 141.524 66.992 141.932 66.608C142.34 66.216 142.596 65.688 142.7 65.024L143.792 65.096C143.688 65.712 143.484 66.252 143.18 66.716C142.876 67.18 142.472 67.544 141.968 67.808C141.472 68.064 140.884 68.192 140.204 68.192ZM17.104 84V75.48H19.744C21.056 75.48 22.064 75.852 22.768 76.596C23.48 77.332 23.836 78.384 23.836 79.752C23.836 81.112 23.488 82.16 22.792 82.896C22.096 83.632 21.104 84 19.816 84H17.104ZM18.136 82.992H19.744C20.744 82.992 21.496 82.724 22 82.188C22.504 81.644 22.756 80.832 22.756 79.752C22.756 78.656 22.504 77.84 22 77.304C21.496 76.76 20.744 76.488 19.744 76.488H18.136V82.992ZM25.3188 84V75.48H30.6708V76.488H26.3508V79.236H30.5268V80.22H26.3508V82.992H30.7668V84H25.3188ZM32.4321 84V75.48H37.7841V76.488H32.9481L33.4641 75.96V79.872L32.9481 79.344H37.5681V80.328H32.9481L33.4641 79.8V84H32.4321ZM42.7503 84.192C41.9503 84.192 41.2663 84 40.6983 83.616C40.1303 83.232 39.6943 82.708 39.3903 82.044C39.0943 81.372 38.9463 80.608 38.9463 79.752C38.9463 78.896 39.0983 78.132 39.4023 77.46C39.7063 76.788 40.1423 76.26 40.7103 75.876C41.2862 75.484 41.9743 75.288 42.7743 75.288C43.4543 75.288 44.0263 75.412 44.4903 75.66C44.9623 75.908 45.3343 76.244 45.6063 76.668C45.8863 77.092 46.0783 77.568 46.1823 78.096L45.1023 78.168C44.9983 77.616 44.7663 77.168 44.4062 76.824C44.0463 76.472 43.5023 76.296 42.7743 76.296C42.1263 76.296 41.5983 76.456 41.1903 76.776C40.7903 77.096 40.4943 77.52 40.3023 78.048C40.1183 78.568 40.0263 79.136 40.0263 79.752C40.0263 80.4 40.1223 80.984 40.3143 81.504C40.5063 82.016 40.8063 82.424 41.2143 82.728C41.6223 83.032 42.1423 83.184 42.7743 83.184C43.2783 83.184 43.7143 83.072 44.0823 82.848C44.4503 82.616 44.7343 82.308 44.9343 81.924C45.1343 81.54 45.2383 81.124 45.2463 80.676H42.7983V79.692H46.2063V84H45.4383L45.3663 82.032L45.5103 82.2C45.4143 82.584 45.2303 82.928 44.9583 83.232C44.6863 83.528 44.3583 83.764 43.9743 83.94C43.5983 84.108 43.1903 84.192 42.7503 84.192ZM47.9126 84V75.48H48.9446V79.62L48.4166 79.212H53.7566L53.2286 79.62V75.48H54.2606V84H53.2286V79.812L53.7566 80.22H48.4166L48.9446 79.812V84H47.9126ZM56.2329 84V75.48H57.2649V84H56.2329ZM61.6449 84.192C61.1169 84.192 60.6489 84.068 60.2409 83.82C59.8329 83.564 59.5129 83.212 59.2809 82.764C59.0569 82.316 58.9409 81.8 58.9329 81.216L59.9889 81.144C59.9969 81.8 60.1449 82.304 60.4329 82.656C60.7209 83.008 61.1249 83.184 61.6449 83.184C62.1889 83.184 62.6049 82.996 62.8929 82.62C63.1889 82.244 63.3369 81.712 63.3369 81.024V75.48H64.3689V81.024C64.3689 81.672 64.2569 82.236 64.0329 82.716C63.8089 83.188 63.4929 83.552 63.0849 83.808C62.6849 84.064 62.2049 84.192 61.6449 84.192ZM66.3931 84V75.48H67.4251V79.716L71.2531 75.48H72.5611L69.2251 79.176L72.7891 84H71.5291L68.5291 79.944L67.4251 81.156V84H66.3931ZM73.8345 84V75.48H74.8665V83.52L74.3505 82.992H79.1265V84H73.8345ZM80.1978 84V75.48H81.6378L84.3618 82.872L87.0738 75.48H88.5138V84H87.4818V77.4L85.0458 84H83.6658L81.2298 77.4V84H80.1978ZM90.4868 84V75.48H91.9508L96.1628 82.968V75.48H97.1948V84H95.6588L91.5188 76.656V84H90.4868ZM102.565 84.192C101.757 84.192 101.061 84.016 100.477 83.664C99.9007 83.304 99.4567 82.792 99.1447 82.128C98.8327 81.464 98.6767 80.672 98.6767 79.752C98.6767 78.832 98.8327 78.04 99.1447 77.376C99.4567 76.704 99.9007 76.188 100.477 75.828C101.061 75.468 101.757 75.288 102.565 75.288C103.381 75.288 104.077 75.468 104.653 75.828C105.237 76.188 105.685 76.704 105.997 77.376C106.309 78.04 106.465 78.832 106.465 79.752C106.465 80.672 106.309 81.464 105.997 82.128C105.685 82.792 105.237 83.304 104.653 83.664C104.077 84.016 103.381 84.192 102.565 84.192ZM102.565 83.184C103.157 83.184 103.661 83.048 104.077 82.776C104.501 82.504 104.825 82.112 105.049 81.6C105.273 81.088 105.385 80.472 105.385 79.752C105.385 79.032 105.273 78.416 105.049 77.904C104.825 77.384 104.501 76.988 104.077 76.716C103.661 76.436 103.157 76.296 102.565 76.296C101.981 76.296 101.477 76.436 101.053 76.716C100.637 76.988 100.317 77.384 100.093 77.904C99.8687 78.416 99.7567 79.032 99.7567 79.752C99.7567 80.472 99.8687 81.088 100.093 81.6C100.317 82.112 100.637 82.504 101.053 82.776C101.477 83.048 101.981 83.184 102.565 83.184ZM107.948 84V75.48H111.008C111.96 75.48 112.7 75.708 113.228 76.164C113.756 76.62 114.02 77.252 114.02 78.06C114.02 78.604 113.9 79.076 113.66 79.476C113.42 79.868 113.076 80.168 112.628 80.376C112.18 80.584 111.64 80.688 111.008 80.688H108.98V84H107.948ZM108.98 79.68H111.008C111.648 79.68 112.128 79.544 112.448 79.272C112.776 79 112.94 78.596 112.94 78.06C112.94 77.54 112.776 77.148 112.448 76.884C112.128 76.62 111.648 76.488 111.008 76.488H108.98V79.68ZM121.107 84.828L120.399 83.916C120.207 83.996 119.983 84.06 119.727 84.108C119.471 84.164 119.203 84.192 118.923 84.192C118.107 84.192 117.411 83.996 116.835 83.604C116.267 83.204 115.831 82.668 115.527 81.996C115.223 81.324 115.071 80.576 115.071 79.752C115.071 78.92 115.219 78.168 115.515 77.496C115.819 76.824 116.259 76.288 116.835 75.888C117.411 75.488 118.107 75.288 118.923 75.288C119.755 75.288 120.459 75.488 121.035 75.888C121.611 76.288 122.047 76.824 122.343 77.496C122.639 78.168 122.787 78.92 122.787 79.752C122.787 80.536 122.647 81.256 122.367 81.912C122.087 82.568 121.683 83.096 121.155 83.496L122.211 84.828H121.107ZM118.923 83.184C119.099 83.184 119.255 83.176 119.391 83.16C119.527 83.136 119.647 83.1 119.751 83.052L118.515 81.504H119.619L120.531 82.704C120.923 82.392 121.215 81.988 121.407 81.492C121.607 80.988 121.707 80.408 121.707 79.752C121.707 79.12 121.603 78.544 121.395 78.024C121.195 77.504 120.887 77.088 120.471 76.776C120.063 76.456 119.547 76.296 118.923 76.296C118.299 76.296 117.783 76.456 117.375 76.776C116.967 77.088 116.659 77.504 116.451 78.024C116.251 78.544 116.151 79.12 116.151 79.752C116.151 80.376 116.251 80.948 116.451 81.468C116.659 81.988 116.967 82.404 117.375 82.716C117.791 83.028 118.307 83.184 118.923 83.184ZM124.272 84V75.48H127.5C128.1 75.48 128.616 75.584 129.048 75.792C129.48 76 129.812 76.3 130.044 76.692C130.284 77.076 130.404 77.532 130.404 78.06C130.404 78.444 130.312 78.788 130.128 79.092C129.952 79.388 129.724 79.624 129.444 79.8C129.164 79.976 128.872 80.072 128.568 80.088L128.496 79.98C129.016 79.98 129.424 80.1 129.72 80.34C130.024 80.58 130.2 80.964 130.248 81.492L130.488 84H129.444L129.228 81.6C129.196 81.248 129.068 80.988 128.844 80.82C128.628 80.652 128.272 80.568 127.776 80.568H125.304V84H124.272ZM125.304 79.56H127.632C128.152 79.56 128.564 79.428 128.868 79.164C129.172 78.9 129.324 78.524 129.324 78.036C129.324 77.54 129.168 77.16 128.856 76.896C128.544 76.624 128.092 76.488 127.5 76.488H125.304V79.56ZM135.087 84.192C134.431 84.192 133.859 84.068 133.371 83.82C132.883 83.572 132.495 83.232 132.207 82.8C131.927 82.36 131.763 81.852 131.715 81.276L132.795 81.204C132.851 81.628 132.975 81.988 133.167 82.284C133.359 82.58 133.615 82.804 133.935 82.956C134.263 83.108 134.655 83.184 135.111 83.184C135.511 83.184 135.851 83.132 136.131 83.028C136.411 82.924 136.623 82.772 136.767 82.572C136.919 82.372 136.995 82.128 136.995 81.84C136.995 81.576 136.931 81.344 136.803 81.144C136.683 80.936 136.447 80.748 136.095 80.58C135.751 80.404 135.239 80.232 134.559 80.064C133.903 79.896 133.379 79.712 132.987 79.512C132.603 79.312 132.323 79.068 132.147 78.78C131.979 78.492 131.895 78.136 131.895 77.712C131.895 77.232 132.007 76.812 132.231 76.452C132.463 76.084 132.791 75.8 133.215 75.6C133.639 75.392 134.143 75.288 134.727 75.288C135.351 75.288 135.887 75.408 136.335 75.648C136.783 75.88 137.139 76.2 137.403 76.608C137.667 77.016 137.831 77.48 137.895 78L136.815 78.072C136.767 77.728 136.655 77.424 136.479 77.16C136.311 76.888 136.079 76.676 135.783 76.524C135.487 76.372 135.127 76.296 134.703 76.296C134.175 76.296 133.755 76.424 133.443 76.68C133.131 76.928 132.975 77.256 132.975 77.664C132.975 77.928 133.035 78.148 133.155 78.324C133.283 78.492 133.507 78.644 133.827 78.78C134.147 78.908 134.607 79.048 135.207 79.2C135.919 79.376 136.483 79.588 136.899 79.836C137.323 80.076 137.623 80.356 137.799 80.676C137.983 80.996 138.075 81.36 138.075 81.768C138.075 82.264 137.947 82.696 137.691 83.064C137.435 83.424 137.083 83.704 136.635 83.904C136.187 84.096 135.671 84.192 135.087 84.192ZM141.046 84V76.488H138.394V75.48H144.73V76.488H142.078V84H141.046ZM20.14 100.192C19.484 100.192 18.912 100.064 18.424 99.808C17.944 99.552 17.572 99.188 17.308 98.716C17.052 98.236 16.924 97.672 16.924 97.024V91.468H17.956V97.024C17.956 97.712 18.144 98.244 18.52 98.62C18.904 98.996 19.444 99.184 20.14 99.184C20.828 99.184 21.36 98.996 21.736 98.62C22.12 98.244 22.312 97.712 22.312 97.024V91.468H23.344V97.024C23.344 97.672 23.212 98.236 22.948 98.716C22.692 99.188 22.324 99.552 21.844 99.808C21.364 100.064 20.796 100.192 20.14 100.192ZM27.5974 100L24.5134 91.48H25.6414L28.2814 98.872L30.9094 91.48H32.0374L28.9534 100H27.5974ZM34.8602 100L32.6162 91.48H33.7442L35.4962 98.584L37.2362 91.48H38.4122L40.1642 98.584L41.9042 91.48H43.0442L40.8002 100H39.5042L37.8242 93.4L36.1442 100H34.8602ZM43.5667 100L46.3627 95.728L43.5907 91.48H44.8147L47.0347 94.912L49.2307 91.48H50.4307L47.6587 95.704L50.4787 100H49.2547L47.0107 96.52L44.7667 100H43.5667ZM53.6041 100V96.52L50.5921 91.48H51.8161L54.1201 95.464L56.4241 91.48H57.6481L54.6361 96.52V100H53.6041ZM57.7969 100V98.944L62.3569 92.488H57.9529V91.48H63.5329V92.536L58.9729 98.992H63.6529V100H57.7969ZM64.9843 97.54C64.9603 97.26 64.9323 96.924 64.9003 96.532C64.8763 96.14 64.8523 95.74 64.8283 95.332C64.8043 94.924 64.7923 94.56 64.7923 94.24V91.48H65.8243V94.24C65.8243 94.56 65.8123 94.924 65.7883 95.332C65.7723 95.74 65.7483 96.14 65.7163 96.532C65.6923 96.924 65.6683 97.26 65.6443 97.54H64.9843ZM64.5883 100V98.644H65.9443V100H64.5883ZM67.323 94.672L67.083 92.44V91.48H68.139L68.067 94.672H67.323ZM69.171 94.672L69.099 91.48H70.155V92.44L69.915 94.672H69.171ZM73.4994 100L75.0834 91.48H75.9474L74.3634 100H73.4994ZM70.5714 97.636L70.7154 96.796H76.0074L75.8634 97.636H70.5714ZM71.1234 100L72.7074 91.48H73.5714L71.9874 100H71.1234ZM71.0514 94.72L71.1954 93.88H76.4874L76.3434 94.72H71.0514ZM79.8419 101.08V90.4H80.7299V101.08H79.8419ZM80.3819 100.192C79.7419 100.192 79.1819 100.072 78.7019 99.832C78.2299 99.584 77.8539 99.248 77.5739 98.824C77.2939 98.392 77.1299 97.896 77.0819 97.336L78.1379 97.264C78.1939 97.68 78.3139 98.032 78.4979 98.32C78.6899 98.608 78.9419 98.828 79.2539 98.98C79.5739 99.124 79.9579 99.196 80.4059 99.196C80.7979 99.196 81.1299 99.148 81.4019 99.052C81.6819 98.948 81.8939 98.8 82.0379 98.608C82.1819 98.408 82.2539 98.168 82.2539 97.888C82.2539 97.624 82.1939 97.392 82.0739 97.192C81.9539 96.992 81.7219 96.808 81.3779 96.64C81.0339 96.472 80.5299 96.308 79.8659 96.148C79.2259 95.98 78.7139 95.8 78.3299 95.608C77.9459 95.408 77.6699 95.168 77.5019 94.888C77.3419 94.6 77.2619 94.248 77.2619 93.832C77.2619 93.368 77.3739 92.96 77.5979 92.608C77.8219 92.248 78.1379 91.968 78.5459 91.768C78.9619 91.568 79.4579 91.468 80.0339 91.468C80.6419 91.468 81.1659 91.584 81.6059 91.816C82.0459 92.04 82.3939 92.352 82.6499 92.752C82.9139 93.152 83.0779 93.608 83.1419 94.12L82.0739 94.192C82.0339 93.856 81.9299 93.556 81.7619 93.292C81.5939 93.028 81.3619 92.824 81.0659 92.68C80.7779 92.528 80.4259 92.452 80.0099 92.452C79.4899 92.452 79.0779 92.576 78.7739 92.824C78.4699 93.072 78.3179 93.396 78.3179 93.796C78.3179 94.052 78.3779 94.268 78.4979 94.444C78.6179 94.612 78.8339 94.76 79.1459 94.888C79.4659 95.016 79.9179 95.152 80.5019 95.296C81.1979 95.472 81.7499 95.68 82.1579 95.92C82.5739 96.152 82.8699 96.428 83.0459 96.748C83.2219 97.06 83.3099 97.416 83.3099 97.816C83.3099 98.296 83.1819 98.716 82.9259 99.076C82.6779 99.428 82.3339 99.704 81.8939 99.904C81.4539 100.096 80.9499 100.192 80.3819 100.192ZM18.376 111.608C17.84 111.608 17.396 111.428 17.044 111.068C16.7 110.7 16.528 110.176 16.528 109.496C16.528 108.808 16.7 108.284 17.044 107.924C17.396 107.564 17.84 107.384 18.376 107.384C18.92 107.384 19.364 107.564 19.708 107.924C20.052 108.284 20.224 108.808 20.224 109.496C20.224 110.176 20.052 110.7 19.708 111.068C19.364 111.428 18.92 111.608 18.376 111.608ZM18.376 110.864C18.704 110.864 18.948 110.744 19.108 110.504C19.276 110.264 19.36 109.928 19.36 109.496C19.36 109.064 19.276 108.728 19.108 108.488C18.948 108.248 18.704 108.128 18.376 108.128C18.056 108.128 17.812 108.248 17.644 108.488C17.476 108.728 17.392 109.064 17.392 109.496C17.392 109.928 17.476 110.264 17.644 110.504C17.812 110.744 18.056 110.864 18.376 110.864ZM23.248 116.096C22.712 116.096 22.268 115.916 21.916 115.556C21.572 115.188 21.4 114.664 21.4 113.984C21.4 113.296 21.572 112.772 21.916 112.412C22.268 112.052 22.712 111.872 23.248 111.872C23.792 111.872 24.236 112.052 24.58 112.412C24.924 112.772 25.096 113.296 25.096 113.984C25.096 114.664 24.924 115.188 24.58 115.556C24.236 115.916 23.792 116.096 23.248 116.096ZM23.248 115.352C23.576 115.352 23.82 115.232 23.98 114.992C24.148 114.752 24.232 114.416 24.232 113.984C24.232 113.552 24.148 113.216 23.98 112.976C23.82 112.736 23.576 112.616 23.248 112.616C22.928 112.616 22.684 112.736 22.516 112.976C22.348 113.216 22.264 113.552 22.264 113.984C22.264 114.416 22.348 114.752 22.516 114.992C22.684 115.232 22.928 115.352 23.248 115.352ZM17.392 116L23.272 107.48H24.232L18.352 116H17.392ZM28.7411 116.192C27.9251 116.192 27.2811 115.996 26.8091 115.604C26.3371 115.204 26.1011 114.64 26.1011 113.912C26.1011 113.544 26.1531 113.22 26.2571 112.94C26.3611 112.652 26.5331 112.376 26.7731 112.112C27.0211 111.848 27.3571 111.568 27.7811 111.272C27.5971 111.032 27.4411 110.808 27.3131 110.6C27.1851 110.384 27.0851 110.168 27.0131 109.952C26.9491 109.736 26.9171 109.504 26.9171 109.256C26.9171 108.64 27.1011 108.16 27.4691 107.816C27.8451 107.464 28.3571 107.288 29.0051 107.288C29.4291 107.288 29.7891 107.364 30.0851 107.516C30.3811 107.66 30.6051 107.868 30.7571 108.14C30.9171 108.412 30.9971 108.736 30.9971 109.112C30.9971 109.568 30.8611 109.98 30.5891 110.348C30.3171 110.708 29.8611 111.1 29.2211 111.524L31.1651 114.008C31.4531 113.608 31.5971 113 31.5971 112.184L32.6051 112.28C32.5971 112.76 32.5171 113.224 32.3651 113.672C32.2211 114.12 32.0331 114.484 31.8011 114.764L32.8211 116H31.6091L31.1651 115.46C30.9331 115.684 30.6131 115.864 30.2051 116C29.8051 116.128 29.3171 116.192 28.7411 116.192ZM28.8611 115.232C29.2691 115.232 29.6091 115.184 29.8811 115.088C30.1531 114.992 30.3571 114.872 30.4931 114.728L28.3811 112.064C27.9491 112.36 27.6411 112.648 27.4571 112.928C27.2731 113.208 27.1811 113.536 27.1811 113.912C27.1811 114.312 27.3131 114.632 27.5771 114.872C27.8491 115.112 28.2771 115.232 28.8611 115.232ZM28.6691 110.792C28.9731 110.6 29.2171 110.424 29.4011 110.264C29.5851 110.096 29.7171 109.924 29.7971 109.748C29.8771 109.572 29.9171 109.384 29.9171 109.184C29.9171 108.896 29.8371 108.676 29.6771 108.524C29.5171 108.372 29.2931 108.296 29.0051 108.296C28.6851 108.296 28.4371 108.38 28.2611 108.548C28.0851 108.716 27.9971 108.952 27.9971 109.256C27.9971 109.416 28.0171 109.576 28.0571 109.736C28.0971 109.888 28.1651 110.048 28.2611 110.216C28.3651 110.384 28.5011 110.576 28.6691 110.792ZM33.7945 110.672L33.6025 108.44V107.48H34.6585V108.44L34.4665 110.672H33.7945ZM37.4033 117.32C36.2913 115.648 35.7353 113.928 35.7353 112.16C35.7353 110.384 36.2913 108.664 37.4033 107H38.3033C37.2873 108.728 36.7793 110.448 36.7793 112.16C36.7793 113.016 36.9073 113.876 37.1633 114.74C37.4193 115.596 37.7993 116.456 38.3033 117.32H37.4033ZM39.5683 117.32H38.6683C39.1723 116.456 39.5523 115.596 39.8083 114.74C40.0643 113.876 40.1923 113.016 40.1923 112.16C40.1923 110.448 39.6843 108.728 38.6683 107H39.5683C40.6803 108.664 41.2363 110.384 41.2363 112.16C41.2363 113.928 40.6803 115.648 39.5683 117.32ZM43.5693 111.416L42.9453 111.008L43.7493 109.784H42.3093V109.016H43.7493L42.9453 107.792L43.5693 107.384L44.3613 108.668L45.1653 107.384L45.7893 107.792L44.9733 109.016H46.4133V109.784H44.9733L45.7893 111.008L45.1653 111.416L44.3613 110.144L43.5693 111.416ZM49.8175 115.328V109.592H50.7535V115.328H49.8175ZM47.4175 112.928V111.992H53.1535V112.928H47.4175ZM54.1929 117.872L54.7689 116H54.1569V114.644H55.5129V115.832L54.7929 117.872H54.1929ZM56.571 112.976V112.028H60.543V112.976H56.571ZM61.5983 116V114.644H62.9543V116H61.5983ZM63.9644 117.32L67.5044 107H68.4644L64.9244 117.32H63.9644ZM69.9907 116V114.644H71.3467V116H69.9907ZM69.9907 111.284V109.928H71.3467V111.284H69.9907ZM73.5532 111.284V109.928H74.9092V111.284H73.5532ZM73.5892 117.872L74.1652 116H73.5532V114.644H74.9092V115.832L74.1892 117.872H73.5892ZM81.9397 115.616L76.4917 113.168V111.896L81.9397 109.448V110.456L77.1637 112.592V112.472L81.9397 114.608V115.616ZM83.0191 111.644V110.708H88.5391V111.644H83.0191ZM83.0191 114.116V113.18H88.5391V114.116H83.0191ZM89.6195 115.616V114.608L94.3955 112.472V112.592L89.6195 110.456V109.448L95.0675 111.896V113.168L89.6195 115.616ZM98.3549 113.588C98.3549 113.012 98.4429 112.556 98.6189 112.22C98.8029 111.876 99.1029 111.576 99.5189 111.32C99.8309 111.128 100.067 110.96 100.227 110.816C100.395 110.664 100.507 110.508 100.563 110.348C100.619 110.18 100.647 109.976 100.647 109.736C100.647 109.32 100.507 108.976 100.227 108.704C99.9549 108.432 99.5749 108.296 99.0869 108.296C98.4949 108.296 98.0389 108.448 97.7189 108.752C97.4069 109.056 97.2189 109.496 97.1549 110.072L96.0749 110C96.1229 109.472 96.2749 109.004 96.5309 108.596C96.7869 108.188 97.1309 107.868 97.5629 107.636C97.9949 107.404 98.5029 107.288 99.0869 107.288C99.6069 107.288 100.063 107.392 100.455 107.6C100.855 107.808 101.167 108.096 101.391 108.464C101.615 108.832 101.727 109.256 101.727 109.736C101.727 110.072 101.671 110.364 101.559 110.612C101.455 110.86 101.291 111.088 101.067 111.296C100.843 111.504 100.559 111.72 100.215 111.944C99.8949 112.152 99.6749 112.372 99.5549 112.604C99.4429 112.836 99.3869 113.164 99.3869 113.588H98.3549ZM98.1629 116V114.644H99.5189V116H98.1629ZM23.584 132.816C23.184 132.984 22.764 133.108 22.324 133.188C21.884 133.276 21.416 133.32 20.92 133.32C20 133.32 19.212 133.148 18.556 132.804C17.908 132.468 17.408 131.976 17.056 131.328C16.712 130.68 16.54 129.904 16.54 129C16.54 128.184 16.668 127.44 16.924 126.768C17.18 126.096 17.544 125.516 18.016 125.028C18.496 124.532 19.06 124.152 19.708 123.888C20.356 123.616 21.072 123.48 21.856 123.48C22.76 123.48 23.548 123.656 24.22 124.008C24.892 124.36 25.412 124.856 25.78 125.496C26.148 126.136 26.332 126.892 26.332 127.764C26.332 128.404 26.236 128.968 26.044 129.456C25.852 129.944 25.588 130.328 25.252 130.608C24.916 130.88 24.528 131.016 24.088 131.016C23.72 131.016 23.416 130.908 23.176 130.692C22.944 130.476 22.816 130.184 22.792 129.816L22.972 129.768C22.876 130 22.724 130.216 22.516 130.416C22.308 130.616 22.072 130.776 21.808 130.896C21.544 131.008 21.272 131.064 20.992 131.064C20.52 131.064 20.12 130.972 19.792 130.788C19.472 130.604 19.228 130.348 19.06 130.02C18.892 129.692 18.808 129.312 18.808 128.88C18.808 128.344 18.912 127.856 19.12 127.416C19.336 126.976 19.632 126.628 20.008 126.372C20.392 126.108 20.84 125.976 21.352 125.976C21.776 125.976 22.136 126.072 22.432 126.264C22.736 126.448 22.928 126.692 23.008 126.996L22.888 127.116L22.972 126H23.848L23.656 128.52C23.648 128.696 23.632 128.896 23.608 129.12C23.592 129.344 23.584 129.528 23.584 129.672C23.584 129.848 23.632 129.984 23.728 130.08C23.824 130.176 23.968 130.224 24.16 130.224C24.568 130.224 24.888 130.008 25.12 129.576C25.352 129.144 25.468 128.552 25.468 127.8C25.468 127.056 25.328 126.424 25.048 125.904C24.768 125.384 24.356 124.992 23.812 124.728C23.276 124.456 22.616 124.32 21.832 124.32C21.176 124.32 20.576 124.432 20.032 124.656C19.488 124.88 19.02 125.2 18.628 125.616C18.236 126.024 17.932 126.512 17.716 127.08C17.508 127.648 17.404 128.28 17.404 128.976C17.404 129.72 17.54 130.356 17.812 130.884C18.092 131.404 18.496 131.8 19.024 132.072C19.552 132.344 20.192 132.48 20.944 132.48C21.376 132.48 21.8 132.436 22.216 132.348C22.64 132.268 23.028 132.152 23.38 132L23.584 132.816ZM21.112 130.272C21.512 130.272 21.836 130.176 22.084 129.984C22.34 129.784 22.528 129.532 22.648 129.228C22.776 128.916 22.84 128.596 22.84 128.268C22.84 127.988 22.792 127.736 22.696 127.512C22.608 127.28 22.46 127.1 22.252 126.972C22.052 126.836 21.784 126.768 21.448 126.768C21.088 126.768 20.784 126.864 20.536 127.056C20.296 127.24 20.112 127.488 19.984 127.8C19.856 128.104 19.792 128.44 19.792 128.808C19.792 129.224 19.888 129.572 20.08 129.852C20.28 130.132 20.624 130.272 21.112 130.272ZM30.859 133.32H27.979V123H30.859V123.84H28.939V132.48H30.859V133.32ZM36.0152 133.32H35.0552L31.5152 123H32.4752L36.0152 133.32ZM36.6761 133.32V132.48H38.5961V123.84H36.6761V123H39.5561V133.32H36.6761ZM41.1363 127.404L42.5763 123.924H43.8483L45.2883 127.404H44.3043L43.1403 124.656H43.2843L42.1203 127.404H41.1363ZM46.2936 132.936V132H51.9216V132.936H46.2936ZM54.0533 124.764L52.9733 123.228H54.1013L54.8933 124.764H54.0533ZM59.2379 133.38C58.6059 133.38 58.1059 133.188 57.7379 132.804C57.3779 132.42 57.1979 131.924 57.1979 131.316V130.32C57.1979 129.976 57.1499 129.684 57.0539 129.444C56.9579 129.196 56.8179 129.008 56.6339 128.88C56.4499 128.752 56.2259 128.688 55.9619 128.688V127.692C56.2259 127.692 56.4499 127.628 56.6339 127.5C56.8179 127.372 56.9579 127.188 57.0539 126.948C57.1499 126.7 57.1979 126.404 57.1979 126.06V125.064C57.1979 124.456 57.3779 123.96 57.7379 123.576C58.1059 123.192 58.6059 123 59.2379 123H59.9099V123.936C59.2779 123.912 58.8259 123.984 58.5539 124.152C58.2899 124.32 58.1579 124.616 58.1579 125.04V126.144C58.1579 126.744 58.0259 127.212 57.7619 127.548C57.4979 127.876 57.1819 128.084 56.8139 128.172V128.184C57.1899 128.264 57.5059 128.476 57.7619 128.82C58.0259 129.164 58.1579 129.636 58.1579 130.236V131.34C58.1579 131.756 58.2899 132.048 58.5539 132.216C58.8259 132.384 59.2779 132.46 59.9099 132.444V133.38H59.2379ZM61.1899 133.32V123H62.1499V133.32H61.1899ZM64.102 133.38H63.43V132.444C64.07 132.46 64.522 132.384 64.786 132.216C65.05 132.048 65.182 131.756 65.182 131.34V130.236C65.182 129.636 65.31 129.164 65.566 128.82C65.83 128.476 66.15 128.264 66.526 128.184V128.172C66.158 128.084 65.842 127.876 65.578 127.548C65.314 127.212 65.182 126.744 65.182 126.144V125.04C65.182 124.616 65.05 124.32 64.786 124.152C64.522 123.984 64.07 123.912 63.43 123.936V123H64.102C64.742 123 65.242 123.192 65.602 123.576C65.962 123.96 66.142 124.456 66.142 125.064V126.06C66.142 126.404 66.19 126.7 66.286 126.948C66.382 127.188 66.522 127.372 66.706 127.5C66.89 127.628 67.114 127.692 67.378 127.692V128.688C67.114 128.688 66.89 128.752 66.706 128.88C66.522 129.008 66.382 129.196 66.286 129.444C66.19 129.684 66.142 129.976 66.142 130.32V131.316C66.142 131.924 65.962 132.42 65.602 132.804C65.242 133.188 64.742 133.38 64.102 133.38ZM72.1381 129.168C71.8581 129.168 71.6301 129.116 71.4541 129.012C71.2861 128.9 71.0821 128.7 70.8421 128.412C70.6821 128.212 70.5541 128.068 70.4581 127.98C70.3701 127.884 70.2901 127.824 70.2181 127.8C70.1541 127.776 70.0781 127.764 69.9901 127.764C69.7821 127.764 69.6221 127.872 69.5101 128.088C69.3981 128.304 69.3421 128.624 69.3421 129.048H68.3941C68.3941 128.392 68.5381 127.86 68.8261 127.452C69.1141 127.044 69.4901 126.84 69.9541 126.84C70.2581 126.84 70.4981 126.9 70.6741 127.02C70.8581 127.14 71.0541 127.336 71.2621 127.608C71.4701 127.88 71.6261 128.056 71.7301 128.136C71.8421 128.208 71.9741 128.244 72.1261 128.244C72.3341 128.244 72.4901 128.136 72.5941 127.92C72.7061 127.696 72.7621 127.376 72.7621 126.96H73.7101C73.7101 127.616 73.5661 128.148 73.2781 128.556C72.9901 128.964 72.6101 129.168 72.1381 129.168Z" fill="white"/>
</svg>
