<svg width="162" height="146" viewBox="0 0 162 146" fill="none" xmlns="http://www.w3.org/2000/svg">
<rect y="0.5" width="162" height="145" rx="8" fill="#282C34"/>
<path d="M25.064 28.5V27.6H26.24V21H25.064V20.1H29.276C29.764 20.1 30.196 20.188 30.572 20.364C30.956 20.54 31.252 20.788 31.46 21.108C31.676 21.42 31.784 21.788 31.784 22.212V22.308C31.784 22.7 31.708 23.024 31.556 23.28C31.404 23.528 31.224 23.724 31.016 23.868C30.808 24.004 30.604 24.104 30.404 24.168V24.336C30.604 24.384 30.812 24.48 31.028 24.624C31.244 24.76 31.424 24.956 31.568 25.212C31.72 25.468 31.796 25.792 31.796 26.184V26.304C31.796 26.76 31.684 27.156 31.46 27.492C31.244 27.82 30.944 28.072 30.56 28.248C30.184 28.416 29.752 28.5 29.264 28.5H25.064ZM27.248 27.588H29.156C29.684 27.588 30.088 27.464 30.368 27.216C30.648 26.968 30.788 26.632 30.788 26.208V26.1C30.788 25.676 30.648 25.34 30.368 25.092C30.088 24.844 29.684 24.72 29.156 24.72H27.248V27.588ZM27.248 23.808H29.192C29.672 23.808 30.056 23.688 30.344 23.448C30.632 23.2 30.776 22.876 30.776 22.476V22.356C30.776 21.948 30.632 21.624 30.344 21.384C30.064 21.136 29.68 21.012 29.192 21.012H27.248V23.808ZM33.4296 28.5V22.632H34.3536V23.352H34.5216C34.6256 23.096 34.7856 22.908 35.0016 22.788C35.2176 22.668 35.5016 22.608 35.8536 22.608H36.5496V23.472H35.7936C35.3696 23.472 35.0256 23.592 34.7616 23.832C34.5056 24.064 34.3776 24.428 34.3776 24.924V28.5H33.4296ZM39.5538 28.668C39.1458 28.668 38.7738 28.596 38.4378 28.452C38.1018 28.308 37.8378 28.1 37.6458 27.828C37.4538 27.556 37.3578 27.224 37.3578 26.832C37.3578 26.432 37.4538 26.104 37.6458 25.848C37.8378 25.584 38.1018 25.388 38.4378 25.26C38.7738 25.124 39.1498 25.056 39.5658 25.056H41.5458V24.624C41.5458 24.208 41.4218 23.88 41.1738 23.64C40.9338 23.4 40.5738 23.28 40.0938 23.28C39.6218 23.28 39.2538 23.396 38.9898 23.628C38.7258 23.852 38.5458 24.156 38.4498 24.54L37.5618 24.252C37.6578 23.924 37.8098 23.628 38.0178 23.364C38.2258 23.092 38.5018 22.876 38.8458 22.716C39.1978 22.548 39.6178 22.464 40.1058 22.464C40.8578 22.464 41.4418 22.66 41.8578 23.052C42.2738 23.436 42.4818 23.98 42.4818 24.684V27.336C42.4818 27.576 42.5938 27.696 42.8178 27.696H43.3578V28.5H42.5298C42.2658 28.5 42.0538 28.428 41.8938 28.284C41.7338 28.132 41.6538 27.932 41.6538 27.684V27.624H41.5098C41.4218 27.776 41.3018 27.936 41.1498 28.104C41.0058 28.264 40.8058 28.396 40.5498 28.5C40.2938 28.612 39.9618 28.668 39.5538 28.668ZM39.6618 27.852C40.2218 27.852 40.6738 27.688 41.0178 27.36C41.3698 27.024 41.5458 26.556 41.5458 25.956V25.824H39.6018C39.2258 25.824 38.9138 25.908 38.6658 26.076C38.4258 26.236 38.3058 26.48 38.3058 26.808C38.3058 27.136 38.4298 27.392 38.6778 27.576C38.9338 27.76 39.2618 27.852 39.6618 27.852ZM44.6562 28.5V22.632H45.5802V23.628H45.7482C45.8762 23.348 46.0922 23.096 46.3962 22.872C46.7082 22.64 47.1642 22.524 47.7642 22.524C48.2042 22.524 48.5962 22.616 48.9402 22.8C49.2922 22.984 49.5722 23.256 49.7802 23.616C49.9882 23.976 50.0922 24.42 50.0922 24.948V28.5H49.1442V25.02C49.1442 24.436 48.9962 24.012 48.7002 23.748C48.4122 23.484 48.0202 23.352 47.5242 23.352C46.9562 23.352 46.4922 23.536 46.1322 23.904C45.7802 24.272 45.6042 24.82 45.6042 25.548V28.5H44.6562ZM54.4995 28.668C53.9955 28.668 53.5315 28.548 53.1075 28.308C52.6835 28.068 52.3475 27.72 52.0995 27.264C51.8515 26.808 51.7275 26.268 51.7275 25.644V25.488C51.7275 24.864 51.8515 24.328 52.0995 23.88C52.3475 23.424 52.6795 23.076 53.0955 22.836C53.5195 22.588 53.9875 22.464 54.4995 22.464C54.9075 22.464 55.2515 22.52 55.5315 22.632C55.8195 22.736 56.0515 22.872 56.2275 23.04C56.4035 23.2 56.5395 23.372 56.6355 23.556H56.8035V20.1H57.7515V28.5H56.8275V27.528H56.6595C56.4995 27.824 56.2515 28.088 55.9155 28.32C55.5795 28.552 55.1075 28.668 54.4995 28.668ZM54.7515 27.828C55.3595 27.828 55.8515 27.636 56.2275 27.252C56.6115 26.86 56.8035 26.316 56.8035 25.62V25.512C56.8035 24.816 56.6115 24.276 56.2275 23.892C55.8515 23.5 55.3595 23.304 54.7515 23.304C54.1515 23.304 53.6555 23.5 53.2635 23.892C52.8795 24.276 52.6875 24.816 52.6875 25.512V25.62C52.6875 26.316 52.8795 26.86 53.2635 27.252C53.6555 27.636 54.1515 27.828 54.7515 27.828ZM62.4262 28.668C61.8342 28.668 61.3142 28.544 60.8662 28.296C60.4182 28.04 60.0702 27.684 59.8222 27.228C59.5742 26.772 59.4502 26.244 59.4502 25.644V25.5C59.4502 24.892 59.5742 24.36 59.8222 23.904C60.0702 23.448 60.4142 23.096 60.8542 22.848C61.2942 22.592 61.7982 22.464 62.3662 22.464C62.9182 22.464 63.4062 22.584 63.8302 22.824C64.2542 23.056 64.5862 23.392 64.8262 23.832C65.0662 24.272 65.1862 24.788 65.1862 25.38V25.812H60.3982C60.4222 26.444 60.6262 26.94 61.0102 27.3C61.3942 27.652 61.8742 27.828 62.4502 27.828C62.9542 27.828 63.3422 27.712 63.6142 27.48C63.8862 27.248 64.0942 26.972 64.2382 26.652L65.0542 27.048C64.9342 27.296 64.7662 27.544 64.5502 27.792C64.3422 28.04 64.0662 28.248 63.7222 28.416C63.3862 28.584 62.9542 28.668 62.4262 28.668ZM60.4102 25.032H64.2262C64.1942 24.488 64.0062 24.064 63.6622 23.76C63.3262 23.456 62.8942 23.304 62.3662 23.304C61.8302 23.304 61.3902 23.456 61.0462 23.76C60.7022 24.064 60.4902 24.488 60.4102 25.032ZM66.8398 28.5V22.632H67.7878V28.5H66.8398ZM67.3198 21.72C67.1118 21.72 66.9358 21.652 66.7918 21.516C66.6558 21.38 66.5878 21.208 66.5878 21C66.5878 20.784 66.6558 20.608 66.7918 20.472C66.9358 20.336 67.1118 20.268 67.3198 20.268C67.5278 20.268 67.6998 20.336 67.8358 20.472C67.9718 20.608 68.0398 20.784 68.0398 21C68.0398 21.208 67.9718 21.38 67.8358 21.516C67.6998 21.652 67.5278 21.72 67.3198 21.72ZM72.1452 28.668C71.4172 28.668 70.8012 28.5 70.2972 28.164C69.8012 27.828 69.5012 27.296 69.3972 26.568L70.2972 26.364C70.3612 26.748 70.4812 27.052 70.6572 27.276C70.8332 27.492 71.0492 27.648 71.3052 27.744C71.5692 27.832 71.8492 27.876 72.1452 27.876C72.5852 27.876 72.9332 27.788 73.1892 27.612C73.4452 27.436 73.5732 27.2 73.5732 26.904C73.5732 26.6 73.4492 26.388 73.2012 26.268C72.9612 26.14 72.6292 26.036 72.2052 25.956L71.7132 25.872C71.3372 25.808 70.9932 25.708 70.6812 25.572C70.3692 25.436 70.1212 25.252 69.9372 25.02C69.7532 24.788 69.6612 24.496 69.6612 24.144C69.6612 23.616 69.8652 23.204 70.2732 22.908C70.6812 22.612 71.2212 22.464 71.8932 22.464C72.5572 22.464 73.0932 22.616 73.5012 22.92C73.9172 23.216 74.1852 23.636 74.3052 24.18L73.4172 24.408C73.3452 23.984 73.1732 23.688 72.9012 23.52C72.6292 23.344 72.2932 23.256 71.8932 23.256C71.4932 23.256 71.1772 23.332 70.9452 23.484C70.7132 23.628 70.5972 23.844 70.5972 24.132C70.5972 24.412 70.7052 24.62 70.9212 24.756C71.1452 24.884 71.4412 24.98 71.8092 25.044L72.3012 25.128C72.7172 25.2 73.0892 25.3 73.4172 25.428C73.7532 25.548 74.0172 25.724 74.2092 25.956C74.4092 26.188 74.5092 26.492 74.5092 26.868C74.5092 27.444 74.2932 27.888 73.8612 28.2C73.4372 28.512 72.8652 28.668 72.1452 28.668ZM79.1553 28.5V20.1H80.1633V23.832H84.0993V20.1H85.1073V28.5H84.0993V24.744H80.1633V28.5H79.1553ZM86.3703 28.5L88.9623 20.1H90.7383L93.3303 28.5H92.2863L91.6383 26.376H88.0623L87.4143 28.5H86.3703ZM88.3143 25.464H91.3743L89.9343 20.712H89.7663L88.3143 25.464ZM97.5077 28.668C96.5077 28.668 95.7117 28.38 95.1197 27.804C94.5277 27.22 94.2317 26.372 94.2317 25.26V23.34C94.2317 22.228 94.5277 21.384 95.1197 20.808C95.7117 20.224 96.5077 19.932 97.5077 19.932C98.4997 19.932 99.2597 20.208 99.7877 20.76C100.324 21.312 100.592 22.068 100.592 23.028V23.088H99.5957V22.992C99.5957 22.36 99.4237 21.844 99.0797 21.444C98.7437 21.036 98.2197 20.832 97.5077 20.832C96.7957 20.832 96.2397 21.052 95.8397 21.492C95.4397 21.924 95.2397 22.532 95.2397 23.316V25.284C95.2397 26.068 95.4397 26.68 95.8397 27.12C96.2397 27.552 96.7957 27.768 97.5077 27.768C98.2197 27.768 98.7437 27.568 99.0797 27.168C99.4237 26.76 99.5957 26.24 99.5957 25.608V25.416H100.592V25.572C100.592 26.532 100.324 27.288 99.7877 27.84C99.2597 28.392 98.4997 28.668 97.5077 28.668ZM102.171 28.5V20.1H103.179V23.76H103.347L106.899 20.1H108.243L104.151 24.252L108.387 28.5H107.007L103.347 24.768H103.179V28.5H102.171ZM115.613 28.668C114.613 28.668 113.817 28.38 113.225 27.804C112.633 27.22 112.337 26.372 112.337 25.26V23.34C112.337 22.228 112.633 21.384 113.225 20.808C113.817 20.224 114.613 19.932 115.613 19.932C116.605 19.932 117.365 20.208 117.893 20.76C118.429 21.312 118.697 22.068 118.697 23.028V23.088H117.701V22.992C117.701 22.36 117.529 21.844 117.185 21.444C116.849 21.036 116.325 20.832 115.613 20.832C114.901 20.832 114.345 21.052 113.945 21.492C113.545 21.924 113.345 22.532 113.345 23.316V25.284C113.345 26.068 113.545 26.68 113.945 27.12C114.345 27.552 114.901 27.768 115.613 27.768C116.325 27.768 116.849 27.568 117.185 27.168C117.529 26.76 117.701 26.24 117.701 25.608V25.416H118.697V25.572C118.697 26.532 118.429 27.288 117.893 27.84C117.365 28.392 116.605 28.668 115.613 28.668ZM120.312 28.5V20.1H121.26V28.5H120.312ZM125.498 28.608C125.074 28.608 124.682 28.516 124.322 28.332C123.97 28.148 123.69 27.876 123.482 27.516C123.282 27.148 123.182 26.704 123.182 26.184V22.632H124.13V26.112C124.13 26.696 124.274 27.12 124.562 27.384C124.858 27.648 125.254 27.78 125.75 27.78C126.31 27.78 126.77 27.596 127.13 27.228C127.49 26.86 127.67 26.312 127.67 25.584V22.632H128.618V28.5H127.694V27.504H127.526C127.398 27.784 127.178 28.04 126.866 28.272C126.554 28.496 126.098 28.608 125.498 28.608ZM133.853 28.668C133.245 28.668 132.769 28.552 132.425 28.32C132.089 28.088 131.845 27.824 131.693 27.528H131.525V28.5H130.601V20.1H131.549V23.556H131.717C131.813 23.372 131.949 23.2 132.125 23.04C132.301 22.872 132.529 22.736 132.809 22.632C133.097 22.52 133.445 22.464 133.853 22.464C134.365 22.464 134.829 22.588 135.245 22.836C135.669 23.076 136.005 23.424 136.253 23.88C136.501 24.328 136.625 24.864 136.625 25.488V25.644C136.625 26.268 136.497 26.808 136.241 27.264C135.993 27.72 135.657 28.068 135.233 28.308C134.817 28.548 134.357 28.668 133.853 28.668ZM133.601 27.828C134.209 27.828 134.701 27.636 135.077 27.252C135.461 26.86 135.653 26.316 135.653 25.62V25.512C135.653 24.816 135.461 24.276 135.077 23.892C134.701 23.5 134.209 23.304 133.601 23.304C133.001 23.304 132.505 23.5 132.113 23.892C131.729 24.276 131.537 24.816 131.537 25.512V25.62C131.537 26.316 131.729 26.86 132.113 27.252C132.505 27.636 133.001 27.828 133.601 27.828Z" fill="white"/>
<path d="M19.84 51.668C18.888 51.668 18.128 51.388 17.56 50.828C17 50.26 16.72 49.412 16.72 48.284V46.316C16.72 45.196 17 44.352 17.56 43.784C18.128 43.216 18.888 42.932 19.84 42.932C20.8 42.932 21.56 43.216 22.12 43.784C22.688 44.352 22.972 45.196 22.972 46.316V48.284C22.972 49.412 22.688 50.26 22.12 50.828C21.56 51.388 20.8 51.668 19.84 51.668ZM19.84 50.792C20.56 50.792 21.1 50.576 21.46 50.144C21.82 49.712 22 49.108 22 48.332V46.256C22 45.48 21.816 44.88 21.448 44.456C21.08 44.024 20.544 43.808 19.84 43.808C19.136 43.808 18.6 44.024 18.232 44.456C17.872 44.888 17.692 45.488 17.692 46.256V48.332C17.692 49.116 17.872 49.724 18.232 50.156C18.592 50.58 19.128 50.792 19.84 50.792ZM26.7715 51.5V43.748H26.5915L24.9595 46.736H23.9035L25.9075 43.1H27.7435V51.5H26.7715ZM29.3391 51.5V50.624C29.3391 50.024 29.4431 49.544 29.6511 49.184C29.8671 48.824 30.1631 48.536 30.5391 48.32C30.9231 48.096 31.3791 47.904 31.9071 47.744L32.5671 47.54C32.9271 47.428 33.2431 47.292 33.5151 47.132C33.7871 46.964 33.9991 46.756 34.1511 46.508C34.3031 46.252 34.3791 45.94 34.3791 45.572V45.524C34.3791 44.996 34.1951 44.58 33.8271 44.276C33.4591 43.964 32.9871 43.808 32.4111 43.808C31.8031 43.808 31.3071 43.972 30.9231 44.3C30.5391 44.62 30.3471 45.108 30.3471 45.764V45.932H29.3871V45.776C29.3871 45.168 29.5191 44.652 29.7831 44.228C30.0471 43.804 30.4071 43.484 30.8631 43.268C31.3191 43.044 31.8351 42.932 32.4111 42.932C32.9871 42.932 33.4951 43.04 33.9351 43.256C34.3831 43.472 34.7311 43.772 34.9791 44.156C35.2271 44.54 35.3511 44.988 35.3511 45.5V45.608C35.3511 46.152 35.2431 46.604 35.0271 46.964C34.8111 47.316 34.5111 47.604 34.1271 47.828C33.7511 48.052 33.3071 48.244 32.7951 48.404L32.1471 48.608C31.7391 48.736 31.3991 48.872 31.1271 49.016C30.8631 49.152 30.6631 49.328 30.5271 49.544C30.3911 49.76 30.3231 50.052 30.3231 50.42V50.624H35.2791V51.5H29.3391ZM39.5227 51.668C38.9307 51.668 38.3987 51.556 37.9267 51.332C37.4627 51.108 37.0947 50.784 36.8227 50.36C36.5587 49.936 36.4267 49.424 36.4267 48.824V48.596H37.3987V48.812C37.3987 49.428 37.5947 49.912 37.9867 50.264C38.3787 50.616 38.8907 50.792 39.5227 50.792C40.1627 50.792 40.6587 50.628 41.0107 50.3C41.3707 49.964 41.5507 49.544 41.5507 49.04V48.944C41.5507 48.576 41.4627 48.28 41.2867 48.056C41.1107 47.824 40.8707 47.656 40.5667 47.552C40.2707 47.44 39.9427 47.384 39.5827 47.384H38.2147V46.172L41.4187 44.12V43.976H36.6307V43.1H42.4507V44.456L39.3187 46.472V46.616H39.9187C40.3907 46.616 40.8227 46.704 41.2147 46.88C41.6147 47.048 41.9307 47.304 42.1627 47.648C42.4027 47.984 42.5227 48.408 42.5227 48.92V49.052C42.5227 49.58 42.3987 50.04 42.1507 50.432C41.9027 50.824 41.5547 51.128 41.1067 51.344C40.6587 51.56 40.1307 51.668 39.5227 51.668ZM47.8929 51.5V49.784H43.5129V48.632L47.0409 43.1H48.8649V48.908H50.3049V49.784H48.8649V51.5H47.8929ZM44.4849 48.908H47.8929V43.688H47.7249L44.4849 48.764V48.908ZM54.2529 51.668C53.6369 51.668 53.1049 51.552 52.6569 51.32C52.2089 51.08 51.8609 50.752 51.6129 50.336C51.3649 49.912 51.2409 49.424 51.2409 48.872V48.728H52.2129V48.836C52.2129 49.468 52.3969 49.952 52.7649 50.288C53.1329 50.624 53.6209 50.792 54.2289 50.792C54.8689 50.792 55.3689 50.612 55.7289 50.252C56.0889 49.892 56.2689 49.4 56.2689 48.776V48.668C56.2689 48.068 56.0929 47.592 55.7409 47.24C55.3969 46.88 54.9489 46.7 54.3969 46.7C54.0769 46.7 53.8129 46.752 53.6049 46.856C53.3969 46.952 53.2329 47.076 53.1129 47.228C52.9929 47.372 52.8929 47.512 52.8129 47.648H51.4929V43.1H57.0129V43.976H52.4649V46.88H52.6329C52.7209 46.72 52.8409 46.564 52.9929 46.412C53.1529 46.26 53.3649 46.132 53.6289 46.028C53.8929 45.924 54.2209 45.872 54.6129 45.872C55.1009 45.872 55.5409 45.984 55.9329 46.208C56.3329 46.432 56.6489 46.752 56.8809 47.168C57.1209 47.584 57.2409 48.08 57.2409 48.656V48.788C57.2409 49.356 57.1209 49.856 56.8809 50.288C56.6409 50.72 56.2969 51.06 55.8489 51.308C55.4009 51.548 54.8689 51.668 54.2529 51.668ZM61.5325 51.668C60.9565 51.668 60.4405 51.556 59.9845 51.332C59.5365 51.1 59.1805 50.772 58.9165 50.348C58.6605 49.924 58.5325 49.42 58.5325 48.836V45.908C58.5325 45.276 58.6565 44.74 58.9045 44.3C59.1525 43.86 59.5005 43.524 59.9485 43.292C60.4045 43.052 60.9445 42.932 61.5685 42.932C62.1845 42.932 62.7085 43.044 63.1405 43.268C63.5805 43.484 63.9125 43.784 64.1365 44.168C64.3685 44.544 64.4845 44.98 64.4845 45.476H63.5005C63.5005 44.98 63.3405 44.58 63.0205 44.276C62.7005 43.964 62.2165 43.808 61.5685 43.808C60.9125 43.808 60.4045 43.988 60.0445 44.348C59.6845 44.7 59.5045 45.188 59.5045 45.812V46.976H59.6725C59.8165 46.736 60.0565 46.516 60.3925 46.316C60.7285 46.108 61.1965 46.004 61.7965 46.004C62.3005 46.004 62.7605 46.116 63.1765 46.34C63.5925 46.564 63.9245 46.88 64.1725 47.288C64.4205 47.696 64.5445 48.18 64.5445 48.74V48.884C64.5445 49.452 64.4125 49.944 64.1485 50.36C63.8925 50.776 63.5365 51.1 63.0805 51.332C62.6245 51.556 62.1085 51.668 61.5325 51.668ZM61.5325 50.792C62.1405 50.792 62.6325 50.62 63.0085 50.276C63.3845 49.932 63.5725 49.464 63.5725 48.872V48.776C63.5725 48.376 63.4845 48.032 63.3085 47.744C63.1405 47.456 62.9045 47.232 62.6005 47.072C62.2965 46.904 61.9405 46.82 61.5325 46.82C61.1325 46.82 60.7805 46.904 60.4765 47.072C60.1725 47.232 59.9325 47.456 59.7565 47.744C59.5885 48.032 59.5045 48.376 59.5045 48.776V48.872C59.5045 49.464 59.6925 49.932 60.0685 50.276C60.4445 50.62 60.9325 50.792 61.5325 50.792ZM66.8084 51.5V51.2C66.8084 50.92 66.8324 50.684 66.8804 50.492C66.9284 50.3 67.0204 50.072 67.1564 49.808L70.3604 44.108V43.976H65.3684V43.1H71.3804V44.252L68.0324 50.252C67.9364 50.42 67.8684 50.572 67.8284 50.708C67.7964 50.844 67.7804 51.016 67.7804 51.224V51.5H66.8084ZM75.4547 51.668C74.8067 51.668 74.2427 51.572 73.7627 51.38C73.2907 51.18 72.9227 50.904 72.6587 50.552C72.4027 50.192 72.2747 49.772 72.2747 49.292V49.16C72.2747 48.744 72.3627 48.4 72.5387 48.128C72.7147 47.856 72.9267 47.648 73.1747 47.504C73.4307 47.352 73.6667 47.256 73.8827 47.216V47.06C73.6667 46.996 73.4427 46.892 73.2107 46.748C72.9867 46.604 72.7987 46.408 72.6467 46.16C72.5027 45.912 72.4307 45.608 72.4307 45.248V45.116C72.4307 44.66 72.5587 44.272 72.8147 43.952C73.0787 43.624 73.4387 43.372 73.8947 43.196C74.3507 43.02 74.8707 42.932 75.4547 42.932C76.0467 42.932 76.5667 43.02 77.0147 43.196C77.4707 43.372 77.8267 43.624 78.0827 43.952C78.3467 44.272 78.4787 44.66 78.4787 45.116V45.248C78.4787 45.608 78.4067 45.912 78.2627 46.16C78.1187 46.408 77.9347 46.604 77.7107 46.748C77.4867 46.892 77.2627 46.996 77.0387 47.06V47.216C77.2627 47.256 77.4987 47.352 77.7467 47.504C77.9947 47.648 78.2027 47.856 78.3707 48.128C78.5467 48.4 78.6347 48.744 78.6347 49.16V49.292C78.6347 49.772 78.5067 50.192 78.2507 50.552C77.9947 50.904 77.6267 51.18 77.1467 51.38C76.6747 51.572 76.1107 51.668 75.4547 51.668ZM75.4547 50.792C76.1347 50.792 76.6707 50.66 77.0627 50.396C77.4627 50.132 77.6627 49.748 77.6627 49.244V49.148C77.6627 48.644 77.4667 48.26 77.0747 47.996C76.6827 47.732 76.1427 47.6 75.4547 47.6C74.7747 47.6 74.2387 47.732 73.8467 47.996C73.4547 48.26 73.2587 48.644 73.2587 49.148V49.244C73.2587 49.748 73.4547 50.132 73.8467 50.396C74.2467 50.66 74.7827 50.792 75.4547 50.792ZM75.4547 46.724C76.0947 46.724 76.5947 46.604 76.9547 46.364C77.3227 46.116 77.5067 45.768 77.5067 45.32V45.224C77.5067 44.768 77.3227 44.42 76.9547 44.18C76.5867 43.932 76.0867 43.808 75.4547 43.808C74.8227 43.808 74.3227 43.932 73.9547 44.18C73.5867 44.42 73.4027 44.768 73.4027 45.224V45.32C73.4027 45.768 73.5867 46.116 73.9547 46.364C74.3227 46.604 74.8227 46.724 75.4547 46.724ZM82.7872 51.668C82.1712 51.668 81.6432 51.56 81.2032 51.344C80.7712 51.12 80.4432 50.816 80.2192 50.432C79.9952 50.048 79.8832 49.612 79.8832 49.124H80.8552C80.8552 49.62 81.0192 50.024 81.3472 50.336C81.6752 50.64 82.1552 50.792 82.7872 50.792C83.4512 50.792 83.9592 50.616 84.3112 50.264C84.6712 49.904 84.8512 49.412 84.8512 48.788V47.624H84.6952C84.5432 47.864 84.2992 48.088 83.9632 48.296C83.6352 48.496 83.1712 48.596 82.5712 48.596C82.0672 48.596 81.6032 48.484 81.1792 48.26C80.7632 48.036 80.4312 47.72 80.1832 47.312C79.9352 46.904 79.8112 46.42 79.8112 45.86V45.716C79.8112 45.14 79.9432 44.648 80.2072 44.24C80.4712 43.824 80.8272 43.504 81.2752 43.28C81.7312 43.048 82.2472 42.932 82.8232 42.932C83.4072 42.932 83.9232 43.048 84.3712 43.28C84.8272 43.504 85.1832 43.828 85.4392 44.252C85.6952 44.668 85.8232 45.172 85.8232 45.764V48.692C85.8232 49.316 85.6992 49.852 85.4512 50.3C85.2112 50.74 84.8632 51.08 84.4072 51.32C83.9512 51.552 83.4112 51.668 82.7872 51.668ZM82.8232 47.78C83.2232 47.78 83.5752 47.7 83.8792 47.54C84.1832 47.372 84.4192 47.144 84.5872 46.856C84.7632 46.56 84.8512 46.216 84.8512 45.824V45.728C84.8512 45.128 84.6632 44.66 84.2872 44.324C83.9192 43.98 83.4312 43.808 82.8232 43.808C82.2152 43.808 81.7232 43.98 81.3472 44.324C80.9712 44.66 80.7832 45.128 80.7832 45.728V45.824C80.7832 46.216 80.8672 46.56 81.0352 46.856C81.2112 47.144 81.4512 47.372 81.7552 47.54C82.0672 47.7 82.4232 47.78 82.8232 47.78ZM89.3429 51.668C88.9349 51.668 88.5629 51.596 88.2269 51.452C87.8909 51.308 87.6269 51.1 87.4349 50.828C87.2429 50.556 87.1469 50.224 87.1469 49.832C87.1469 49.432 87.2429 49.104 87.4349 48.848C87.6269 48.584 87.8909 48.388 88.2269 48.26C88.5629 48.124 88.9389 48.056 89.3549 48.056H91.3349V47.624C91.3349 47.208 91.2109 46.88 90.9629 46.64C90.7229 46.4 90.3629 46.28 89.8829 46.28C89.4109 46.28 89.0429 46.396 88.7789 46.628C88.5149 46.852 88.3349 47.156 88.2389 47.54L87.3509 47.252C87.4469 46.924 87.5989 46.628 87.8069 46.364C88.0149 46.092 88.2909 45.876 88.6349 45.716C88.9869 45.548 89.4069 45.464 89.8949 45.464C90.6469 45.464 91.2309 45.66 91.6469 46.052C92.0629 46.436 92.2709 46.98 92.2709 47.684V50.336C92.2709 50.576 92.3829 50.696 92.6069 50.696H93.1469V51.5H92.3189C92.0549 51.5 91.8429 51.428 91.6829 51.284C91.5229 51.132 91.4429 50.932 91.4429 50.684V50.624H91.2989C91.2109 50.776 91.0909 50.936 90.9389 51.104C90.7949 51.264 90.5949 51.396 90.3389 51.5C90.0829 51.612 89.7509 51.668 89.3429 51.668ZM89.4509 50.852C90.0109 50.852 90.4629 50.688 90.8069 50.36C91.1589 50.024 91.3349 49.556 91.3349 48.956V48.824H89.3909C89.0149 48.824 88.7029 48.908 88.4549 49.076C88.2149 49.236 88.0949 49.48 88.0949 49.808C88.0949 50.136 88.2189 50.392 88.4669 50.576C88.7229 50.76 89.0509 50.852 89.4509 50.852ZM97.6972 51.668C97.0892 51.668 96.6132 51.552 96.2692 51.32C95.9332 51.088 95.6892 50.824 95.5372 50.528H95.3692V51.5H94.4452V43.1H95.3932V46.556H95.5612C95.6572 46.372 95.7932 46.2 95.9692 46.04C96.1452 45.872 96.3732 45.736 96.6532 45.632C96.9412 45.52 97.2892 45.464 97.6972 45.464C98.2092 45.464 98.6732 45.588 99.0892 45.836C99.5132 46.076 99.8492 46.424 100.097 46.88C100.345 47.328 100.469 47.864 100.469 48.488V48.644C100.469 49.268 100.341 49.808 100.085 50.264C99.8372 50.72 99.5012 51.068 99.0772 51.308C98.6612 51.548 98.2012 51.668 97.6972 51.668ZM97.4452 50.828C98.0532 50.828 98.5452 50.636 98.9212 50.252C99.3052 49.86 99.4972 49.316 99.4972 48.62V48.512C99.4972 47.816 99.3052 47.276 98.9212 46.892C98.5452 46.5 98.0532 46.304 97.4452 46.304C96.8452 46.304 96.3492 46.5 95.9572 46.892C95.5732 47.276 95.3812 47.816 95.3812 48.512V48.62C95.3812 49.316 95.5732 49.86 95.9572 50.252C96.3492 50.636 96.8452 50.828 97.4452 50.828ZM104.868 51.668C104.3 51.668 103.788 51.548 103.332 51.308C102.884 51.06 102.528 50.708 102.264 50.252C102.008 49.796 101.88 49.256 101.88 48.632V48.5C101.88 47.868 102.008 47.328 102.264 46.88C102.528 46.424 102.884 46.076 103.332 45.836C103.788 45.588 104.3 45.464 104.868 45.464C105.428 45.464 105.904 45.568 106.296 45.776C106.696 45.984 107.008 46.26 107.232 46.604C107.464 46.948 107.612 47.316 107.676 47.708L106.752 47.9C106.712 47.612 106.616 47.348 106.464 47.108C106.32 46.868 106.116 46.676 105.852 46.532C105.588 46.388 105.264 46.316 104.88 46.316C104.488 46.316 104.136 46.404 103.824 46.58C103.52 46.756 103.276 47.008 103.092 47.336C102.916 47.664 102.828 48.056 102.828 48.512V48.62C102.828 49.076 102.916 49.468 103.092 49.796C103.276 50.124 103.52 50.376 103.824 50.552C104.136 50.728 104.488 50.816 104.88 50.816C105.464 50.816 105.908 50.664 106.212 50.36C106.524 50.056 106.716 49.68 106.788 49.232L107.724 49.436C107.636 49.82 107.476 50.184 107.244 50.528C107.012 50.872 106.696 51.148 106.296 51.356C105.904 51.564 105.428 51.668 104.868 51.668ZM111.824 51.668C111.32 51.668 110.856 51.548 110.432 51.308C110.008 51.068 109.672 50.72 109.424 50.264C109.176 49.808 109.052 49.268 109.052 48.644V48.488C109.052 47.864 109.176 47.328 109.424 46.88C109.672 46.424 110.004 46.076 110.42 45.836C110.844 45.588 111.312 45.464 111.824 45.464C112.232 45.464 112.576 45.52 112.856 45.632C113.144 45.736 113.376 45.872 113.552 46.04C113.728 46.2 113.864 46.372 113.96 46.556H114.128V43.1H115.076V51.5H114.152V50.528H113.984C113.824 50.824 113.576 51.088 113.24 51.32C112.904 51.552 112.432 51.668 111.824 51.668ZM112.076 50.828C112.684 50.828 113.176 50.636 113.552 50.252C113.936 49.86 114.128 49.316 114.128 48.62V48.512C114.128 47.816 113.936 47.276 113.552 46.892C113.176 46.5 112.684 46.304 112.076 46.304C111.476 46.304 110.98 46.5 110.588 46.892C110.204 47.276 110.012 47.816 110.012 48.512V48.62C110.012 49.316 110.204 49.86 110.588 50.252C110.98 50.636 111.476 50.828 112.076 50.828ZM119.75 51.668C119.158 51.668 118.638 51.544 118.19 51.296C117.742 51.04 117.394 50.684 117.146 50.228C116.898 49.772 116.774 49.244 116.774 48.644V48.5C116.774 47.892 116.898 47.36 117.146 46.904C117.394 46.448 117.738 46.096 118.178 45.848C118.618 45.592 119.122 45.464 119.69 45.464C120.242 45.464 120.73 45.584 121.154 45.824C121.578 46.056 121.91 46.392 122.15 46.832C122.39 47.272 122.51 47.788 122.51 48.38V48.812H117.722C117.746 49.444 117.95 49.94 118.334 50.3C118.718 50.652 119.198 50.828 119.774 50.828C120.278 50.828 120.666 50.712 120.938 50.48C121.21 50.248 121.418 49.972 121.562 49.652L122.378 50.048C122.258 50.296 122.09 50.544 121.874 50.792C121.666 51.04 121.39 51.248 121.046 51.416C120.71 51.584 120.278 51.668 119.75 51.668ZM117.734 48.032H121.55C121.518 47.488 121.33 47.064 120.986 46.76C120.65 46.456 120.218 46.304 119.69 46.304C119.154 46.304 118.714 46.456 118.37 46.76C118.026 47.064 117.814 47.488 117.734 48.032ZM125.07 51.5V46.46H123.27V45.632H125.07V44.132C125.07 43.812 125.158 43.56 125.334 43.376C125.518 43.192 125.778 43.1 126.114 43.1H127.59V43.916H126.378C126.138 43.916 126.018 44.036 126.018 44.276V45.632H127.866V46.46H126.018V51.5H125.07ZM128.646 48.596V48.428C128.646 47.812 128.77 47.284 129.018 46.844C129.266 46.404 129.602 46.064 130.026 45.824C130.45 45.584 130.914 45.464 131.418 45.464C132.034 45.464 132.506 45.584 132.834 45.824C133.17 46.056 133.418 46.316 133.578 46.604H133.746V45.632H134.646V52.868C134.646 53.188 134.558 53.44 134.382 53.624C134.206 53.808 133.95 53.9 133.614 53.9H129.63V53.06H133.362C133.602 53.06 133.722 52.94 133.722 52.7V50.468H133.554C133.458 50.644 133.322 50.816 133.146 50.984C132.97 51.152 132.742 51.292 132.462 51.404C132.182 51.508 131.834 51.56 131.418 51.56C130.914 51.56 130.45 51.44 130.026 51.2C129.602 50.96 129.266 50.62 129.018 50.18C128.77 49.732 128.646 49.204 128.646 48.596ZM131.67 50.72C132.278 50.72 132.77 50.528 133.146 50.144C133.53 49.76 133.722 49.232 133.722 48.56V48.464C133.722 47.784 133.53 47.256 133.146 46.88C132.77 46.496 132.278 46.304 131.67 46.304C131.07 46.304 130.574 46.496 130.182 46.88C129.798 47.256 129.606 47.784 129.606 48.464V48.56C129.606 49.232 129.798 49.76 130.182 50.144C130.574 50.528 131.07 50.72 131.67 50.72ZM136.633 51.5V43.1H137.581V46.568H137.749C137.829 46.392 137.949 46.228 138.109 46.076C138.277 45.916 138.489 45.784 138.745 45.68C139.009 45.576 139.341 45.524 139.741 45.524C140.181 45.524 140.573 45.62 140.917 45.812C141.269 45.996 141.549 46.268 141.757 46.628C141.965 46.98 142.069 47.42 142.069 47.948V51.5H141.121V48.02C141.121 47.436 140.973 47.012 140.677 46.748C140.389 46.484 139.997 46.352 139.501 46.352C138.933 46.352 138.469 46.536 138.109 46.904C137.757 47.272 137.581 47.82 137.581 48.548V51.5H136.633ZM143.992 51.5V45.632H144.94V51.5H143.992ZM144.472 44.72C144.264 44.72 144.088 44.652 143.944 44.516C143.808 44.38 143.74 44.208 143.74 44C143.74 43.784 143.808 43.608 143.944 43.472C144.088 43.336 144.264 43.268 144.472 43.268C144.68 43.268 144.852 43.336 144.988 43.472C145.124 43.608 145.192 43.784 145.192 44C145.192 44.208 145.124 44.38 144.988 44.516C144.852 44.652 144.68 44.72 144.472 44.72ZM15.844 68.9V68.06H16.66C16.9 68.06 17.02 67.94 17.02 67.7V60.632H17.968V67.868C17.968 68.188 17.876 68.44 17.692 68.624C17.516 68.808 17.26 68.9 16.924 68.9H15.844ZM17.5 59.72C17.292 59.72 17.116 59.652 16.972 59.516C16.836 59.38 16.768 59.208 16.768 59C16.768 58.784 16.836 58.608 16.972 58.472C17.116 58.336 17.292 58.268 17.5 58.268C17.708 58.268 17.88 58.336 18.016 58.472C18.152 58.608 18.22 58.784 18.22 59C18.22 59.208 18.152 59.38 18.016 59.516C17.88 59.652 17.708 59.72 17.5 59.72ZM19.9608 66.5V58.1H20.9088V63.044H21.0768L23.7648 60.632H25.0848L21.8328 63.488L25.1808 66.5H23.8728L21.0768 63.944H20.9088V66.5H19.9608ZM26.4179 66.5V58.1H27.3659V66.5H26.4179ZM29.3593 66.5V60.632H30.2833V61.364H30.4513C30.5633 61.156 30.7473 60.964 31.0033 60.788C31.2593 60.612 31.6193 60.524 32.0833 60.524C32.5393 60.524 32.9073 60.624 33.1873 60.824C33.4753 61.024 33.6833 61.268 33.8113 61.556H33.9793C34.1153 61.268 34.3193 61.024 34.5913 60.824C34.8713 60.624 35.2593 60.524 35.7553 60.524C36.1473 60.524 36.4913 60.604 36.7873 60.764C37.0833 60.924 37.3153 61.156 37.4833 61.46C37.6593 61.756 37.7473 62.112 37.7473 62.528V66.5H36.7993V62.612C36.7993 62.22 36.6833 61.912 36.4513 61.688C36.2273 61.456 35.9113 61.34 35.5033 61.34C35.0713 61.34 34.7153 61.48 34.4353 61.76C34.1633 62.04 34.0273 62.444 34.0273 62.972V66.5H33.0793V62.612C33.0793 62.22 32.9633 61.912 32.7313 61.688C32.5073 61.456 32.1913 61.34 31.7833 61.34C31.3513 61.34 30.9953 61.48 30.7153 61.76C30.4433 62.04 30.3073 62.444 30.3073 62.972V66.5H29.3593ZM39.6835 66.5V60.632H40.6075V61.628H40.7755C40.9035 61.348 41.1195 61.096 41.4235 60.872C41.7355 60.64 42.1915 60.524 42.7915 60.524C43.2315 60.524 43.6235 60.616 43.9675 60.8C44.3195 60.984 44.5995 61.256 44.8075 61.616C45.0155 61.976 45.1195 62.42 45.1195 62.948V66.5H44.1715V63.02C44.1715 62.436 44.0235 62.012 43.7275 61.748C43.4395 61.484 43.0475 61.352 42.5515 61.352C41.9835 61.352 41.5195 61.536 41.1595 61.904C40.8075 62.272 40.6315 62.82 40.6315 63.548V66.5H39.6835ZM49.7549 66.668C49.1629 66.668 48.6389 66.544 48.1829 66.296C47.7349 66.048 47.3829 65.7 47.1269 65.252C46.8789 64.796 46.7549 64.26 46.7549 63.644V63.488C46.7549 62.88 46.8789 62.348 47.1269 61.892C47.3829 61.436 47.7349 61.084 48.1829 60.836C48.6389 60.588 49.1629 60.464 49.7549 60.464C50.3469 60.464 50.8669 60.588 51.3149 60.836C51.7709 61.084 52.1229 61.436 52.3709 61.892C52.6269 62.348 52.7549 62.88 52.7549 63.488V63.644C52.7549 64.26 52.6269 64.796 52.3709 65.252C52.1229 65.7 51.7709 66.048 51.3149 66.296C50.8669 66.544 50.3469 66.668 49.7549 66.668ZM49.7549 65.816C50.3789 65.816 50.8749 65.62 51.2429 65.228C51.6189 64.828 51.8069 64.292 51.8069 63.62V63.512C51.8069 62.84 51.6189 62.308 51.2429 61.916C50.8749 61.516 50.3789 61.316 49.7549 61.316C49.1389 61.316 48.6429 61.516 48.2669 61.916C47.8909 62.308 47.7029 62.84 47.7029 63.512V63.62C47.7029 64.292 47.8909 64.828 48.2669 65.228C48.6429 65.62 49.1389 65.816 49.7549 65.816ZM54.4608 68.9V60.632H55.3848V61.604H55.5528C55.7048 61.308 55.9488 61.044 56.2848 60.812C56.6288 60.58 57.1048 60.464 57.7128 60.464C58.2168 60.464 58.6768 60.588 59.0928 60.836C59.5168 61.076 59.8528 61.42 60.1008 61.868C60.3568 62.316 60.4848 62.856 60.4848 63.488V63.644C60.4848 64.268 60.3608 64.808 60.1128 65.264C59.8648 65.72 59.5288 66.068 59.1048 66.308C58.6888 66.548 58.2248 66.668 57.7128 66.668C57.3048 66.668 56.9568 66.612 56.6688 66.5C56.3888 66.396 56.1608 66.26 55.9848 66.092C55.8088 65.924 55.6728 65.752 55.5768 65.576H55.4088V68.9H54.4608ZM57.4608 65.828C58.0688 65.828 58.5608 65.636 58.9368 65.252C59.3208 64.86 59.5128 64.316 59.5128 63.62V63.512C59.5128 62.816 59.3208 62.276 58.9368 61.892C58.5608 61.5 58.0688 61.304 57.4608 61.304C56.8608 61.304 56.3648 61.5 55.9728 61.892C55.5888 62.276 55.3968 62.816 55.3968 63.512V63.62C55.3968 64.316 55.5888 64.86 55.9728 65.252C56.3648 65.636 56.8608 65.828 57.4608 65.828ZM66.9715 68.9V65.576H66.8035C66.7075 65.752 66.5715 65.924 66.3955 66.092C66.2195 66.26 65.9875 66.396 65.6995 66.5C65.4195 66.612 65.0755 66.668 64.6675 66.668C64.1555 66.668 63.6875 66.548 63.2635 66.308C62.8475 66.068 62.5155 65.72 62.2675 65.264C62.0195 64.808 61.8955 64.268 61.8955 63.644V63.488C61.8955 62.856 62.0195 62.316 62.2675 61.868C62.5155 61.42 62.8515 61.076 63.2755 60.836C63.6995 60.588 64.1635 60.464 64.6675 60.464C65.2755 60.464 65.7475 60.58 66.0835 60.812C66.4195 61.044 66.6675 61.308 66.8275 61.604H66.9955V60.632H67.9195V68.9H66.9715ZM64.9195 65.828C65.5275 65.828 66.0195 65.636 66.3955 65.252C66.7795 64.86 66.9715 64.316 66.9715 63.62V63.512C66.9715 62.816 66.7795 62.276 66.3955 61.892C66.0195 61.5 65.5275 61.304 64.9195 61.304C64.3195 61.304 63.8235 61.5 63.4315 61.892C63.0475 62.276 62.8555 62.816 62.8555 63.512V63.62C62.8555 64.316 63.0475 64.86 63.4315 65.252C63.8235 65.636 64.3195 65.828 64.9195 65.828ZM69.9062 66.5V60.632H70.8302V61.352H70.9982C71.1022 61.096 71.2622 60.908 71.4782 60.788C71.6942 60.668 71.9782 60.608 72.3302 60.608H73.0262V61.472H72.2702C71.8462 61.472 71.5022 61.592 71.2382 61.832C70.9822 62.064 70.8542 62.428 70.8542 62.924V66.5H69.9062ZM76.6764 66.668C75.9484 66.668 75.3324 66.5 74.8284 66.164C74.3324 65.828 74.0324 65.296 73.9284 64.568L74.8284 64.364C74.8924 64.748 75.0124 65.052 75.1884 65.276C75.3644 65.492 75.5804 65.648 75.8364 65.744C76.1004 65.832 76.3804 65.876 76.6764 65.876C77.1164 65.876 77.4644 65.788 77.7204 65.612C77.9764 65.436 78.1044 65.2 78.1044 64.904C78.1044 64.6 77.9804 64.388 77.7324 64.268C77.4924 64.14 77.1604 64.036 76.7364 63.956L76.2444 63.872C75.8684 63.808 75.5244 63.708 75.2124 63.572C74.9004 63.436 74.6524 63.252 74.4684 63.02C74.2844 62.788 74.1924 62.496 74.1924 62.144C74.1924 61.616 74.3964 61.204 74.8044 60.908C75.2124 60.612 75.7524 60.464 76.4244 60.464C77.0884 60.464 77.6244 60.616 78.0324 60.92C78.4484 61.216 78.7164 61.636 78.8364 62.18L77.9484 62.408C77.8764 61.984 77.7044 61.688 77.4324 61.52C77.1604 61.344 76.8244 61.256 76.4244 61.256C76.0244 61.256 75.7084 61.332 75.4764 61.484C75.2444 61.628 75.1284 61.844 75.1284 62.132C75.1284 62.412 75.2364 62.62 75.4524 62.756C75.6764 62.884 75.9724 62.98 76.3404 63.044L76.8324 63.128C77.2484 63.2 77.6204 63.3 77.9484 63.428C78.2844 63.548 78.5484 63.724 78.7404 63.956C78.9404 64.188 79.0404 64.492 79.0404 64.868C79.0404 65.444 78.8244 65.888 78.3924 66.2C77.9684 66.512 77.3964 66.668 76.6764 66.668ZM82.6716 66.5C82.3356 66.5 82.0756 66.408 81.8916 66.224C81.7156 66.04 81.6276 65.788 81.6276 65.468V61.46H79.8636V60.632H81.6276V58.544H82.5756V60.632H84.4956V61.46H82.5756V65.324C82.5756 65.564 82.6916 65.684 82.9236 65.684H84.2316V66.5H82.6716ZM88.2752 66.608C87.8512 66.608 87.4592 66.516 87.0992 66.332C86.7472 66.148 86.4672 65.876 86.2592 65.516C86.0592 65.148 85.9592 64.704 85.9592 64.184V60.632H86.9072V64.112C86.9072 64.696 87.0512 65.12 87.3392 65.384C87.6352 65.648 88.0312 65.78 88.5272 65.78C89.0872 65.78 89.5472 65.596 89.9072 65.228C90.2672 64.86 90.4472 64.312 90.4472 63.584V60.632H91.3952V66.5H90.4712V65.504H90.3032C90.1752 65.784 89.9552 66.04 89.6432 66.272C89.3312 66.496 88.8752 66.608 88.2752 66.608ZM94.8668 66.5L92.7668 60.632H93.7748L95.5388 65.792H95.7068L97.4708 60.632H98.4788L96.3788 66.5H94.8668ZM100.664 66.5L99.4876 60.632H100.448L101.42 65.864H101.588L102.872 60.632H104.444L105.728 65.864H105.896L106.868 60.632H107.828L106.652 66.5H105.032L103.736 61.268H103.58L102.284 66.5H100.664ZM108.977 66.5L111.329 63.524L109.049 60.632H110.189L111.941 62.9H112.109L113.849 60.632H115.001L112.709 63.524L115.061 66.5H113.909L112.109 64.16H111.941L110.141 66.5H108.977ZM117.278 68.9V68.06H120.638C120.87 68.06 120.986 67.94 120.986 67.7V65.564H120.818C120.738 65.732 120.614 65.9 120.446 66.068C120.286 66.228 120.074 66.36 119.81 66.464C119.546 66.56 119.214 66.608 118.814 66.608C118.39 66.608 117.998 66.516 117.638 66.332C117.286 66.148 117.006 65.876 116.798 65.516C116.598 65.156 116.498 64.716 116.498 64.196V60.632H117.446V64.124C117.446 64.7 117.59 65.12 117.878 65.384C118.174 65.648 118.57 65.78 119.066 65.78C119.626 65.78 120.086 65.596 120.446 65.228C120.806 64.86 120.986 64.312 120.986 63.584V60.632H121.934V67.868C121.934 68.188 121.842 68.44 121.658 68.624C121.482 68.808 121.222 68.9 120.878 68.9H117.278ZM123.654 66.5V65.276L127.386 61.592V61.46H123.774V60.632H128.382V61.856L124.638 65.54V65.684H128.478V66.5H123.654ZM129.48 66.5L132.072 58.1H133.848L136.44 66.5H135.396L134.748 64.376H131.172L130.524 66.5H129.48ZM131.424 63.464H134.484L133.044 58.712H132.876L131.424 63.464ZM137.302 66.5V65.6H138.478V59H137.302V58.1H141.514C142.002 58.1 142.434 58.188 142.81 58.364C143.194 58.54 143.49 58.788 143.698 59.108C143.914 59.42 144.022 59.788 144.022 60.212V60.308C144.022 60.7 143.946 61.024 143.794 61.28C143.642 61.528 143.462 61.724 143.254 61.868C143.046 62.004 142.842 62.104 142.642 62.168V62.336C142.842 62.384 143.05 62.48 143.266 62.624C143.482 62.76 143.662 62.956 143.806 63.212C143.958 63.468 144.034 63.792 144.034 64.184V64.304C144.034 64.76 143.922 65.156 143.698 65.492C143.482 65.82 143.182 66.072 142.798 66.248C142.422 66.416 141.99 66.5 141.502 66.5H137.302ZM139.486 65.588H141.394C141.922 65.588 142.326 65.464 142.606 65.216C142.886 64.968 143.026 64.632 143.026 64.208V64.1C143.026 63.676 142.886 63.34 142.606 63.092C142.326 62.844 141.922 62.72 141.394 62.72H139.486V65.588ZM139.486 61.808H141.43C141.91 61.808 142.294 61.688 142.582 61.448C142.87 61.2 143.014 60.876 143.014 60.476V60.356C143.014 59.948 142.87 59.624 142.582 59.384C142.302 59.136 141.918 59.012 141.43 59.012H139.486V61.808ZM19.996 81.668C18.996 81.668 18.2 81.38 17.608 80.804C17.016 80.22 16.72 79.372 16.72 78.26V76.34C16.72 75.228 17.016 74.384 17.608 73.808C18.2 73.224 18.996 72.932 19.996 72.932C20.988 72.932 21.748 73.208 22.276 73.76C22.812 74.312 23.08 75.068 23.08 76.028V76.088H22.084V75.992C22.084 75.36 21.912 74.844 21.568 74.444C21.232 74.036 20.708 73.832 19.996 73.832C19.284 73.832 18.728 74.052 18.328 74.492C17.928 74.924 17.728 75.532 17.728 76.316V78.284C17.728 79.068 17.928 79.68 18.328 80.12C18.728 80.552 19.284 80.768 19.996 80.768C20.708 80.768 21.232 80.568 21.568 80.168C21.912 79.76 22.084 79.24 22.084 78.608V78.416H23.08V78.572C23.08 79.532 22.812 80.288 22.276 80.84C21.748 81.392 20.988 81.668 19.996 81.668ZM24.2632 81.5V80.6H25.4392V74H24.2632V73.1H27.5392C28.6432 73.1 29.4952 73.38 30.0952 73.94C30.7032 74.5 31.0072 75.36 31.0072 76.52V78.08C31.0072 79.248 30.7032 80.112 30.0952 80.672C29.4952 81.224 28.6432 81.5 27.5392 81.5H24.2632ZM26.4472 80.588H27.5392C28.3552 80.588 28.9712 80.388 29.3872 79.988C29.8032 79.588 30.0112 78.968 30.0112 78.128V76.484C30.0112 75.628 29.8032 75.004 29.3872 74.612C28.9712 74.22 28.3552 74.024 27.5392 74.024H26.4472V80.588ZM32.6163 81.5V73.1H37.7883V74.012H33.6243V76.82H37.4523V77.732H33.6243V80.588H37.8483V81.5H32.6163ZM39.378 81.5V73.1H44.454V74.012H40.386V76.832H44.13V77.744H40.386V81.5H39.378ZM48.7044 81.668C48.0804 81.668 47.5284 81.54 47.0484 81.284C46.5764 81.02 46.2044 80.636 45.9324 80.132C45.6684 79.628 45.5364 79.004 45.5364 78.26V76.34C45.5364 75.228 45.8324 74.384 46.4244 73.808C47.0164 73.224 47.8124 72.932 48.8124 72.932C49.8044 72.932 50.5604 73.204 51.0804 73.748C51.6004 74.292 51.8604 75.02 51.8604 75.932V75.992H50.8644V75.908C50.8644 75.508 50.7924 75.152 50.6484 74.84C50.5044 74.528 50.2804 74.284 49.9764 74.108C49.6724 73.924 49.2844 73.832 48.8124 73.832C48.1004 73.832 47.5444 74.052 47.1444 74.492C46.7444 74.924 46.5444 75.532 46.5444 76.316V78.284C46.5444 79.068 46.7444 79.68 47.1444 80.12C47.5444 80.552 48.1044 80.768 48.8244 80.768C49.5284 80.768 50.0444 80.568 50.3724 80.168C50.7084 79.768 50.8764 79.236 50.8764 78.572V78.368H48.3324V77.504H51.8604V81.5H50.9484V80.588H50.7804C50.6924 80.764 50.5684 80.936 50.4084 81.104C50.2484 81.272 50.0324 81.408 49.7604 81.512C49.4884 81.616 49.1364 81.668 48.7044 81.668ZM53.6983 81.5V73.1H54.7063V76.832H58.6423V73.1H59.6503V81.5H58.6423V77.744H54.7063V81.5H53.6983ZM61.5733 81.5V73.1H62.5813V81.5H61.5733ZM66.699 81.668C65.875 81.668 65.223 81.436 64.743 80.972C64.271 80.508 64.035 79.844 64.035 78.98V78.332H65.031V78.98C65.031 79.5 65.167 79.924 65.439 80.252C65.719 80.58 66.135 80.744 66.687 80.744C67.247 80.744 67.643 80.584 67.875 80.264C68.107 79.936 68.223 79.508 68.223 78.98V74.012H66.747V73.1H70.143V74.012H69.231V78.98C69.231 79.852 69.015 80.52 68.583 80.984C68.151 81.44 67.523 81.668 66.699 81.668ZM71.628 81.5V73.1H72.636V76.76H72.804L76.356 73.1H77.7L73.608 77.252L77.844 81.5H76.464L72.804 77.768H72.636V81.5H71.628ZM78.9522 81.5V73.1H79.9602V80.588H84.2082V81.5H78.9522ZM85.503 81.5V73.1H87.423L89.655 80.864H89.811L92.043 73.1H93.963V81.5H92.991V73.76H92.823L90.603 81.5H88.863L86.643 73.76H86.475V81.5H85.503ZM95.8858 81.5V73.1H97.8418L100.77 80.864H100.926V73.1H101.922V81.5H99.9658L97.0498 73.724H96.8818V81.5H95.8858ZM106.903 81.668C105.903 81.668 105.103 81.38 104.503 80.804C103.911 80.22 103.615 79.372 103.615 78.26V76.34C103.615 75.228 103.911 74.384 104.503 73.808C105.103 73.224 105.903 72.932 106.903 72.932C107.911 72.932 108.711 73.224 109.303 73.808C109.903 74.384 110.203 75.228 110.203 76.34V78.26C110.203 79.372 109.903 80.22 109.303 80.804C108.711 81.38 107.911 81.668 106.903 81.668ZM106.903 80.768C107.631 80.768 108.195 80.552 108.595 80.12C108.995 79.68 109.195 79.072 109.195 78.296V76.304C109.195 75.528 108.995 74.924 108.595 74.492C108.195 74.052 107.631 73.832 106.903 73.832C106.183 73.832 105.623 74.052 105.223 74.492C104.823 74.924 104.623 75.528 104.623 76.304V78.296C104.623 79.072 104.823 79.68 105.223 80.12C105.623 80.552 106.183 80.768 106.903 80.768ZM111.882 81.5V73.1H115.098C115.602 73.1 116.05 73.2 116.442 73.4C116.842 73.592 117.158 73.868 117.39 74.228C117.622 74.588 117.738 75.024 117.738 75.536V75.692C117.738 76.196 117.618 76.632 117.378 77C117.146 77.36 116.83 77.636 116.43 77.828C116.03 78.02 115.586 78.116 115.098 78.116H112.89V81.5H111.882ZM112.89 77.204H114.99C115.526 77.204 115.95 77.072 116.262 76.808C116.574 76.536 116.73 76.156 116.73 75.668V75.548C116.73 75.06 116.574 74.684 116.262 74.42C115.958 74.148 115.534 74.012 114.99 74.012H112.89V77.204ZM122.137 81.668C121.137 81.668 120.337 81.38 119.737 80.804C119.145 80.22 118.849 79.372 118.849 78.26V76.34C118.849 75.228 119.145 74.384 119.737 73.808C120.337 73.224 121.137 72.932 122.137 72.932C123.145 72.932 123.945 73.224 124.537 73.808C125.137 74.384 125.437 75.228 125.437 76.34V78.26C125.437 79.372 125.137 80.22 124.537 80.804C123.945 81.38 123.145 81.668 122.137 81.668ZM122.137 80.768C122.865 80.768 123.429 80.552 123.829 80.12C124.229 79.68 124.429 79.072 124.429 78.296V76.304C124.429 75.528 124.229 74.924 123.829 74.492C123.429 74.052 122.865 73.832 122.137 73.832C121.417 73.832 120.857 74.052 120.457 74.492C120.057 74.924 119.857 75.528 119.857 76.304V78.296C119.857 79.072 120.057 79.68 120.457 80.12C120.857 80.552 121.417 80.768 122.137 80.768ZM122.629 83.444C122.333 83.444 122.093 83.352 121.909 83.168C121.733 82.992 121.645 82.748 121.645 82.436V81.5H122.629V82.256C122.629 82.496 122.741 82.616 122.965 82.616H123.757V83.444H122.629ZM127.116 81.5V73.1H130.512C131.032 73.1 131.488 73.192 131.88 73.376C132.28 73.552 132.592 73.808 132.816 74.144C133.04 74.472 133.152 74.868 133.152 75.332V75.464C133.152 76.016 133.02 76.452 132.756 76.772C132.492 77.092 132.18 77.308 131.82 77.42V77.588C132.108 77.596 132.344 77.692 132.528 77.876C132.72 78.052 132.816 78.32 132.816 78.68V81.5H131.82V78.8C131.82 78.56 131.752 78.376 131.616 78.248C131.488 78.12 131.292 78.056 131.028 78.056H128.124V81.5H127.116ZM128.124 77.144H130.416C130.968 77.144 131.392 77.012 131.688 76.748C131.992 76.476 132.144 76.1 132.144 75.62V75.536C132.144 75.056 131.996 74.684 131.7 74.42C131.404 74.148 130.976 74.012 130.416 74.012H128.124V77.144ZM137.483 81.668C136.875 81.668 136.331 81.56 135.851 81.344C135.371 81.128 134.991 80.804 134.711 80.372C134.439 79.932 134.303 79.384 134.303 78.728V78.476H135.299V78.728C135.299 79.424 135.503 79.944 135.911 80.288C136.319 80.624 136.843 80.792 137.483 80.792C138.139 80.792 138.639 80.644 138.983 80.348C139.327 80.052 139.499 79.68 139.499 79.232C139.499 78.92 139.419 78.672 139.259 78.488C139.107 78.304 138.891 78.156 138.611 78.044C138.331 77.924 138.003 77.82 137.627 77.732L137.003 77.576C136.515 77.448 136.083 77.292 135.707 77.108C135.331 76.924 135.035 76.684 134.819 76.388C134.611 76.084 134.507 75.696 134.507 75.224C134.507 74.752 134.623 74.344 134.855 74C135.095 73.656 135.427 73.392 135.851 73.208C136.283 73.024 136.779 72.932 137.339 72.932C137.907 72.932 138.415 73.032 138.863 73.232C139.319 73.424 139.675 73.712 139.931 74.096C140.195 74.472 140.327 74.948 140.327 75.524V76.028H139.331V75.524C139.331 75.116 139.243 74.788 139.067 74.54C138.899 74.292 138.663 74.108 138.359 73.988C138.063 73.868 137.723 73.808 137.339 73.808C136.787 73.808 136.343 73.932 136.007 74.18C135.671 74.42 135.503 74.764 135.503 75.212C135.503 75.508 135.575 75.748 135.719 75.932C135.863 76.116 136.067 76.268 136.331 76.388C136.595 76.5 136.911 76.6 137.279 76.688L137.903 76.844C138.391 76.948 138.827 77.092 139.211 77.276C139.603 77.452 139.915 77.696 140.147 78.008C140.379 78.312 140.495 78.712 140.495 79.208C140.495 79.704 140.371 80.136 140.123 80.504C139.875 80.872 139.523 81.16 139.067 81.368C138.619 81.568 138.091 81.668 137.483 81.668ZM19.024 96.5V89.012H16.324V88.1H22.732V89.012H20.032V96.5H19.024ZM27.0507 96.668C26.4267 96.668 25.8827 96.556 25.4187 96.332C24.9547 96.108 24.5947 95.776 24.3387 95.336C24.0827 94.888 23.9547 94.34 23.9547 93.692V88.1H24.9507V93.704C24.9507 94.392 25.1347 94.908 25.5027 95.252C25.8707 95.596 26.3867 95.768 27.0507 95.768C27.7147 95.768 28.2307 95.596 28.5987 95.252C28.9667 94.908 29.1507 94.392 29.1507 93.704V88.1H30.1587V93.692C30.1587 94.34 30.0307 94.888 29.7747 95.336C29.5187 95.776 29.1547 96.108 28.6827 96.332C28.2187 96.556 27.6747 96.668 27.0507 96.668ZM33.8789 96.5L31.3469 88.1H32.3909L34.6829 95.888H34.8389L37.1309 88.1H38.1749L35.6429 96.5H33.8789ZM40.2886 96.5L38.9206 88.1H39.9286L41.1166 95.852H41.2846L42.8326 88.1H44.6326L46.1686 95.852H46.3366L47.5246 88.1H48.5326L47.1646 96.5H45.3646L43.8166 88.7H43.6486L42.1006 96.5H40.2886ZM49.3606 96.5L52.0726 92.264L49.3966 88.1H50.5846L52.7206 91.568H52.8766L55.0246 88.1H56.2006L53.5366 92.264L56.2486 96.5H55.0726L52.8766 92.96H52.7206L50.5366 96.5H49.3606ZM59.7849 96.5V93.296L56.7969 88.1H57.9489L60.2049 92.132H60.3729L62.6289 88.1H63.7809L60.7929 93.296V96.5H59.7849ZM64.5531 96.5V95.168L69.2331 89.144V89H64.6971V88.1H70.2291V89.432L65.5491 95.456V95.6H70.3251V96.5H64.5531ZM71.9109 94.256V88.1H72.8829V94.256H71.9109ZM72.3909 96.668C72.1589 96.668 71.9629 96.592 71.8029 96.44C71.6509 96.288 71.5749 96.092 71.5749 95.852C71.5749 95.612 71.6509 95.416 71.8029 95.264C71.9629 95.112 72.1589 95.036 72.3909 95.036C72.6309 95.036 72.8269 95.112 72.9789 95.264C73.1309 95.416 73.2069 95.612 73.2069 95.852C73.2069 96.092 73.1309 96.288 72.9789 96.44C72.8269 96.592 72.6309 96.668 72.3909 96.668ZM74.8141 90.884V90.284H75.1621C75.4501 90.284 75.5941 90.14 75.5941 89.852V89.468H75.4261C75.1941 89.468 74.9981 89.396 74.8381 89.252C74.6861 89.108 74.6101 88.928 74.6101 88.712C74.6101 88.48 74.6861 88.292 74.8381 88.148C74.9981 88.004 75.1941 87.932 75.4261 87.932C75.6581 87.932 75.8501 88.008 76.0021 88.16C76.1541 88.312 76.2301 88.504 76.2301 88.736V89.852C76.2301 90.54 75.8861 90.884 75.1981 90.884H74.8141ZM76.8901 90.884V90.284H77.2381C77.5261 90.284 77.6701 90.14 77.6701 89.852V89.468H77.5021C77.2701 89.468 77.0741 89.396 76.9141 89.252C76.7621 89.108 76.6861 88.928 76.6861 88.712C76.6861 88.48 76.7621 88.292 76.9141 88.148C77.0741 88.004 77.2701 87.932 77.5021 87.932C77.7341 87.932 77.9261 88.008 78.0781 88.16C78.2301 88.312 78.3061 88.504 78.3061 88.736V89.852C78.3061 90.54 77.9621 90.884 77.2741 90.884H76.8901ZM81.0397 96.5V94.052H79.5277V93.224H81.0397V91.376H79.5277V90.548H81.0397V88.1H81.9157V90.548H83.6317V88.1H84.5077V90.548H86.0317V91.376H84.5077V93.224H86.0317V94.052H84.5077V96.5H83.6317V94.052H81.9157V96.5H81.0397ZM81.9157 93.224H83.6317V91.376H81.9157V93.224ZM90.3029 96.668C89.6949 96.668 89.1509 96.56 88.6709 96.344C88.1909 96.128 87.8109 95.804 87.5309 95.372C87.2589 94.932 87.1229 94.384 87.1229 93.728V93.476H88.1189V93.728C88.1189 94.424 88.3229 94.944 88.7309 95.288C89.1389 95.624 89.6629 95.792 90.3029 95.792C90.9589 95.792 91.4589 95.644 91.8029 95.348C92.1469 95.052 92.3189 94.68 92.3189 94.232C92.3189 93.92 92.2429 93.672 92.0909 93.488C91.9389 93.304 91.7229 93.156 91.4429 93.044C91.1629 92.924 90.8349 92.82 90.4589 92.732L89.8229 92.576C89.3349 92.448 88.9029 92.292 88.5269 92.108C88.1509 91.924 87.8549 91.684 87.6389 91.388C87.4309 91.084 87.3269 90.696 87.3269 90.224C87.3269 89.752 87.4469 89.344 87.6869 89C87.9269 88.656 88.2589 88.392 88.6829 88.208C89.1069 88.024 89.6029 87.932 90.1709 87.932C90.7389 87.932 91.2469 88.032 91.6949 88.232C92.1429 88.424 92.4989 88.712 92.7629 89.096C93.0269 89.472 93.1589 89.948 93.1589 90.524V91.028H92.1629V90.524C92.1629 90.116 92.0749 89.788 91.8989 89.54C91.7309 89.292 91.4949 89.108 91.1909 88.988C90.8949 88.868 90.5549 88.808 90.1709 88.808C89.6189 88.808 89.1749 88.932 88.8389 89.18C88.5029 89.42 88.3349 89.764 88.3349 90.212C88.3349 90.508 88.4029 90.748 88.5389 90.932C88.6829 91.116 88.8869 91.268 89.1509 91.388C89.4149 91.5 89.7309 91.6 90.0989 91.688L90.7349 91.844C91.2149 91.948 91.6509 92.092 92.0429 92.276C92.4349 92.452 92.7429 92.696 92.9669 93.008C93.1989 93.312 93.3149 93.712 93.3149 94.208C93.3149 94.704 93.1909 95.136 92.9429 95.504C92.6949 95.872 92.3429 96.16 91.8869 96.368C91.4389 96.568 90.9109 96.668 90.3029 96.668ZM89.8469 97.892V86.708H90.7709V97.892H89.8469ZM17.62 111.668L16.972 111.152L23.656 102.932L24.292 103.448L17.62 111.668ZM22.948 111.656C22.364 111.656 21.896 111.488 21.544 111.152C21.2 110.808 21.028 110.344 21.028 109.76V109.688C21.028 109.104 21.2 108.644 21.544 108.308C21.896 107.964 22.364 107.792 22.948 107.792C23.516 107.792 23.976 107.964 24.328 108.308C24.68 108.644 24.856 109.104 24.856 109.688V109.76C24.856 110.344 24.68 110.808 24.328 111.152C23.984 111.488 23.524 111.656 22.948 111.656ZM22.948 110.96C23.284 110.96 23.548 110.852 23.74 110.636C23.94 110.42 24.04 110.14 24.04 109.796V109.652C24.04 109.3 23.94 109.02 23.74 108.812C23.548 108.596 23.284 108.488 22.948 108.488C22.604 108.488 22.332 108.596 22.132 108.812C21.94 109.02 21.844 109.3 21.844 109.652V109.796C21.844 110.14 21.94 110.42 22.132 110.636C22.332 110.852 22.604 110.96 22.948 110.96ZM18.328 106.808C17.744 106.808 17.28 106.636 16.936 106.292C16.592 105.948 16.42 105.488 16.42 104.912V104.84C16.42 104.256 16.592 103.796 16.936 103.46C17.28 103.116 17.744 102.944 18.328 102.944C18.904 102.944 19.364 103.116 19.708 103.46C20.06 103.796 20.236 104.256 20.236 104.84V104.912C20.236 105.488 20.06 105.948 19.708 106.292C19.364 106.636 18.904 106.808 18.328 106.808ZM18.328 106.112C18.664 106.112 18.932 106.004 19.132 105.788C19.332 105.572 19.432 105.292 19.432 104.948V104.804C19.432 104.452 19.332 104.172 19.132 103.964C18.932 103.748 18.664 103.64 18.328 103.64C17.984 103.64 17.712 103.748 17.512 103.964C17.32 104.172 17.224 104.452 17.224 104.804V104.948C17.224 105.292 17.32 105.572 17.512 105.788C17.712 106.004 17.984 106.112 18.328 106.112ZM28.2695 111.5C27.8055 111.5 27.3855 111.412 27.0095 111.236C26.6335 111.06 26.3375 110.808 26.1215 110.48C25.9055 110.152 25.7975 109.752 25.7975 109.28C25.7975 108.928 25.8655 108.62 26.0015 108.356C26.1375 108.092 26.3135 107.876 26.5295 107.708C26.7535 107.532 26.9895 107.4 27.2375 107.312V107.18C26.8695 107.068 26.5495 106.864 26.2775 106.568C26.0055 106.264 25.8695 105.852 25.8695 105.332C25.8695 104.852 25.9815 104.444 26.2055 104.108C26.4295 103.772 26.7255 103.52 27.0935 103.352C27.4615 103.184 27.8695 103.1 28.3175 103.1H29.8295V103.916H28.4375C27.9895 103.916 27.6095 104.04 27.2975 104.288C26.9935 104.528 26.8415 104.896 26.8415 105.392C26.8415 105.728 26.9135 106.004 27.0575 106.22C27.2095 106.436 27.4055 106.596 27.6455 106.7C27.8855 106.796 28.1495 106.844 28.4375 106.844H30.0935V105.56H31.0415V106.844H32.2175V107.672H31.0415V111.5H28.2695ZM28.3895 110.684H30.0935V107.672H28.3895C27.9335 107.672 27.5455 107.796 27.2255 108.044C26.9135 108.284 26.7575 108.66 26.7575 109.172C26.7575 109.684 26.9175 110.064 27.2375 110.312C27.5655 110.56 27.9495 110.684 28.3895 110.684ZM33.4117 105.884V105.284H33.7597C34.0477 105.284 34.1917 105.14 34.1917 104.852V104.468H34.0237C33.7917 104.468 33.5957 104.396 33.4357 104.252C33.2837 104.108 33.2077 103.928 33.2077 103.712C33.2077 103.48 33.2837 103.292 33.4357 103.148C33.5957 103.004 33.7917 102.932 34.0237 102.932C34.2557 102.932 34.4477 103.008 34.5997 103.16C34.7517 103.312 34.8277 103.504 34.8277 103.736V104.852C34.8277 105.54 34.4837 105.884 33.7957 105.884H33.4117ZM39.9514 114.32C39.1834 114.32 38.5194 114.184 37.9594 113.912C37.4074 113.64 36.9834 113.212 36.6874 112.628C36.3914 112.052 36.2434 111.304 36.2434 110.384V106.496C36.2434 105.568 36.3914 104.816 36.6874 104.24C36.9834 103.664 37.4074 103.24 37.9594 102.968C38.5194 102.696 39.1834 102.56 39.9514 102.56V103.388C38.9994 103.396 38.2954 103.66 37.8394 104.18C37.3834 104.692 37.1554 105.484 37.1554 106.556V110.324C37.1554 111.388 37.3834 112.18 37.8394 112.7C38.2954 113.22 38.9994 113.484 39.9514 113.492V114.32ZM40.377 114.32V113.492C41.345 113.484 42.053 113.22 42.501 112.7C42.949 112.18 43.173 111.388 43.173 110.324V106.556C43.173 105.484 42.949 104.692 42.501 104.18C42.053 103.66 41.345 103.396 40.377 103.388V102.56C41.153 102.56 41.817 102.696 42.369 102.968C42.921 103.24 43.345 103.664 43.641 104.24C43.945 104.816 44.097 105.568 44.097 106.496V110.384C44.097 111.304 43.945 112.052 43.641 112.628C43.345 113.212 42.921 113.64 42.369 113.912C41.817 114.184 41.153 114.32 40.377 114.32ZM45.3804 105.98V105.332H46.4004L47.2284 105.44L47.2884 105.308L46.6164 104.804L45.8964 104.072L46.3524 103.628L47.0724 104.348L47.5884 105.008L47.7204 104.948L47.6124 104.12V103.1H48.2604V104.12L48.1524 104.948L48.2844 105.008L48.8004 104.348L49.5204 103.628L49.9764 104.072L49.2564 104.804L48.5844 105.308L48.6444 105.44L49.4724 105.332H50.4924V105.98H49.4724L48.6444 105.884L48.5844 106.004L49.2564 106.52L49.9764 107.24L49.5204 107.696L48.8004 106.976L48.2844 106.304L48.1524 106.364L48.2604 107.192V108.212H47.6124V107.192L47.7204 106.364L47.5884 106.304L47.0724 106.976L46.3524 107.696L45.8964 107.24L46.6164 106.52L47.2884 106.004L47.2284 105.884L46.4004 105.98H45.3804ZM54.3148 109.82V107.732H52.2508V106.868H54.3148V104.78H55.2268V106.868H57.2908V107.732H55.2268V109.82H54.3148ZM59.3922 113V112.4H59.7402C60.0282 112.4 60.1722 112.256 60.1722 111.968V111.584H60.0042C59.7722 111.584 59.5762 111.512 59.4162 111.368C59.2642 111.224 59.1882 111.044 59.1882 110.828C59.1882 110.596 59.2642 110.408 59.4162 110.264C59.5762 110.12 59.7722 110.048 60.0042 110.048C60.2362 110.048 60.4282 110.124 60.5802 110.276C60.7322 110.428 60.8082 110.62 60.8082 110.852V111.968C60.8082 112.656 60.4642 113 59.7762 113H59.3922ZM62.4519 108.848V107.972H66.0039V108.848H62.4519ZM68.4768 111.668C68.2448 111.668 68.0488 111.592 67.8888 111.44C67.7368 111.288 67.6608 111.092 67.6608 110.852C67.6608 110.612 67.7368 110.416 67.8888 110.264C68.0488 110.112 68.2448 110.036 68.4768 110.036C68.7168 110.036 68.9128 110.112 69.0648 110.264C69.2168 110.416 69.2928 110.612 69.2928 110.852C69.2928 111.092 69.2168 111.288 69.0648 111.44C68.9128 111.592 68.7168 111.668 68.4768 111.668ZM70 113.9L73.528 103.1H74.476L70.948 113.9H70ZM75.9534 111.668C75.7214 111.668 75.5254 111.592 75.3654 111.44C75.2134 111.288 75.1374 111.092 75.1374 110.852C75.1374 110.612 75.2134 110.416 75.3654 110.264C75.5254 110.112 75.7214 110.036 75.9534 110.036C76.1934 110.036 76.3894 110.112 76.5414 110.264C76.6934 110.416 76.7694 110.612 76.7694 110.852C76.7694 111.092 76.6934 111.288 76.5414 111.44C76.3894 111.592 76.1934 111.668 75.9534 111.668ZM75.9534 107.096C75.7214 107.096 75.5254 107.02 75.3654 106.868C75.2134 106.716 75.1374 106.52 75.1374 106.28C75.1374 106.04 75.2134 105.844 75.3654 105.692C75.5254 105.54 75.7214 105.464 75.9534 105.464C76.1934 105.464 76.3894 105.54 76.5414 105.692C76.6934 105.844 76.7694 106.04 76.7694 106.28C76.7694 106.52 76.6934 106.716 76.5414 106.868C76.3894 107.02 76.1934 107.096 75.9534 107.096ZM78.9886 107.096C78.7566 107.096 78.5606 107.02 78.4006 106.868C78.2486 106.716 78.1726 106.52 78.1726 106.28C78.1726 106.04 78.2486 105.844 78.4006 105.692C78.5606 105.54 78.7566 105.464 78.9886 105.464C79.2286 105.464 79.4246 105.54 79.5766 105.692C79.7286 105.844 79.8046 106.04 79.8046 106.28C79.8046 106.52 79.7286 106.716 79.5766 106.868C79.4246 107.02 79.2286 107.096 78.9886 107.096ZM78.3886 113V112.4H78.7366C79.0246 112.4 79.1686 112.256 79.1686 111.968V111.584H79.0006C78.7686 111.584 78.5726 111.512 78.4126 111.368C78.2606 111.224 78.1846 111.044 78.1846 110.828C78.1846 110.596 78.2606 110.408 78.4126 110.264C78.5726 110.12 78.7686 110.048 79.0006 110.048C79.2326 110.048 79.4246 110.124 79.5766 110.276C79.7286 110.428 79.8046 110.62 79.8046 110.852V111.968C79.8046 112.656 79.4606 113 78.7726 113H78.3886ZM86.7517 109.94L81.7117 107.912V106.688L86.7517 104.66V105.668L82.6837 107.228V107.372L86.7517 108.932V109.94ZM89.1531 106.832V105.968H94.1931V106.832H89.1531ZM89.1531 108.632V107.768H94.1931V108.632H89.1531ZM96.5945 109.94V108.932L100.675 107.372V107.228L96.5945 105.668V104.66L101.635 106.688V107.912L96.5945 109.94ZM105.68 109.256V108.524C105.68 108.156 105.748 107.868 105.884 107.66C106.02 107.444 106.26 107.26 106.604 107.108L106.94 106.964C107.356 106.788 107.68 106.58 107.912 106.34C108.144 106.092 108.26 105.748 108.26 105.308C108.26 104.98 108.176 104.704 108.008 104.48C107.84 104.256 107.612 104.084 107.324 103.964C107.036 103.844 106.712 103.784 106.352 103.784C105.992 103.784 105.656 103.848 105.344 103.976C105.04 104.096 104.792 104.284 104.6 104.54C104.416 104.788 104.324 105.104 104.324 105.488V105.908H103.352V105.488C103.352 104.936 103.48 104.472 103.736 104.096C104 103.712 104.356 103.424 104.804 103.232C105.26 103.032 105.776 102.932 106.352 102.932C106.92 102.932 107.42 103.036 107.852 103.244C108.292 103.444 108.632 103.724 108.872 104.084C109.12 104.436 109.244 104.844 109.244 105.308C109.244 105.764 109.156 106.144 108.98 106.448C108.812 106.744 108.592 106.992 108.32 107.192C108.048 107.384 107.748 107.552 107.42 107.696L107.096 107.84C106.944 107.904 106.836 107.988 106.772 108.092C106.708 108.196 106.676 108.344 106.676 108.536V109.256H105.68ZM106.196 111.668C105.956 111.668 105.76 111.592 105.608 111.44C105.456 111.288 105.38 111.092 105.38 110.852C105.38 110.612 105.456 110.416 105.608 110.264C105.76 110.112 105.956 110.036 106.196 110.036C106.428 110.036 106.62 110.112 106.772 110.264C106.932 110.416 107.012 110.612 107.012 110.852C107.012 111.092 106.932 111.288 106.772 111.44C106.62 111.592 106.428 111.668 106.196 111.668ZM22.384 128.9C21.312 128.9 20.364 128.692 19.54 128.276C18.724 127.86 18.084 127.26 17.62 126.476C17.156 125.684 16.924 124.724 16.924 123.596V123.344C16.924 122.224 17.144 121.272 17.584 120.488C18.024 119.696 18.636 119.092 19.42 118.676C20.212 118.26 21.128 118.052 22.168 118.052H22.42C23.412 118.052 24.284 118.256 25.036 118.664C25.788 119.064 26.376 119.636 26.8 120.38C27.224 121.124 27.436 122.016 27.436 123.056V123.464C27.436 124.48 27.248 125.24 26.872 125.744C26.504 126.248 25.98 126.5 25.3 126.5H24.904C24.576 126.5 24.328 126.428 24.16 126.284C23.992 126.132 23.908 125.932 23.908 125.684V125.564H23.74C23.676 125.732 23.572 125.9 23.428 126.068C23.292 126.228 23.104 126.364 22.864 126.476C22.632 126.588 22.332 126.644 21.964 126.644C21.492 126.644 21.068 126.516 20.692 126.26C20.316 126.004 20.02 125.652 19.804 125.204C19.596 124.756 19.492 124.256 19.492 123.704V123.488C19.492 122.92 19.596 122.416 19.804 121.976C20.012 121.536 20.3 121.188 20.668 120.932C21.036 120.676 21.456 120.548 21.928 120.548C22.288 120.548 22.584 120.6 22.816 120.704C23.048 120.8 23.232 120.924 23.368 121.076C23.504 121.228 23.612 121.38 23.692 121.532H23.86V120.692H24.784V125.348C24.784 125.468 24.804 125.552 24.844 125.6C24.892 125.648 24.972 125.672 25.084 125.672H25.228C25.676 125.672 25.996 125.5 26.188 125.156C26.388 124.804 26.488 124.224 26.488 123.416V123.08C26.488 122.192 26.324 121.44 25.996 120.824C25.668 120.2 25.2 119.724 24.592 119.396C23.984 119.068 23.256 118.904 22.408 118.904H22.204C21.332 118.904 20.572 119.072 19.924 119.408C19.276 119.744 18.772 120.244 18.412 120.908C18.052 121.572 17.872 122.396 17.872 123.38V123.572C17.872 124.548 18.06 125.372 18.436 126.044C18.82 126.708 19.356 127.208 20.044 127.544C20.732 127.88 21.528 128.048 22.432 128.048H24.784V128.9H22.384ZM22.144 125.792C22.648 125.792 23.06 125.604 23.38 125.228C23.7 124.852 23.86 124.328 23.86 123.656V123.536C23.86 122.864 23.7 122.34 23.38 121.964C23.06 121.58 22.648 121.388 22.144 121.388C21.64 121.388 21.228 121.58 20.908 121.964C20.588 122.348 20.428 122.868 20.428 123.524V123.668C20.428 124.316 20.588 124.832 20.908 125.216C21.228 125.6 21.64 125.792 22.144 125.792ZM30.2484 129.32C29.9684 129.32 29.7404 129.228 29.5644 129.044C29.3964 128.868 29.3124 128.644 29.3124 128.372V118.508C29.3124 118.236 29.3964 118.012 29.5644 117.836C29.7404 117.652 29.9684 117.56 30.2484 117.56H32.1084V118.388H30.5484C30.3324 118.388 30.2244 118.508 30.2244 118.748V128.132C30.2244 128.372 30.3324 128.492 30.5484 128.492H32.1084V129.32H30.2484ZM35.8279 128.9L32.2999 118.1H33.2599L36.7879 128.9H35.8279ZM37.0053 129.32V128.492H38.5653C38.7813 128.492 38.8893 128.372 38.8893 128.132V118.748C38.8893 118.508 38.7813 118.388 38.5653 118.388H37.0053V117.56H38.8773C39.1493 117.56 39.3693 117.652 39.5373 117.836C39.7133 118.012 39.8013 118.236 39.8013 118.508V128.372C39.8013 128.644 39.7133 128.868 39.5373 129.044C39.3693 129.228 39.1493 129.32 38.8773 129.32H37.0053ZM41.6849 121.412L43.7729 118.1H45.2609L47.3489 121.412H46.2209L44.5889 118.748H44.4449L42.8249 121.412H41.6849ZM49.1623 127.964V127.088H54.7543V127.964H49.1623ZM57.4797 119.744L56.3277 118.1H57.4797L58.3917 119.744H57.4797ZM62.127 129.32C61.863 129.32 61.639 129.228 61.455 129.044C61.279 128.868 61.191 128.644 61.191 128.372V124.496C61.191 124.096 60.975 123.896 60.543 123.896H59.511V122.984H60.543C60.975 122.984 61.191 122.784 61.191 122.384V118.508C61.191 118.236 61.279 118.012 61.455 117.836C61.639 117.652 61.863 117.56 62.127 117.56H63.999V118.388H62.439C62.223 118.388 62.115 118.508 62.115 118.748V122.396C62.115 122.684 62.035 122.916 61.875 123.092C61.723 123.268 61.507 123.356 61.227 123.356H61.143V123.524H61.227C61.507 123.524 61.723 123.612 61.875 123.788C62.035 123.964 62.115 124.196 62.115 124.484V128.132C62.115 128.372 62.223 128.492 62.439 128.492H63.999V129.32H62.127ZM65.1827 129.452V116.828H66.1307V129.452H65.1827ZM67.3335 129.32V128.492H68.8935C69.1095 128.492 69.2175 128.372 69.2175 128.132V124.484C69.2175 124.196 69.2935 123.964 69.4455 123.788C69.6055 123.612 69.8255 123.524 70.1055 123.524H70.1895V123.356H70.1055C69.8255 123.356 69.6055 123.268 69.4455 123.092C69.2935 122.916 69.2175 122.684 69.2175 122.396V118.748C69.2175 118.508 69.1095 118.388 68.8935 118.388H67.3335V117.56H69.2055C69.4695 117.56 69.6895 117.652 69.8655 117.836C70.0415 118.012 70.1295 118.236 70.1295 118.508V122.384C70.1295 122.784 70.3455 122.984 70.7775 122.984H71.8215V123.896H70.7775C70.3455 123.896 70.1295 124.096 70.1295 124.496V128.372C70.1295 128.644 70.0415 128.868 69.8655 129.044C69.6895 129.228 69.4695 129.32 69.2055 129.32H67.3335ZM73.8452 123.272L73.2812 122.588L74.3972 121.712C74.5412 121.592 74.6892 121.488 74.8412 121.4C74.9932 121.312 75.1652 121.268 75.3572 121.268C75.5892 121.268 75.7732 121.328 75.9092 121.448C76.0452 121.568 76.1732 121.72 76.2932 121.904C76.3812 122.04 76.4532 122.144 76.5092 122.216C76.5732 122.288 76.6572 122.324 76.7612 122.324C76.8492 122.324 76.9252 122.308 76.9892 122.276C77.0532 122.236 77.1212 122.184 77.1932 122.12L78.1652 121.328L78.7172 122.012L77.6012 122.888C77.4652 123 77.3212 123.104 77.1692 123.2C77.0172 123.288 76.8412 123.332 76.6412 123.332C76.4092 123.332 76.2252 123.272 76.0892 123.152C75.9612 123.032 75.8372 122.88 75.7172 122.696C75.6292 122.552 75.5572 122.448 75.5012 122.384C75.4452 122.312 75.3612 122.276 75.2492 122.276C75.1612 122.276 75.0852 122.296 75.0212 122.336C74.9652 122.368 74.8972 122.416 74.8172 122.48L73.8452 123.272Z" fill="white"/>
</svg>
