<svg width="512" height="512" viewBox="0 0 512 512" fill="none" xmlns="http://www.w3.org/2000/svg">
<circle cx="256" cy="256" r="256" fill="black"/>
<path fill-rule="evenodd" clip-rule="evenodd" d="M191.337 362.718C191.337 365.576 192.862 368.217 195.337 369.646L252 402.361C254.475 403.79 257.525 403.79 260 402.361L316.106 369.968C318.568 368.546 320.091 365.925 320.106 363.082L320.449 298.235C320.464 295.392 321.987 292.771 324.449 291.349L380 259.277C382.475 257.848 384 255.207 384 252.349V187.587C384 184.728 382.475 182.087 380 180.658L324.104 148.387C321.636 146.962 318.596 146.958 316.123 148.376L260.166 180.477C257.687 181.9 254.637 181.891 252.165 180.455L196.462 148.083C193.983 146.643 190.924 146.638 188.442 148.072L132 180.658C129.525 182.087 128 184.728 128 187.587V252.586C128 255.422 129.501 258.045 131.946 259.482L187.391 292.077C189.836 293.514 191.337 296.138 191.337 298.973V362.718Z" fill="white"/>
</svg>
